G04*
G04 #@! TF.GenerationSoftware,Altium Limited,Altium Designer,18.1.11 (251)*
G04*
G04 Layer_Color=32896*
%FSLAX25Y25*%
%MOIN*%
G70*
G01*
G75*
%ADD10C,0.01575*%
%ADD11C,0.00394*%
%ADD12C,0.00591*%
%ADD13C,0.00787*%
%ADD14C,0.00984*%
G36*
X14833Y41731D02*
X14902Y41718D01*
X14964Y41699D01*
X15017Y41675D01*
X15056Y41649D01*
X15086Y41630D01*
X15105Y41616D01*
X15112Y41610D01*
X15158Y41561D01*
X15191Y41505D01*
X15217Y41452D01*
X15233Y41403D01*
X15243Y41357D01*
X15246Y41324D01*
X15250Y41311D01*
Y41302D01*
Y41295D01*
Y41292D01*
X15243Y41223D01*
X15227Y41161D01*
X15207Y41108D01*
X15181Y41059D01*
X15155Y41023D01*
X15135Y40993D01*
X15118Y40977D01*
X15112Y40970D01*
X15056Y40928D01*
X14997Y40895D01*
X14938Y40875D01*
X14882Y40859D01*
X14830Y40849D01*
X14810Y40846D01*
X14790D01*
X14774Y40842D01*
X14754D01*
X14676Y40849D01*
X14603Y40862D01*
X14541Y40885D01*
X14489Y40908D01*
X14449Y40931D01*
X14420Y40954D01*
X14400Y40967D01*
X14393Y40974D01*
X14348Y41026D01*
X14315Y41082D01*
X14289Y41138D01*
X14272Y41190D01*
X14262Y41236D01*
X14259Y41272D01*
X14256Y41285D01*
Y41295D01*
Y41302D01*
Y41305D01*
X14262Y41370D01*
X14279Y41433D01*
X14298Y41485D01*
X14325Y41528D01*
X14351Y41564D01*
X14371Y41590D01*
X14387Y41607D01*
X14393Y41613D01*
X14449Y41656D01*
X14508Y41685D01*
X14567Y41708D01*
X14626Y41721D01*
X14676Y41731D01*
X14699Y41734D01*
X14718D01*
X14731Y41738D01*
X14754D01*
X14833Y41731D01*
D02*
G37*
G36*
X18700Y37697D02*
X17933D01*
Y38015D01*
X17874Y37953D01*
X17811Y37897D01*
X17742Y37848D01*
X17673Y37808D01*
X17601Y37772D01*
X17529Y37746D01*
X17457Y37720D01*
X17388Y37703D01*
X17323Y37687D01*
X17264Y37677D01*
X17208Y37667D01*
X17162Y37664D01*
X17122Y37661D01*
X17093Y37657D01*
X17067D01*
X16995Y37661D01*
X16926Y37664D01*
X16794Y37684D01*
X16732Y37697D01*
X16673Y37713D01*
X16621Y37730D01*
X16571Y37746D01*
X16525Y37759D01*
X16486Y37776D01*
X16450Y37792D01*
X16421Y37805D01*
X16398Y37815D01*
X16378Y37825D01*
X16368Y37828D01*
X16365Y37831D01*
X16306Y37867D01*
X16253Y37903D01*
X16201Y37943D01*
X16155Y37986D01*
X16109Y38025D01*
X16070Y38067D01*
X16034Y38107D01*
X15997Y38146D01*
X15968Y38186D01*
X15942Y38218D01*
X15922Y38251D01*
X15902Y38277D01*
X15889Y38300D01*
X15879Y38317D01*
X15873Y38327D01*
X15869Y38330D01*
X15837Y38392D01*
X15811Y38454D01*
X15784Y38517D01*
X15765Y38583D01*
X15732Y38707D01*
X15722Y38766D01*
X15712Y38825D01*
X15706Y38878D01*
X15699Y38927D01*
X15696Y38969D01*
X15692Y39006D01*
X15689Y39035D01*
Y39058D01*
Y39075D01*
Y39078D01*
X15692Y39156D01*
X15696Y39232D01*
X15706Y39304D01*
X15719Y39373D01*
X15732Y39439D01*
X15745Y39501D01*
X15761Y39557D01*
X15778Y39609D01*
X15797Y39658D01*
X15814Y39698D01*
X15827Y39737D01*
X15840Y39766D01*
X15853Y39790D01*
X15863Y39809D01*
X15866Y39819D01*
X15869Y39822D01*
X15906Y39881D01*
X15942Y39937D01*
X15981Y39986D01*
X16024Y40036D01*
X16063Y40081D01*
X16106Y40121D01*
X16145Y40160D01*
X16184Y40193D01*
X16220Y40222D01*
X16256Y40249D01*
X16286Y40272D01*
X16312Y40288D01*
X16335Y40301D01*
X16352Y40314D01*
X16362Y40318D01*
X16365Y40321D01*
X16424Y40354D01*
X16486Y40380D01*
X16545Y40406D01*
X16608Y40426D01*
X16726Y40459D01*
X16781Y40468D01*
X16834Y40478D01*
X16883Y40485D01*
X16929Y40491D01*
X16968Y40495D01*
X17001Y40498D01*
X17027Y40501D01*
X17067D01*
X17162Y40498D01*
X17254Y40488D01*
X17339Y40472D01*
X17418Y40449D01*
X17493Y40422D01*
X17562Y40396D01*
X17624Y40367D01*
X17680Y40334D01*
X17729Y40304D01*
X17772Y40272D01*
X17811Y40245D01*
X17841Y40219D01*
X17864Y40196D01*
X17883Y40180D01*
X17893Y40170D01*
X17897Y40167D01*
Y41505D01*
X18700D01*
Y37697D01*
D02*
G37*
G36*
X23683Y41348D02*
X23778Y41341D01*
X23873Y41331D01*
X23961Y41315D01*
X24043Y41298D01*
X24122Y41279D01*
X24197Y41259D01*
X24263Y41239D01*
X24325Y41216D01*
X24378Y41197D01*
X24427Y41177D01*
X24466Y41161D01*
X24496Y41144D01*
X24519Y41134D01*
X24535Y41128D01*
X24539Y41124D01*
X24614Y41082D01*
X24686Y41033D01*
X24752Y40980D01*
X24814Y40928D01*
X24870Y40872D01*
X24926Y40816D01*
X24972Y40764D01*
X25017Y40711D01*
X25057Y40659D01*
X25090Y40613D01*
X25119Y40570D01*
X25142Y40534D01*
X25162Y40505D01*
X25175Y40482D01*
X25181Y40468D01*
X25185Y40462D01*
X25224Y40380D01*
X25260Y40291D01*
X25290Y40203D01*
X25316Y40114D01*
X25339Y40026D01*
X25359Y39940D01*
X25375Y39855D01*
X25385Y39776D01*
X25395Y39701D01*
X25401Y39632D01*
X25408Y39570D01*
X25411Y39517D01*
X25414Y39475D01*
Y39442D01*
Y39432D01*
Y39422D01*
Y39419D01*
Y39416D01*
X25411Y39261D01*
X25395Y39114D01*
X25375Y38976D01*
X25349Y38848D01*
X25316Y38730D01*
X25280Y38622D01*
X25240Y38523D01*
X25201Y38435D01*
X25162Y38356D01*
X25122Y38287D01*
X25086Y38232D01*
X25054Y38182D01*
X25027Y38146D01*
X25008Y38120D01*
X24991Y38104D01*
X24988Y38097D01*
X24906Y38015D01*
X24814Y37946D01*
X24719Y37884D01*
X24624Y37831D01*
X24525Y37789D01*
X24427Y37749D01*
X24332Y37720D01*
X24237Y37697D01*
X24148Y37677D01*
X24069Y37661D01*
X23994Y37651D01*
X23932Y37644D01*
X23879Y37641D01*
X23860D01*
X23840Y37638D01*
X23807D01*
X23735Y37641D01*
X23669Y37644D01*
X23538Y37661D01*
X23479Y37671D01*
X23423Y37684D01*
X23368Y37697D01*
X23318Y37710D01*
X23276Y37723D01*
X23236Y37736D01*
X23200Y37749D01*
X23171Y37759D01*
X23148Y37769D01*
X23131Y37776D01*
X23122Y37782D01*
X23118D01*
X23007Y37841D01*
X22958Y37874D01*
X22908Y37907D01*
X22866Y37943D01*
X22826Y37979D01*
X22790Y38012D01*
X22754Y38045D01*
X22725Y38077D01*
X22698Y38104D01*
X22679Y38130D01*
X22659Y38153D01*
X22646Y38172D01*
X22636Y38186D01*
X22630Y38195D01*
X22626Y38199D01*
X22593Y38251D01*
X22567Y38304D01*
X22541Y38359D01*
X22521Y38412D01*
X22489Y38520D01*
X22469Y38618D01*
X22462Y38661D01*
X22456Y38704D01*
X22453Y38740D01*
X22449Y38773D01*
X22446Y38796D01*
Y38815D01*
Y38828D01*
Y38832D01*
X22449Y38894D01*
X22453Y38953D01*
X22472Y39061D01*
X22485Y39114D01*
X22498Y39163D01*
X22512Y39206D01*
X22528Y39248D01*
X22544Y39284D01*
X22557Y39317D01*
X22571Y39347D01*
X22584Y39370D01*
X22593Y39389D01*
X22603Y39406D01*
X22607Y39412D01*
X22610Y39416D01*
X22675Y39507D01*
X22748Y39586D01*
X22823Y39652D01*
X22895Y39707D01*
X22961Y39753D01*
X22987Y39770D01*
X23013Y39783D01*
X23033Y39796D01*
X23046Y39803D01*
X23056Y39809D01*
X23059D01*
X23112Y39835D01*
X23167Y39855D01*
X23276Y39891D01*
X23381Y39917D01*
X23430Y39924D01*
X23479Y39934D01*
X23522Y39937D01*
X23561Y39944D01*
X23597Y39947D01*
X23627D01*
X23653Y39950D01*
X23686D01*
X23791Y39947D01*
X23889Y39937D01*
X23981Y39921D01*
X24066Y39901D01*
X24145Y39878D01*
X24217Y39849D01*
X24283Y39822D01*
X24345Y39793D01*
X24397Y39760D01*
X24443Y39734D01*
X24483Y39707D01*
X24516Y39681D01*
X24542Y39662D01*
X24558Y39645D01*
X24571Y39635D01*
X24575Y39632D01*
X24568Y39724D01*
X24555Y39812D01*
X24539Y39891D01*
X24519Y39967D01*
X24496Y40036D01*
X24473Y40101D01*
X24447Y40157D01*
X24420Y40209D01*
X24397Y40255D01*
X24371Y40295D01*
X24348Y40331D01*
X24329Y40357D01*
X24309Y40380D01*
X24296Y40393D01*
X24289Y40403D01*
X24286Y40406D01*
X24234Y40452D01*
X24178Y40495D01*
X24119Y40531D01*
X24060Y40560D01*
X23997Y40587D01*
X23938Y40609D01*
X23879Y40626D01*
X23823Y40642D01*
X23768Y40652D01*
X23719Y40662D01*
X23676Y40668D01*
X23637Y40672D01*
X23604D01*
X23581Y40675D01*
X23561D01*
X23486Y40672D01*
X23417Y40668D01*
X23348Y40659D01*
X23286Y40646D01*
X23223Y40633D01*
X23171Y40619D01*
X23118Y40603D01*
X23072Y40587D01*
X23030Y40567D01*
X22994Y40551D01*
X22964Y40537D01*
X22938Y40524D01*
X22915Y40511D01*
X22902Y40501D01*
X22892Y40498D01*
X22889Y40495D01*
X22580Y41105D01*
X22652Y41147D01*
X22728Y41184D01*
X22803Y41213D01*
X22872Y41239D01*
X22935Y41259D01*
X22961Y41269D01*
X22984Y41275D01*
X23004Y41279D01*
X23017Y41282D01*
X23027Y41285D01*
X23030D01*
X23128Y41308D01*
X23227Y41324D01*
X23322Y41334D01*
X23404Y41344D01*
X23443D01*
X23476Y41348D01*
X23505D01*
X23532Y41351D01*
X23581D01*
X23683Y41348D01*
D02*
G37*
G36*
X21016Y41344D02*
X21147Y41328D01*
X21206Y41318D01*
X21265Y41305D01*
X21318Y41292D01*
X21367Y41279D01*
X21413Y41262D01*
X21452Y41249D01*
X21485Y41236D01*
X21514Y41226D01*
X21537Y41216D01*
X21557Y41210D01*
X21567Y41206D01*
X21570Y41203D01*
X21682Y41144D01*
X21731Y41111D01*
X21777Y41078D01*
X21823Y41043D01*
X21862Y41010D01*
X21898Y40974D01*
X21934Y40941D01*
X21964Y40908D01*
X21990Y40882D01*
X22010Y40856D01*
X22029Y40832D01*
X22042Y40813D01*
X22052Y40800D01*
X22059Y40790D01*
X22062Y40787D01*
X22092Y40734D01*
X22121Y40682D01*
X22144Y40626D01*
X22164Y40573D01*
X22197Y40468D01*
X22216Y40370D01*
X22223Y40324D01*
X22229Y40285D01*
X22233Y40249D01*
X22236Y40216D01*
X22239Y40193D01*
Y40173D01*
Y40160D01*
Y40157D01*
X22236Y40095D01*
X22233Y40036D01*
X22213Y39924D01*
X22200Y39871D01*
X22187Y39822D01*
X22174Y39776D01*
X22157Y39737D01*
X22141Y39698D01*
X22128Y39665D01*
X22115Y39635D01*
X22102Y39612D01*
X22092Y39593D01*
X22082Y39580D01*
X22079Y39570D01*
X22075Y39566D01*
X22010Y39478D01*
X21937Y39399D01*
X21862Y39330D01*
X21790Y39274D01*
X21728Y39232D01*
X21698Y39212D01*
X21675Y39199D01*
X21655Y39189D01*
X21642Y39179D01*
X21632Y39176D01*
X21629Y39173D01*
X21521Y39127D01*
X21413Y39094D01*
X21308Y39068D01*
X21259Y39061D01*
X21209Y39051D01*
X21167Y39048D01*
X21127Y39042D01*
X21091Y39038D01*
X21062D01*
X21035Y39035D01*
X21003D01*
X20898Y39038D01*
X20799Y39048D01*
X20707Y39065D01*
X20622Y39088D01*
X20543Y39110D01*
X20468Y39137D01*
X20403Y39166D01*
X20340Y39199D01*
X20288Y39229D01*
X20238Y39258D01*
X20199Y39284D01*
X20166Y39311D01*
X20140Y39330D01*
X20124Y39347D01*
X20111Y39356D01*
X20107Y39360D01*
X20114Y39268D01*
X20127Y39179D01*
X20143Y39101D01*
X20163Y39022D01*
X20183Y38953D01*
X20209Y38891D01*
X20235Y38832D01*
X20261Y38779D01*
X20284Y38733D01*
X20311Y38691D01*
X20334Y38658D01*
X20353Y38628D01*
X20370Y38609D01*
X20383Y38592D01*
X20393Y38583D01*
X20396Y38579D01*
X20448Y38533D01*
X20504Y38491D01*
X20560Y38454D01*
X20622Y38425D01*
X20681Y38399D01*
X20740Y38376D01*
X20799Y38359D01*
X20858Y38343D01*
X20911Y38333D01*
X20960Y38323D01*
X21006Y38320D01*
X21045Y38313D01*
X21078D01*
X21101Y38310D01*
X21121D01*
X21196Y38313D01*
X21268Y38317D01*
X21334Y38327D01*
X21400Y38340D01*
X21459Y38353D01*
X21514Y38366D01*
X21564Y38382D01*
X21610Y38402D01*
X21652Y38418D01*
X21688Y38435D01*
X21721Y38448D01*
X21747Y38461D01*
X21767Y38474D01*
X21780Y38484D01*
X21790Y38487D01*
X21793Y38491D01*
X22102Y37881D01*
X22029Y37838D01*
X21954Y37802D01*
X21879Y37772D01*
X21810Y37746D01*
X21747Y37726D01*
X21721Y37720D01*
X21698Y37713D01*
X21682Y37707D01*
X21668Y37703D01*
X21659Y37700D01*
X21655D01*
X21557Y37681D01*
X21459Y37664D01*
X21367Y37654D01*
X21282Y37644D01*
X21242D01*
X21209Y37641D01*
X21180D01*
X21154Y37638D01*
X21104D01*
X21003Y37641D01*
X20908Y37648D01*
X20812Y37657D01*
X20724Y37674D01*
X20639Y37690D01*
X20560Y37710D01*
X20488Y37730D01*
X20419Y37749D01*
X20360Y37769D01*
X20304Y37792D01*
X20255Y37808D01*
X20215Y37825D01*
X20186Y37841D01*
X20163Y37851D01*
X20147Y37858D01*
X20143Y37861D01*
X20068Y37907D01*
X19996Y37956D01*
X19930Y38005D01*
X19868Y38061D01*
X19809Y38113D01*
X19756Y38169D01*
X19710Y38225D01*
X19665Y38277D01*
X19628Y38327D01*
X19592Y38372D01*
X19566Y38415D01*
X19543Y38451D01*
X19523Y38481D01*
X19510Y38504D01*
X19504Y38520D01*
X19500Y38523D01*
X19461Y38609D01*
X19425Y38694D01*
X19396Y38783D01*
X19366Y38871D01*
X19346Y38960D01*
X19327Y39045D01*
X19310Y39130D01*
X19300Y39209D01*
X19290Y39284D01*
X19284Y39353D01*
X19277Y39416D01*
X19274Y39468D01*
X19271Y39511D01*
Y39544D01*
Y39553D01*
Y39563D01*
Y39566D01*
Y39570D01*
X19274Y39727D01*
X19290Y39875D01*
X19310Y40012D01*
X19336Y40140D01*
X19369Y40258D01*
X19405Y40367D01*
X19445Y40465D01*
X19484Y40554D01*
X19523Y40633D01*
X19563Y40701D01*
X19599Y40760D01*
X19632Y40806D01*
X19658Y40842D01*
X19678Y40872D01*
X19694Y40885D01*
X19697Y40892D01*
X19779Y40974D01*
X19871Y41043D01*
X19963Y41105D01*
X20061Y41157D01*
X20160Y41203D01*
X20258Y41239D01*
X20353Y41269D01*
X20448Y41295D01*
X20537Y41311D01*
X20616Y41328D01*
X20691Y41338D01*
X20753Y41344D01*
X20806Y41348D01*
X20826D01*
X20845Y41351D01*
X20947D01*
X21016Y41344D01*
D02*
G37*
G36*
X38744Y37697D02*
X37895D01*
X37576Y38464D01*
X35907D01*
X35586Y37697D01*
X34713D01*
X36320Y41292D01*
X37144D01*
X38744Y37697D01*
D02*
G37*
G36*
X28940Y40623D02*
X28219D01*
Y37697D01*
X27389D01*
Y41292D01*
X28940D01*
Y40623D01*
D02*
G37*
G36*
X15155Y37697D02*
X14351D01*
Y40459D01*
X15155D01*
Y37697D01*
D02*
G37*
G36*
X26362Y38645D02*
X26431Y38628D01*
X26493Y38609D01*
X26546Y38583D01*
X26588Y38556D01*
X26618Y38537D01*
X26638Y38520D01*
X26641Y38517D01*
X26644Y38514D01*
X26671Y38487D01*
X26690Y38461D01*
X26726Y38402D01*
X26749Y38343D01*
X26769Y38284D01*
X26779Y38235D01*
X26782Y38212D01*
Y38192D01*
X26785Y38179D01*
Y38166D01*
Y38159D01*
Y38156D01*
X26782Y38117D01*
X26779Y38081D01*
X26762Y38012D01*
X26739Y37949D01*
X26713Y37897D01*
X26690Y37854D01*
X26667Y37825D01*
X26651Y37805D01*
X26644Y37802D01*
Y37799D01*
X26615Y37772D01*
X26588Y37753D01*
X26526Y37716D01*
X26467Y37694D01*
X26411Y37674D01*
X26362Y37664D01*
X26339Y37661D01*
X26323D01*
X26307Y37657D01*
X26287D01*
X26247Y37661D01*
X26211Y37664D01*
X26142Y37681D01*
X26083Y37703D01*
X26031Y37730D01*
X25988Y37753D01*
X25959Y37776D01*
X25939Y37792D01*
X25932Y37799D01*
X25906Y37828D01*
X25883Y37854D01*
X25850Y37917D01*
X25824Y37976D01*
X25805Y38031D01*
X25795Y38081D01*
X25791Y38104D01*
Y38120D01*
X25788Y38136D01*
Y38146D01*
Y38153D01*
Y38156D01*
Y38195D01*
X25795Y38235D01*
X25811Y38307D01*
X25834Y38366D01*
X25860Y38418D01*
X25887Y38458D01*
X25910Y38491D01*
X25926Y38507D01*
X25929Y38514D01*
X25932D01*
X25988Y38559D01*
X26047Y38592D01*
X26106Y38618D01*
X26162Y38635D01*
X26211Y38645D01*
X26234Y38648D01*
X26251D01*
X26267Y38651D01*
X26287D01*
X26362Y38645D01*
D02*
G37*
G36*
X12672Y40498D02*
X12740Y40491D01*
X12803Y40485D01*
X12865Y40475D01*
X12921Y40465D01*
X12973Y40455D01*
X13019Y40446D01*
X13065Y40432D01*
X13101Y40422D01*
X13137Y40413D01*
X13163Y40406D01*
X13186Y40396D01*
X13203Y40393D01*
X13213Y40386D01*
X13216D01*
X13318Y40341D01*
X13406Y40291D01*
X13446Y40265D01*
X13482Y40239D01*
X13514Y40213D01*
X13544Y40186D01*
X13570Y40163D01*
X13593Y40140D01*
X13613Y40121D01*
X13629Y40104D01*
X13642Y40091D01*
X13652Y40081D01*
X13656Y40075D01*
X13659Y40072D01*
X13685Y40032D01*
X13708Y39993D01*
X13747Y39914D01*
X13774Y39835D01*
X13790Y39763D01*
X13796Y39731D01*
X13803Y39701D01*
X13806Y39671D01*
Y39652D01*
X13810Y39632D01*
Y39619D01*
Y39609D01*
Y39606D01*
X13806Y39550D01*
X13803Y39494D01*
X13793Y39445D01*
X13783Y39399D01*
X13774Y39356D01*
X13757Y39317D01*
X13744Y39281D01*
X13728Y39248D01*
X13714Y39219D01*
X13698Y39193D01*
X13685Y39173D01*
X13675Y39156D01*
X13662Y39140D01*
X13656Y39130D01*
X13652Y39127D01*
X13649Y39124D01*
X13587Y39065D01*
X13521Y39015D01*
X13455Y38973D01*
X13396Y38940D01*
X13344Y38914D01*
X13321Y38904D01*
X13301Y38897D01*
X13285Y38891D01*
X13275Y38888D01*
X13269Y38884D01*
X13265D01*
X13177Y38861D01*
X13085Y38838D01*
X12990Y38819D01*
X12901Y38802D01*
X12862Y38796D01*
X12822Y38789D01*
X12790Y38783D01*
X12760Y38779D01*
X12737Y38776D01*
X12721Y38773D01*
X12708Y38769D01*
X12704D01*
X12652Y38763D01*
X12603Y38756D01*
X12557Y38746D01*
X12517Y38740D01*
X12478Y38733D01*
X12442Y38727D01*
X12412Y38717D01*
X12383Y38710D01*
X12357Y38704D01*
X12337Y38701D01*
X12317Y38694D01*
X12304Y38691D01*
X12291Y38687D01*
X12285Y38684D01*
X12278Y38681D01*
X12232Y38661D01*
X12199Y38635D01*
X12173Y38605D01*
X12157Y38579D01*
X12147Y38553D01*
X12143Y38533D01*
X12140Y38520D01*
Y38514D01*
X12147Y38468D01*
X12163Y38432D01*
X12186Y38396D01*
X12219Y38369D01*
X12258Y38343D01*
X12301Y38323D01*
X12347Y38307D01*
X12393Y38294D01*
X12488Y38274D01*
X12530Y38268D01*
X12570Y38264D01*
X12603D01*
X12626Y38261D01*
X12649D01*
X12744Y38264D01*
X12835Y38271D01*
X12921Y38284D01*
X13000Y38297D01*
X13036Y38304D01*
X13068Y38310D01*
X13095Y38317D01*
X13118Y38323D01*
X13137Y38327D01*
X13150Y38330D01*
X13160Y38333D01*
X13163D01*
X13255Y38363D01*
X13344Y38396D01*
X13419Y38428D01*
X13485Y38458D01*
X13511Y38471D01*
X13537Y38484D01*
X13557Y38497D01*
X13577Y38507D01*
X13590Y38517D01*
X13600Y38520D01*
X13606Y38527D01*
X13610D01*
X13875Y37953D01*
X13796Y37907D01*
X13711Y37864D01*
X13626Y37828D01*
X13541Y37799D01*
X13505Y37785D01*
X13468Y37772D01*
X13436Y37762D01*
X13409Y37756D01*
X13386Y37749D01*
X13367Y37743D01*
X13357Y37740D01*
X13354D01*
X13229Y37713D01*
X13108Y37694D01*
X12993Y37677D01*
X12941Y37671D01*
X12891Y37667D01*
X12845Y37664D01*
X12806Y37661D01*
X12767D01*
X12737Y37657D01*
X12678D01*
X12534Y37661D01*
X12465Y37667D01*
X12399Y37674D01*
X12337Y37684D01*
X12281Y37690D01*
X12225Y37700D01*
X12176Y37713D01*
X12134Y37723D01*
X12094Y37733D01*
X12061Y37740D01*
X12032Y37749D01*
X12009Y37756D01*
X11992Y37762D01*
X11983Y37766D01*
X11979D01*
X11924Y37789D01*
X11874Y37812D01*
X11829Y37835D01*
X11783Y37861D01*
X11743Y37884D01*
X11707Y37910D01*
X11671Y37936D01*
X11642Y37959D01*
X11615Y37982D01*
X11592Y38005D01*
X11573Y38025D01*
X11560Y38041D01*
X11547Y38054D01*
X11537Y38064D01*
X11533Y38071D01*
X11530Y38074D01*
X11504Y38113D01*
X11478Y38153D01*
X11441Y38232D01*
X11412Y38307D01*
X11396Y38379D01*
X11383Y38441D01*
X11379Y38468D01*
Y38491D01*
X11376Y38507D01*
Y38523D01*
Y38530D01*
Y38533D01*
X11379Y38589D01*
X11383Y38642D01*
X11389Y38687D01*
X11402Y38733D01*
X11412Y38776D01*
X11425Y38815D01*
X11441Y38851D01*
X11455Y38884D01*
X11471Y38910D01*
X11484Y38937D01*
X11501Y38956D01*
X11510Y38973D01*
X11520Y38989D01*
X11530Y38999D01*
X11533Y39002D01*
X11537Y39006D01*
X11599Y39065D01*
X11661Y39114D01*
X11724Y39153D01*
X11783Y39186D01*
X11835Y39209D01*
X11855Y39219D01*
X11874Y39225D01*
X11891Y39232D01*
X11901Y39235D01*
X11907Y39238D01*
X11911D01*
X11996Y39261D01*
X12088Y39284D01*
X12179Y39307D01*
X12268Y39324D01*
X12307Y39330D01*
X12347Y39340D01*
X12380Y39343D01*
X12409Y39350D01*
X12432Y39353D01*
X12449Y39356D01*
X12462Y39360D01*
X12465D01*
X12521Y39370D01*
X12570Y39376D01*
X12616Y39386D01*
X12662Y39393D01*
X12701Y39402D01*
X12737Y39409D01*
X12770Y39419D01*
X12796Y39425D01*
X12822Y39432D01*
X12845Y39439D01*
X12862Y39442D01*
X12878Y39445D01*
X12888Y39452D01*
X12898D01*
X12901Y39455D01*
X12904D01*
X12950Y39478D01*
X12983Y39504D01*
X13009Y39534D01*
X13026Y39566D01*
X13036Y39593D01*
X13039Y39616D01*
X13042Y39629D01*
Y39635D01*
X13036Y39678D01*
X13023Y39714D01*
X13003Y39744D01*
X12977Y39773D01*
X12954Y39793D01*
X12934Y39809D01*
X12921Y39819D01*
X12914Y39822D01*
X12862Y39845D01*
X12799Y39865D01*
X12737Y39878D01*
X12675Y39885D01*
X12619Y39891D01*
X12593D01*
X12573Y39894D01*
X12530D01*
X12449Y39891D01*
X12373Y39885D01*
X12298Y39875D01*
X12222Y39862D01*
X12153Y39845D01*
X12088Y39829D01*
X12025Y39809D01*
X11970Y39793D01*
X11917Y39773D01*
X11871Y39753D01*
X11832Y39737D01*
X11796Y39721D01*
X11769Y39707D01*
X11750Y39698D01*
X11737Y39691D01*
X11733Y39688D01*
X11468Y40258D01*
X11543Y40298D01*
X11622Y40334D01*
X11704Y40363D01*
X11779Y40390D01*
X11815Y40400D01*
X11848Y40409D01*
X11878Y40416D01*
X11901Y40422D01*
X11920Y40429D01*
X11937Y40432D01*
X11947Y40436D01*
X11950D01*
X12058Y40459D01*
X12163Y40475D01*
X12262Y40485D01*
X12307Y40488D01*
X12347Y40495D01*
X12386D01*
X12422Y40498D01*
X12455D01*
X12481Y40501D01*
X12530D01*
X12672Y40498D01*
D02*
G37*
G36*
X40424Y41344D02*
X40506Y41338D01*
X40584Y41328D01*
X40657Y41318D01*
X40725Y41305D01*
X40791Y41292D01*
X40847Y41279D01*
X40899Y41262D01*
X40945Y41249D01*
X40984Y41236D01*
X41017Y41226D01*
X41043Y41216D01*
X41063Y41210D01*
X41076Y41206D01*
X41080Y41203D01*
X41142Y41174D01*
X41201Y41144D01*
X41253Y41111D01*
X41303Y41078D01*
X41349Y41046D01*
X41391Y41010D01*
X41431Y40977D01*
X41463Y40947D01*
X41493Y40918D01*
X41519Y40888D01*
X41542Y40862D01*
X41559Y40842D01*
X41572Y40826D01*
X41585Y40810D01*
X41588Y40803D01*
X41591Y40800D01*
X41621Y40751D01*
X41647Y40701D01*
X41670Y40652D01*
X41690Y40606D01*
X41719Y40508D01*
X41739Y40422D01*
X41749Y40383D01*
X41752Y40344D01*
X41755Y40314D01*
X41759Y40285D01*
X41762Y40262D01*
Y40245D01*
Y40236D01*
Y40232D01*
X41759Y40167D01*
X41755Y40104D01*
X41745Y40045D01*
X41732Y39990D01*
X41719Y39937D01*
X41703Y39891D01*
X41686Y39849D01*
X41667Y39809D01*
X41650Y39773D01*
X41634Y39744D01*
X41618Y39717D01*
X41604Y39694D01*
X41591Y39678D01*
X41581Y39665D01*
X41578Y39658D01*
X41575Y39655D01*
X41499Y39580D01*
X41424Y39517D01*
X41349Y39461D01*
X41280Y39419D01*
X41217Y39386D01*
X41191Y39373D01*
X41168Y39363D01*
X41152Y39353D01*
X41135Y39347D01*
X41129Y39343D01*
X41126D01*
X41073Y39324D01*
X41021Y39307D01*
X40909Y39271D01*
X40797Y39239D01*
X40689Y39209D01*
X40640Y39196D01*
X40594Y39186D01*
X40555Y39176D01*
X40519Y39166D01*
X40489Y39160D01*
X40470Y39153D01*
X40453Y39150D01*
X40450D01*
X40355Y39127D01*
X40273Y39107D01*
X40200Y39088D01*
X40138Y39068D01*
X40089Y39055D01*
X40073Y39048D01*
X40056Y39045D01*
X40043Y39042D01*
X40033Y39038D01*
X40030Y39035D01*
X40027D01*
X39971Y39015D01*
X39922Y38993D01*
X39876Y38969D01*
X39840Y38950D01*
X39810Y38930D01*
X39787Y38914D01*
X39774Y38904D01*
X39771Y38901D01*
X39738Y38868D01*
X39712Y38832D01*
X39695Y38796D01*
X39682Y38763D01*
X39676Y38733D01*
X39669Y38710D01*
Y38694D01*
Y38687D01*
X39672Y38655D01*
X39676Y38625D01*
X39695Y38569D01*
X39722Y38523D01*
X39755Y38481D01*
X39787Y38448D01*
X39814Y38425D01*
X39833Y38412D01*
X39836Y38405D01*
X39840D01*
X39873Y38386D01*
X39912Y38369D01*
X39994Y38346D01*
X40079Y38327D01*
X40165Y38313D01*
X40207Y38310D01*
X40243Y38307D01*
X40276Y38304D01*
X40306D01*
X40332Y38300D01*
X40365D01*
X40483Y38304D01*
X40597Y38317D01*
X40706Y38333D01*
X40755Y38343D01*
X40801Y38353D01*
X40843Y38359D01*
X40883Y38369D01*
X40919Y38379D01*
X40945Y38386D01*
X40968Y38392D01*
X40988Y38399D01*
X40998Y38402D01*
X41001D01*
X41116Y38445D01*
X41221Y38491D01*
X41270Y38514D01*
X41316Y38537D01*
X41358Y38556D01*
X41394Y38579D01*
X41431Y38599D01*
X41460Y38618D01*
X41490Y38635D01*
X41509Y38648D01*
X41529Y38661D01*
X41542Y38671D01*
X41549Y38674D01*
X41552Y38678D01*
X41834Y38051D01*
X41788Y38018D01*
X41736Y37986D01*
X41631Y37926D01*
X41526Y37874D01*
X41424Y37831D01*
X41375Y37812D01*
X41332Y37795D01*
X41293Y37782D01*
X41260Y37769D01*
X41234Y37762D01*
X41211Y37756D01*
X41198Y37749D01*
X41194D01*
X41043Y37713D01*
X40896Y37684D01*
X40824Y37674D01*
X40758Y37664D01*
X40692Y37657D01*
X40630Y37651D01*
X40574Y37648D01*
X40525Y37644D01*
X40479Y37641D01*
X40440D01*
X40411Y37638D01*
X40368D01*
X40276Y37641D01*
X40191Y37644D01*
X40109Y37651D01*
X40030Y37661D01*
X39955Y37671D01*
X39886Y37684D01*
X39823Y37697D01*
X39764Y37713D01*
X39712Y37726D01*
X39666Y37740D01*
X39627Y37753D01*
X39594Y37762D01*
X39568Y37772D01*
X39548Y37779D01*
X39535Y37785D01*
X39531D01*
X39469Y37815D01*
X39410Y37844D01*
X39354Y37877D01*
X39305Y37910D01*
X39259Y37943D01*
X39217Y37976D01*
X39180Y38008D01*
X39144Y38041D01*
X39115Y38071D01*
X39089Y38097D01*
X39066Y38123D01*
X39049Y38143D01*
X39033Y38163D01*
X39023Y38176D01*
X39020Y38182D01*
X39017Y38186D01*
X38987Y38235D01*
X38957Y38284D01*
X38934Y38333D01*
X38915Y38382D01*
X38885Y38478D01*
X38866Y38563D01*
X38856Y38602D01*
X38853Y38638D01*
X38849Y38671D01*
X38846Y38697D01*
X38843Y38720D01*
Y38737D01*
Y38746D01*
Y38750D01*
X38846Y38815D01*
X38849Y38878D01*
X38859Y38933D01*
X38872Y38989D01*
X38885Y39038D01*
X38902Y39088D01*
X38921Y39130D01*
X38938Y39166D01*
X38954Y39202D01*
X38974Y39232D01*
X38990Y39258D01*
X39003Y39278D01*
X39017Y39294D01*
X39023Y39307D01*
X39030Y39314D01*
X39033Y39317D01*
X39105Y39393D01*
X39180Y39455D01*
X39256Y39507D01*
X39328Y39550D01*
X39390Y39583D01*
X39417Y39596D01*
X39440Y39606D01*
X39456Y39616D01*
X39469Y39622D01*
X39479Y39625D01*
X39482D01*
X39531Y39645D01*
X39584Y39662D01*
X39695Y39698D01*
X39810Y39731D01*
X39915Y39760D01*
X39964Y39773D01*
X40010Y39786D01*
X40050Y39796D01*
X40086Y39806D01*
X40115Y39812D01*
X40135Y39819D01*
X40151Y39822D01*
X40155D01*
X40227Y39839D01*
X40292Y39855D01*
X40355Y39871D01*
X40414Y39885D01*
X40466Y39901D01*
X40512Y39914D01*
X40558Y39927D01*
X40594Y39940D01*
X40630Y39954D01*
X40660Y39963D01*
X40686Y39973D01*
X40706Y39980D01*
X40722Y39986D01*
X40732Y39993D01*
X40738Y39996D01*
X40742D01*
X40775Y40016D01*
X40804Y40036D01*
X40830Y40055D01*
X40853Y40078D01*
X40873Y40101D01*
X40889Y40124D01*
X40912Y40170D01*
X40925Y40213D01*
X40932Y40245D01*
X40935Y40258D01*
Y40268D01*
Y40272D01*
Y40275D01*
X40932Y40308D01*
X40929Y40341D01*
X40909Y40400D01*
X40883Y40449D01*
X40850Y40491D01*
X40821Y40524D01*
X40794Y40551D01*
X40775Y40564D01*
X40771Y40570D01*
X40768D01*
X40735Y40590D01*
X40699Y40609D01*
X40617Y40636D01*
X40532Y40655D01*
X40447Y40672D01*
X40407Y40675D01*
X40371Y40678D01*
X40335Y40682D01*
X40306D01*
X40282Y40685D01*
X40250D01*
X40158Y40682D01*
X40063Y40672D01*
X39974Y40659D01*
X39882Y40642D01*
X39797Y40619D01*
X39715Y40596D01*
X39640Y40570D01*
X39564Y40544D01*
X39499Y40518D01*
X39440Y40491D01*
X39387Y40468D01*
X39341Y40446D01*
X39305Y40429D01*
X39279Y40416D01*
X39263Y40406D01*
X39256Y40403D01*
X38997Y41033D01*
X39092Y41088D01*
X39190Y41134D01*
X39289Y41174D01*
X39377Y41210D01*
X39420Y41223D01*
X39456Y41236D01*
X39489Y41246D01*
X39518Y41252D01*
X39541Y41259D01*
X39558Y41265D01*
X39571Y41269D01*
X39574D01*
X39695Y41295D01*
X39817Y41315D01*
X39932Y41331D01*
X39984Y41338D01*
X40033Y41341D01*
X40079Y41344D01*
X40119Y41348D01*
X40158D01*
X40187Y41351D01*
X40338D01*
X40424Y41344D01*
D02*
G37*
G36*
X32699Y41348D02*
X32801Y41341D01*
X32896Y41328D01*
X32991Y41311D01*
X33080Y41295D01*
X33162Y41275D01*
X33237Y41252D01*
X33309Y41229D01*
X33375Y41206D01*
X33434Y41184D01*
X33483Y41164D01*
X33526Y41147D01*
X33559Y41131D01*
X33585Y41118D01*
X33598Y41111D01*
X33604Y41108D01*
X33687Y41062D01*
X33765Y41010D01*
X33837Y40957D01*
X33903Y40905D01*
X33968Y40849D01*
X34024Y40793D01*
X34077Y40741D01*
X34126Y40688D01*
X34169Y40639D01*
X34205Y40593D01*
X34238Y40551D01*
X34264Y40514D01*
X34283Y40485D01*
X34297Y40465D01*
X34306Y40449D01*
X34310Y40446D01*
X34356Y40367D01*
X34392Y40285D01*
X34428Y40200D01*
X34454Y40117D01*
X34480Y40039D01*
X34500Y39960D01*
X34516Y39885D01*
X34529Y39812D01*
X34543Y39744D01*
X34549Y39685D01*
X34556Y39629D01*
X34559Y39583D01*
Y39547D01*
X34562Y39517D01*
Y39501D01*
Y39494D01*
X34559Y39396D01*
X34552Y39301D01*
X34539Y39209D01*
X34523Y39120D01*
X34503Y39038D01*
X34484Y38960D01*
X34461Y38884D01*
X34434Y38819D01*
X34411Y38756D01*
X34388Y38701D01*
X34369Y38655D01*
X34349Y38615D01*
X34333Y38583D01*
X34319Y38559D01*
X34313Y38546D01*
X34310Y38540D01*
X34260Y38464D01*
X34205Y38389D01*
X34149Y38320D01*
X34090Y38258D01*
X34034Y38199D01*
X33975Y38143D01*
X33916Y38094D01*
X33860Y38051D01*
X33808Y38012D01*
X33759Y37976D01*
X33716Y37946D01*
X33680Y37920D01*
X33647Y37903D01*
X33624Y37887D01*
X33611Y37881D01*
X33604Y37877D01*
X33519Y37835D01*
X33431Y37799D01*
X33345Y37766D01*
X33257Y37740D01*
X33171Y37716D01*
X33090Y37697D01*
X33007Y37681D01*
X32932Y37667D01*
X32863Y37657D01*
X32798Y37651D01*
X32742Y37644D01*
X32693Y37641D01*
X32653D01*
X32624Y37638D01*
X32598D01*
X32493Y37641D01*
X32394Y37648D01*
X32296Y37661D01*
X32204Y37674D01*
X32115Y37694D01*
X32033Y37713D01*
X31955Y37736D01*
X31883Y37759D01*
X31820Y37779D01*
X31761Y37802D01*
X31712Y37821D01*
X31669Y37841D01*
X31637Y37854D01*
X31610Y37867D01*
X31597Y37874D01*
X31591Y37877D01*
X31509Y37923D01*
X31430Y37976D01*
X31358Y38028D01*
X31292Y38081D01*
X31227Y38136D01*
X31171Y38192D01*
X31118Y38248D01*
X31069Y38297D01*
X31026Y38346D01*
X30990Y38392D01*
X30957Y38435D01*
X30931Y38471D01*
X30912Y38500D01*
X30898Y38520D01*
X30889Y38537D01*
X30885Y38540D01*
X30839Y38622D01*
X30800Y38704D01*
X30767Y38786D01*
X30738Y38868D01*
X30711Y38950D01*
X30692Y39028D01*
X30675Y39104D01*
X30662Y39176D01*
X30652Y39242D01*
X30643Y39304D01*
X30636Y39360D01*
X30633Y39406D01*
X30630Y39442D01*
Y39471D01*
Y39488D01*
Y39494D01*
X30633Y39593D01*
X30639Y39688D01*
X30652Y39780D01*
X30669Y39865D01*
X30689Y39950D01*
X30711Y40029D01*
X30735Y40101D01*
X30757Y40167D01*
X30780Y40229D01*
X30803Y40285D01*
X30826Y40331D01*
X30846Y40370D01*
X30862Y40403D01*
X30876Y40426D01*
X30882Y40442D01*
X30885Y40446D01*
X30935Y40524D01*
X30990Y40596D01*
X31046Y40665D01*
X31102Y40728D01*
X31161Y40787D01*
X31220Y40842D01*
X31279Y40892D01*
X31335Y40934D01*
X31387Y40977D01*
X31436Y41010D01*
X31479Y41039D01*
X31515Y41065D01*
X31548Y41082D01*
X31571Y41098D01*
X31584Y41105D01*
X31591Y41108D01*
X31676Y41151D01*
X31761Y41187D01*
X31850Y41220D01*
X31935Y41249D01*
X32020Y41272D01*
X32105Y41292D01*
X32184Y41308D01*
X32260Y41321D01*
X32332Y41331D01*
X32397Y41338D01*
X32453Y41344D01*
X32502Y41348D01*
X32542Y41351D01*
X32598D01*
X32699Y41348D01*
D02*
G37*
G36*
X41630Y6538D02*
X42076D01*
Y6102D01*
Y5653D01*
Y5207D01*
Y4761D01*
Y4313D01*
Y3867D01*
Y3423D01*
Y2986D01*
X41630D01*
Y2545D01*
X39853D01*
Y2986D01*
X39404D01*
Y2545D01*
X37627D01*
Y2986D01*
X37618D01*
Y2545D01*
X35841D01*
Y2986D01*
X35392D01*
Y2545D01*
X33615D01*
Y2986D01*
X33606D01*
Y2545D01*
X29603D01*
Y2986D01*
X29594D01*
Y2545D01*
X27817D01*
Y2986D01*
X27368D01*
Y2545D01*
X25591D01*
Y2986D01*
Y3423D01*
Y3867D01*
Y4313D01*
Y4761D01*
Y5207D01*
Y5653D01*
Y6102D01*
X26030D01*
Y6538D01*
X26474D01*
Y6987D01*
X29594D01*
Y6538D01*
X30042D01*
Y6987D01*
X34052D01*
Y6538D01*
Y6102D01*
X34054D01*
Y6538D01*
X34498D01*
Y6987D01*
X38064D01*
Y6538D01*
Y6102D01*
X38066D01*
Y6538D01*
X38510D01*
Y6987D01*
X41630D01*
Y6538D01*
D02*
G37*
G36*
X24314D02*
X24760D01*
Y6102D01*
Y5653D01*
Y5207D01*
X24314D01*
Y4761D01*
X24760D01*
Y4313D01*
Y3867D01*
Y3423D01*
X24314D01*
Y2986D01*
X23868D01*
Y2545D01*
X20751D01*
Y2986D01*
X20312D01*
Y3423D01*
X20302D01*
Y2986D01*
X19856D01*
Y2545D01*
X16739D01*
Y2986D01*
X16300D01*
Y3423D01*
X16290D01*
Y2986D01*
X15844D01*
Y2545D01*
X12727D01*
Y2986D01*
X12278D01*
Y2545D01*
X8715D01*
Y2986D01*
Y3423D01*
Y3867D01*
X9159D01*
Y4313D01*
X9607D01*
Y4761D01*
Y5207D01*
Y5653D01*
Y6102D01*
Y6538D01*
X10053D01*
Y6987D01*
X11832D01*
Y6538D01*
X12278D01*
Y6102D01*
Y5653D01*
Y5207D01*
X11832D01*
Y4761D01*
Y4313D01*
X12288D01*
Y4761D01*
Y5207D01*
Y5653D01*
Y6102D01*
X12727D01*
Y6538D01*
X13171D01*
Y6987D01*
X16290D01*
Y6538D01*
X16736D01*
Y6102D01*
X16739D01*
Y6538D01*
X17183D01*
Y6987D01*
X20302D01*
Y6538D01*
X20749D01*
Y6102D01*
X20751D01*
Y6538D01*
X21194D01*
Y6987D01*
X24314D01*
Y6538D01*
D02*
G37*
G36*
X1005337Y-155808D02*
X1005050D01*
Y-156094D01*
X1004764D01*
Y-156380D01*
Y-156667D01*
X1004478D01*
Y-156953D01*
X1004192D01*
Y-157239D01*
X1003905D01*
Y-157526D01*
Y-157812D01*
X1003619D01*
Y-158098D01*
X1003333D01*
Y-158385D01*
X1003046D01*
Y-158671D01*
X1002760D01*
Y-158957D01*
Y-159244D01*
X1002474D01*
Y-159530D01*
X1002187D01*
Y-159816D01*
X1001901D01*
Y-160102D01*
Y-160389D01*
X1001615D01*
Y-160675D01*
X1001328D01*
Y-160961D01*
X1001042D01*
Y-161248D01*
X1000756D01*
Y-161534D01*
Y-161820D01*
X1000469D01*
Y-162107D01*
X1000183D01*
Y-162393D01*
X999897D01*
Y-162679D01*
Y-162966D01*
X999611D01*
Y-163252D01*
X999324D01*
Y-163538D01*
X999038D01*
Y-163824D01*
Y-164111D01*
X998752D01*
Y-164397D01*
X998465D01*
Y-164683D01*
X998179D01*
Y-164970D01*
X997893D01*
Y-165256D01*
Y-165542D01*
X997606D01*
Y-165829D01*
X997320D01*
Y-166115D01*
X997034D01*
Y-166401D01*
Y-166688D01*
X996747D01*
Y-166974D01*
X996461D01*
Y-167260D01*
X996175D01*
Y-167547D01*
Y-167833D01*
X995889D01*
Y-168119D01*
X995602D01*
Y-168405D01*
X995316D01*
Y-168692D01*
X995030D01*
Y-168978D01*
Y-169264D01*
X994743D01*
Y-169551D01*
X994457D01*
Y-169837D01*
X994171D01*
Y-170123D01*
Y-170410D01*
X993884D01*
Y-170696D01*
X993598D01*
Y-170982D01*
X993312D01*
Y-171269D01*
Y-171555D01*
X993025D01*
Y-171841D01*
X992739D01*
Y-172127D01*
X992453D01*
Y-172414D01*
X992166D01*
Y-172700D01*
Y-172986D01*
X991880D01*
Y-173273D01*
X991594D01*
Y-173559D01*
X991308D01*
Y-173845D01*
Y-174132D01*
X991021D01*
Y-174418D01*
X990735D01*
Y-174704D01*
X990449D01*
Y-174991D01*
X990162D01*
Y-175277D01*
Y-175563D01*
X990449D01*
Y-175850D01*
Y-176136D01*
X990735D01*
Y-176422D01*
Y-176709D01*
X991021D01*
Y-176995D01*
X991308D01*
Y-177281D01*
Y-177568D01*
X991594D01*
Y-177854D01*
Y-178140D01*
X991880D01*
Y-178426D01*
Y-178713D01*
X992166D01*
Y-178999D01*
Y-179285D01*
X992453D01*
Y-179572D01*
Y-179858D01*
X992739D01*
Y-180144D01*
Y-180431D01*
X993025D01*
Y-180717D01*
Y-181003D01*
X993312D01*
Y-181290D01*
Y-181576D01*
X993598D01*
Y-181862D01*
X993884D01*
Y-182149D01*
Y-182435D01*
X994171D01*
Y-182721D01*
Y-183007D01*
X994457D01*
Y-183294D01*
Y-183580D01*
X994743D01*
Y-183866D01*
Y-184153D01*
X995030D01*
Y-184439D01*
Y-184725D01*
X995316D01*
Y-185012D01*
Y-185298D01*
X995602D01*
Y-185584D01*
Y-185871D01*
X995889D01*
Y-186157D01*
X996175D01*
Y-186443D01*
Y-186730D01*
X996461D01*
Y-187016D01*
Y-187302D01*
X996747D01*
Y-187588D01*
Y-187875D01*
X997034D01*
Y-188161D01*
Y-188447D01*
X997320D01*
Y-188734D01*
Y-189020D01*
X997606D01*
Y-189306D01*
Y-189593D01*
X997893D01*
Y-189879D01*
Y-190165D01*
X998179D01*
Y-190452D01*
X998465D01*
Y-190738D01*
Y-191024D01*
X998752D01*
Y-191311D01*
Y-191597D01*
X999038D01*
Y-191883D01*
X983863D01*
Y-191597D01*
X983577D01*
Y-191311D01*
Y-191024D01*
Y-190738D01*
X983291D01*
Y-190452D01*
Y-190165D01*
Y-189879D01*
X983004D01*
Y-189593D01*
Y-189306D01*
X982718D01*
Y-189020D01*
Y-188734D01*
Y-188447D01*
X982432D01*
Y-188161D01*
Y-187875D01*
Y-187588D01*
X982146D01*
Y-187302D01*
Y-187016D01*
X981859D01*
Y-186730D01*
Y-186443D01*
Y-186157D01*
X981573D01*
Y-185871D01*
Y-185584D01*
Y-185298D01*
X981287D01*
Y-185012D01*
Y-184725D01*
Y-184439D01*
X981000D01*
Y-184153D01*
X980428D01*
Y-184439D01*
Y-184725D01*
X980141D01*
Y-185012D01*
X979855D01*
Y-185298D01*
Y-185584D01*
X979569D01*
Y-185871D01*
X979282D01*
Y-186157D01*
Y-186443D01*
X978996D01*
Y-186730D01*
X978710D01*
Y-187016D01*
Y-187302D01*
X978423D01*
Y-187588D01*
X978137D01*
Y-187875D01*
X977851D01*
Y-188161D01*
Y-188447D01*
X977565D01*
Y-188734D01*
X977278D01*
Y-189020D01*
Y-189306D01*
X976992D01*
Y-189593D01*
X976705D01*
Y-189879D01*
Y-190165D01*
X976419D01*
Y-190452D01*
X976133D01*
Y-190738D01*
Y-191024D01*
X975847D01*
Y-191311D01*
X975560D01*
Y-191597D01*
Y-191883D01*
X959527D01*
Y-191597D01*
X959813D01*
Y-191311D01*
X960099D01*
Y-191024D01*
X960386D01*
Y-190738D01*
X960672D01*
Y-190452D01*
Y-190165D01*
X960958D01*
Y-189879D01*
X961245D01*
Y-189593D01*
X961531D01*
Y-189306D01*
X961817D01*
Y-189020D01*
Y-188734D01*
X962104D01*
Y-188447D01*
X962390D01*
Y-188161D01*
X962676D01*
Y-187875D01*
Y-187588D01*
X962963D01*
Y-187302D01*
X963249D01*
Y-187016D01*
X963535D01*
Y-186730D01*
X963822D01*
Y-186443D01*
Y-186157D01*
X964108D01*
Y-185871D01*
X964394D01*
Y-185584D01*
X964680D01*
Y-185298D01*
X964967D01*
Y-185012D01*
Y-184725D01*
X965253D01*
Y-184439D01*
X965539D01*
Y-184153D01*
X965826D01*
Y-183866D01*
Y-183580D01*
X966112D01*
Y-183294D01*
X966398D01*
Y-183007D01*
X966685D01*
Y-182721D01*
X966971D01*
Y-182435D01*
Y-182149D01*
X967257D01*
Y-181862D01*
X967544D01*
Y-181576D01*
X967830D01*
Y-181290D01*
Y-181003D01*
X968116D01*
Y-180717D01*
X968402D01*
Y-180431D01*
X968689D01*
Y-180144D01*
X968975D01*
Y-179858D01*
Y-179572D01*
X969261D01*
Y-179285D01*
X969548D01*
Y-178999D01*
X969834D01*
Y-178713D01*
Y-178426D01*
X970120D01*
Y-178140D01*
X970407D01*
Y-177854D01*
X970693D01*
Y-177568D01*
X970979D01*
Y-177281D01*
Y-176995D01*
X971266D01*
Y-176709D01*
X971552D01*
Y-176422D01*
X971838D01*
Y-176136D01*
X972124D01*
Y-175850D01*
Y-175563D01*
X972411D01*
Y-175277D01*
X972697D01*
Y-174991D01*
X972983D01*
Y-174704D01*
Y-174418D01*
X973270D01*
Y-174132D01*
X973556D01*
Y-173845D01*
X973842D01*
Y-173559D01*
X974129D01*
Y-173273D01*
Y-172986D01*
X974415D01*
Y-172700D01*
Y-172414D01*
Y-172127D01*
X974129D01*
Y-171841D01*
X973842D01*
Y-171555D01*
Y-171269D01*
X973556D01*
Y-170982D01*
Y-170696D01*
X973270D01*
Y-170410D01*
Y-170123D01*
X972983D01*
Y-169837D01*
Y-169551D01*
X972697D01*
Y-169264D01*
Y-168978D01*
X972411D01*
Y-168692D01*
Y-168405D01*
X972124D01*
Y-168119D01*
X971838D01*
Y-167833D01*
Y-167547D01*
X971552D01*
Y-167260D01*
Y-166974D01*
X971266D01*
Y-166688D01*
Y-166401D01*
X970979D01*
Y-166115D01*
Y-165829D01*
X970693D01*
Y-165542D01*
Y-165256D01*
X970407D01*
Y-164970D01*
Y-164683D01*
X970120D01*
Y-164397D01*
X969834D01*
Y-164111D01*
Y-163824D01*
X969548D01*
Y-163538D01*
Y-163252D01*
X969261D01*
Y-162966D01*
Y-162679D01*
X968975D01*
Y-162393D01*
Y-162107D01*
X968689D01*
Y-161820D01*
Y-161534D01*
X968402D01*
Y-161248D01*
Y-160961D01*
X968116D01*
Y-160675D01*
Y-160389D01*
X967830D01*
Y-160102D01*
X967544D01*
Y-159816D01*
Y-159530D01*
X967257D01*
Y-159244D01*
Y-158957D01*
X966971D01*
Y-158671D01*
Y-158385D01*
X966685D01*
Y-158098D01*
Y-157812D01*
X966398D01*
Y-157526D01*
Y-157239D01*
X966112D01*
Y-156953D01*
Y-156667D01*
X965826D01*
Y-156380D01*
X965539D01*
Y-156094D01*
Y-155808D01*
X965253D01*
Y-155521D01*
X981000D01*
Y-155808D01*
X981287D01*
Y-156094D01*
Y-156380D01*
Y-156667D01*
X981573D01*
Y-156953D01*
Y-157239D01*
Y-157526D01*
X981859D01*
Y-157812D01*
Y-158098D01*
Y-158385D01*
X982146D01*
Y-158671D01*
Y-158957D01*
Y-159244D01*
X982432D01*
Y-159530D01*
Y-159816D01*
Y-160102D01*
X982718D01*
Y-160389D01*
Y-160675D01*
Y-160961D01*
X983004D01*
Y-161248D01*
Y-161534D01*
Y-161820D01*
X983291D01*
Y-162107D01*
Y-162393D01*
Y-162679D01*
X983577D01*
Y-162966D01*
Y-163252D01*
Y-163538D01*
Y-163824D01*
X984150D01*
Y-163538D01*
X984436D01*
Y-163252D01*
X984722D01*
Y-162966D01*
Y-162679D01*
X985009D01*
Y-162393D01*
X985295D01*
Y-162107D01*
Y-161820D01*
X985581D01*
Y-161534D01*
X985868D01*
Y-161248D01*
Y-160961D01*
X986154D01*
Y-160675D01*
X986440D01*
Y-160389D01*
Y-160102D01*
X986726D01*
Y-159816D01*
X987013D01*
Y-159530D01*
Y-159244D01*
X987299D01*
Y-158957D01*
X987585D01*
Y-158671D01*
Y-158385D01*
X987872D01*
Y-158098D01*
X988158D01*
Y-157812D01*
Y-157526D01*
X988444D01*
Y-157239D01*
X988731D01*
Y-156953D01*
Y-156667D01*
X989017D01*
Y-156380D01*
X989303D01*
Y-156094D01*
Y-155808D01*
X989590D01*
Y-155521D01*
X1005337D01*
Y-155808D01*
D02*
G37*
G36*
X872201Y-141778D02*
X873919D01*
Y-142065D01*
X874778D01*
Y-142351D01*
X875637D01*
Y-142637D01*
X876496D01*
Y-142924D01*
X877069D01*
Y-143210D01*
X877355D01*
Y-143496D01*
X877928D01*
Y-143783D01*
X878214D01*
Y-144069D01*
X878786D01*
Y-144355D01*
X879073D01*
Y-144641D01*
X879359D01*
Y-144928D01*
X879646D01*
Y-145214D01*
X879932D01*
Y-145501D01*
X880218D01*
Y-145787D01*
X880504D01*
Y-146073D01*
Y-146359D01*
X880791D01*
Y-146646D01*
X881077D01*
Y-146932D01*
Y-147218D01*
X881363D01*
Y-147505D01*
X881650D01*
Y-147791D01*
Y-148077D01*
X881936D01*
Y-148364D01*
Y-148650D01*
Y-148936D01*
X882222D01*
Y-149223D01*
Y-149509D01*
Y-149795D01*
X882509D01*
Y-150082D01*
Y-150368D01*
Y-150654D01*
Y-150940D01*
X882795D01*
Y-151227D01*
Y-151513D01*
Y-151799D01*
Y-152086D01*
Y-152372D01*
X883081D01*
Y-152658D01*
Y-152945D01*
Y-153231D01*
Y-153517D01*
Y-153804D01*
Y-154090D01*
Y-154376D01*
Y-154663D01*
Y-154949D01*
Y-155235D01*
Y-155521D01*
Y-155808D01*
Y-156094D01*
Y-156380D01*
Y-156667D01*
Y-156953D01*
Y-157239D01*
Y-157526D01*
Y-157812D01*
Y-158098D01*
X882795D01*
Y-158385D01*
Y-158671D01*
Y-158957D01*
Y-159244D01*
Y-159530D01*
Y-159816D01*
Y-160102D01*
X882509D01*
Y-160389D01*
Y-160675D01*
Y-160961D01*
Y-161248D01*
Y-161534D01*
X882222D01*
Y-161820D01*
Y-162107D01*
Y-162393D01*
Y-162679D01*
Y-162966D01*
X881936D01*
Y-163252D01*
Y-163538D01*
Y-163824D01*
X881650D01*
Y-164111D01*
Y-164397D01*
Y-164683D01*
Y-164970D01*
X881363D01*
Y-165256D01*
Y-165542D01*
Y-165829D01*
X881077D01*
Y-166115D01*
Y-166401D01*
X880791D01*
Y-166688D01*
Y-166974D01*
Y-167260D01*
X880504D01*
Y-167547D01*
Y-167833D01*
X880218D01*
Y-168119D01*
Y-168405D01*
X879932D01*
Y-168692D01*
Y-168978D01*
X879646D01*
Y-169264D01*
X879359D01*
Y-169551D01*
Y-169837D01*
X879073D01*
Y-170123D01*
X878786D01*
Y-170410D01*
X878500D01*
Y-170696D01*
Y-170982D01*
X878214D01*
Y-171269D01*
X877928D01*
Y-171555D01*
X877641D01*
Y-171841D01*
X877355D01*
Y-172127D01*
X877069D01*
Y-172414D01*
X876496D01*
Y-172700D01*
X876210D01*
Y-172986D01*
X875637D01*
Y-173273D01*
X875351D01*
Y-173559D01*
X874778D01*
Y-173845D01*
X873919D01*
Y-174132D01*
X873060D01*
Y-174418D01*
X872201D01*
Y-174704D01*
X870483D01*
Y-174991D01*
X865330D01*
Y-174704D01*
X862753D01*
Y-174418D01*
X860749D01*
Y-174132D01*
X859317D01*
Y-173845D01*
X857886D01*
Y-173559D01*
X856454D01*
Y-173845D01*
Y-174132D01*
Y-174418D01*
Y-174704D01*
Y-174991D01*
Y-175277D01*
Y-175563D01*
X856168D01*
Y-175850D01*
Y-176136D01*
Y-176422D01*
Y-176709D01*
Y-176995D01*
Y-177281D01*
X855882D01*
Y-177568D01*
Y-177854D01*
Y-178140D01*
Y-178426D01*
Y-178713D01*
Y-178999D01*
X855595D01*
Y-179285D01*
Y-179572D01*
Y-179858D01*
Y-180144D01*
Y-180431D01*
Y-180717D01*
Y-181003D01*
X855309D01*
Y-181290D01*
Y-181576D01*
Y-181862D01*
Y-182149D01*
Y-182435D01*
Y-182721D01*
X855023D01*
Y-183007D01*
Y-183294D01*
Y-183580D01*
Y-183866D01*
Y-184153D01*
Y-184439D01*
X854736D01*
Y-184725D01*
Y-185012D01*
Y-185298D01*
Y-185584D01*
Y-185871D01*
Y-186157D01*
Y-186443D01*
X854450D01*
Y-186730D01*
Y-187016D01*
Y-187302D01*
Y-187588D01*
Y-187875D01*
Y-188161D01*
X854164D01*
Y-188447D01*
Y-188734D01*
Y-189020D01*
Y-189306D01*
Y-189593D01*
Y-189879D01*
X853877D01*
Y-190165D01*
Y-190452D01*
Y-190738D01*
Y-191024D01*
Y-191311D01*
Y-191597D01*
Y-191883D01*
X840421D01*
Y-191597D01*
X840707D01*
Y-191311D01*
Y-191024D01*
Y-190738D01*
Y-190452D01*
Y-190165D01*
X840993D01*
Y-189879D01*
Y-189593D01*
Y-189306D01*
Y-189020D01*
Y-188734D01*
Y-188447D01*
Y-188161D01*
X841280D01*
Y-187875D01*
Y-187588D01*
Y-187302D01*
Y-187016D01*
Y-186730D01*
Y-186443D01*
X841566D01*
Y-186157D01*
Y-185871D01*
Y-185584D01*
Y-185298D01*
Y-185012D01*
Y-184725D01*
X841852D01*
Y-184439D01*
Y-184153D01*
Y-183866D01*
Y-183580D01*
Y-183294D01*
Y-183007D01*
Y-182721D01*
X842138D01*
Y-182435D01*
Y-182149D01*
Y-181862D01*
Y-181576D01*
Y-181290D01*
Y-181003D01*
X842425D01*
Y-180717D01*
Y-180431D01*
Y-180144D01*
Y-179858D01*
Y-179572D01*
Y-179285D01*
X842711D01*
Y-178999D01*
Y-178713D01*
Y-178426D01*
Y-178140D01*
Y-177854D01*
Y-177568D01*
X842997D01*
Y-177281D01*
Y-176995D01*
Y-176709D01*
Y-176422D01*
Y-176136D01*
Y-175850D01*
Y-175563D01*
X843284D01*
Y-175277D01*
Y-174991D01*
Y-174704D01*
Y-174418D01*
Y-174132D01*
Y-173845D01*
X843570D01*
Y-173559D01*
Y-173273D01*
Y-172986D01*
Y-172700D01*
Y-172414D01*
Y-172127D01*
X843856D01*
Y-171841D01*
Y-171555D01*
Y-171269D01*
Y-170982D01*
Y-170696D01*
Y-170410D01*
X844143D01*
Y-170123D01*
Y-169837D01*
Y-169551D01*
Y-169264D01*
Y-168978D01*
Y-168692D01*
Y-168405D01*
X844429D01*
Y-168119D01*
Y-167833D01*
Y-167547D01*
Y-167260D01*
Y-166974D01*
Y-166688D01*
X844715D01*
Y-166401D01*
Y-166115D01*
Y-165829D01*
Y-165542D01*
Y-165256D01*
Y-164970D01*
X845002D01*
Y-164683D01*
Y-164397D01*
Y-164111D01*
Y-163824D01*
Y-163538D01*
Y-163252D01*
Y-162966D01*
X845288D01*
Y-162679D01*
Y-162393D01*
Y-162107D01*
Y-161820D01*
Y-161534D01*
Y-161248D01*
X845574D01*
Y-160961D01*
Y-160675D01*
Y-160389D01*
Y-160102D01*
Y-159816D01*
Y-159530D01*
X845861D01*
Y-159244D01*
Y-158957D01*
Y-158671D01*
Y-158385D01*
Y-158098D01*
Y-157812D01*
X846147D01*
Y-157526D01*
Y-157239D01*
Y-156953D01*
Y-156667D01*
Y-156380D01*
Y-156094D01*
Y-155808D01*
X846433D01*
Y-155521D01*
Y-155235D01*
Y-154949D01*
Y-154663D01*
Y-154376D01*
Y-154090D01*
X846719D01*
Y-153804D01*
Y-153517D01*
Y-153231D01*
Y-152945D01*
Y-152658D01*
Y-152372D01*
X847006D01*
Y-152086D01*
Y-151799D01*
Y-151513D01*
Y-151227D01*
Y-150940D01*
Y-150654D01*
Y-150368D01*
X847292D01*
Y-150082D01*
Y-149795D01*
Y-149509D01*
Y-149223D01*
Y-148936D01*
Y-148650D01*
X847578D01*
Y-148364D01*
Y-148077D01*
Y-147791D01*
Y-147505D01*
Y-147218D01*
Y-146932D01*
X847865D01*
Y-146646D01*
Y-146359D01*
Y-146073D01*
Y-145787D01*
Y-145501D01*
Y-145214D01*
Y-144928D01*
X848151D01*
Y-144641D01*
Y-144355D01*
Y-144069D01*
Y-143783D01*
Y-143496D01*
Y-143210D01*
X848437D01*
Y-142924D01*
Y-142637D01*
Y-142351D01*
Y-142065D01*
Y-141778D01*
Y-141492D01*
X872201D01*
Y-141778D01*
D02*
G37*
G36*
X961245Y-155808D02*
Y-156094D01*
Y-156380D01*
Y-156667D01*
Y-156953D01*
Y-157239D01*
Y-157526D01*
Y-157812D01*
Y-158098D01*
Y-158385D01*
Y-158671D01*
Y-158957D01*
Y-159244D01*
Y-159530D01*
Y-159816D01*
Y-160102D01*
Y-160389D01*
Y-160675D01*
Y-160961D01*
Y-161248D01*
Y-161534D01*
X960958D01*
Y-161820D01*
Y-162107D01*
Y-162393D01*
Y-162679D01*
Y-162966D01*
X960672D01*
Y-163252D01*
Y-163538D01*
Y-163824D01*
Y-164111D01*
X960386D01*
Y-164397D01*
Y-164683D01*
Y-164970D01*
Y-165256D01*
X960099D01*
Y-165542D01*
Y-165829D01*
Y-166115D01*
X959813D01*
Y-166401D01*
Y-166688D01*
Y-166974D01*
X959527D01*
Y-167260D01*
Y-167547D01*
Y-167833D01*
X959241D01*
Y-168119D01*
Y-168405D01*
Y-168692D01*
X958954D01*
Y-168978D01*
Y-169264D01*
X958668D01*
Y-169551D01*
Y-169837D01*
X958381D01*
Y-170123D01*
Y-170410D01*
Y-170696D01*
X958095D01*
Y-170982D01*
Y-171269D01*
X957809D01*
Y-171555D01*
Y-171841D01*
Y-172127D01*
X957523D01*
Y-172414D01*
Y-172700D01*
X957236D01*
Y-172986D01*
Y-173273D01*
Y-173559D01*
X956950D01*
Y-173845D01*
Y-174132D01*
X956664D01*
Y-174418D01*
Y-174704D01*
Y-174991D01*
X956377D01*
Y-175277D01*
Y-175563D01*
X956091D01*
Y-175850D01*
Y-176136D01*
Y-176422D01*
X955805D01*
Y-176709D01*
Y-176995D01*
X955518D01*
Y-177281D01*
Y-177568D01*
Y-177854D01*
X955232D01*
Y-178140D01*
Y-178426D01*
X954946D01*
Y-178713D01*
Y-178999D01*
Y-179285D01*
X954659D01*
Y-179572D01*
Y-179858D01*
X954373D01*
Y-180144D01*
Y-180431D01*
Y-180717D01*
X954087D01*
Y-181003D01*
Y-181290D01*
X953800D01*
Y-181576D01*
Y-181862D01*
Y-182149D01*
X953514D01*
Y-182435D01*
Y-182721D01*
X953228D01*
Y-183007D01*
Y-183294D01*
Y-183580D01*
X952942D01*
Y-183866D01*
Y-184153D01*
X952655D01*
Y-184439D01*
Y-184725D01*
Y-185012D01*
X952369D01*
Y-185298D01*
Y-185584D01*
X952083D01*
Y-185871D01*
Y-186157D01*
Y-186443D01*
X951796D01*
Y-186730D01*
Y-187016D01*
X951510D01*
Y-187302D01*
Y-187588D01*
Y-187875D01*
X951224D01*
Y-188161D01*
Y-188447D01*
X950937D01*
Y-188734D01*
Y-189020D01*
Y-189306D01*
X950651D01*
Y-189593D01*
Y-189879D01*
X950365D01*
Y-190165D01*
Y-190452D01*
Y-190738D01*
X950078D01*
Y-191024D01*
Y-191311D01*
X949792D01*
Y-191597D01*
Y-191883D01*
Y-192169D01*
X949506D01*
Y-192456D01*
Y-192742D01*
X949220D01*
Y-193028D01*
Y-193315D01*
X948933D01*
Y-193601D01*
Y-193887D01*
X948647D01*
Y-194174D01*
Y-194460D01*
Y-194746D01*
X948361D01*
Y-195033D01*
X948074D01*
Y-195319D01*
Y-195605D01*
Y-195891D01*
X947788D01*
Y-196178D01*
X947502D01*
Y-196464D01*
Y-196750D01*
X947215D01*
Y-197037D01*
Y-197323D01*
X946929D01*
Y-197609D01*
Y-197896D01*
X946643D01*
Y-198182D01*
Y-198468D01*
X946356D01*
Y-198755D01*
X946070D01*
Y-199041D01*
Y-199327D01*
X945784D01*
Y-199614D01*
Y-199900D01*
X945497D01*
Y-200186D01*
X945211D01*
Y-200472D01*
X944925D01*
Y-200759D01*
Y-201045D01*
X944639D01*
Y-201331D01*
X944352D01*
Y-201618D01*
Y-201904D01*
X944066D01*
Y-202190D01*
X943780D01*
Y-202477D01*
X943493D01*
Y-202763D01*
Y-203049D01*
X943207D01*
Y-203336D01*
X942921D01*
Y-203622D01*
X942634D01*
Y-203908D01*
X942348D01*
Y-204195D01*
X942062D01*
Y-204481D01*
Y-204767D01*
X941775D01*
Y-205053D01*
X941489D01*
Y-205340D01*
X941203D01*
Y-205626D01*
X940916D01*
Y-205912D01*
X940630D01*
Y-206199D01*
X940344D01*
Y-206485D01*
X940057D01*
Y-206771D01*
X939485D01*
Y-207058D01*
X939199D01*
Y-207344D01*
X938912D01*
Y-207630D01*
X938626D01*
Y-207917D01*
X938340D01*
Y-208203D01*
X937767D01*
Y-208489D01*
X937481D01*
Y-208776D01*
X936908D01*
Y-209062D01*
X936622D01*
Y-209348D01*
X936049D01*
Y-209634D01*
X935763D01*
Y-209921D01*
X935190D01*
Y-210207D01*
X934618D01*
Y-210493D01*
X934045D01*
Y-210780D01*
X933472D01*
Y-211066D01*
X932900D01*
Y-211352D01*
X932041D01*
Y-211639D01*
X931468D01*
Y-211925D01*
X930609D01*
Y-212211D01*
X929464D01*
Y-212498D01*
X928319D01*
Y-212784D01*
X926601D01*
Y-213070D01*
X924597D01*
Y-213357D01*
X924310D01*
Y-213070D01*
Y-212784D01*
Y-212498D01*
Y-212211D01*
Y-211925D01*
Y-211639D01*
Y-211352D01*
Y-211066D01*
Y-210780D01*
Y-210493D01*
Y-210207D01*
Y-209921D01*
Y-209634D01*
Y-209348D01*
Y-209062D01*
Y-208776D01*
Y-208489D01*
Y-208203D01*
Y-207917D01*
Y-207630D01*
Y-207344D01*
Y-207058D01*
Y-206771D01*
Y-206485D01*
Y-206199D01*
Y-205912D01*
Y-205626D01*
Y-205340D01*
Y-205053D01*
Y-204767D01*
Y-204481D01*
Y-204195D01*
Y-203908D01*
X924883D01*
Y-203622D01*
X925455D01*
Y-203336D01*
X926028D01*
Y-203049D01*
X926601D01*
Y-202763D01*
X927173D01*
Y-202477D01*
X927746D01*
Y-202190D01*
X928032D01*
Y-201904D01*
X928605D01*
Y-201618D01*
X928891D01*
Y-201331D01*
X929464D01*
Y-201045D01*
X929750D01*
Y-200759D01*
X930037D01*
Y-200472D01*
X930609D01*
Y-200186D01*
X930896D01*
Y-199900D01*
X931182D01*
Y-199614D01*
X931468D01*
Y-199327D01*
X931754D01*
Y-199041D01*
X932041D01*
Y-198755D01*
X932327D01*
Y-198468D01*
X932613D01*
Y-198182D01*
X932900D01*
Y-197896D01*
X933186D01*
Y-197609D01*
X933472D01*
Y-197323D01*
X933759D01*
Y-197037D01*
Y-196750D01*
X934045D01*
Y-196464D01*
X934331D01*
Y-196178D01*
X934618D01*
Y-195891D01*
Y-195605D01*
X934904D01*
Y-195319D01*
X935190D01*
Y-195033D01*
Y-194746D01*
X935476D01*
Y-194460D01*
Y-194174D01*
X935763D01*
Y-193887D01*
X936049D01*
Y-193601D01*
Y-193315D01*
X936335D01*
Y-193028D01*
Y-192742D01*
X936622D01*
Y-192456D01*
Y-192169D01*
X934904D01*
Y-191883D01*
X932900D01*
Y-191597D01*
X931754D01*
Y-191311D01*
X931182D01*
Y-191024D01*
X930323D01*
Y-190738D01*
X929750D01*
Y-190452D01*
X929464D01*
Y-190165D01*
X928891D01*
Y-189879D01*
X928605D01*
Y-189593D01*
X928319D01*
Y-189306D01*
X928032D01*
Y-189020D01*
X927746D01*
Y-188734D01*
X927460D01*
Y-188447D01*
Y-188161D01*
X927173D01*
Y-187875D01*
X926887D01*
Y-187588D01*
Y-187302D01*
X926601D01*
Y-187016D01*
Y-186730D01*
X926315D01*
Y-186443D01*
Y-186157D01*
X926028D01*
Y-185871D01*
Y-185584D01*
Y-185298D01*
X925742D01*
Y-185012D01*
Y-184725D01*
Y-184439D01*
Y-184153D01*
X925455D01*
Y-183866D01*
Y-183580D01*
Y-183294D01*
Y-183007D01*
Y-182721D01*
Y-182435D01*
Y-182149D01*
X925169D01*
Y-181862D01*
Y-181576D01*
Y-181290D01*
Y-181003D01*
Y-180717D01*
Y-180431D01*
Y-180144D01*
Y-179858D01*
Y-179572D01*
Y-179285D01*
Y-178999D01*
Y-178713D01*
Y-178426D01*
Y-178140D01*
Y-177854D01*
X924883D01*
Y-177568D01*
Y-177281D01*
Y-176995D01*
Y-176709D01*
Y-176422D01*
Y-176136D01*
Y-175850D01*
Y-175563D01*
Y-175277D01*
Y-174991D01*
Y-174704D01*
Y-174418D01*
Y-174132D01*
Y-173845D01*
Y-173559D01*
X924597D01*
Y-173273D01*
Y-172986D01*
Y-172700D01*
Y-172414D01*
Y-172127D01*
Y-171841D01*
Y-171555D01*
Y-171269D01*
Y-170982D01*
Y-170696D01*
Y-170410D01*
Y-170123D01*
Y-169837D01*
Y-169551D01*
Y-169264D01*
Y-168978D01*
X924310D01*
Y-168692D01*
Y-168405D01*
Y-168119D01*
Y-167833D01*
Y-167547D01*
Y-167260D01*
Y-166974D01*
Y-166688D01*
Y-166401D01*
Y-166115D01*
Y-165829D01*
Y-165542D01*
Y-165256D01*
Y-164970D01*
Y-164683D01*
Y-164397D01*
X924024D01*
Y-164111D01*
Y-163824D01*
Y-163538D01*
Y-163252D01*
Y-162966D01*
Y-162679D01*
Y-162393D01*
Y-162107D01*
Y-161820D01*
Y-161534D01*
Y-161248D01*
Y-160961D01*
Y-160675D01*
Y-160389D01*
X923738D01*
Y-160102D01*
Y-159816D01*
Y-159530D01*
Y-159244D01*
Y-158957D01*
Y-158671D01*
Y-158385D01*
Y-158098D01*
Y-157812D01*
Y-157526D01*
Y-157239D01*
Y-156953D01*
Y-156667D01*
Y-156380D01*
Y-156094D01*
Y-155808D01*
X923451D01*
Y-155521D01*
X937194D01*
Y-155808D01*
Y-156094D01*
Y-156380D01*
Y-156667D01*
Y-156953D01*
Y-157239D01*
Y-157526D01*
Y-157812D01*
Y-158098D01*
Y-158385D01*
Y-158671D01*
Y-158957D01*
Y-159244D01*
Y-159530D01*
X937481D01*
Y-159816D01*
Y-160102D01*
Y-160389D01*
Y-160675D01*
Y-160961D01*
Y-161248D01*
Y-161534D01*
Y-161820D01*
Y-162107D01*
Y-162393D01*
Y-162679D01*
Y-162966D01*
Y-163252D01*
Y-163538D01*
Y-163824D01*
Y-164111D01*
Y-164397D01*
Y-164683D01*
Y-164970D01*
Y-165256D01*
Y-165542D01*
Y-165829D01*
Y-166115D01*
Y-166401D01*
Y-166688D01*
Y-166974D01*
Y-167260D01*
Y-167547D01*
Y-167833D01*
Y-168119D01*
Y-168405D01*
Y-168692D01*
Y-168978D01*
Y-169264D01*
Y-169551D01*
Y-169837D01*
Y-170123D01*
Y-170410D01*
Y-170696D01*
Y-170982D01*
Y-171269D01*
X937767D01*
Y-171555D01*
X937481D01*
Y-171841D01*
Y-172127D01*
X937767D01*
Y-172414D01*
Y-172700D01*
Y-172986D01*
Y-173273D01*
Y-173559D01*
Y-173845D01*
Y-174132D01*
Y-174418D01*
Y-174704D01*
Y-174991D01*
Y-175277D01*
Y-175563D01*
Y-175850D01*
Y-176136D01*
Y-176422D01*
Y-176709D01*
Y-176995D01*
Y-177281D01*
Y-177568D01*
Y-177854D01*
Y-178140D01*
Y-178426D01*
Y-178713D01*
Y-178999D01*
Y-179285D01*
Y-179572D01*
X938053D01*
Y-179858D01*
Y-180144D01*
Y-180431D01*
X938340D01*
Y-180717D01*
X938626D01*
Y-181003D01*
X938912D01*
Y-181290D01*
X939771D01*
Y-181576D01*
X940630D01*
Y-181290D01*
X940916D01*
Y-181003D01*
Y-180717D01*
Y-180431D01*
X941203D01*
Y-180144D01*
Y-179858D01*
X941489D01*
Y-179572D01*
Y-179285D01*
Y-178999D01*
X941775D01*
Y-178713D01*
Y-178426D01*
Y-178140D01*
X942062D01*
Y-177854D01*
Y-177568D01*
Y-177281D01*
X942348D01*
Y-176995D01*
Y-176709D01*
Y-176422D01*
X942634D01*
Y-176136D01*
Y-175850D01*
X942921D01*
Y-175563D01*
Y-175277D01*
Y-174991D01*
X943207D01*
Y-174704D01*
Y-174418D01*
Y-174132D01*
X943493D01*
Y-173845D01*
Y-173559D01*
Y-173273D01*
X943780D01*
Y-172986D01*
Y-172700D01*
X944066D01*
Y-172414D01*
Y-172127D01*
Y-171841D01*
X944352D01*
Y-171555D01*
Y-171269D01*
Y-170982D01*
X944639D01*
Y-170696D01*
Y-170410D01*
Y-170123D01*
X944925D01*
Y-169837D01*
Y-169551D01*
X945211D01*
Y-169264D01*
Y-168978D01*
Y-168692D01*
X945497D01*
Y-168405D01*
Y-168119D01*
Y-167833D01*
X945784D01*
Y-167547D01*
Y-167260D01*
Y-166974D01*
X946070D01*
Y-166688D01*
Y-166401D01*
X946356D01*
Y-166115D01*
Y-165829D01*
Y-165542D01*
X946643D01*
Y-165256D01*
Y-164970D01*
Y-164683D01*
X946929D01*
Y-164397D01*
Y-164111D01*
Y-163824D01*
X947215D01*
Y-163538D01*
Y-163252D01*
Y-162966D01*
Y-162679D01*
X947502D01*
Y-162393D01*
Y-162107D01*
Y-161820D01*
Y-161534D01*
X947788D01*
Y-161248D01*
Y-160961D01*
Y-160675D01*
Y-160389D01*
Y-160102D01*
X948074D01*
Y-159816D01*
Y-159530D01*
Y-159244D01*
Y-158957D01*
Y-158671D01*
Y-158385D01*
X948361D01*
Y-158098D01*
Y-157812D01*
Y-157526D01*
Y-157239D01*
Y-156953D01*
Y-156667D01*
Y-156380D01*
Y-156094D01*
Y-155808D01*
Y-155521D01*
X961245D01*
Y-155808D01*
D02*
G37*
G36*
X903409Y-138343D02*
Y-138629D01*
X903123D01*
Y-138915D01*
Y-139202D01*
Y-139488D01*
Y-139774D01*
Y-140060D01*
Y-140347D01*
X902837D01*
Y-140633D01*
Y-140919D01*
Y-141206D01*
Y-141492D01*
Y-141778D01*
Y-142065D01*
X902551D01*
Y-142351D01*
Y-142637D01*
Y-142924D01*
Y-143210D01*
Y-143496D01*
Y-143783D01*
Y-144069D01*
X902264D01*
Y-144355D01*
Y-144641D01*
Y-144928D01*
Y-145214D01*
Y-145501D01*
Y-145787D01*
X901978D01*
Y-146073D01*
Y-146359D01*
Y-146646D01*
Y-146932D01*
Y-147218D01*
Y-147505D01*
X901692D01*
Y-147791D01*
Y-148077D01*
Y-148364D01*
Y-148650D01*
Y-148936D01*
Y-149223D01*
Y-149509D01*
X901405D01*
Y-149795D01*
Y-150082D01*
Y-150368D01*
Y-150654D01*
Y-150940D01*
Y-151227D01*
X901119D01*
Y-151513D01*
Y-151799D01*
Y-152086D01*
Y-152372D01*
Y-152658D01*
Y-152945D01*
X900833D01*
Y-153231D01*
Y-153517D01*
Y-153804D01*
Y-154090D01*
Y-154376D01*
Y-154663D01*
X900546D01*
Y-154949D01*
Y-155235D01*
Y-155521D01*
Y-155808D01*
Y-156094D01*
Y-156380D01*
Y-156667D01*
X900260D01*
Y-156953D01*
Y-157239D01*
Y-157526D01*
Y-157812D01*
Y-158098D01*
Y-158385D01*
X899974D01*
Y-158671D01*
Y-158957D01*
X900546D01*
Y-158671D01*
X900833D01*
Y-158385D01*
X901119D01*
Y-158098D01*
X901692D01*
Y-157812D01*
X901978D01*
Y-157526D01*
X902264D01*
Y-157239D01*
X902837D01*
Y-156953D01*
X903409D01*
Y-156667D01*
X903696D01*
Y-156380D01*
X904268D01*
Y-156094D01*
X905127D01*
Y-155808D01*
X905700D01*
Y-155521D01*
X906559D01*
Y-155235D01*
X907990D01*
Y-154949D01*
X914289D01*
Y-155235D01*
X915435D01*
Y-155521D01*
X916294D01*
Y-155808D01*
X916866D01*
Y-156094D01*
X917153D01*
Y-156380D01*
X917725D01*
Y-156667D01*
X918011D01*
Y-156953D01*
X918298D01*
Y-157239D01*
X918584D01*
Y-157526D01*
X918870D01*
Y-157812D01*
Y-158098D01*
X919157D01*
Y-158385D01*
Y-158671D01*
X919443D01*
Y-158957D01*
Y-159244D01*
Y-159530D01*
X919729D01*
Y-159816D01*
Y-160102D01*
Y-160389D01*
Y-160675D01*
X920016D01*
Y-160961D01*
Y-161248D01*
Y-161534D01*
Y-161820D01*
Y-162107D01*
Y-162393D01*
Y-162679D01*
Y-162966D01*
Y-163252D01*
Y-163538D01*
Y-163824D01*
Y-164111D01*
Y-164397D01*
Y-164683D01*
Y-164970D01*
Y-165256D01*
Y-165542D01*
Y-165829D01*
X919729D01*
Y-166115D01*
Y-166401D01*
Y-166688D01*
Y-166974D01*
Y-167260D01*
Y-167547D01*
Y-167833D01*
X919443D01*
Y-168119D01*
Y-168405D01*
Y-168692D01*
Y-168978D01*
Y-169264D01*
Y-169551D01*
Y-169837D01*
X919157D01*
Y-170123D01*
Y-170410D01*
Y-170696D01*
Y-170982D01*
Y-171269D01*
Y-171555D01*
X918870D01*
Y-171841D01*
Y-172127D01*
Y-172414D01*
Y-172700D01*
Y-172986D01*
Y-173273D01*
X918584D01*
Y-173559D01*
Y-173845D01*
Y-174132D01*
Y-174418D01*
Y-174704D01*
Y-174991D01*
X918298D01*
Y-175277D01*
Y-175563D01*
Y-175850D01*
Y-176136D01*
Y-176422D01*
Y-176709D01*
Y-176995D01*
X918011D01*
Y-177281D01*
Y-177568D01*
Y-177854D01*
Y-178140D01*
Y-178426D01*
Y-178713D01*
X917725D01*
Y-178999D01*
Y-179285D01*
Y-179572D01*
Y-179858D01*
Y-180144D01*
Y-180431D01*
X917439D01*
Y-180717D01*
Y-181003D01*
Y-181290D01*
Y-181576D01*
Y-181862D01*
Y-182149D01*
Y-182435D01*
X917153D01*
Y-182721D01*
Y-183007D01*
Y-183294D01*
Y-183580D01*
Y-183866D01*
Y-184153D01*
X916866D01*
Y-184439D01*
Y-184725D01*
Y-185012D01*
Y-185298D01*
Y-185584D01*
Y-185871D01*
X916580D01*
Y-186157D01*
Y-186443D01*
Y-186730D01*
Y-187016D01*
Y-187302D01*
Y-187588D01*
X916294D01*
Y-187875D01*
Y-188161D01*
Y-188447D01*
Y-188734D01*
Y-189020D01*
Y-189306D01*
Y-189593D01*
X916007D01*
Y-189879D01*
Y-190165D01*
Y-190452D01*
Y-190738D01*
Y-191024D01*
Y-191311D01*
X915721D01*
Y-191597D01*
Y-191883D01*
X902551D01*
Y-191597D01*
Y-191311D01*
X902837D01*
Y-191024D01*
Y-190738D01*
Y-190452D01*
Y-190165D01*
Y-189879D01*
Y-189593D01*
X903123D01*
Y-189306D01*
Y-189020D01*
Y-188734D01*
Y-188447D01*
Y-188161D01*
Y-187875D01*
Y-187588D01*
X903409D01*
Y-187302D01*
Y-187016D01*
Y-186730D01*
Y-186443D01*
Y-186157D01*
Y-185871D01*
X903696D01*
Y-185584D01*
Y-185298D01*
Y-185012D01*
Y-184725D01*
Y-184439D01*
Y-184153D01*
X903982D01*
Y-183866D01*
Y-183580D01*
Y-183294D01*
Y-183007D01*
Y-182721D01*
Y-182435D01*
Y-182149D01*
X904268D01*
Y-181862D01*
Y-181576D01*
Y-181290D01*
Y-181003D01*
Y-180717D01*
Y-180431D01*
X904555D01*
Y-180144D01*
Y-179858D01*
Y-179572D01*
Y-179285D01*
Y-178999D01*
Y-178713D01*
Y-178426D01*
X904841D01*
Y-178140D01*
Y-177854D01*
Y-177568D01*
Y-177281D01*
Y-176995D01*
Y-176709D01*
X905127D01*
Y-176422D01*
Y-176136D01*
Y-175850D01*
Y-175563D01*
Y-175277D01*
Y-174991D01*
X905414D01*
Y-174704D01*
Y-174418D01*
Y-174132D01*
Y-173845D01*
Y-173559D01*
Y-173273D01*
X905700D01*
Y-172986D01*
Y-172700D01*
Y-172414D01*
Y-172127D01*
Y-171841D01*
Y-171555D01*
Y-171269D01*
X905986D01*
Y-170982D01*
Y-170696D01*
Y-170410D01*
Y-170123D01*
Y-169837D01*
Y-169551D01*
X906273D01*
Y-169264D01*
Y-168978D01*
Y-168692D01*
Y-168405D01*
Y-168119D01*
Y-167833D01*
Y-167547D01*
X906559D01*
Y-167260D01*
Y-166974D01*
Y-166688D01*
Y-166401D01*
Y-166115D01*
Y-165829D01*
X906273D01*
Y-165542D01*
Y-165256D01*
X905986D01*
Y-164970D01*
X905700D01*
Y-164683D01*
X905127D01*
Y-164397D01*
X903409D01*
Y-164683D01*
X901978D01*
Y-164970D01*
X901119D01*
Y-165256D01*
X900546D01*
Y-165542D01*
X900260D01*
Y-165829D01*
X899687D01*
Y-166115D01*
X899401D01*
Y-166401D01*
X899115D01*
Y-166688D01*
Y-166974D01*
X898828D01*
Y-167260D01*
Y-167547D01*
Y-167833D01*
X898542D01*
Y-168119D01*
Y-168405D01*
Y-168692D01*
Y-168978D01*
Y-169264D01*
Y-169551D01*
X898256D01*
Y-169837D01*
Y-170123D01*
Y-170410D01*
Y-170696D01*
Y-170982D01*
Y-171269D01*
Y-171555D01*
X897970D01*
Y-171841D01*
Y-172127D01*
Y-172414D01*
Y-172700D01*
Y-172986D01*
Y-173273D01*
X897683D01*
Y-173559D01*
Y-173845D01*
Y-174132D01*
Y-174418D01*
Y-174704D01*
Y-174991D01*
X897397D01*
Y-175277D01*
Y-175563D01*
Y-175850D01*
Y-176136D01*
Y-176422D01*
Y-176709D01*
X897111D01*
Y-176995D01*
Y-177281D01*
Y-177568D01*
Y-177854D01*
Y-178140D01*
Y-178426D01*
Y-178713D01*
X896824D01*
Y-178999D01*
Y-179285D01*
Y-179572D01*
Y-179858D01*
Y-180144D01*
Y-180431D01*
X896538D01*
Y-180717D01*
Y-181003D01*
Y-181290D01*
Y-181576D01*
Y-181862D01*
Y-182149D01*
X896252D01*
Y-182435D01*
Y-182721D01*
Y-183007D01*
Y-183294D01*
Y-183580D01*
Y-183866D01*
Y-184153D01*
X895965D01*
Y-184439D01*
Y-184725D01*
Y-185012D01*
Y-185298D01*
Y-185584D01*
Y-185871D01*
X895679D01*
Y-186157D01*
Y-186443D01*
Y-186730D01*
Y-187016D01*
Y-187302D01*
Y-187588D01*
X895393D01*
Y-187875D01*
Y-188161D01*
Y-188447D01*
Y-188734D01*
Y-189020D01*
Y-189306D01*
X895106D01*
Y-189593D01*
Y-189879D01*
Y-190165D01*
Y-190452D01*
Y-190738D01*
Y-191024D01*
Y-191311D01*
X894820D01*
Y-191597D01*
Y-191883D01*
X881650D01*
Y-191597D01*
Y-191311D01*
X881936D01*
Y-191024D01*
Y-190738D01*
Y-190452D01*
Y-190165D01*
Y-189879D01*
Y-189593D01*
Y-189306D01*
X882222D01*
Y-189020D01*
Y-188734D01*
Y-188447D01*
Y-188161D01*
Y-187875D01*
Y-187588D01*
X882509D01*
Y-187302D01*
Y-187016D01*
Y-186730D01*
Y-186443D01*
Y-186157D01*
Y-185871D01*
X882795D01*
Y-185584D01*
Y-185298D01*
Y-185012D01*
Y-184725D01*
Y-184439D01*
Y-184153D01*
Y-183866D01*
X883081D01*
Y-183580D01*
Y-183294D01*
Y-183007D01*
Y-182721D01*
Y-182435D01*
Y-182149D01*
X883368D01*
Y-181862D01*
Y-181576D01*
Y-181290D01*
Y-181003D01*
Y-180717D01*
Y-180431D01*
X883654D01*
Y-180144D01*
Y-179858D01*
Y-179572D01*
Y-179285D01*
Y-178999D01*
Y-178713D01*
X883940D01*
Y-178426D01*
Y-178140D01*
Y-177854D01*
Y-177568D01*
Y-177281D01*
Y-176995D01*
Y-176709D01*
X884227D01*
Y-176422D01*
Y-176136D01*
Y-175850D01*
Y-175563D01*
Y-175277D01*
Y-174991D01*
X884513D01*
Y-174704D01*
Y-174418D01*
Y-174132D01*
Y-173845D01*
Y-173559D01*
Y-173273D01*
X884799D01*
Y-172986D01*
Y-172700D01*
Y-172414D01*
Y-172127D01*
Y-171841D01*
Y-171555D01*
Y-171269D01*
X885085D01*
Y-170982D01*
Y-170696D01*
Y-170410D01*
Y-170123D01*
Y-169837D01*
Y-169551D01*
X885372D01*
Y-169264D01*
Y-168978D01*
Y-168692D01*
Y-168405D01*
Y-168119D01*
Y-167833D01*
X885658D01*
Y-167547D01*
Y-167260D01*
Y-166974D01*
Y-166688D01*
Y-166401D01*
Y-166115D01*
X885944D01*
Y-165829D01*
Y-165542D01*
Y-165256D01*
Y-164970D01*
Y-164683D01*
Y-164397D01*
Y-164111D01*
X886231D01*
Y-163824D01*
Y-163538D01*
Y-163252D01*
Y-162966D01*
Y-162679D01*
Y-162393D01*
X886517D01*
Y-162107D01*
Y-161820D01*
Y-161534D01*
Y-161248D01*
Y-160961D01*
Y-160675D01*
X886803D01*
Y-160389D01*
Y-160102D01*
Y-159816D01*
Y-159530D01*
Y-159244D01*
Y-158957D01*
X887090D01*
Y-158671D01*
Y-158385D01*
Y-158098D01*
Y-157812D01*
Y-157526D01*
Y-157239D01*
Y-156953D01*
X887376D01*
Y-156667D01*
Y-156380D01*
Y-156094D01*
Y-155808D01*
Y-155521D01*
Y-155235D01*
X887662D01*
Y-154949D01*
Y-154663D01*
Y-154376D01*
Y-154090D01*
Y-153804D01*
Y-153517D01*
X887949D01*
Y-153231D01*
Y-152945D01*
Y-152658D01*
Y-152372D01*
Y-152086D01*
Y-151799D01*
Y-151513D01*
X888235D01*
Y-151227D01*
Y-150940D01*
Y-150654D01*
Y-150368D01*
Y-150082D01*
Y-149795D01*
X888521D01*
Y-149509D01*
Y-149223D01*
Y-148936D01*
Y-148650D01*
Y-148364D01*
Y-148077D01*
X888807D01*
Y-147791D01*
Y-147505D01*
Y-147218D01*
Y-146932D01*
Y-146646D01*
Y-146359D01*
X889094D01*
Y-146073D01*
Y-145787D01*
Y-145501D01*
Y-145214D01*
Y-144928D01*
Y-144641D01*
Y-144355D01*
X889380D01*
Y-144069D01*
Y-143783D01*
Y-143496D01*
Y-143210D01*
Y-142924D01*
Y-142637D01*
X889666D01*
Y-142351D01*
Y-142065D01*
Y-141778D01*
Y-141492D01*
Y-141206D01*
Y-140919D01*
X889953D01*
Y-140633D01*
Y-140347D01*
Y-140060D01*
Y-139774D01*
Y-139488D01*
Y-139202D01*
Y-138915D01*
X890239D01*
Y-138629D01*
Y-138343D01*
Y-138056D01*
X903409D01*
Y-138343D01*
D02*
G37*
%LPC*%
G36*
X17234Y39842D02*
X17205D01*
X17149Y39839D01*
X17093Y39832D01*
X17044Y39822D01*
X16995Y39809D01*
X16952Y39793D01*
X16909Y39776D01*
X16870Y39757D01*
X16837Y39737D01*
X16804Y39717D01*
X16778Y39698D01*
X16755Y39681D01*
X16735Y39665D01*
X16719Y39652D01*
X16709Y39642D01*
X16703Y39635D01*
X16699Y39632D01*
X16663Y39593D01*
X16634Y39550D01*
X16608Y39504D01*
X16585Y39458D01*
X16565Y39412D01*
X16548Y39366D01*
X16525Y39278D01*
X16516Y39235D01*
X16509Y39199D01*
X16506Y39166D01*
X16502Y39137D01*
X16499Y39110D01*
Y39094D01*
Y39081D01*
Y39078D01*
X16502Y39012D01*
X16509Y38953D01*
X16519Y38897D01*
X16529Y38842D01*
X16545Y38792D01*
X16562Y38746D01*
X16581Y38704D01*
X16598Y38664D01*
X16617Y38632D01*
X16637Y38602D01*
X16653Y38576D01*
X16667Y38556D01*
X16680Y38540D01*
X16690Y38527D01*
X16696Y38520D01*
X16699Y38517D01*
X16739Y38481D01*
X16778Y38448D01*
X16817Y38422D01*
X16860Y38399D01*
X16903Y38379D01*
X16945Y38359D01*
X17024Y38337D01*
X17063Y38327D01*
X17096Y38320D01*
X17126Y38317D01*
X17152Y38313D01*
X17175Y38310D01*
X17205D01*
X17260Y38313D01*
X17316Y38320D01*
X17365Y38330D01*
X17414Y38343D01*
X17460Y38359D01*
X17500Y38376D01*
X17539Y38396D01*
X17575Y38415D01*
X17605Y38432D01*
X17634Y38451D01*
X17657Y38468D01*
X17677Y38484D01*
X17693Y38497D01*
X17703Y38507D01*
X17710Y38514D01*
X17713Y38517D01*
X17749Y38556D01*
X17778Y38602D01*
X17805Y38648D01*
X17828Y38694D01*
X17844Y38740D01*
X17861Y38786D01*
X17883Y38878D01*
X17893Y38917D01*
X17900Y38956D01*
X17903Y38989D01*
X17906Y39019D01*
X17910Y39045D01*
Y39061D01*
Y39075D01*
Y39078D01*
X17906Y39140D01*
X17900Y39202D01*
X17890Y39258D01*
X17880Y39311D01*
X17864Y39360D01*
X17847Y39406D01*
X17831Y39448D01*
X17811Y39484D01*
X17792Y39520D01*
X17775Y39550D01*
X17759Y39573D01*
X17742Y39596D01*
X17733Y39612D01*
X17723Y39622D01*
X17716Y39629D01*
X17713Y39632D01*
X17673Y39668D01*
X17634Y39701D01*
X17592Y39731D01*
X17549Y39753D01*
X17506Y39773D01*
X17464Y39790D01*
X17385Y39816D01*
X17345Y39826D01*
X17313Y39832D01*
X17283Y39835D01*
X17257Y39839D01*
X17234Y39842D01*
D02*
G37*
G36*
X23889Y39327D02*
X23814D01*
X23765Y39320D01*
X23676Y39304D01*
X23600Y39281D01*
X23538Y39255D01*
X23512Y39239D01*
X23489Y39225D01*
X23466Y39212D01*
X23450Y39202D01*
X23437Y39193D01*
X23427Y39186D01*
X23423Y39183D01*
X23420Y39179D01*
X23391Y39150D01*
X23364Y39120D01*
X23341Y39091D01*
X23322Y39058D01*
X23292Y38993D01*
X23272Y38930D01*
X23263Y38874D01*
X23259Y38851D01*
X23256Y38828D01*
X23253Y38812D01*
Y38799D01*
Y38792D01*
Y38789D01*
X23256Y38743D01*
X23259Y38701D01*
X23279Y38625D01*
X23305Y38556D01*
X23335Y38500D01*
X23368Y38458D01*
X23394Y38425D01*
X23414Y38405D01*
X23417Y38402D01*
X23420Y38399D01*
X23453Y38372D01*
X23486Y38353D01*
X23558Y38317D01*
X23630Y38291D01*
X23699Y38274D01*
X23761Y38261D01*
X23787Y38258D01*
X23810D01*
X23827Y38254D01*
X23853D01*
X23905Y38258D01*
X23958Y38261D01*
X24050Y38277D01*
X24092Y38287D01*
X24129Y38300D01*
X24165Y38313D01*
X24197Y38330D01*
X24224Y38343D01*
X24250Y38356D01*
X24270Y38369D01*
X24286Y38379D01*
X24302Y38389D01*
X24312Y38396D01*
X24316Y38402D01*
X24319D01*
X24348Y38432D01*
X24374Y38461D01*
X24397Y38494D01*
X24414Y38527D01*
X24447Y38592D01*
X24466Y38651D01*
X24476Y38707D01*
X24479Y38730D01*
X24483Y38750D01*
X24486Y38766D01*
Y38779D01*
Y38786D01*
Y38789D01*
X24483Y38832D01*
X24479Y38874D01*
X24460Y38950D01*
X24430Y39015D01*
X24397Y39071D01*
X24368Y39117D01*
X24339Y39150D01*
X24329Y39160D01*
X24319Y39170D01*
X24316Y39173D01*
X24312Y39176D01*
X24279Y39202D01*
X24243Y39225D01*
X24168Y39265D01*
X24092Y39291D01*
X24020Y39307D01*
X23958Y39320D01*
X23932Y39324D01*
X23909D01*
X23889Y39327D01*
D02*
G37*
G36*
X20855Y40731D02*
X20776D01*
X20724Y40724D01*
X20632Y40708D01*
X20589Y40695D01*
X20553Y40682D01*
X20517Y40668D01*
X20488Y40655D01*
X20458Y40642D01*
X20435Y40629D01*
X20416Y40616D01*
X20396Y40603D01*
X20383Y40593D01*
X20373Y40587D01*
X20370Y40583D01*
X20366Y40580D01*
X20337Y40551D01*
X20311Y40521D01*
X20288Y40491D01*
X20268Y40459D01*
X20238Y40393D01*
X20219Y40334D01*
X20209Y40278D01*
X20206Y40255D01*
X20202Y40236D01*
X20199Y40219D01*
Y40206D01*
Y40200D01*
Y40196D01*
X20202Y40154D01*
X20206Y40111D01*
X20225Y40036D01*
X20255Y39970D01*
X20284Y39914D01*
X20317Y39868D01*
X20347Y39835D01*
X20357Y39826D01*
X20366Y39816D01*
X20370Y39812D01*
X20373Y39809D01*
X20406Y39783D01*
X20442Y39760D01*
X20514Y39721D01*
X20589Y39694D01*
X20658Y39678D01*
X20721Y39665D01*
X20747Y39662D01*
X20770D01*
X20789Y39658D01*
X20816D01*
X20868Y39662D01*
X20914Y39665D01*
X21003Y39681D01*
X21078Y39704D01*
X21144Y39731D01*
X21170Y39744D01*
X21193Y39757D01*
X21216Y39770D01*
X21232Y39780D01*
X21245Y39790D01*
X21255Y39796D01*
X21259Y39803D01*
X21262D01*
X21291Y39832D01*
X21318Y39862D01*
X21340Y39895D01*
X21357Y39927D01*
X21390Y39993D01*
X21409Y40055D01*
X21419Y40111D01*
X21423Y40134D01*
X21426Y40157D01*
X21429Y40173D01*
Y40186D01*
Y40193D01*
Y40196D01*
X21426Y40242D01*
X21423Y40285D01*
X21403Y40360D01*
X21377Y40429D01*
X21344Y40485D01*
X21314Y40527D01*
X21288Y40560D01*
X21268Y40580D01*
X21265Y40587D01*
X21262D01*
X21229Y40613D01*
X21196Y40636D01*
X21124Y40668D01*
X21052Y40695D01*
X20983Y40714D01*
X20921Y40724D01*
X20895Y40728D01*
X20872D01*
X20855Y40731D01*
D02*
G37*
G36*
X36737Y40475D02*
X36166Y39097D01*
X37308D01*
X36737Y40475D01*
D02*
G37*
G36*
X32627Y40642D02*
X32539D01*
X32483Y40636D01*
X32375Y40619D01*
X32276Y40596D01*
X32233Y40583D01*
X32191Y40570D01*
X32155Y40554D01*
X32122Y40541D01*
X32092Y40527D01*
X32069Y40518D01*
X32050Y40508D01*
X32037Y40501D01*
X32027Y40498D01*
X32024Y40495D01*
X31932Y40436D01*
X31850Y40370D01*
X31781Y40301D01*
X31725Y40239D01*
X31679Y40180D01*
X31663Y40154D01*
X31646Y40131D01*
X31637Y40114D01*
X31627Y40101D01*
X31620Y40091D01*
Y40088D01*
X31594Y40039D01*
X31571Y39986D01*
X31535Y39885D01*
X31509Y39786D01*
X31492Y39694D01*
X31486Y39652D01*
X31479Y39612D01*
X31476Y39580D01*
Y39550D01*
X31473Y39527D01*
Y39511D01*
Y39498D01*
Y39494D01*
Y39432D01*
X31479Y39373D01*
X31495Y39261D01*
X31505Y39209D01*
X31518Y39160D01*
X31532Y39114D01*
X31545Y39071D01*
X31561Y39032D01*
X31574Y38999D01*
X31587Y38969D01*
X31597Y38943D01*
X31607Y38924D01*
X31613Y38910D01*
X31617Y38901D01*
X31620Y38897D01*
X31679Y38805D01*
X31745Y38723D01*
X31810Y38651D01*
X31876Y38596D01*
X31935Y38546D01*
X31958Y38530D01*
X31981Y38514D01*
X31997Y38504D01*
X32010Y38494D01*
X32020Y38491D01*
X32024Y38487D01*
X32073Y38461D01*
X32122Y38441D01*
X32220Y38405D01*
X32319Y38379D01*
X32407Y38363D01*
X32447Y38356D01*
X32483Y38350D01*
X32515Y38346D01*
X32545D01*
X32568Y38343D01*
X32598D01*
X32656Y38346D01*
X32712Y38350D01*
X32820Y38366D01*
X32919Y38389D01*
X32962Y38402D01*
X33004Y38415D01*
X33040Y38428D01*
X33073Y38441D01*
X33103Y38454D01*
X33126Y38464D01*
X33145Y38474D01*
X33158Y38481D01*
X33168Y38487D01*
X33171D01*
X33263Y38546D01*
X33342Y38615D01*
X33411Y38681D01*
X33470Y38746D01*
X33516Y38805D01*
X33532Y38832D01*
X33549Y38855D01*
X33559Y38871D01*
X33568Y38888D01*
X33572Y38894D01*
X33575Y38897D01*
X33601Y38947D01*
X33624Y38999D01*
X33660Y39101D01*
X33687Y39202D01*
X33703Y39294D01*
X33709Y39337D01*
X33716Y39376D01*
X33719Y39409D01*
Y39439D01*
X33723Y39461D01*
Y39478D01*
Y39491D01*
Y39494D01*
X33719Y39557D01*
X33716Y39616D01*
X33700Y39727D01*
X33690Y39780D01*
X33677Y39829D01*
X33663Y39875D01*
X33647Y39914D01*
X33634Y39954D01*
X33621Y39986D01*
X33608Y40016D01*
X33598Y40042D01*
X33588Y40062D01*
X33582Y40075D01*
X33575Y40085D01*
Y40088D01*
X33516Y40180D01*
X33450Y40262D01*
X33381Y40331D01*
X33319Y40390D01*
X33260Y40436D01*
X33234Y40452D01*
X33214Y40468D01*
X33195Y40478D01*
X33181Y40488D01*
X33175Y40495D01*
X33171D01*
X33122Y40521D01*
X33073Y40544D01*
X32975Y40580D01*
X32876Y40606D01*
X32788Y40623D01*
X32748Y40629D01*
X32712Y40636D01*
X32680Y40639D01*
X32650D01*
X32627Y40642D01*
D02*
G37*
G36*
X30042Y5207D02*
X30040D01*
Y4761D01*
Y4313D01*
Y3867D01*
X30042D01*
Y4313D01*
Y4761D01*
Y5207D01*
D02*
G37*
G36*
X41184Y6538D02*
X38958D01*
Y6102D01*
X38510D01*
Y5653D01*
Y5207D01*
Y4761D01*
Y4313D01*
Y3867D01*
Y3423D01*
X39404D01*
Y3867D01*
Y4313D01*
X40735D01*
Y3867D01*
Y3423D01*
X41630D01*
Y3867D01*
Y4313D01*
Y4761D01*
Y5207D01*
Y5653D01*
Y6102D01*
X41184D01*
Y6538D01*
D02*
G37*
G36*
X37618D02*
X34946D01*
Y6102D01*
X34498D01*
Y5653D01*
Y5207D01*
X34946D01*
Y4761D01*
X34498D01*
Y4313D01*
Y3867D01*
Y3423D01*
X35392D01*
Y3867D01*
Y4313D01*
Y4761D01*
X36723D01*
Y4313D01*
Y3867D01*
Y3423D01*
X37618D01*
Y3867D01*
Y4313D01*
Y4761D01*
Y5207D01*
Y5653D01*
Y6102D01*
Y6538D01*
D02*
G37*
G36*
X33606D02*
X30486D01*
Y6102D01*
X32711D01*
Y5653D01*
Y5207D01*
X30934D01*
Y4761D01*
X32711D01*
Y4313D01*
Y3867D01*
X30486D01*
Y3423D01*
X33606D01*
Y3867D01*
Y4313D01*
Y4761D01*
Y5207D01*
Y5653D01*
Y6102D01*
Y6538D01*
D02*
G37*
G36*
X29148D02*
X26922D01*
Y6102D01*
X26474D01*
Y5653D01*
Y5207D01*
Y4761D01*
Y4313D01*
Y3867D01*
Y3423D01*
X27368D01*
Y3867D01*
Y4313D01*
X28699D01*
Y3867D01*
Y3423D01*
X29594D01*
Y3867D01*
Y4313D01*
Y4761D01*
Y5207D01*
Y5653D01*
Y6102D01*
X29148D01*
Y6538D01*
D02*
G37*
%LPD*%
G36*
X40735Y5653D02*
Y5207D01*
Y4761D01*
X39404D01*
Y5207D01*
Y5653D01*
Y6102D01*
X40735D01*
Y5653D01*
D02*
G37*
G36*
X36723D02*
Y5207D01*
X35392D01*
Y5653D01*
Y6102D01*
X36723D01*
Y5653D01*
D02*
G37*
G36*
X28699D02*
Y5207D01*
Y4761D01*
X27368D01*
Y5207D01*
Y5653D01*
Y6102D01*
X28699D01*
Y5653D01*
D02*
G37*
%LPC*%
G36*
X23868Y6538D02*
X21643D01*
Y6102D01*
X21194D01*
Y5653D01*
Y5207D01*
X21643D01*
Y4761D01*
X21194D01*
Y4313D01*
Y3867D01*
X21643D01*
Y3423D01*
X23868D01*
Y3867D01*
X24314D01*
Y4313D01*
X23420D01*
Y3867D01*
X22089D01*
Y4313D01*
Y4761D01*
X22983D01*
Y5207D01*
X22089D01*
Y5653D01*
Y6102D01*
X23420D01*
Y5653D01*
X24314D01*
Y6102D01*
X23868D01*
Y6538D01*
D02*
G37*
G36*
X19856D02*
X17631D01*
Y6102D01*
X17183D01*
Y5653D01*
Y5207D01*
Y4761D01*
Y4313D01*
Y3867D01*
X17631D01*
Y3423D01*
X19856D01*
Y3867D01*
X20302D01*
Y4313D01*
Y4761D01*
Y5207D01*
Y5653D01*
Y6102D01*
X19856D01*
Y6538D01*
D02*
G37*
G36*
X15844D02*
X13619D01*
Y6102D01*
X13171D01*
Y5653D01*
Y5207D01*
Y4761D01*
Y4313D01*
Y3867D01*
X13619D01*
Y3423D01*
X15844D01*
Y3867D01*
X16290D01*
Y4313D01*
Y4761D01*
Y5207D01*
Y5653D01*
Y6102D01*
X15844D01*
Y6538D01*
D02*
G37*
G36*
X11384D02*
X10501D01*
Y6102D01*
Y5653D01*
Y5207D01*
Y4761D01*
Y4313D01*
Y3867D01*
X9607D01*
Y3423D01*
X12278D01*
Y3867D01*
X11384D01*
Y4313D01*
Y4761D01*
Y5207D01*
Y5653D01*
X11832D01*
Y6102D01*
X11384D01*
Y6538D01*
D02*
G37*
%LPD*%
G36*
X19408Y5653D02*
Y5207D01*
Y4761D01*
X18971D01*
Y5207D01*
X18525D01*
Y5653D01*
X18077D01*
Y6102D01*
X19408D01*
Y5653D01*
D02*
G37*
G36*
X18525Y4761D02*
X18971D01*
Y4313D01*
X19408D01*
Y3867D01*
X18077D01*
Y4313D01*
Y4761D01*
Y5207D01*
X18525D01*
Y4761D01*
D02*
G37*
G36*
X15396Y5653D02*
Y5207D01*
Y4761D01*
X14959D01*
Y5207D01*
X14513D01*
Y5653D01*
X14065D01*
Y6102D01*
X15396D01*
Y5653D01*
D02*
G37*
G36*
X14513Y4761D02*
X14959D01*
Y4313D01*
X15396D01*
Y3867D01*
X14065D01*
Y4313D01*
Y4761D01*
Y5207D01*
X14513D01*
Y4761D01*
D02*
G37*
%LPC*%
G36*
X867907Y-152658D02*
X859890D01*
Y-152945D01*
Y-153231D01*
Y-153517D01*
Y-153804D01*
Y-154090D01*
X859604D01*
Y-154376D01*
Y-154663D01*
Y-154949D01*
Y-155235D01*
Y-155521D01*
Y-155808D01*
X859317D01*
Y-156094D01*
Y-156380D01*
Y-156667D01*
Y-156953D01*
Y-157239D01*
Y-157526D01*
X859031D01*
Y-157812D01*
Y-158098D01*
Y-158385D01*
Y-158671D01*
Y-158957D01*
Y-159244D01*
X858745D01*
Y-159530D01*
Y-159816D01*
Y-160102D01*
Y-160389D01*
Y-160675D01*
Y-160961D01*
Y-161248D01*
X858458D01*
Y-161534D01*
Y-161820D01*
Y-162107D01*
Y-162393D01*
Y-162679D01*
Y-162966D01*
X858172D01*
Y-163252D01*
Y-163538D01*
Y-163824D01*
X865330D01*
Y-163538D01*
X866475D01*
Y-163252D01*
X867048D01*
Y-162966D01*
X867334D01*
Y-162679D01*
X867620D01*
Y-162393D01*
X867907D01*
Y-162107D01*
X868193D01*
Y-161820D01*
Y-161534D01*
X868479D01*
Y-161248D01*
Y-160961D01*
X868766D01*
Y-160675D01*
Y-160389D01*
X869052D01*
Y-160102D01*
Y-159816D01*
Y-159530D01*
Y-159244D01*
X869338D01*
Y-158957D01*
Y-158671D01*
Y-158385D01*
Y-158098D01*
Y-157812D01*
X869625D01*
Y-157526D01*
Y-157239D01*
Y-156953D01*
Y-156667D01*
Y-156380D01*
Y-156094D01*
Y-155808D01*
Y-155521D01*
Y-155235D01*
Y-154949D01*
Y-154663D01*
X869338D01*
Y-154376D01*
Y-154090D01*
X869052D01*
Y-153804D01*
Y-153517D01*
X868766D01*
Y-153231D01*
X868479D01*
Y-152945D01*
X867907D01*
Y-152658D01*
D02*
G37*
%LPD*%
D10*
X1042921Y-168552D02*
Y-182327D01*
X1049809D01*
X1052104Y-180031D01*
Y-177735D01*
X1049809Y-175439D01*
X1042921D01*
X1049809D01*
X1052104Y-173144D01*
Y-170848D01*
X1049809Y-168552D01*
X1042921D01*
X1058992Y-182327D02*
X1063584D01*
X1065879Y-180031D01*
Y-175439D01*
X1063584Y-173144D01*
X1058992D01*
X1056696Y-175439D01*
Y-180031D01*
X1058992Y-182327D01*
X1072767Y-170848D02*
Y-173144D01*
X1070471D01*
X1075063D01*
X1072767D01*
Y-180031D01*
X1075063Y-182327D01*
X1084246Y-170848D02*
Y-173144D01*
X1081950D01*
X1086542D01*
X1084246D01*
Y-180031D01*
X1086542Y-182327D01*
X1095725D02*
X1100317D01*
X1102613Y-180031D01*
Y-175439D01*
X1100317Y-173144D01*
X1095725D01*
X1093430Y-175439D01*
Y-180031D01*
X1095725Y-182327D01*
X1107205D02*
Y-173144D01*
X1109501D01*
X1111796Y-175439D01*
Y-182327D01*
Y-175439D01*
X1114092Y-173144D01*
X1116388Y-175439D01*
Y-182327D01*
X1141642Y-168552D02*
X1137051D01*
X1134755Y-170848D01*
Y-180031D01*
X1137051Y-182327D01*
X1141642D01*
X1143938Y-180031D01*
Y-170848D01*
X1141642Y-168552D01*
X1148530Y-173144D02*
X1153122Y-182327D01*
X1157713Y-173144D01*
X1169193Y-182327D02*
X1164601D01*
X1162305Y-180031D01*
Y-175439D01*
X1164601Y-173144D01*
X1169193D01*
X1171488Y-175439D01*
Y-177735D01*
X1162305D01*
X1176080Y-173144D02*
Y-182327D01*
Y-177735D01*
X1178376Y-175439D01*
X1180672Y-173144D01*
X1182968D01*
X1189855Y-182327D02*
X1194447D01*
X1192151D01*
Y-168552D01*
X1189855D01*
X1203630Y-173144D02*
X1208222D01*
X1210518Y-175439D01*
Y-182327D01*
X1203630D01*
X1201334Y-180031D01*
X1203630Y-177735D01*
X1210518D01*
X1215109Y-173144D02*
Y-180031D01*
X1217405Y-182327D01*
X1224293D01*
Y-184623D01*
X1221997Y-186919D01*
X1219701D01*
X1224293Y-182327D02*
Y-173144D01*
X846071Y-247293D02*
Y-263036D01*
X851318Y-257788D01*
X856566Y-263036D01*
Y-247293D01*
X861814Y-263036D02*
X867061D01*
X864437D01*
Y-252540D01*
X861814D01*
X874933Y-263036D02*
Y-252540D01*
X877556D01*
X880180Y-255164D01*
Y-263036D01*
Y-255164D01*
X882804Y-252540D01*
X885428Y-255164D01*
Y-263036D01*
X890676Y-247293D02*
Y-257788D01*
X895923Y-263036D01*
X901171Y-257788D01*
Y-247293D01*
X916914Y-249917D02*
X914290Y-247293D01*
X909042D01*
X906419Y-249917D01*
Y-260412D01*
X909042Y-263036D01*
X914290D01*
X916914Y-260412D01*
Y-255164D01*
X911666D01*
X1200401Y-210546D02*
X1203025Y-207923D01*
X1208273D01*
X1210897Y-210546D01*
Y-221042D01*
X1208273Y-223665D01*
X1203025D01*
X1200401Y-221042D01*
Y-210546D01*
X1216144D02*
X1218768Y-207923D01*
X1224016D01*
X1226639Y-210546D01*
Y-221042D01*
X1224016Y-223665D01*
X1218768D01*
X1216144Y-221042D01*
Y-210546D01*
X1037015Y-212186D02*
X1039311Y-209890D01*
X1043903D01*
X1046199Y-212186D01*
Y-214482D01*
X1043903Y-216778D01*
X1041607D01*
X1043903D01*
X1046199Y-219074D01*
Y-221370D01*
X1043903Y-223665D01*
X1039311D01*
X1037015Y-221370D01*
X1050791Y-212186D02*
X1053086Y-209890D01*
X1057678D01*
X1059974Y-212186D01*
Y-221370D01*
X1057678Y-223665D01*
X1053086D01*
X1050791Y-221370D01*
Y-212186D01*
X1064566Y-223665D02*
X1073749Y-214482D01*
X1078341Y-212186D02*
X1080637Y-209890D01*
X1085228D01*
X1087524Y-212186D01*
Y-221370D01*
X1085228Y-223665D01*
X1080637D01*
X1078341Y-221370D01*
Y-212186D01*
X1101299Y-209890D02*
X1096707Y-212186D01*
X1092116Y-216778D01*
Y-221370D01*
X1094412Y-223665D01*
X1099003D01*
X1101299Y-221370D01*
Y-219074D01*
X1099003Y-216778D01*
X1092116D01*
X1105891Y-223665D02*
X1115074Y-214482D01*
X1128849Y-223665D02*
X1119666D01*
X1128849Y-214482D01*
Y-212186D01*
X1126553Y-209890D01*
X1121962D01*
X1119666Y-212186D01*
X1133441D02*
X1135737Y-209890D01*
X1140329D01*
X1142624Y-212186D01*
Y-221370D01*
X1140329Y-223665D01*
X1135737D01*
X1133441Y-221370D01*
Y-212186D01*
X1147216Y-223665D02*
X1151808D01*
X1149512D01*
Y-209890D01*
X1147216Y-212186D01*
X1158695Y-221370D02*
X1160991Y-223665D01*
X1165583D01*
X1167879Y-221370D01*
Y-212186D01*
X1165583Y-209890D01*
X1160991D01*
X1158695Y-212186D01*
Y-214482D01*
X1160991Y-216778D01*
X1167879D01*
X1038981Y-135086D02*
X1037014Y-133118D01*
X1033078D01*
X1031110Y-135086D01*
Y-137054D01*
X1033078Y-139022D01*
X1037014D01*
X1038981Y-140990D01*
Y-142957D01*
X1037014Y-144925D01*
X1033078D01*
X1031110Y-142957D01*
X1042917Y-144925D02*
Y-137054D01*
X1046853Y-133118D01*
X1050789Y-137054D01*
Y-144925D01*
Y-139022D01*
X1042917D01*
X1060628Y-133118D02*
X1056692D01*
X1054724Y-135086D01*
Y-142957D01*
X1056692Y-144925D01*
X1060628D01*
X1062596Y-142957D01*
Y-135086D01*
X1060628Y-133118D01*
X1078339Y-144925D02*
Y-137054D01*
X1082275Y-133118D01*
X1086210Y-137054D01*
Y-144925D01*
Y-139022D01*
X1078339D01*
X1090146Y-144925D02*
Y-133118D01*
X1096049D01*
X1098017Y-135086D01*
Y-139022D01*
X1096049Y-140990D01*
X1090146D01*
X1094082D02*
X1098017Y-144925D01*
X1109825Y-133118D02*
X1101953D01*
Y-144925D01*
X1109825D01*
X1101953Y-139022D02*
X1105889D01*
X1113760Y-144925D02*
Y-137054D01*
X1117696Y-133118D01*
X1121632Y-137054D01*
Y-144925D01*
Y-139022D01*
X1113760D01*
X1137375Y-135086D02*
X1139343Y-133118D01*
X1143278D01*
X1145246Y-135086D01*
Y-137054D01*
X1143278Y-139022D01*
X1141310D01*
X1143278D01*
X1145246Y-140990D01*
Y-142957D01*
X1143278Y-144925D01*
X1139343D01*
X1137375Y-142957D01*
X1149182Y-135086D02*
X1151150Y-133118D01*
X1155085D01*
X1157053Y-135086D01*
Y-142957D01*
X1155085Y-144925D01*
X1151150D01*
X1149182Y-142957D01*
Y-135086D01*
X1160989D02*
X1162957Y-133118D01*
X1166893D01*
X1168861Y-135086D01*
Y-142957D01*
X1166893Y-144925D01*
X1162957D01*
X1160989Y-142957D01*
Y-135086D01*
X1172796Y-144925D02*
X1176732D01*
X1174764D01*
Y-133118D01*
X1172796Y-135086D01*
X1202314D02*
X1200346Y-133118D01*
X1196411D01*
X1194443Y-135086D01*
Y-137054D01*
X1196411Y-139022D01*
X1200346D01*
X1202314Y-140990D01*
Y-142957D01*
X1200346Y-144925D01*
X1196411D01*
X1194443Y-142957D01*
X1218057Y-144925D02*
Y-133118D01*
X1223961D01*
X1225929Y-135086D01*
Y-139022D01*
X1223961Y-140990D01*
X1218057D01*
X1221993D02*
X1225929Y-144925D01*
X1229865D02*
X1233800D01*
X1231832D01*
Y-137054D01*
X1229865D01*
X1239704Y-144925D02*
Y-137054D01*
X1245607D01*
X1247575Y-139022D01*
Y-144925D01*
X1255447Y-148861D02*
X1257415D01*
X1259383Y-146893D01*
Y-137054D01*
X1253479D01*
X1251511Y-139022D01*
Y-142957D01*
X1253479Y-144925D01*
X1259383D01*
D11*
X46260Y30512D02*
G03*
X42323Y34449I-3937J0D01*
G01*
Y8858D02*
G03*
X46260Y12795I0J3937D01*
G01*
X4921D02*
G03*
X8858Y8858I3937J0D01*
G01*
Y34449D02*
G03*
X4921Y30512I0J-3937D01*
G01*
X0Y5906D02*
G03*
X5906Y0I5906J0D01*
G01*
X51181Y37402D02*
G03*
X45276Y43307I-5906J0D01*
G01*
Y0D02*
G03*
X51181Y5906I0J5906D01*
G01*
X5906Y43307D02*
G03*
X0Y37402I0J-5906D01*
G01*
X8858Y8858D02*
X42323D01*
X46260Y12795D02*
Y30512D01*
X8858Y34449D02*
X42323D01*
X4921Y12795D02*
Y30512D01*
X0Y5906D02*
Y37402D01*
X51181Y5906D02*
Y37402D01*
X5906Y0D02*
X45276D01*
X5906Y43307D02*
X45276D01*
D12*
X8169Y23227D02*
Y20079D01*
X9744D01*
X10268Y20604D01*
Y21128D01*
X9744Y21653D01*
X8169D01*
X9744D01*
X10268Y22178D01*
Y22703D01*
X9744Y23227D01*
X8169D01*
X11843Y20079D02*
X12892D01*
X13417Y20604D01*
Y21653D01*
X12892Y22178D01*
X11843D01*
X11318Y21653D01*
Y20604D01*
X11843Y20079D01*
X14991Y22178D02*
X16041D01*
X16566Y21653D01*
Y20079D01*
X14991D01*
X14467Y20604D01*
X14991Y21128D01*
X16566D01*
X17615Y22178D02*
Y20079D01*
Y21128D01*
X18140Y21653D01*
X18665Y22178D01*
X19189D01*
X22863Y23227D02*
Y20079D01*
X21288D01*
X20764Y20604D01*
Y21653D01*
X21288Y22178D01*
X22863D01*
X29160Y22703D02*
X28635Y23227D01*
X27586D01*
X27061Y22703D01*
Y20604D01*
X27586Y20079D01*
X28635D01*
X29160Y20604D01*
X30209Y22178D02*
Y20604D01*
X30734Y20079D01*
X32309D01*
Y22178D01*
X33883Y22703D02*
Y22178D01*
X33358D01*
X34407D01*
X33883D01*
Y20604D01*
X34407Y20079D01*
X36507D02*
X37556D01*
X38081Y20604D01*
Y21653D01*
X37556Y22178D01*
X36507D01*
X35982Y21653D01*
Y20604D01*
X36507Y20079D01*
X39130Y22178D02*
Y20604D01*
X39655Y20079D01*
X41230D01*
Y22178D01*
X42804Y22703D02*
Y22178D01*
X42279D01*
X43329D01*
X42804D01*
Y20604D01*
X43329Y20079D01*
D13*
X1178748Y-229571D02*
Y-190201D01*
X1021267Y-150831D02*
X1296858D01*
X1021267Y-190201D02*
X1296858D01*
X824417Y-229571D02*
X1296858D01*
X824417Y-111461D02*
X1296858D01*
X824417Y-268941D02*
Y-111461D01*
X1021267Y-268941D02*
Y-111461D01*
X-356685Y900350D02*
X1296858D01*
Y-268941D02*
Y900350D01*
X-356685Y-268941D02*
Y900350D01*
Y-268941D02*
X1296858D01*
X1035046Y-256147D02*
X1034062Y-255164D01*
X1032094D01*
X1031110Y-256147D01*
Y-257131D01*
X1032094Y-258115D01*
X1034062D01*
X1035046Y-259099D01*
Y-260083D01*
X1034062Y-261067D01*
X1032094D01*
X1031110Y-260083D01*
X1037014Y-261067D02*
Y-257131D01*
X1038981Y-255164D01*
X1040949Y-257131D01*
Y-261067D01*
Y-258115D01*
X1037014D01*
X1045869Y-255164D02*
X1043901D01*
X1042917Y-256147D01*
Y-260083D01*
X1043901Y-261067D01*
X1045869D01*
X1046853Y-260083D01*
Y-256147D01*
X1045869Y-255164D01*
X1048821Y-262051D02*
X1052757D01*
X1054724Y-261067D02*
Y-257131D01*
X1056692Y-255164D01*
X1058660Y-257131D01*
Y-261067D01*
Y-258115D01*
X1054724D01*
X1060628Y-257131D02*
Y-261067D01*
Y-259099D01*
X1061612Y-258115D01*
X1062596Y-257131D01*
X1063580D01*
X1069483Y-261067D02*
X1067515D01*
X1066531Y-260083D01*
Y-258115D01*
X1067515Y-257131D01*
X1069483D01*
X1070467Y-258115D01*
Y-259099D01*
X1066531D01*
X1073419Y-257131D02*
X1075387D01*
X1076371Y-258115D01*
Y-261067D01*
X1073419D01*
X1072435Y-260083D01*
X1073419Y-259099D01*
X1076371D01*
X1078339Y-256147D02*
X1079323Y-255164D01*
X1081291D01*
X1082275Y-256147D01*
Y-257131D01*
X1081291Y-258115D01*
X1080307D01*
X1081291D01*
X1082275Y-259099D01*
Y-260083D01*
X1081291Y-261067D01*
X1079323D01*
X1078339Y-260083D01*
X1084242Y-256147D02*
X1085226Y-255164D01*
X1087194D01*
X1088178Y-256147D01*
Y-260083D01*
X1087194Y-261067D01*
X1085226D01*
X1084242Y-260083D01*
Y-256147D01*
X1090146D02*
X1091130Y-255164D01*
X1093098D01*
X1094082Y-256147D01*
Y-260083D01*
X1093098Y-261067D01*
X1091130D01*
X1090146Y-260083D01*
Y-256147D01*
X1096049Y-261067D02*
X1098017D01*
X1097034D01*
Y-255164D01*
X1096049Y-256147D01*
X1100969Y-262051D02*
X1104905D01*
X1110808Y-256147D02*
X1109825Y-255164D01*
X1107857D01*
X1106873Y-256147D01*
Y-257131D01*
X1107857Y-258115D01*
X1109825D01*
X1110808Y-259099D01*
Y-260083D01*
X1109825Y-261067D01*
X1107857D01*
X1106873Y-260083D01*
X1112776Y-262051D02*
X1116712D01*
X1118680Y-261067D02*
Y-255164D01*
X1121632D01*
X1122616Y-256147D01*
Y-258115D01*
X1121632Y-259099D01*
X1118680D01*
X1120648D02*
X1122616Y-261067D01*
X1124584D02*
X1126552D01*
X1125568D01*
Y-257131D01*
X1124584D01*
X1129503Y-261067D02*
Y-257131D01*
X1132455D01*
X1133439Y-258115D01*
Y-261067D01*
X1137375Y-263035D02*
X1138359D01*
X1139343Y-262051D01*
Y-257131D01*
X1136391D01*
X1135407Y-258115D01*
Y-260083D01*
X1136391Y-261067D01*
X1139343D01*
X1141311Y-262051D02*
X1145246D01*
X1147214Y-256147D02*
X1148198Y-255164D01*
X1150166D01*
X1151150Y-256147D01*
Y-260083D01*
X1150166Y-261067D01*
X1148198D01*
X1147214Y-260083D01*
Y-256147D01*
X1153118D02*
X1154102Y-255164D01*
X1156069D01*
X1157053Y-256147D01*
Y-260083D01*
X1156069Y-261067D01*
X1154102D01*
X1153118Y-260083D01*
Y-256147D01*
X1159021Y-261067D02*
Y-260083D01*
X1160005D01*
Y-261067D01*
X1159021D01*
X1163941D02*
Y-255164D01*
X1166893D01*
X1167877Y-256147D01*
Y-258115D01*
X1166893Y-259099D01*
X1163941D01*
X1173780Y-257131D02*
X1170829D01*
X1169845Y-258115D01*
Y-260083D01*
X1170829Y-261067D01*
X1173780D01*
X1175748Y-255164D02*
Y-261067D01*
X1178700D01*
X1179684Y-260083D01*
Y-259099D01*
Y-258115D01*
X1178700Y-257131D01*
X1175748D01*
X1181652Y-255164D02*
Y-261067D01*
X1184604D01*
X1185588Y-260083D01*
Y-256147D01*
X1184604Y-255164D01*
X1181652D01*
X1188539Y-261067D02*
X1190507D01*
X1191491Y-260083D01*
Y-258115D01*
X1190507Y-257131D01*
X1188539D01*
X1187555Y-258115D01*
Y-260083D01*
X1188539Y-261067D01*
X1197395Y-257131D02*
X1194443D01*
X1193459Y-258115D01*
Y-260083D01*
X1194443Y-261067D01*
X1197395D01*
D14*
X1182685Y-202012D02*
Y-194141D01*
X1186621D01*
X1187932Y-195452D01*
Y-198076D01*
X1186621Y-199388D01*
X1182685D01*
X1185308D02*
X1187932Y-202012D01*
X1194492D02*
X1191868D01*
X1190556Y-200700D01*
Y-198076D01*
X1191868Y-196764D01*
X1194492D01*
X1195804Y-198076D01*
Y-199388D01*
X1190556D01*
X1198428Y-196764D02*
X1201052Y-202012D01*
X1203675Y-196764D01*
X828354Y-233511D02*
Y-241382D01*
X832290D01*
X833602Y-240070D01*
Y-234823D01*
X832290Y-233511D01*
X828354D01*
X840161Y-241382D02*
X837537D01*
X836226Y-240070D01*
Y-237446D01*
X837537Y-236134D01*
X840161D01*
X841473Y-237446D01*
Y-238758D01*
X836226D01*
X844097Y-241382D02*
X848033D01*
X849345Y-240070D01*
X848033Y-238758D01*
X845409D01*
X844097Y-237446D01*
X845409Y-236134D01*
X849345D01*
X854592Y-244006D02*
X855904D01*
X857216Y-242694D01*
Y-236134D01*
X853280D01*
X851968Y-237446D01*
Y-240070D01*
X853280Y-241382D01*
X857216D01*
X859840D02*
X862464D01*
X861152D01*
Y-236134D01*
X859840D01*
X866399Y-241382D02*
Y-236134D01*
X870335D01*
X871647Y-237446D01*
Y-241382D01*
X878207D02*
X875583D01*
X874271Y-240070D01*
Y-237446D01*
X875583Y-236134D01*
X878207D01*
X879519Y-237446D01*
Y-238758D01*
X874271D01*
X882143Y-236134D02*
Y-241382D01*
Y-238758D01*
X883454Y-237446D01*
X884766Y-236134D01*
X886078D01*
X1025204Y-115400D02*
Y-123272D01*
X1029140D01*
X1030452Y-121960D01*
Y-116712D01*
X1029140Y-115400D01*
X1025204D01*
X1034388Y-123272D02*
X1037012D01*
X1038323Y-121960D01*
Y-119336D01*
X1037012Y-118024D01*
X1034388D01*
X1033076Y-119336D01*
Y-121960D01*
X1034388Y-123272D01*
X1046195Y-118024D02*
X1042259D01*
X1040947Y-119336D01*
Y-121960D01*
X1042259Y-123272D01*
X1046195D01*
X1048819Y-118024D02*
Y-121960D01*
X1050131Y-123272D01*
X1054066D01*
Y-118024D01*
X1056690Y-123272D02*
Y-118024D01*
X1058002D01*
X1059314Y-119336D01*
Y-123272D01*
Y-119336D01*
X1060626Y-118024D01*
X1061938Y-119336D01*
Y-123272D01*
X1068498D02*
X1065874D01*
X1064562Y-121960D01*
Y-119336D01*
X1065874Y-118024D01*
X1068498D01*
X1069810Y-119336D01*
Y-120648D01*
X1064562D01*
X1072433Y-123272D02*
Y-118024D01*
X1076369D01*
X1077681Y-119336D01*
Y-123272D01*
X1081617Y-116712D02*
Y-118024D01*
X1080305D01*
X1082929D01*
X1081617D01*
Y-121960D01*
X1082929Y-123272D01*
X1025204Y-154770D02*
Y-162642D01*
X1030452D01*
X1034388Y-157394D02*
X1037012D01*
X1038323Y-158706D01*
Y-162642D01*
X1034388D01*
X1033076Y-161330D01*
X1034388Y-160018D01*
X1038323D01*
X1040947Y-157394D02*
Y-161330D01*
X1042259Y-162642D01*
X1046195D01*
Y-163954D01*
X1044883Y-165266D01*
X1043571D01*
X1046195Y-162642D02*
Y-157394D01*
X1052755Y-162642D02*
X1050131D01*
X1048819Y-161330D01*
Y-158706D01*
X1050131Y-157394D01*
X1052755D01*
X1054066Y-158706D01*
Y-160018D01*
X1048819D01*
X1056690Y-157394D02*
Y-162642D01*
Y-160018D01*
X1058002Y-158706D01*
X1059314Y-157394D01*
X1060626D01*
X1072433Y-162642D02*
Y-154770D01*
X1077681Y-162642D01*
Y-154770D01*
X1081617Y-157394D02*
X1084241D01*
X1085552Y-158706D01*
Y-162642D01*
X1081617D01*
X1080305Y-161330D01*
X1081617Y-160018D01*
X1085552D01*
X1088176Y-162642D02*
Y-157394D01*
X1089488D01*
X1090800Y-158706D01*
Y-162642D01*
Y-158706D01*
X1092112Y-157394D01*
X1093424Y-158706D01*
Y-162642D01*
X1099984D02*
X1097360D01*
X1096048Y-161330D01*
Y-158706D01*
X1097360Y-157394D01*
X1099984D01*
X1101295Y-158706D01*
Y-160018D01*
X1096048D01*
X1025204Y-194141D02*
Y-202012D01*
X1029140D01*
X1030452Y-200700D01*
Y-195452D01*
X1029140Y-194141D01*
X1025204D01*
X1034388Y-196764D02*
X1037012D01*
X1038323Y-198076D01*
Y-202012D01*
X1034388D01*
X1033076Y-200700D01*
X1034388Y-199388D01*
X1038323D01*
X1042259Y-195452D02*
Y-196764D01*
X1040947D01*
X1043571D01*
X1042259D01*
Y-200700D01*
X1043571Y-202012D01*
X1051443D02*
X1048819D01*
X1047507Y-200700D01*
Y-198076D01*
X1048819Y-196764D01*
X1051443D01*
X1052755Y-198076D01*
Y-199388D01*
X1047507D01*
X1025204Y-233511D02*
Y-241382D01*
X1029140D01*
X1030452Y-240070D01*
Y-234823D01*
X1029140Y-233511D01*
X1025204D01*
X1034388Y-241382D02*
X1037012D01*
X1038323Y-240070D01*
Y-237446D01*
X1037012Y-236134D01*
X1034388D01*
X1033076Y-237446D01*
Y-240070D01*
X1034388Y-241382D01*
X1046195Y-236134D02*
X1042259D01*
X1040947Y-237446D01*
Y-240070D01*
X1042259Y-241382D01*
X1046195D01*
X1048819Y-236134D02*
Y-240070D01*
X1050131Y-241382D01*
X1054066D01*
Y-236134D01*
X1056690Y-241382D02*
Y-236134D01*
X1058002D01*
X1059314Y-237446D01*
Y-241382D01*
Y-237446D01*
X1060626Y-236134D01*
X1061938Y-237446D01*
Y-241382D01*
X1068498D02*
X1065874D01*
X1064562Y-240070D01*
Y-237446D01*
X1065874Y-236134D01*
X1068498D01*
X1069810Y-237446D01*
Y-238758D01*
X1064562D01*
X1072433Y-241382D02*
Y-236134D01*
X1076369D01*
X1077681Y-237446D01*
Y-241382D01*
X1081617Y-234823D02*
Y-236134D01*
X1080305D01*
X1082929D01*
X1081617D01*
Y-240070D01*
X1082929Y-241382D01*
M02*
