G04*
G04 #@! TF.GenerationSoftware,Altium Limited,Altium Designer,18.1.7 (191)*
G04*
G04 Layer_Color=2752767*
%FSLAX25Y25*%
%MOIN*%
G70*
G01*
G75*
%ADD10C,0.01575*%
%ADD11C,0.00984*%
%ADD12C,0.00394*%
%ADD13C,0.00787*%
%ADD18C,0.00591*%
%ADD19C,0.00200*%
%ADD20C,0.00945*%
G36*
X872201Y-141778D02*
X873919D01*
Y-142065D01*
X874778D01*
Y-142351D01*
X875637D01*
Y-142637D01*
X876496D01*
Y-142924D01*
X877069D01*
Y-143210D01*
X877355D01*
Y-143496D01*
X877928D01*
Y-143783D01*
X878214D01*
Y-144069D01*
X878786D01*
Y-144355D01*
X879073D01*
Y-144641D01*
X879359D01*
Y-144928D01*
X879646D01*
Y-145214D01*
X879932D01*
Y-145501D01*
X880218D01*
Y-145787D01*
X880504D01*
Y-146073D01*
Y-146359D01*
X880791D01*
Y-146646D01*
X881077D01*
Y-146932D01*
Y-147218D01*
X881363D01*
Y-147505D01*
X881650D01*
Y-147791D01*
Y-148077D01*
X881936D01*
Y-148364D01*
Y-148650D01*
Y-148936D01*
X882222D01*
Y-149223D01*
Y-149509D01*
Y-149795D01*
X882509D01*
Y-150082D01*
Y-150368D01*
Y-150654D01*
Y-150940D01*
X882795D01*
Y-151227D01*
Y-151513D01*
Y-151799D01*
Y-152086D01*
Y-152372D01*
X883081D01*
Y-152658D01*
Y-152945D01*
Y-153231D01*
Y-153517D01*
Y-153804D01*
Y-154090D01*
Y-154376D01*
Y-154663D01*
Y-154949D01*
Y-155235D01*
Y-155521D01*
Y-155808D01*
Y-156094D01*
Y-156380D01*
Y-156667D01*
Y-156953D01*
Y-157239D01*
Y-157526D01*
Y-157812D01*
Y-158098D01*
X882795D01*
Y-158385D01*
Y-158671D01*
Y-158957D01*
Y-159244D01*
Y-159530D01*
Y-159816D01*
Y-160102D01*
X882509D01*
Y-160389D01*
Y-160675D01*
Y-160961D01*
Y-161248D01*
Y-161534D01*
X882222D01*
Y-161820D01*
Y-162107D01*
Y-162393D01*
Y-162679D01*
Y-162966D01*
X881936D01*
Y-163252D01*
Y-163538D01*
Y-163824D01*
X881650D01*
Y-164111D01*
Y-164397D01*
Y-164683D01*
Y-164970D01*
X881363D01*
Y-165256D01*
Y-165542D01*
Y-165829D01*
X881077D01*
Y-166115D01*
Y-166401D01*
X880791D01*
Y-166688D01*
Y-166974D01*
Y-167260D01*
X880504D01*
Y-167547D01*
Y-167833D01*
X880218D01*
Y-168119D01*
Y-168405D01*
X879932D01*
Y-168692D01*
Y-168978D01*
X879646D01*
Y-169264D01*
X879359D01*
Y-169551D01*
Y-169837D01*
X879073D01*
Y-170123D01*
X878786D01*
Y-170410D01*
X878500D01*
Y-170696D01*
Y-170982D01*
X878214D01*
Y-171269D01*
X877928D01*
Y-171555D01*
X877641D01*
Y-171841D01*
X877355D01*
Y-172127D01*
X877069D01*
Y-172414D01*
X876496D01*
Y-172700D01*
X876210D01*
Y-172986D01*
X875637D01*
Y-173273D01*
X875351D01*
Y-173559D01*
X874778D01*
Y-173845D01*
X873919D01*
Y-174132D01*
X873060D01*
Y-174418D01*
X872201D01*
Y-174704D01*
X870483D01*
Y-174991D01*
X865330D01*
Y-174704D01*
X862753D01*
Y-174418D01*
X860749D01*
Y-174132D01*
X859317D01*
Y-173845D01*
X857886D01*
Y-173559D01*
X856454D01*
Y-173845D01*
Y-174132D01*
Y-174418D01*
Y-174704D01*
Y-174991D01*
Y-175277D01*
Y-175563D01*
X856168D01*
Y-175850D01*
Y-176136D01*
Y-176422D01*
Y-176709D01*
Y-176995D01*
Y-177281D01*
X855882D01*
Y-177568D01*
Y-177854D01*
Y-178140D01*
Y-178426D01*
Y-178713D01*
Y-178999D01*
X855595D01*
Y-179285D01*
Y-179572D01*
Y-179858D01*
Y-180144D01*
Y-180431D01*
Y-180717D01*
Y-181003D01*
X855309D01*
Y-181290D01*
Y-181576D01*
Y-181862D01*
Y-182149D01*
Y-182435D01*
Y-182721D01*
X855023D01*
Y-183007D01*
Y-183294D01*
Y-183580D01*
Y-183866D01*
Y-184153D01*
Y-184439D01*
X854736D01*
Y-184725D01*
Y-185012D01*
Y-185298D01*
Y-185584D01*
Y-185871D01*
Y-186157D01*
Y-186443D01*
X854450D01*
Y-186730D01*
Y-187016D01*
Y-187302D01*
Y-187588D01*
Y-187875D01*
Y-188161D01*
X854164D01*
Y-188447D01*
Y-188734D01*
Y-189020D01*
Y-189306D01*
Y-189593D01*
Y-189879D01*
X853877D01*
Y-190165D01*
Y-190452D01*
Y-190738D01*
Y-191024D01*
Y-191311D01*
Y-191597D01*
Y-191883D01*
X840421D01*
Y-191597D01*
X840707D01*
Y-191311D01*
Y-191024D01*
Y-190738D01*
Y-190452D01*
Y-190165D01*
X840993D01*
Y-189879D01*
Y-189593D01*
Y-189306D01*
Y-189020D01*
Y-188734D01*
Y-188447D01*
Y-188161D01*
X841280D01*
Y-187875D01*
Y-187588D01*
Y-187302D01*
Y-187016D01*
Y-186730D01*
Y-186443D01*
X841566D01*
Y-186157D01*
Y-185871D01*
Y-185584D01*
Y-185298D01*
Y-185012D01*
Y-184725D01*
X841852D01*
Y-184439D01*
Y-184153D01*
Y-183866D01*
Y-183580D01*
Y-183294D01*
Y-183007D01*
Y-182721D01*
X842138D01*
Y-182435D01*
Y-182149D01*
Y-181862D01*
Y-181576D01*
Y-181290D01*
Y-181003D01*
X842425D01*
Y-180717D01*
Y-180431D01*
Y-180144D01*
Y-179858D01*
Y-179572D01*
Y-179285D01*
X842711D01*
Y-178999D01*
Y-178713D01*
Y-178426D01*
Y-178140D01*
Y-177854D01*
Y-177568D01*
X842997D01*
Y-177281D01*
Y-176995D01*
Y-176709D01*
Y-176422D01*
Y-176136D01*
Y-175850D01*
Y-175563D01*
X843284D01*
Y-175277D01*
Y-174991D01*
Y-174704D01*
Y-174418D01*
Y-174132D01*
Y-173845D01*
X843570D01*
Y-173559D01*
Y-173273D01*
Y-172986D01*
Y-172700D01*
Y-172414D01*
Y-172127D01*
X843856D01*
Y-171841D01*
Y-171555D01*
Y-171269D01*
Y-170982D01*
Y-170696D01*
Y-170410D01*
X844143D01*
Y-170123D01*
Y-169837D01*
Y-169551D01*
Y-169264D01*
Y-168978D01*
Y-168692D01*
Y-168405D01*
X844429D01*
Y-168119D01*
Y-167833D01*
Y-167547D01*
Y-167260D01*
Y-166974D01*
Y-166688D01*
X844715D01*
Y-166401D01*
Y-166115D01*
Y-165829D01*
Y-165542D01*
Y-165256D01*
Y-164970D01*
X845002D01*
Y-164683D01*
Y-164397D01*
Y-164111D01*
Y-163824D01*
Y-163538D01*
Y-163252D01*
Y-162966D01*
X845288D01*
Y-162679D01*
Y-162393D01*
Y-162107D01*
Y-161820D01*
Y-161534D01*
Y-161248D01*
X845574D01*
Y-160961D01*
Y-160675D01*
Y-160389D01*
Y-160102D01*
Y-159816D01*
Y-159530D01*
X845861D01*
Y-159244D01*
Y-158957D01*
Y-158671D01*
Y-158385D01*
Y-158098D01*
Y-157812D01*
X846147D01*
Y-157526D01*
Y-157239D01*
Y-156953D01*
Y-156667D01*
Y-156380D01*
Y-156094D01*
Y-155808D01*
X846433D01*
Y-155521D01*
Y-155235D01*
Y-154949D01*
Y-154663D01*
Y-154376D01*
Y-154090D01*
X846719D01*
Y-153804D01*
Y-153517D01*
Y-153231D01*
Y-152945D01*
Y-152658D01*
Y-152372D01*
X847006D01*
Y-152086D01*
Y-151799D01*
Y-151513D01*
Y-151227D01*
Y-150940D01*
Y-150654D01*
Y-150368D01*
X847292D01*
Y-150082D01*
Y-149795D01*
Y-149509D01*
Y-149223D01*
Y-148936D01*
Y-148650D01*
X847578D01*
Y-148364D01*
Y-148077D01*
Y-147791D01*
Y-147505D01*
Y-147218D01*
Y-146932D01*
X847865D01*
Y-146646D01*
Y-146359D01*
Y-146073D01*
Y-145787D01*
Y-145501D01*
Y-145214D01*
Y-144928D01*
X848151D01*
Y-144641D01*
Y-144355D01*
Y-144069D01*
Y-143783D01*
Y-143496D01*
Y-143210D01*
X848437D01*
Y-142924D01*
Y-142637D01*
Y-142351D01*
Y-142065D01*
Y-141778D01*
Y-141492D01*
X872201D01*
Y-141778D01*
D02*
G37*
G36*
X903409Y-138343D02*
Y-138629D01*
X903123D01*
Y-138915D01*
Y-139202D01*
Y-139488D01*
Y-139774D01*
Y-140060D01*
Y-140347D01*
X902837D01*
Y-140633D01*
Y-140919D01*
Y-141206D01*
Y-141492D01*
Y-141778D01*
Y-142065D01*
X902551D01*
Y-142351D01*
Y-142637D01*
Y-142924D01*
Y-143210D01*
Y-143496D01*
Y-143783D01*
Y-144069D01*
X902264D01*
Y-144355D01*
Y-144641D01*
Y-144928D01*
Y-145214D01*
Y-145501D01*
Y-145787D01*
X901978D01*
Y-146073D01*
Y-146359D01*
Y-146646D01*
Y-146932D01*
Y-147218D01*
Y-147505D01*
X901692D01*
Y-147791D01*
Y-148077D01*
Y-148364D01*
Y-148650D01*
Y-148936D01*
Y-149223D01*
Y-149509D01*
X901405D01*
Y-149795D01*
Y-150082D01*
Y-150368D01*
Y-150654D01*
Y-150940D01*
Y-151227D01*
X901119D01*
Y-151513D01*
Y-151799D01*
Y-152086D01*
Y-152372D01*
Y-152658D01*
Y-152945D01*
X900833D01*
Y-153231D01*
Y-153517D01*
Y-153804D01*
Y-154090D01*
Y-154376D01*
Y-154663D01*
X900546D01*
Y-154949D01*
Y-155235D01*
Y-155521D01*
Y-155808D01*
Y-156094D01*
Y-156380D01*
Y-156667D01*
X900260D01*
Y-156953D01*
Y-157239D01*
Y-157526D01*
Y-157812D01*
Y-158098D01*
Y-158385D01*
X899974D01*
Y-158671D01*
Y-158957D01*
X900546D01*
Y-158671D01*
X900833D01*
Y-158385D01*
X901119D01*
Y-158098D01*
X901692D01*
Y-157812D01*
X901978D01*
Y-157526D01*
X902264D01*
Y-157239D01*
X902837D01*
Y-156953D01*
X903409D01*
Y-156667D01*
X903696D01*
Y-156380D01*
X904268D01*
Y-156094D01*
X905127D01*
Y-155808D01*
X905700D01*
Y-155521D01*
X906559D01*
Y-155235D01*
X907990D01*
Y-154949D01*
X914289D01*
Y-155235D01*
X915435D01*
Y-155521D01*
X916294D01*
Y-155808D01*
X916866D01*
Y-156094D01*
X917153D01*
Y-156380D01*
X917725D01*
Y-156667D01*
X918011D01*
Y-156953D01*
X918298D01*
Y-157239D01*
X918584D01*
Y-157526D01*
X918870D01*
Y-157812D01*
Y-158098D01*
X919157D01*
Y-158385D01*
Y-158671D01*
X919443D01*
Y-158957D01*
Y-159244D01*
Y-159530D01*
X919729D01*
Y-159816D01*
Y-160102D01*
Y-160389D01*
Y-160675D01*
X920016D01*
Y-160961D01*
Y-161248D01*
Y-161534D01*
Y-161820D01*
Y-162107D01*
Y-162393D01*
Y-162679D01*
Y-162966D01*
Y-163252D01*
Y-163538D01*
Y-163824D01*
Y-164111D01*
Y-164397D01*
Y-164683D01*
Y-164970D01*
Y-165256D01*
Y-165542D01*
Y-165829D01*
X919729D01*
Y-166115D01*
Y-166401D01*
Y-166688D01*
Y-166974D01*
Y-167260D01*
Y-167547D01*
Y-167833D01*
X919443D01*
Y-168119D01*
Y-168405D01*
Y-168692D01*
Y-168978D01*
Y-169264D01*
Y-169551D01*
Y-169837D01*
X919157D01*
Y-170123D01*
Y-170410D01*
Y-170696D01*
Y-170982D01*
Y-171269D01*
Y-171555D01*
X918870D01*
Y-171841D01*
Y-172127D01*
Y-172414D01*
Y-172700D01*
Y-172986D01*
Y-173273D01*
X918584D01*
Y-173559D01*
Y-173845D01*
Y-174132D01*
Y-174418D01*
Y-174704D01*
Y-174991D01*
X918298D01*
Y-175277D01*
Y-175563D01*
Y-175850D01*
Y-176136D01*
Y-176422D01*
Y-176709D01*
Y-176995D01*
X918011D01*
Y-177281D01*
Y-177568D01*
Y-177854D01*
Y-178140D01*
Y-178426D01*
Y-178713D01*
X917725D01*
Y-178999D01*
Y-179285D01*
Y-179572D01*
Y-179858D01*
Y-180144D01*
Y-180431D01*
X917439D01*
Y-180717D01*
Y-181003D01*
Y-181290D01*
Y-181576D01*
Y-181862D01*
Y-182149D01*
Y-182435D01*
X917153D01*
Y-182721D01*
Y-183007D01*
Y-183294D01*
Y-183580D01*
Y-183866D01*
Y-184153D01*
X916866D01*
Y-184439D01*
Y-184725D01*
Y-185012D01*
Y-185298D01*
Y-185584D01*
Y-185871D01*
X916580D01*
Y-186157D01*
Y-186443D01*
Y-186730D01*
Y-187016D01*
Y-187302D01*
Y-187588D01*
X916294D01*
Y-187875D01*
Y-188161D01*
Y-188447D01*
Y-188734D01*
Y-189020D01*
Y-189306D01*
Y-189593D01*
X916007D01*
Y-189879D01*
Y-190165D01*
Y-190452D01*
Y-190738D01*
Y-191024D01*
Y-191311D01*
X915721D01*
Y-191597D01*
Y-191883D01*
X902551D01*
Y-191597D01*
Y-191311D01*
X902837D01*
Y-191024D01*
Y-190738D01*
Y-190452D01*
Y-190165D01*
Y-189879D01*
Y-189593D01*
X903123D01*
Y-189306D01*
Y-189020D01*
Y-188734D01*
Y-188447D01*
Y-188161D01*
Y-187875D01*
Y-187588D01*
X903409D01*
Y-187302D01*
Y-187016D01*
Y-186730D01*
Y-186443D01*
Y-186157D01*
Y-185871D01*
X903696D01*
Y-185584D01*
Y-185298D01*
Y-185012D01*
Y-184725D01*
Y-184439D01*
Y-184153D01*
X903982D01*
Y-183866D01*
Y-183580D01*
Y-183294D01*
Y-183007D01*
Y-182721D01*
Y-182435D01*
Y-182149D01*
X904268D01*
Y-181862D01*
Y-181576D01*
Y-181290D01*
Y-181003D01*
Y-180717D01*
Y-180431D01*
X904555D01*
Y-180144D01*
Y-179858D01*
Y-179572D01*
Y-179285D01*
Y-178999D01*
Y-178713D01*
Y-178426D01*
X904841D01*
Y-178140D01*
Y-177854D01*
Y-177568D01*
Y-177281D01*
Y-176995D01*
Y-176709D01*
X905127D01*
Y-176422D01*
Y-176136D01*
Y-175850D01*
Y-175563D01*
Y-175277D01*
Y-174991D01*
X905414D01*
Y-174704D01*
Y-174418D01*
Y-174132D01*
Y-173845D01*
Y-173559D01*
Y-173273D01*
X905700D01*
Y-172986D01*
Y-172700D01*
Y-172414D01*
Y-172127D01*
Y-171841D01*
Y-171555D01*
Y-171269D01*
X905986D01*
Y-170982D01*
Y-170696D01*
Y-170410D01*
Y-170123D01*
Y-169837D01*
Y-169551D01*
X906273D01*
Y-169264D01*
Y-168978D01*
Y-168692D01*
Y-168405D01*
Y-168119D01*
Y-167833D01*
Y-167547D01*
X906559D01*
Y-167260D01*
Y-166974D01*
Y-166688D01*
Y-166401D01*
Y-166115D01*
Y-165829D01*
X906273D01*
Y-165542D01*
Y-165256D01*
X905986D01*
Y-164970D01*
X905700D01*
Y-164683D01*
X905127D01*
Y-164397D01*
X903409D01*
Y-164683D01*
X901978D01*
Y-164970D01*
X901119D01*
Y-165256D01*
X900546D01*
Y-165542D01*
X900260D01*
Y-165829D01*
X899687D01*
Y-166115D01*
X899401D01*
Y-166401D01*
X899115D01*
Y-166688D01*
Y-166974D01*
X898828D01*
Y-167260D01*
Y-167547D01*
Y-167833D01*
X898542D01*
Y-168119D01*
Y-168405D01*
Y-168692D01*
Y-168978D01*
Y-169264D01*
Y-169551D01*
X898256D01*
Y-169837D01*
Y-170123D01*
Y-170410D01*
Y-170696D01*
Y-170982D01*
Y-171269D01*
Y-171555D01*
X897970D01*
Y-171841D01*
Y-172127D01*
Y-172414D01*
Y-172700D01*
Y-172986D01*
Y-173273D01*
X897683D01*
Y-173559D01*
Y-173845D01*
Y-174132D01*
Y-174418D01*
Y-174704D01*
Y-174991D01*
X897397D01*
Y-175277D01*
Y-175563D01*
Y-175850D01*
Y-176136D01*
Y-176422D01*
Y-176709D01*
X897111D01*
Y-176995D01*
Y-177281D01*
Y-177568D01*
Y-177854D01*
Y-178140D01*
Y-178426D01*
Y-178713D01*
X896824D01*
Y-178999D01*
Y-179285D01*
Y-179572D01*
Y-179858D01*
Y-180144D01*
Y-180431D01*
X896538D01*
Y-180717D01*
Y-181003D01*
Y-181290D01*
Y-181576D01*
Y-181862D01*
Y-182149D01*
X896252D01*
Y-182435D01*
Y-182721D01*
Y-183007D01*
Y-183294D01*
Y-183580D01*
Y-183866D01*
Y-184153D01*
X895965D01*
Y-184439D01*
Y-184725D01*
Y-185012D01*
Y-185298D01*
Y-185584D01*
Y-185871D01*
X895679D01*
Y-186157D01*
Y-186443D01*
Y-186730D01*
Y-187016D01*
Y-187302D01*
Y-187588D01*
X895393D01*
Y-187875D01*
Y-188161D01*
Y-188447D01*
Y-188734D01*
Y-189020D01*
Y-189306D01*
X895106D01*
Y-189593D01*
Y-189879D01*
Y-190165D01*
Y-190452D01*
Y-190738D01*
Y-191024D01*
Y-191311D01*
X894820D01*
Y-191597D01*
Y-191883D01*
X881650D01*
Y-191597D01*
Y-191311D01*
X881936D01*
Y-191024D01*
Y-190738D01*
Y-190452D01*
Y-190165D01*
Y-189879D01*
Y-189593D01*
Y-189306D01*
X882222D01*
Y-189020D01*
Y-188734D01*
Y-188447D01*
Y-188161D01*
Y-187875D01*
Y-187588D01*
X882509D01*
Y-187302D01*
Y-187016D01*
Y-186730D01*
Y-186443D01*
Y-186157D01*
Y-185871D01*
X882795D01*
Y-185584D01*
Y-185298D01*
Y-185012D01*
Y-184725D01*
Y-184439D01*
Y-184153D01*
Y-183866D01*
X883081D01*
Y-183580D01*
Y-183294D01*
Y-183007D01*
Y-182721D01*
Y-182435D01*
Y-182149D01*
X883368D01*
Y-181862D01*
Y-181576D01*
Y-181290D01*
Y-181003D01*
Y-180717D01*
Y-180431D01*
X883654D01*
Y-180144D01*
Y-179858D01*
Y-179572D01*
Y-179285D01*
Y-178999D01*
Y-178713D01*
X883940D01*
Y-178426D01*
Y-178140D01*
Y-177854D01*
Y-177568D01*
Y-177281D01*
Y-176995D01*
Y-176709D01*
X884227D01*
Y-176422D01*
Y-176136D01*
Y-175850D01*
Y-175563D01*
Y-175277D01*
Y-174991D01*
X884513D01*
Y-174704D01*
Y-174418D01*
Y-174132D01*
Y-173845D01*
Y-173559D01*
Y-173273D01*
X884799D01*
Y-172986D01*
Y-172700D01*
Y-172414D01*
Y-172127D01*
Y-171841D01*
Y-171555D01*
Y-171269D01*
X885085D01*
Y-170982D01*
Y-170696D01*
Y-170410D01*
Y-170123D01*
Y-169837D01*
Y-169551D01*
X885372D01*
Y-169264D01*
Y-168978D01*
Y-168692D01*
Y-168405D01*
Y-168119D01*
Y-167833D01*
X885658D01*
Y-167547D01*
Y-167260D01*
Y-166974D01*
Y-166688D01*
Y-166401D01*
Y-166115D01*
X885944D01*
Y-165829D01*
Y-165542D01*
Y-165256D01*
Y-164970D01*
Y-164683D01*
Y-164397D01*
Y-164111D01*
X886231D01*
Y-163824D01*
Y-163538D01*
Y-163252D01*
Y-162966D01*
Y-162679D01*
Y-162393D01*
X886517D01*
Y-162107D01*
Y-161820D01*
Y-161534D01*
Y-161248D01*
Y-160961D01*
Y-160675D01*
X886803D01*
Y-160389D01*
Y-160102D01*
Y-159816D01*
Y-159530D01*
Y-159244D01*
Y-158957D01*
X887090D01*
Y-158671D01*
Y-158385D01*
Y-158098D01*
Y-157812D01*
Y-157526D01*
Y-157239D01*
Y-156953D01*
X887376D01*
Y-156667D01*
Y-156380D01*
Y-156094D01*
Y-155808D01*
Y-155521D01*
Y-155235D01*
X887662D01*
Y-154949D01*
Y-154663D01*
Y-154376D01*
Y-154090D01*
Y-153804D01*
Y-153517D01*
X887949D01*
Y-153231D01*
Y-152945D01*
Y-152658D01*
Y-152372D01*
Y-152086D01*
Y-151799D01*
Y-151513D01*
X888235D01*
Y-151227D01*
Y-150940D01*
Y-150654D01*
Y-150368D01*
Y-150082D01*
Y-149795D01*
X888521D01*
Y-149509D01*
Y-149223D01*
Y-148936D01*
Y-148650D01*
Y-148364D01*
Y-148077D01*
X888807D01*
Y-147791D01*
Y-147505D01*
Y-147218D01*
Y-146932D01*
Y-146646D01*
Y-146359D01*
X889094D01*
Y-146073D01*
Y-145787D01*
Y-145501D01*
Y-145214D01*
Y-144928D01*
Y-144641D01*
Y-144355D01*
X889380D01*
Y-144069D01*
Y-143783D01*
Y-143496D01*
Y-143210D01*
Y-142924D01*
Y-142637D01*
X889666D01*
Y-142351D01*
Y-142065D01*
Y-141778D01*
Y-141492D01*
Y-141206D01*
Y-140919D01*
X889953D01*
Y-140633D01*
Y-140347D01*
Y-140060D01*
Y-139774D01*
Y-139488D01*
Y-139202D01*
Y-138915D01*
X890239D01*
Y-138629D01*
Y-138343D01*
Y-138056D01*
X903409D01*
Y-138343D01*
D02*
G37*
G36*
X1005337Y-155808D02*
X1005050D01*
Y-156094D01*
X1004764D01*
Y-156380D01*
Y-156667D01*
X1004478D01*
Y-156953D01*
X1004192D01*
Y-157239D01*
X1003905D01*
Y-157526D01*
Y-157812D01*
X1003619D01*
Y-158098D01*
X1003333D01*
Y-158385D01*
X1003046D01*
Y-158671D01*
X1002760D01*
Y-158957D01*
Y-159244D01*
X1002474D01*
Y-159530D01*
X1002187D01*
Y-159816D01*
X1001901D01*
Y-160102D01*
Y-160389D01*
X1001615D01*
Y-160675D01*
X1001328D01*
Y-160961D01*
X1001042D01*
Y-161248D01*
X1000756D01*
Y-161534D01*
Y-161820D01*
X1000469D01*
Y-162107D01*
X1000183D01*
Y-162393D01*
X999897D01*
Y-162679D01*
Y-162966D01*
X999611D01*
Y-163252D01*
X999324D01*
Y-163538D01*
X999038D01*
Y-163824D01*
Y-164111D01*
X998752D01*
Y-164397D01*
X998465D01*
Y-164683D01*
X998179D01*
Y-164970D01*
X997893D01*
Y-165256D01*
Y-165542D01*
X997606D01*
Y-165829D01*
X997320D01*
Y-166115D01*
X997034D01*
Y-166401D01*
Y-166688D01*
X996747D01*
Y-166974D01*
X996461D01*
Y-167260D01*
X996175D01*
Y-167547D01*
Y-167833D01*
X995889D01*
Y-168119D01*
X995602D01*
Y-168405D01*
X995316D01*
Y-168692D01*
X995030D01*
Y-168978D01*
Y-169264D01*
X994743D01*
Y-169551D01*
X994457D01*
Y-169837D01*
X994171D01*
Y-170123D01*
Y-170410D01*
X993884D01*
Y-170696D01*
X993598D01*
Y-170982D01*
X993312D01*
Y-171269D01*
Y-171555D01*
X993025D01*
Y-171841D01*
X992739D01*
Y-172127D01*
X992453D01*
Y-172414D01*
X992166D01*
Y-172700D01*
Y-172986D01*
X991880D01*
Y-173273D01*
X991594D01*
Y-173559D01*
X991308D01*
Y-173845D01*
Y-174132D01*
X991021D01*
Y-174418D01*
X990735D01*
Y-174704D01*
X990449D01*
Y-174991D01*
X990162D01*
Y-175277D01*
Y-175563D01*
X990449D01*
Y-175850D01*
Y-176136D01*
X990735D01*
Y-176422D01*
Y-176709D01*
X991021D01*
Y-176995D01*
X991308D01*
Y-177281D01*
Y-177568D01*
X991594D01*
Y-177854D01*
Y-178140D01*
X991880D01*
Y-178426D01*
Y-178713D01*
X992166D01*
Y-178999D01*
Y-179285D01*
X992453D01*
Y-179572D01*
Y-179858D01*
X992739D01*
Y-180144D01*
Y-180431D01*
X993025D01*
Y-180717D01*
Y-181003D01*
X993312D01*
Y-181290D01*
Y-181576D01*
X993598D01*
Y-181862D01*
X993884D01*
Y-182149D01*
Y-182435D01*
X994171D01*
Y-182721D01*
Y-183007D01*
X994457D01*
Y-183294D01*
Y-183580D01*
X994743D01*
Y-183866D01*
Y-184153D01*
X995030D01*
Y-184439D01*
Y-184725D01*
X995316D01*
Y-185012D01*
Y-185298D01*
X995602D01*
Y-185584D01*
Y-185871D01*
X995889D01*
Y-186157D01*
X996175D01*
Y-186443D01*
Y-186730D01*
X996461D01*
Y-187016D01*
Y-187302D01*
X996747D01*
Y-187588D01*
Y-187875D01*
X997034D01*
Y-188161D01*
Y-188447D01*
X997320D01*
Y-188734D01*
Y-189020D01*
X997606D01*
Y-189306D01*
Y-189593D01*
X997893D01*
Y-189879D01*
Y-190165D01*
X998179D01*
Y-190452D01*
X998465D01*
Y-190738D01*
Y-191024D01*
X998752D01*
Y-191311D01*
Y-191597D01*
X999038D01*
Y-191883D01*
X983863D01*
Y-191597D01*
X983577D01*
Y-191311D01*
Y-191024D01*
Y-190738D01*
X983291D01*
Y-190452D01*
Y-190165D01*
Y-189879D01*
X983004D01*
Y-189593D01*
Y-189306D01*
X982718D01*
Y-189020D01*
Y-188734D01*
Y-188447D01*
X982432D01*
Y-188161D01*
Y-187875D01*
Y-187588D01*
X982146D01*
Y-187302D01*
Y-187016D01*
X981859D01*
Y-186730D01*
Y-186443D01*
Y-186157D01*
X981573D01*
Y-185871D01*
Y-185584D01*
Y-185298D01*
X981287D01*
Y-185012D01*
Y-184725D01*
Y-184439D01*
X981000D01*
Y-184153D01*
X980428D01*
Y-184439D01*
Y-184725D01*
X980141D01*
Y-185012D01*
X979855D01*
Y-185298D01*
Y-185584D01*
X979569D01*
Y-185871D01*
X979282D01*
Y-186157D01*
Y-186443D01*
X978996D01*
Y-186730D01*
X978710D01*
Y-187016D01*
Y-187302D01*
X978423D01*
Y-187588D01*
X978137D01*
Y-187875D01*
X977851D01*
Y-188161D01*
Y-188447D01*
X977565D01*
Y-188734D01*
X977278D01*
Y-189020D01*
Y-189306D01*
X976992D01*
Y-189593D01*
X976705D01*
Y-189879D01*
Y-190165D01*
X976419D01*
Y-190452D01*
X976133D01*
Y-190738D01*
Y-191024D01*
X975847D01*
Y-191311D01*
X975560D01*
Y-191597D01*
Y-191883D01*
X959527D01*
Y-191597D01*
X959813D01*
Y-191311D01*
X960099D01*
Y-191024D01*
X960386D01*
Y-190738D01*
X960672D01*
Y-190452D01*
Y-190165D01*
X960958D01*
Y-189879D01*
X961245D01*
Y-189593D01*
X961531D01*
Y-189306D01*
X961817D01*
Y-189020D01*
Y-188734D01*
X962104D01*
Y-188447D01*
X962390D01*
Y-188161D01*
X962676D01*
Y-187875D01*
Y-187588D01*
X962963D01*
Y-187302D01*
X963249D01*
Y-187016D01*
X963535D01*
Y-186730D01*
X963822D01*
Y-186443D01*
Y-186157D01*
X964108D01*
Y-185871D01*
X964394D01*
Y-185584D01*
X964680D01*
Y-185298D01*
X964967D01*
Y-185012D01*
Y-184725D01*
X965253D01*
Y-184439D01*
X965539D01*
Y-184153D01*
X965826D01*
Y-183866D01*
Y-183580D01*
X966112D01*
Y-183294D01*
X966398D01*
Y-183007D01*
X966685D01*
Y-182721D01*
X966971D01*
Y-182435D01*
Y-182149D01*
X967257D01*
Y-181862D01*
X967544D01*
Y-181576D01*
X967830D01*
Y-181290D01*
Y-181003D01*
X968116D01*
Y-180717D01*
X968402D01*
Y-180431D01*
X968689D01*
Y-180144D01*
X968975D01*
Y-179858D01*
Y-179572D01*
X969261D01*
Y-179285D01*
X969548D01*
Y-178999D01*
X969834D01*
Y-178713D01*
Y-178426D01*
X970120D01*
Y-178140D01*
X970407D01*
Y-177854D01*
X970693D01*
Y-177568D01*
X970979D01*
Y-177281D01*
Y-176995D01*
X971266D01*
Y-176709D01*
X971552D01*
Y-176422D01*
X971838D01*
Y-176136D01*
X972124D01*
Y-175850D01*
Y-175563D01*
X972411D01*
Y-175277D01*
X972697D01*
Y-174991D01*
X972983D01*
Y-174704D01*
Y-174418D01*
X973270D01*
Y-174132D01*
X973556D01*
Y-173845D01*
X973842D01*
Y-173559D01*
X974129D01*
Y-173273D01*
Y-172986D01*
X974415D01*
Y-172700D01*
Y-172414D01*
Y-172127D01*
X974129D01*
Y-171841D01*
X973842D01*
Y-171555D01*
Y-171269D01*
X973556D01*
Y-170982D01*
Y-170696D01*
X973270D01*
Y-170410D01*
Y-170123D01*
X972983D01*
Y-169837D01*
Y-169551D01*
X972697D01*
Y-169264D01*
Y-168978D01*
X972411D01*
Y-168692D01*
Y-168405D01*
X972124D01*
Y-168119D01*
X971838D01*
Y-167833D01*
Y-167547D01*
X971552D01*
Y-167260D01*
Y-166974D01*
X971266D01*
Y-166688D01*
Y-166401D01*
X970979D01*
Y-166115D01*
Y-165829D01*
X970693D01*
Y-165542D01*
Y-165256D01*
X970407D01*
Y-164970D01*
Y-164683D01*
X970120D01*
Y-164397D01*
X969834D01*
Y-164111D01*
Y-163824D01*
X969548D01*
Y-163538D01*
Y-163252D01*
X969261D01*
Y-162966D01*
Y-162679D01*
X968975D01*
Y-162393D01*
Y-162107D01*
X968689D01*
Y-161820D01*
Y-161534D01*
X968402D01*
Y-161248D01*
Y-160961D01*
X968116D01*
Y-160675D01*
Y-160389D01*
X967830D01*
Y-160102D01*
X967544D01*
Y-159816D01*
Y-159530D01*
X967257D01*
Y-159244D01*
Y-158957D01*
X966971D01*
Y-158671D01*
Y-158385D01*
X966685D01*
Y-158098D01*
Y-157812D01*
X966398D01*
Y-157526D01*
Y-157239D01*
X966112D01*
Y-156953D01*
Y-156667D01*
X965826D01*
Y-156380D01*
X965539D01*
Y-156094D01*
Y-155808D01*
X965253D01*
Y-155521D01*
X981000D01*
Y-155808D01*
X981287D01*
Y-156094D01*
Y-156380D01*
Y-156667D01*
X981573D01*
Y-156953D01*
Y-157239D01*
Y-157526D01*
X981859D01*
Y-157812D01*
Y-158098D01*
Y-158385D01*
X982146D01*
Y-158671D01*
Y-158957D01*
Y-159244D01*
X982432D01*
Y-159530D01*
Y-159816D01*
Y-160102D01*
X982718D01*
Y-160389D01*
Y-160675D01*
Y-160961D01*
X983004D01*
Y-161248D01*
Y-161534D01*
Y-161820D01*
X983291D01*
Y-162107D01*
Y-162393D01*
Y-162679D01*
X983577D01*
Y-162966D01*
Y-163252D01*
Y-163538D01*
Y-163824D01*
X984150D01*
Y-163538D01*
X984436D01*
Y-163252D01*
X984722D01*
Y-162966D01*
Y-162679D01*
X985009D01*
Y-162393D01*
X985295D01*
Y-162107D01*
Y-161820D01*
X985581D01*
Y-161534D01*
X985868D01*
Y-161248D01*
Y-160961D01*
X986154D01*
Y-160675D01*
X986440D01*
Y-160389D01*
Y-160102D01*
X986726D01*
Y-159816D01*
X987013D01*
Y-159530D01*
Y-159244D01*
X987299D01*
Y-158957D01*
X987585D01*
Y-158671D01*
Y-158385D01*
X987872D01*
Y-158098D01*
X988158D01*
Y-157812D01*
Y-157526D01*
X988444D01*
Y-157239D01*
X988731D01*
Y-156953D01*
Y-156667D01*
X989017D01*
Y-156380D01*
X989303D01*
Y-156094D01*
Y-155808D01*
X989590D01*
Y-155521D01*
X1005337D01*
Y-155808D01*
D02*
G37*
G36*
X961245D02*
Y-156094D01*
Y-156380D01*
Y-156667D01*
Y-156953D01*
Y-157239D01*
Y-157526D01*
Y-157812D01*
Y-158098D01*
Y-158385D01*
Y-158671D01*
Y-158957D01*
Y-159244D01*
Y-159530D01*
Y-159816D01*
Y-160102D01*
Y-160389D01*
Y-160675D01*
Y-160961D01*
Y-161248D01*
Y-161534D01*
X960958D01*
Y-161820D01*
Y-162107D01*
Y-162393D01*
Y-162679D01*
Y-162966D01*
X960672D01*
Y-163252D01*
Y-163538D01*
Y-163824D01*
Y-164111D01*
X960386D01*
Y-164397D01*
Y-164683D01*
Y-164970D01*
Y-165256D01*
X960099D01*
Y-165542D01*
Y-165829D01*
Y-166115D01*
X959813D01*
Y-166401D01*
Y-166688D01*
Y-166974D01*
X959527D01*
Y-167260D01*
Y-167547D01*
Y-167833D01*
X959241D01*
Y-168119D01*
Y-168405D01*
Y-168692D01*
X958954D01*
Y-168978D01*
Y-169264D01*
X958668D01*
Y-169551D01*
Y-169837D01*
X958381D01*
Y-170123D01*
Y-170410D01*
Y-170696D01*
X958095D01*
Y-170982D01*
Y-171269D01*
X957809D01*
Y-171555D01*
Y-171841D01*
Y-172127D01*
X957523D01*
Y-172414D01*
Y-172700D01*
X957236D01*
Y-172986D01*
Y-173273D01*
Y-173559D01*
X956950D01*
Y-173845D01*
Y-174132D01*
X956664D01*
Y-174418D01*
Y-174704D01*
Y-174991D01*
X956377D01*
Y-175277D01*
Y-175563D01*
X956091D01*
Y-175850D01*
Y-176136D01*
Y-176422D01*
X955805D01*
Y-176709D01*
Y-176995D01*
X955518D01*
Y-177281D01*
Y-177568D01*
Y-177854D01*
X955232D01*
Y-178140D01*
Y-178426D01*
X954946D01*
Y-178713D01*
Y-178999D01*
Y-179285D01*
X954659D01*
Y-179572D01*
Y-179858D01*
X954373D01*
Y-180144D01*
Y-180431D01*
Y-180717D01*
X954087D01*
Y-181003D01*
Y-181290D01*
X953800D01*
Y-181576D01*
Y-181862D01*
Y-182149D01*
X953514D01*
Y-182435D01*
Y-182721D01*
X953228D01*
Y-183007D01*
Y-183294D01*
Y-183580D01*
X952942D01*
Y-183866D01*
Y-184153D01*
X952655D01*
Y-184439D01*
Y-184725D01*
Y-185012D01*
X952369D01*
Y-185298D01*
Y-185584D01*
X952083D01*
Y-185871D01*
Y-186157D01*
Y-186443D01*
X951796D01*
Y-186730D01*
Y-187016D01*
X951510D01*
Y-187302D01*
Y-187588D01*
Y-187875D01*
X951224D01*
Y-188161D01*
Y-188447D01*
X950937D01*
Y-188734D01*
Y-189020D01*
Y-189306D01*
X950651D01*
Y-189593D01*
Y-189879D01*
X950365D01*
Y-190165D01*
Y-190452D01*
Y-190738D01*
X950078D01*
Y-191024D01*
Y-191311D01*
X949792D01*
Y-191597D01*
Y-191883D01*
Y-192169D01*
X949506D01*
Y-192456D01*
Y-192742D01*
X949220D01*
Y-193028D01*
Y-193315D01*
X948933D01*
Y-193601D01*
Y-193887D01*
X948647D01*
Y-194174D01*
Y-194460D01*
Y-194746D01*
X948361D01*
Y-195033D01*
X948074D01*
Y-195319D01*
Y-195605D01*
Y-195891D01*
X947788D01*
Y-196178D01*
X947502D01*
Y-196464D01*
Y-196750D01*
X947215D01*
Y-197037D01*
Y-197323D01*
X946929D01*
Y-197609D01*
Y-197896D01*
X946643D01*
Y-198182D01*
Y-198468D01*
X946356D01*
Y-198755D01*
X946070D01*
Y-199041D01*
Y-199327D01*
X945784D01*
Y-199614D01*
Y-199900D01*
X945497D01*
Y-200186D01*
X945211D01*
Y-200472D01*
X944925D01*
Y-200759D01*
Y-201045D01*
X944639D01*
Y-201331D01*
X944352D01*
Y-201618D01*
Y-201904D01*
X944066D01*
Y-202190D01*
X943780D01*
Y-202477D01*
X943493D01*
Y-202763D01*
Y-203049D01*
X943207D01*
Y-203336D01*
X942921D01*
Y-203622D01*
X942634D01*
Y-203908D01*
X942348D01*
Y-204195D01*
X942062D01*
Y-204481D01*
Y-204767D01*
X941775D01*
Y-205053D01*
X941489D01*
Y-205340D01*
X941203D01*
Y-205626D01*
X940916D01*
Y-205912D01*
X940630D01*
Y-206199D01*
X940344D01*
Y-206485D01*
X940057D01*
Y-206771D01*
X939485D01*
Y-207058D01*
X939199D01*
Y-207344D01*
X938912D01*
Y-207630D01*
X938626D01*
Y-207917D01*
X938340D01*
Y-208203D01*
X937767D01*
Y-208489D01*
X937481D01*
Y-208776D01*
X936908D01*
Y-209062D01*
X936622D01*
Y-209348D01*
X936049D01*
Y-209634D01*
X935763D01*
Y-209921D01*
X935190D01*
Y-210207D01*
X934618D01*
Y-210493D01*
X934045D01*
Y-210780D01*
X933472D01*
Y-211066D01*
X932900D01*
Y-211352D01*
X932041D01*
Y-211639D01*
X931468D01*
Y-211925D01*
X930609D01*
Y-212211D01*
X929464D01*
Y-212498D01*
X928319D01*
Y-212784D01*
X926601D01*
Y-213070D01*
X924597D01*
Y-213357D01*
X924310D01*
Y-213070D01*
Y-212784D01*
Y-212498D01*
Y-212211D01*
Y-211925D01*
Y-211639D01*
Y-211352D01*
Y-211066D01*
Y-210780D01*
Y-210493D01*
Y-210207D01*
Y-209921D01*
Y-209634D01*
Y-209348D01*
Y-209062D01*
Y-208776D01*
Y-208489D01*
Y-208203D01*
Y-207917D01*
Y-207630D01*
Y-207344D01*
Y-207058D01*
Y-206771D01*
Y-206485D01*
Y-206199D01*
Y-205912D01*
Y-205626D01*
Y-205340D01*
Y-205053D01*
Y-204767D01*
Y-204481D01*
Y-204195D01*
Y-203908D01*
X924883D01*
Y-203622D01*
X925455D01*
Y-203336D01*
X926028D01*
Y-203049D01*
X926601D01*
Y-202763D01*
X927173D01*
Y-202477D01*
X927746D01*
Y-202190D01*
X928032D01*
Y-201904D01*
X928605D01*
Y-201618D01*
X928891D01*
Y-201331D01*
X929464D01*
Y-201045D01*
X929750D01*
Y-200759D01*
X930037D01*
Y-200472D01*
X930609D01*
Y-200186D01*
X930896D01*
Y-199900D01*
X931182D01*
Y-199614D01*
X931468D01*
Y-199327D01*
X931754D01*
Y-199041D01*
X932041D01*
Y-198755D01*
X932327D01*
Y-198468D01*
X932613D01*
Y-198182D01*
X932900D01*
Y-197896D01*
X933186D01*
Y-197609D01*
X933472D01*
Y-197323D01*
X933759D01*
Y-197037D01*
Y-196750D01*
X934045D01*
Y-196464D01*
X934331D01*
Y-196178D01*
X934618D01*
Y-195891D01*
Y-195605D01*
X934904D01*
Y-195319D01*
X935190D01*
Y-195033D01*
Y-194746D01*
X935476D01*
Y-194460D01*
Y-194174D01*
X935763D01*
Y-193887D01*
X936049D01*
Y-193601D01*
Y-193315D01*
X936335D01*
Y-193028D01*
Y-192742D01*
X936622D01*
Y-192456D01*
Y-192169D01*
X934904D01*
Y-191883D01*
X932900D01*
Y-191597D01*
X931754D01*
Y-191311D01*
X931182D01*
Y-191024D01*
X930323D01*
Y-190738D01*
X929750D01*
Y-190452D01*
X929464D01*
Y-190165D01*
X928891D01*
Y-189879D01*
X928605D01*
Y-189593D01*
X928319D01*
Y-189306D01*
X928032D01*
Y-189020D01*
X927746D01*
Y-188734D01*
X927460D01*
Y-188447D01*
Y-188161D01*
X927173D01*
Y-187875D01*
X926887D01*
Y-187588D01*
Y-187302D01*
X926601D01*
Y-187016D01*
Y-186730D01*
X926315D01*
Y-186443D01*
Y-186157D01*
X926028D01*
Y-185871D01*
Y-185584D01*
Y-185298D01*
X925742D01*
Y-185012D01*
Y-184725D01*
Y-184439D01*
Y-184153D01*
X925455D01*
Y-183866D01*
Y-183580D01*
Y-183294D01*
Y-183007D01*
Y-182721D01*
Y-182435D01*
Y-182149D01*
X925169D01*
Y-181862D01*
Y-181576D01*
Y-181290D01*
Y-181003D01*
Y-180717D01*
Y-180431D01*
Y-180144D01*
Y-179858D01*
Y-179572D01*
Y-179285D01*
Y-178999D01*
Y-178713D01*
Y-178426D01*
Y-178140D01*
Y-177854D01*
X924883D01*
Y-177568D01*
Y-177281D01*
Y-176995D01*
Y-176709D01*
Y-176422D01*
Y-176136D01*
Y-175850D01*
Y-175563D01*
Y-175277D01*
Y-174991D01*
Y-174704D01*
Y-174418D01*
Y-174132D01*
Y-173845D01*
Y-173559D01*
X924597D01*
Y-173273D01*
Y-172986D01*
Y-172700D01*
Y-172414D01*
Y-172127D01*
Y-171841D01*
Y-171555D01*
Y-171269D01*
Y-170982D01*
Y-170696D01*
Y-170410D01*
Y-170123D01*
Y-169837D01*
Y-169551D01*
Y-169264D01*
Y-168978D01*
X924310D01*
Y-168692D01*
Y-168405D01*
Y-168119D01*
Y-167833D01*
Y-167547D01*
Y-167260D01*
Y-166974D01*
Y-166688D01*
Y-166401D01*
Y-166115D01*
Y-165829D01*
Y-165542D01*
Y-165256D01*
Y-164970D01*
Y-164683D01*
Y-164397D01*
X924024D01*
Y-164111D01*
Y-163824D01*
Y-163538D01*
Y-163252D01*
Y-162966D01*
Y-162679D01*
Y-162393D01*
Y-162107D01*
Y-161820D01*
Y-161534D01*
Y-161248D01*
Y-160961D01*
Y-160675D01*
Y-160389D01*
X923738D01*
Y-160102D01*
Y-159816D01*
Y-159530D01*
Y-159244D01*
Y-158957D01*
Y-158671D01*
Y-158385D01*
Y-158098D01*
Y-157812D01*
Y-157526D01*
Y-157239D01*
Y-156953D01*
Y-156667D01*
Y-156380D01*
Y-156094D01*
Y-155808D01*
X923451D01*
Y-155521D01*
X937194D01*
Y-155808D01*
Y-156094D01*
Y-156380D01*
Y-156667D01*
Y-156953D01*
Y-157239D01*
Y-157526D01*
Y-157812D01*
Y-158098D01*
Y-158385D01*
Y-158671D01*
Y-158957D01*
Y-159244D01*
Y-159530D01*
X937481D01*
Y-159816D01*
Y-160102D01*
Y-160389D01*
Y-160675D01*
Y-160961D01*
Y-161248D01*
Y-161534D01*
Y-161820D01*
Y-162107D01*
Y-162393D01*
Y-162679D01*
Y-162966D01*
Y-163252D01*
Y-163538D01*
Y-163824D01*
Y-164111D01*
Y-164397D01*
Y-164683D01*
Y-164970D01*
Y-165256D01*
Y-165542D01*
Y-165829D01*
Y-166115D01*
Y-166401D01*
Y-166688D01*
Y-166974D01*
Y-167260D01*
Y-167547D01*
Y-167833D01*
Y-168119D01*
Y-168405D01*
Y-168692D01*
Y-168978D01*
Y-169264D01*
Y-169551D01*
Y-169837D01*
Y-170123D01*
Y-170410D01*
Y-170696D01*
Y-170982D01*
Y-171269D01*
X937767D01*
Y-171555D01*
X937481D01*
Y-171841D01*
Y-172127D01*
X937767D01*
Y-172414D01*
Y-172700D01*
Y-172986D01*
Y-173273D01*
Y-173559D01*
Y-173845D01*
Y-174132D01*
Y-174418D01*
Y-174704D01*
Y-174991D01*
Y-175277D01*
Y-175563D01*
Y-175850D01*
Y-176136D01*
Y-176422D01*
Y-176709D01*
Y-176995D01*
Y-177281D01*
Y-177568D01*
Y-177854D01*
Y-178140D01*
Y-178426D01*
Y-178713D01*
Y-178999D01*
Y-179285D01*
Y-179572D01*
X938053D01*
Y-179858D01*
Y-180144D01*
Y-180431D01*
X938340D01*
Y-180717D01*
X938626D01*
Y-181003D01*
X938912D01*
Y-181290D01*
X939771D01*
Y-181576D01*
X940630D01*
Y-181290D01*
X940916D01*
Y-181003D01*
Y-180717D01*
Y-180431D01*
X941203D01*
Y-180144D01*
Y-179858D01*
X941489D01*
Y-179572D01*
Y-179285D01*
Y-178999D01*
X941775D01*
Y-178713D01*
Y-178426D01*
Y-178140D01*
X942062D01*
Y-177854D01*
Y-177568D01*
Y-177281D01*
X942348D01*
Y-176995D01*
Y-176709D01*
Y-176422D01*
X942634D01*
Y-176136D01*
Y-175850D01*
X942921D01*
Y-175563D01*
Y-175277D01*
Y-174991D01*
X943207D01*
Y-174704D01*
Y-174418D01*
Y-174132D01*
X943493D01*
Y-173845D01*
Y-173559D01*
Y-173273D01*
X943780D01*
Y-172986D01*
Y-172700D01*
X944066D01*
Y-172414D01*
Y-172127D01*
Y-171841D01*
X944352D01*
Y-171555D01*
Y-171269D01*
Y-170982D01*
X944639D01*
Y-170696D01*
Y-170410D01*
Y-170123D01*
X944925D01*
Y-169837D01*
Y-169551D01*
X945211D01*
Y-169264D01*
Y-168978D01*
Y-168692D01*
X945497D01*
Y-168405D01*
Y-168119D01*
Y-167833D01*
X945784D01*
Y-167547D01*
Y-167260D01*
Y-166974D01*
X946070D01*
Y-166688D01*
Y-166401D01*
X946356D01*
Y-166115D01*
Y-165829D01*
Y-165542D01*
X946643D01*
Y-165256D01*
Y-164970D01*
Y-164683D01*
X946929D01*
Y-164397D01*
Y-164111D01*
Y-163824D01*
X947215D01*
Y-163538D01*
Y-163252D01*
Y-162966D01*
Y-162679D01*
X947502D01*
Y-162393D01*
Y-162107D01*
Y-161820D01*
Y-161534D01*
X947788D01*
Y-161248D01*
Y-160961D01*
Y-160675D01*
Y-160389D01*
Y-160102D01*
X948074D01*
Y-159816D01*
Y-159530D01*
Y-159244D01*
Y-158957D01*
Y-158671D01*
Y-158385D01*
X948361D01*
Y-158098D01*
Y-157812D01*
Y-157526D01*
Y-157239D01*
Y-156953D01*
Y-156667D01*
Y-156380D01*
Y-156094D01*
Y-155808D01*
Y-155521D01*
X961245D01*
Y-155808D01*
D02*
G37*
%LPC*%
G36*
X867907Y-152658D02*
X859890D01*
Y-152945D01*
Y-153231D01*
Y-153517D01*
Y-153804D01*
Y-154090D01*
X859604D01*
Y-154376D01*
Y-154663D01*
Y-154949D01*
Y-155235D01*
Y-155521D01*
Y-155808D01*
X859317D01*
Y-156094D01*
Y-156380D01*
Y-156667D01*
Y-156953D01*
Y-157239D01*
Y-157526D01*
X859031D01*
Y-157812D01*
Y-158098D01*
Y-158385D01*
Y-158671D01*
Y-158957D01*
Y-159244D01*
X858745D01*
Y-159530D01*
Y-159816D01*
Y-160102D01*
Y-160389D01*
Y-160675D01*
Y-160961D01*
Y-161248D01*
X858458D01*
Y-161534D01*
Y-161820D01*
Y-162107D01*
Y-162393D01*
Y-162679D01*
Y-162966D01*
X858172D01*
Y-163252D01*
Y-163538D01*
Y-163824D01*
X865330D01*
Y-163538D01*
X866475D01*
Y-163252D01*
X867048D01*
Y-162966D01*
X867334D01*
Y-162679D01*
X867620D01*
Y-162393D01*
X867907D01*
Y-162107D01*
X868193D01*
Y-161820D01*
Y-161534D01*
X868479D01*
Y-161248D01*
Y-160961D01*
X868766D01*
Y-160675D01*
Y-160389D01*
X869052D01*
Y-160102D01*
Y-159816D01*
Y-159530D01*
Y-159244D01*
X869338D01*
Y-158957D01*
Y-158671D01*
Y-158385D01*
Y-158098D01*
Y-157812D01*
X869625D01*
Y-157526D01*
Y-157239D01*
Y-156953D01*
Y-156667D01*
Y-156380D01*
Y-156094D01*
Y-155808D01*
Y-155521D01*
Y-155235D01*
Y-154949D01*
Y-154663D01*
X869338D01*
Y-154376D01*
Y-154090D01*
X869052D01*
Y-153804D01*
Y-153517D01*
X868766D01*
Y-153231D01*
X868479D01*
Y-152945D01*
X867907D01*
Y-152658D01*
D02*
G37*
%LPD*%
D10*
X846071Y-247293D02*
Y-263036D01*
X851318Y-257788D01*
X856566Y-263036D01*
Y-247293D01*
X861814Y-263036D02*
X867061D01*
X864437D01*
Y-252540D01*
X861814D01*
X874933Y-263036D02*
Y-252540D01*
X877556D01*
X880180Y-255164D01*
Y-263036D01*
Y-255164D01*
X882804Y-252540D01*
X885428Y-255164D01*
Y-263036D01*
X890676Y-247293D02*
Y-257788D01*
X895923Y-263036D01*
X901171Y-257788D01*
Y-247293D01*
X916914Y-249917D02*
X914290Y-247293D01*
X909042D01*
X906419Y-249917D01*
Y-260412D01*
X909042Y-263036D01*
X914290D01*
X916914Y-260412D01*
Y-255164D01*
X911666D01*
X1200401Y-210546D02*
X1203025Y-207923D01*
X1208273D01*
X1210897Y-210546D01*
Y-221042D01*
X1208273Y-223665D01*
X1203025D01*
X1200401Y-221042D01*
Y-210546D01*
X1216144D02*
X1218768Y-207923D01*
X1224016D01*
X1226639Y-210546D01*
Y-221042D01*
X1224016Y-223665D01*
X1218768D01*
X1216144Y-221042D01*
Y-210546D01*
X1037015Y-223665D02*
X1041607D01*
X1039311D01*
Y-209890D01*
X1037015Y-212186D01*
X1048495Y-209890D02*
X1057678D01*
Y-212186D01*
X1048495Y-221370D01*
Y-223665D01*
X1062270D02*
X1071453Y-214482D01*
X1076045Y-212186D02*
X1078341Y-209890D01*
X1082932D01*
X1085228Y-212186D01*
Y-221370D01*
X1082932Y-223665D01*
X1078341D01*
X1076045Y-221370D01*
Y-212186D01*
X1089820D02*
X1092116Y-209890D01*
X1096707D01*
X1099003Y-212186D01*
Y-214482D01*
X1096707Y-216778D01*
X1099003Y-219074D01*
Y-221370D01*
X1096707Y-223665D01*
X1092116D01*
X1089820Y-221370D01*
Y-219074D01*
X1092116Y-216778D01*
X1089820Y-214482D01*
Y-212186D01*
X1092116Y-216778D02*
X1096707D01*
X1103595Y-223665D02*
X1112778Y-214482D01*
X1126553Y-223665D02*
X1117370D01*
X1126553Y-214482D01*
Y-212186D01*
X1124258Y-209890D01*
X1119666D01*
X1117370Y-212186D01*
X1131145D02*
X1133441Y-209890D01*
X1138033D01*
X1140329Y-212186D01*
Y-221370D01*
X1138033Y-223665D01*
X1133441D01*
X1131145Y-221370D01*
Y-212186D01*
X1144920Y-223665D02*
X1149512D01*
X1147216D01*
Y-209890D01*
X1144920Y-212186D01*
X1156400Y-221370D02*
X1158695Y-223665D01*
X1163287D01*
X1165583Y-221370D01*
Y-212186D01*
X1163287Y-209890D01*
X1158695D01*
X1156400Y-212186D01*
Y-214482D01*
X1158695Y-216778D01*
X1165583D01*
X1038981Y-135086D02*
X1037014Y-133118D01*
X1033078D01*
X1031110Y-135086D01*
Y-137054D01*
X1033078Y-139022D01*
X1037014D01*
X1038981Y-140990D01*
Y-142957D01*
X1037014Y-144925D01*
X1033078D01*
X1031110Y-142957D01*
X1042917Y-144925D02*
Y-137054D01*
X1046853Y-133118D01*
X1050789Y-137054D01*
Y-144925D01*
Y-139022D01*
X1042917D01*
X1060628Y-133118D02*
X1056692D01*
X1054724Y-135086D01*
Y-142957D01*
X1056692Y-144925D01*
X1060628D01*
X1062596Y-142957D01*
Y-135086D01*
X1060628Y-133118D01*
X1078339Y-144925D02*
Y-137054D01*
X1082275Y-133118D01*
X1086210Y-137054D01*
Y-144925D01*
Y-139022D01*
X1078339D01*
X1090146Y-144925D02*
Y-133118D01*
X1096049D01*
X1098017Y-135086D01*
Y-139022D01*
X1096049Y-140990D01*
X1090146D01*
X1094082D02*
X1098017Y-144925D01*
X1109825Y-133118D02*
X1101953D01*
Y-144925D01*
X1109825D01*
X1101953Y-139022D02*
X1105889D01*
X1113760Y-144925D02*
Y-137054D01*
X1117696Y-133118D01*
X1121632Y-137054D01*
Y-144925D01*
Y-139022D01*
X1113760D01*
X1137375Y-135086D02*
X1139343Y-133118D01*
X1143278D01*
X1145246Y-135086D01*
Y-137054D01*
X1143278Y-139022D01*
X1141310D01*
X1143278D01*
X1145246Y-140990D01*
Y-142957D01*
X1143278Y-144925D01*
X1139343D01*
X1137375Y-142957D01*
X1149182Y-135086D02*
X1151150Y-133118D01*
X1155085D01*
X1157053Y-135086D01*
Y-142957D01*
X1155085Y-144925D01*
X1151150D01*
X1149182Y-142957D01*
Y-135086D01*
X1160989D02*
X1162957Y-133118D01*
X1166893D01*
X1168861Y-135086D01*
Y-142957D01*
X1166893Y-144925D01*
X1162957D01*
X1160989Y-142957D01*
Y-135086D01*
X1172796Y-144925D02*
X1176732D01*
X1174764D01*
Y-133118D01*
X1172796Y-135086D01*
X1194443Y-133118D02*
Y-144925D01*
X1202314D01*
X1218057D02*
Y-133118D01*
X1223961D01*
X1225929Y-135086D01*
Y-139022D01*
X1223961Y-140990D01*
X1218057D01*
X1221993D02*
X1225929Y-144925D01*
X1229865Y-133118D02*
X1233800D01*
X1231832D01*
Y-144925D01*
X1229865D01*
X1233800D01*
X1239704D02*
Y-133118D01*
X1247575Y-144925D01*
Y-133118D01*
X1259383Y-135086D02*
X1257415Y-133118D01*
X1253479D01*
X1251511Y-135086D01*
Y-142957D01*
X1253479Y-144925D01*
X1257415D01*
X1259383Y-142957D01*
Y-139022D01*
X1255447D01*
X1042921Y-168552D02*
Y-182327D01*
X1049809D01*
X1052104Y-180031D01*
Y-170848D01*
X1049809Y-168552D01*
X1042921D01*
X1056696Y-173143D02*
Y-182327D01*
Y-177735D01*
X1058992Y-175439D01*
X1061288Y-173143D01*
X1063584D01*
X1070471Y-182327D02*
X1075063D01*
X1072767D01*
Y-173143D01*
X1070471D01*
X1081950Y-182327D02*
X1086542D01*
X1084246D01*
Y-168552D01*
X1081950D01*
X1093430Y-182327D02*
X1098021D01*
X1095725D01*
Y-168552D01*
X1093430D01*
X1118684D02*
Y-182327D01*
X1125571D01*
X1127867Y-180031D01*
Y-170848D01*
X1125571Y-168552D01*
X1118684D01*
X1132459Y-173143D02*
Y-182327D01*
Y-177735D01*
X1134755Y-175439D01*
X1137051Y-173143D01*
X1139347D01*
X1148530D02*
X1153122D01*
X1155417Y-175439D01*
Y-182327D01*
X1148530D01*
X1146234Y-180031D01*
X1148530Y-177735D01*
X1155417D01*
X1160009Y-173143D02*
Y-180031D01*
X1162305Y-182327D01*
X1164601Y-180031D01*
X1166897Y-182327D01*
X1169193Y-180031D01*
Y-173143D01*
X1173784Y-182327D02*
X1178376D01*
X1176080D01*
Y-173143D01*
X1173784D01*
X1185263Y-182327D02*
Y-173143D01*
X1192151D01*
X1194447Y-175439D01*
Y-182327D01*
X1203630Y-186919D02*
X1205926D01*
X1208222Y-184623D01*
Y-173143D01*
X1201334D01*
X1199039Y-175439D01*
Y-180031D01*
X1201334Y-182327D01*
X1208222D01*
D11*
X356299Y9843D02*
G03*
X362205Y15748I0J5906D01*
G01*
Y45276D02*
G03*
X356299Y51181I-5906J0D01*
G01*
X17717D02*
G03*
X11811Y45276I0J-5906D01*
G01*
Y15748D02*
G03*
X17717Y9843I5906J0D01*
G01*
X17717Y51181D02*
X356299D01*
X17717Y9843D02*
X356299D01*
X362205Y15748D02*
Y45276D01*
X11811Y15748D02*
Y45276D01*
X1182685Y-202012D02*
Y-194141D01*
X1186621D01*
X1187932Y-195452D01*
Y-198076D01*
X1186621Y-199388D01*
X1182685D01*
X1185308D02*
X1187932Y-202012D01*
X1194492D02*
X1191868D01*
X1190556Y-200700D01*
Y-198076D01*
X1191868Y-196764D01*
X1194492D01*
X1195804Y-198076D01*
Y-199388D01*
X1190556D01*
X1198428Y-196764D02*
X1201052Y-202012D01*
X1203675Y-196764D01*
X828354Y-233511D02*
Y-241382D01*
X832290D01*
X833602Y-240070D01*
Y-234823D01*
X832290Y-233511D01*
X828354D01*
X840161Y-241382D02*
X837537D01*
X836226Y-240070D01*
Y-237446D01*
X837537Y-236134D01*
X840161D01*
X841473Y-237446D01*
Y-238758D01*
X836226D01*
X844097Y-241382D02*
X848033D01*
X849345Y-240070D01*
X848033Y-238758D01*
X845409D01*
X844097Y-237446D01*
X845409Y-236134D01*
X849345D01*
X854592Y-244006D02*
X855904D01*
X857216Y-242694D01*
Y-236134D01*
X853280D01*
X851968Y-237446D01*
Y-240070D01*
X853280Y-241382D01*
X857216D01*
X859840D02*
X862464D01*
X861152D01*
Y-236134D01*
X859840D01*
X866399Y-241382D02*
Y-236134D01*
X870335D01*
X871647Y-237446D01*
Y-241382D01*
X878207D02*
X875583D01*
X874271Y-240070D01*
Y-237446D01*
X875583Y-236134D01*
X878207D01*
X879519Y-237446D01*
Y-238758D01*
X874271D01*
X882143Y-236134D02*
Y-241382D01*
Y-238758D01*
X883454Y-237446D01*
X884766Y-236134D01*
X886078D01*
X1025204Y-115400D02*
Y-123272D01*
X1029140D01*
X1030452Y-121960D01*
Y-116712D01*
X1029140Y-115400D01*
X1025204D01*
X1034388Y-123272D02*
X1037012D01*
X1038323Y-121960D01*
Y-119336D01*
X1037012Y-118024D01*
X1034388D01*
X1033076Y-119336D01*
Y-121960D01*
X1034388Y-123272D01*
X1046195Y-118024D02*
X1042259D01*
X1040947Y-119336D01*
Y-121960D01*
X1042259Y-123272D01*
X1046195D01*
X1048819Y-118024D02*
Y-121960D01*
X1050131Y-123272D01*
X1054066D01*
Y-118024D01*
X1056690Y-123272D02*
Y-118024D01*
X1058002D01*
X1059314Y-119336D01*
Y-123272D01*
Y-119336D01*
X1060626Y-118024D01*
X1061938Y-119336D01*
Y-123272D01*
X1068498D02*
X1065874D01*
X1064562Y-121960D01*
Y-119336D01*
X1065874Y-118024D01*
X1068498D01*
X1069810Y-119336D01*
Y-120648D01*
X1064562D01*
X1072433Y-123272D02*
Y-118024D01*
X1076369D01*
X1077681Y-119336D01*
Y-123272D01*
X1081617Y-116712D02*
Y-118024D01*
X1080305D01*
X1082929D01*
X1081617D01*
Y-121960D01*
X1082929Y-123272D01*
X1025204Y-154770D02*
Y-162642D01*
X1030452D01*
X1034388Y-157394D02*
X1037012D01*
X1038323Y-158706D01*
Y-162642D01*
X1034388D01*
X1033076Y-161330D01*
X1034388Y-160018D01*
X1038323D01*
X1040947Y-157394D02*
Y-161330D01*
X1042259Y-162642D01*
X1046195D01*
Y-163954D01*
X1044883Y-165266D01*
X1043571D01*
X1046195Y-162642D02*
Y-157394D01*
X1052755Y-162642D02*
X1050131D01*
X1048819Y-161330D01*
Y-158706D01*
X1050131Y-157394D01*
X1052755D01*
X1054066Y-158706D01*
Y-160018D01*
X1048819D01*
X1056690Y-157394D02*
Y-162642D01*
Y-160018D01*
X1058002Y-158706D01*
X1059314Y-157394D01*
X1060626D01*
X1072433Y-162642D02*
Y-154770D01*
X1077681Y-162642D01*
Y-154770D01*
X1081617Y-157394D02*
X1084241D01*
X1085552Y-158706D01*
Y-162642D01*
X1081617D01*
X1080305Y-161330D01*
X1081617Y-160018D01*
X1085552D01*
X1088176Y-162642D02*
Y-157394D01*
X1089488D01*
X1090800Y-158706D01*
Y-162642D01*
Y-158706D01*
X1092112Y-157394D01*
X1093424Y-158706D01*
Y-162642D01*
X1099984D02*
X1097360D01*
X1096048Y-161330D01*
Y-158706D01*
X1097360Y-157394D01*
X1099984D01*
X1101295Y-158706D01*
Y-160018D01*
X1096048D01*
X1025204Y-194141D02*
Y-202012D01*
X1029140D01*
X1030452Y-200700D01*
Y-195452D01*
X1029140Y-194141D01*
X1025204D01*
X1034388Y-196764D02*
X1037012D01*
X1038323Y-198076D01*
Y-202012D01*
X1034388D01*
X1033076Y-200700D01*
X1034388Y-199388D01*
X1038323D01*
X1042259Y-195452D02*
Y-196764D01*
X1040947D01*
X1043571D01*
X1042259D01*
Y-200700D01*
X1043571Y-202012D01*
X1051443D02*
X1048819D01*
X1047507Y-200700D01*
Y-198076D01*
X1048819Y-196764D01*
X1051443D01*
X1052755Y-198076D01*
Y-199388D01*
X1047507D01*
X1025204Y-233511D02*
Y-241382D01*
X1029140D01*
X1030452Y-240070D01*
Y-234823D01*
X1029140Y-233511D01*
X1025204D01*
X1034388Y-241382D02*
X1037012D01*
X1038323Y-240070D01*
Y-237446D01*
X1037012Y-236134D01*
X1034388D01*
X1033076Y-237446D01*
Y-240070D01*
X1034388Y-241382D01*
X1046195Y-236134D02*
X1042259D01*
X1040947Y-237446D01*
Y-240070D01*
X1042259Y-241382D01*
X1046195D01*
X1048819Y-236134D02*
Y-240070D01*
X1050131Y-241382D01*
X1054066D01*
Y-236134D01*
X1056690Y-241382D02*
Y-236134D01*
X1058002D01*
X1059314Y-237446D01*
Y-241382D01*
Y-237446D01*
X1060626Y-236134D01*
X1061938Y-237446D01*
Y-241382D01*
X1068498D02*
X1065874D01*
X1064562Y-240070D01*
Y-237446D01*
X1065874Y-236134D01*
X1068498D01*
X1069810Y-237446D01*
Y-238758D01*
X1064562D01*
X1072433Y-241382D02*
Y-236134D01*
X1076369D01*
X1077681Y-237446D01*
Y-241382D01*
X1081617Y-234823D02*
Y-236134D01*
X1080305D01*
X1082929D01*
X1081617D01*
Y-240070D01*
X1082929Y-241382D01*
D12*
X368110Y0D02*
G03*
X374016Y5906I0J5906D01*
G01*
X374016Y55118D02*
G03*
X368110Y61024I-5906J0D01*
G01*
X5906Y61024D02*
G03*
X0Y55118I0J-5906D01*
G01*
X0Y5906D02*
G03*
X5906Y0I5906J0D01*
G01*
X368110D01*
X374016Y5906D02*
Y55118D01*
X5906Y61024D02*
X368110D01*
X0Y5906D02*
Y55118D01*
D13*
X1178748Y-229571D02*
Y-190201D01*
X1021267Y-150831D02*
X1296858D01*
X1021267Y-190201D02*
X1296858D01*
X824417Y-229571D02*
X1296858D01*
X824417Y-111461D02*
X1296858D01*
X824417Y-268941D02*
Y-111461D01*
X1021267Y-268941D02*
Y-111461D01*
X-356685Y900350D02*
X1296858D01*
Y-268941D02*
Y900350D01*
X-356685Y-268941D02*
Y900350D01*
Y-268941D02*
X1296858D01*
X1035046Y-256147D02*
X1034062Y-255164D01*
X1032094D01*
X1031110Y-256147D01*
Y-257131D01*
X1032094Y-258115D01*
X1034062D01*
X1035046Y-259099D01*
Y-260083D01*
X1034062Y-261067D01*
X1032094D01*
X1031110Y-260083D01*
X1037014Y-261067D02*
Y-257131D01*
X1038981Y-255164D01*
X1040949Y-257131D01*
Y-261067D01*
Y-258115D01*
X1037014D01*
X1045869Y-255164D02*
X1043901D01*
X1042917Y-256147D01*
Y-260083D01*
X1043901Y-261067D01*
X1045869D01*
X1046853Y-260083D01*
Y-256147D01*
X1045869Y-255164D01*
X1048821Y-262051D02*
X1052757D01*
X1054724Y-261067D02*
Y-257131D01*
X1056692Y-255164D01*
X1058660Y-257131D01*
Y-261067D01*
Y-258115D01*
X1054724D01*
X1060628Y-257131D02*
Y-261067D01*
Y-259099D01*
X1061612Y-258115D01*
X1062596Y-257131D01*
X1063580D01*
X1069483Y-261067D02*
X1067515D01*
X1066531Y-260083D01*
Y-258115D01*
X1067515Y-257131D01*
X1069483D01*
X1070467Y-258115D01*
Y-259099D01*
X1066531D01*
X1073419Y-257131D02*
X1075387D01*
X1076371Y-258115D01*
Y-261067D01*
X1073419D01*
X1072435Y-260083D01*
X1073419Y-259099D01*
X1076371D01*
X1078339Y-256147D02*
X1079323Y-255164D01*
X1081291D01*
X1082275Y-256147D01*
Y-257131D01*
X1081291Y-258115D01*
X1080307D01*
X1081291D01*
X1082275Y-259099D01*
Y-260083D01*
X1081291Y-261067D01*
X1079323D01*
X1078339Y-260083D01*
X1084242Y-256147D02*
X1085226Y-255164D01*
X1087194D01*
X1088178Y-256147D01*
Y-260083D01*
X1087194Y-261067D01*
X1085226D01*
X1084242Y-260083D01*
Y-256147D01*
X1090146D02*
X1091130Y-255164D01*
X1093098D01*
X1094082Y-256147D01*
Y-260083D01*
X1093098Y-261067D01*
X1091130D01*
X1090146Y-260083D01*
Y-256147D01*
X1096049Y-261067D02*
X1098017D01*
X1097034D01*
Y-255164D01*
X1096049Y-256147D01*
X1100969Y-262051D02*
X1104905D01*
X1106873Y-255164D02*
Y-261067D01*
X1110808D01*
X1112776Y-262051D02*
X1116712D01*
X1118680Y-261067D02*
Y-255164D01*
X1121632D01*
X1122616Y-256147D01*
Y-258115D01*
X1121632Y-259099D01*
X1118680D01*
X1120648D02*
X1122616Y-261067D01*
X1124584Y-255164D02*
X1126552D01*
X1125568D01*
Y-261067D01*
X1124584D01*
X1126552D01*
X1129503D02*
Y-255164D01*
X1133439Y-261067D01*
Y-255164D01*
X1139343Y-256147D02*
X1138359Y-255164D01*
X1136391D01*
X1135407Y-256147D01*
Y-260083D01*
X1136391Y-261067D01*
X1138359D01*
X1139343Y-260083D01*
Y-258115D01*
X1137375D01*
X1141311Y-262051D02*
X1145246D01*
X1147214Y-256147D02*
X1148198Y-255164D01*
X1150166D01*
X1151150Y-256147D01*
Y-260083D01*
X1150166Y-261067D01*
X1148198D01*
X1147214Y-260083D01*
Y-256147D01*
X1153118D02*
X1154102Y-255164D01*
X1156069D01*
X1157053Y-256147D01*
Y-260083D01*
X1156069Y-261067D01*
X1154102D01*
X1153118Y-260083D01*
Y-256147D01*
X1159021Y-261067D02*
Y-260083D01*
X1160005D01*
Y-261067D01*
X1159021D01*
X1163941D02*
Y-255164D01*
X1166893D01*
X1167877Y-256147D01*
Y-258115D01*
X1166893Y-259099D01*
X1163941D01*
X1173780Y-257131D02*
X1170829D01*
X1169845Y-258115D01*
Y-260083D01*
X1170829Y-261067D01*
X1173780D01*
X1175748Y-255164D02*
Y-261067D01*
X1178700D01*
X1179684Y-260083D01*
Y-259099D01*
Y-258115D01*
X1178700Y-257131D01*
X1175748D01*
X1181652Y-255164D02*
Y-261067D01*
X1184604D01*
X1185588Y-260083D01*
Y-256147D01*
X1184604Y-255164D01*
X1181652D01*
X1188539Y-261067D02*
X1190507D01*
X1191491Y-260083D01*
Y-258115D01*
X1190507Y-257131D01*
X1188539D01*
X1187555Y-258115D01*
Y-260083D01*
X1188539Y-261067D01*
X1197395Y-257131D02*
X1194443D01*
X1193459Y-258115D01*
Y-260083D01*
X1194443Y-261067D01*
X1197395D01*
D18*
X461717Y25197D02*
X1128698D01*
X461717Y17323D02*
X1128698D01*
X461717Y9449D02*
X1128698D01*
Y33071D01*
X461717D02*
X1128698D01*
X461717Y9449D02*
Y33071D01*
X1054860Y9449D02*
Y33071D01*
X1009204Y9449D02*
Y33071D01*
X938988Y9449D02*
Y33071D01*
X868772Y9449D02*
Y33071D01*
X823745Y9449D02*
Y33071D01*
X789424Y9449D02*
Y33071D01*
X750064Y9449D02*
Y33071D01*
X718891Y9449D02*
Y33071D01*
X640043Y9449D02*
Y33071D01*
X601313Y9449D02*
Y33071D01*
X574548Y9449D02*
Y33071D01*
X516166Y9449D02*
Y33071D01*
X490844Y9449D02*
Y33071D01*
X464876Y19685D02*
X468376D01*
Y23185D01*
X464876D02*
X468376D01*
X464876Y19685D02*
Y23185D01*
X1057222Y21259D02*
X1059322D01*
X1011566D02*
X1013665D01*
X793885Y21784D02*
X792310D01*
X791786Y21259D01*
Y20210D01*
X792310Y19685D01*
X793885D01*
X797033D02*
X794934D01*
X797033Y21784D01*
Y22309D01*
X796509Y22834D01*
X795459D01*
X794934Y22309D01*
X798083D02*
X798608Y22834D01*
X799657D01*
X800182Y22309D01*
Y20210D01*
X799657Y19685D01*
X798608D01*
X798083Y20210D01*
Y22309D01*
X801231D02*
X801756Y22834D01*
X802806D01*
X803331Y22309D01*
Y20210D01*
X802806Y19685D01*
X801756D01*
X801231Y20210D01*
Y22309D01*
X804380Y22834D02*
Y19685D01*
Y21259D01*
X804905Y21784D01*
X805954D01*
X806479Y21259D01*
Y19685D01*
X807529D02*
X808578D01*
X808053D01*
Y22834D01*
X807529Y22309D01*
X812251Y19685D02*
X810153D01*
X812251Y21784D01*
Y22309D01*
X811727Y22834D01*
X810677D01*
X810153Y22309D01*
X813301D02*
X813826Y22834D01*
X814875D01*
X815400Y22309D01*
Y20210D01*
X814875Y19685D01*
X813826D01*
X813301Y20210D01*
Y22309D01*
X752426Y19685D02*
Y22834D01*
X754001D01*
X754525Y22309D01*
Y21259D01*
X754001Y20735D01*
X752426D01*
X753476D02*
X754525Y19685D01*
X756100D02*
X757149D01*
X757674Y20210D01*
Y21259D01*
X757149Y21784D01*
X756100D01*
X755575Y21259D01*
Y20210D01*
X756100Y19685D01*
X758723Y21784D02*
Y20210D01*
X759248Y19685D01*
X760822D01*
Y21784D01*
X761872Y19685D02*
Y21784D01*
X763446D01*
X763971Y21259D01*
Y19685D01*
X767120Y22834D02*
Y19685D01*
X765545D01*
X765021Y20210D01*
Y21259D01*
X765545Y21784D01*
X767120D01*
X769743Y19685D02*
X768694D01*
X768169Y20210D01*
Y21259D01*
X768694Y21784D01*
X769743D01*
X770268Y21259D01*
Y20735D01*
X768169D01*
X773417Y22834D02*
Y19685D01*
X771842D01*
X771318Y20210D01*
Y21259D01*
X771842Y21784D01*
X773417D01*
X721253Y19685D02*
Y22834D01*
X722827D01*
X723352Y22309D01*
Y21259D01*
X722827Y20735D01*
X721253D01*
X724926Y21784D02*
X725976D01*
X726501Y21259D01*
Y19685D01*
X724926D01*
X724402Y20210D01*
X724926Y20735D01*
X726501D01*
X729649Y22834D02*
Y19685D01*
X728075D01*
X727550Y20210D01*
Y21259D01*
X728075Y21784D01*
X729649D01*
X642405Y22834D02*
X644504D01*
X643455D01*
Y19685D01*
X646078D02*
X647128D01*
X647653Y20210D01*
Y21259D01*
X647128Y21784D01*
X646078D01*
X645554Y21259D01*
Y20210D01*
X646078Y19685D01*
X648702Y18635D02*
Y21784D01*
X650277D01*
X650801Y21259D01*
Y20210D01*
X650277Y19685D01*
X648702D01*
X654999Y22834D02*
Y19685D01*
X657099D01*
X658673Y21784D02*
X659722D01*
X660247Y21259D01*
Y19685D01*
X658673D01*
X658148Y20210D01*
X658673Y20735D01*
X660247D01*
X661297Y21784D02*
Y20210D01*
X661822Y19685D01*
X663396D01*
Y19160D01*
X662871Y18635D01*
X662346D01*
X663396Y19685D02*
Y21784D01*
X666020Y19685D02*
X664970D01*
X664445Y20210D01*
Y21259D01*
X664970Y21784D01*
X666020D01*
X666544Y21259D01*
Y20735D01*
X664445D01*
X667594Y21784D02*
Y19685D01*
Y20735D01*
X668119Y21259D01*
X668643Y21784D01*
X669168D01*
X673891Y21259D02*
X675990D01*
X680188Y22834D02*
Y19685D01*
X681763D01*
X682287Y20210D01*
Y20735D01*
X681763Y21259D01*
X680188D01*
X681763D01*
X682287Y21784D01*
Y22309D01*
X681763Y22834D01*
X680188D01*
X683862Y19685D02*
X684911D01*
X685436Y20210D01*
Y21259D01*
X684911Y21784D01*
X683862D01*
X683337Y21259D01*
Y20210D01*
X683862Y19685D01*
X687010Y22309D02*
Y21784D01*
X686485D01*
X687535D01*
X687010D01*
Y20210D01*
X687535Y19685D01*
X689634Y22309D02*
Y21784D01*
X689109D01*
X690159D01*
X689634D01*
Y20210D01*
X690159Y19685D01*
X692258D02*
X693307D01*
X693832Y20210D01*
Y21259D01*
X693307Y21784D01*
X692258D01*
X691733Y21259D01*
Y20210D01*
X692258Y19685D01*
X694882D02*
Y21784D01*
X695406D01*
X695931Y21259D01*
Y19685D01*
Y21259D01*
X696456Y21784D01*
X696981Y21259D01*
Y19685D01*
X701179Y22834D02*
Y19685D01*
X703278D01*
X704852Y21784D02*
X705902D01*
X706426Y21259D01*
Y19685D01*
X704852D01*
X704327Y20210D01*
X704852Y20735D01*
X706426D01*
X707476Y21784D02*
Y20210D01*
X708001Y19685D01*
X709575D01*
Y19160D01*
X709050Y18635D01*
X708526D01*
X709575Y19685D02*
Y21784D01*
X712199Y19685D02*
X711149D01*
X710625Y20210D01*
Y21259D01*
X711149Y21784D01*
X712199D01*
X712724Y21259D01*
Y20735D01*
X710625D01*
X713773Y21784D02*
Y19685D01*
Y20735D01*
X714298Y21259D01*
X714823Y21784D01*
X715347D01*
X603675Y19685D02*
Y22834D01*
X605250D01*
X605774Y22309D01*
Y21259D01*
X605250Y20735D01*
X603675D01*
X604725D02*
X605774Y19685D01*
X607349D02*
X608398D01*
X608923Y20210D01*
Y21259D01*
X608398Y21784D01*
X607349D01*
X606824Y21259D01*
Y20210D01*
X607349Y19685D01*
X609973Y21784D02*
Y20210D01*
X610497Y19685D01*
X612072D01*
Y21784D01*
X613121Y19685D02*
Y21784D01*
X614695D01*
X615220Y21259D01*
Y19685D01*
X618369Y22834D02*
Y19685D01*
X616794D01*
X616270Y20210D01*
Y21259D01*
X616794Y21784D01*
X618369D01*
X576910Y19685D02*
Y22834D01*
X578484D01*
X579009Y22309D01*
Y21259D01*
X578484Y20735D01*
X576910D01*
X580059Y22834D02*
X582158D01*
X581108D01*
Y19685D01*
X583207Y22834D02*
Y19685D01*
Y21259D01*
X585307D01*
Y22834D01*
Y19685D01*
X518528D02*
X519578D01*
X519053D01*
Y22834D01*
X518528Y22309D01*
X521677Y19160D02*
X522202Y19685D01*
Y20210D01*
X521677D01*
Y19685D01*
X522202D01*
X521677Y19160D01*
X521152Y18635D01*
X526400Y19685D02*
X524301D01*
X526400Y21784D01*
Y22309D01*
X525875Y22834D01*
X524825D01*
X524301Y22309D01*
X527449D02*
X527974Y22834D01*
X529024D01*
X529548Y22309D01*
Y20210D01*
X529024Y19685D01*
X527974D01*
X527449Y20210D01*
Y22309D01*
X530598D02*
X531123Y22834D01*
X532172D01*
X532697Y22309D01*
Y20210D01*
X532172Y19685D01*
X531123D01*
X530598Y20210D01*
Y22309D01*
X533746Y19685D02*
Y21784D01*
X534271D01*
X534796Y21259D01*
Y19685D01*
Y21259D01*
X535321Y21784D01*
X535846Y21259D01*
Y19685D01*
X536895D02*
Y21784D01*
X537420D01*
X537945Y21259D01*
Y19685D01*
Y21259D01*
X538469Y21784D01*
X538994Y21259D01*
Y19685D01*
X544242D02*
X543192Y20735D01*
Y21784D01*
X544242Y22834D01*
X547390Y19685D02*
Y22834D01*
X545816Y21259D01*
X547915D01*
X548965Y22834D02*
X551064D01*
Y22309D01*
X548965Y20210D01*
Y19685D01*
X552638Y19160D02*
X553163Y19685D01*
Y20210D01*
X552638D01*
Y19685D01*
X553163D01*
X552638Y19160D01*
X552113Y18635D01*
X557361Y19685D02*
X555262D01*
X557361Y21784D01*
Y22309D01*
X556836Y22834D01*
X555787D01*
X555262Y22309D01*
X559985Y19685D02*
Y22834D01*
X558410Y21259D01*
X560509D01*
X561559Y19685D02*
Y21784D01*
X562084D01*
X562608Y21259D01*
Y19685D01*
Y21259D01*
X563133Y21784D01*
X563658Y21259D01*
Y19685D01*
X564708D02*
X565757D01*
X565232D01*
Y21784D01*
X564708D01*
X567331Y19685D02*
X568381D01*
X567856D01*
Y22834D01*
X567331D01*
X569955Y19685D02*
X571005Y20735D01*
Y21784D01*
X569955Y22834D01*
X494781Y11811D02*
Y14960D01*
X493207Y13385D01*
X495305D01*
X499504Y14960D02*
X501603D01*
X500553D01*
Y11811D01*
X503177D02*
X504226D01*
X504751Y12336D01*
Y13385D01*
X504226Y13910D01*
X503177D01*
X502652Y13385D01*
Y12336D01*
X503177Y11811D01*
X506326Y14435D02*
Y13910D01*
X505801D01*
X506850D01*
X506326D01*
Y12336D01*
X506850Y11811D01*
X508949Y13910D02*
X509999D01*
X510524Y13385D01*
Y11811D01*
X508949D01*
X508425Y12336D01*
X508949Y12861D01*
X510524D01*
X511573Y11811D02*
X512623D01*
X512098D01*
Y14960D01*
X511573D01*
X494781Y19685D02*
Y22834D01*
X493207Y21259D01*
X495305D01*
D19*
X6874Y52150D02*
X8874D01*
Y54150D01*
X6874D02*
X8874D01*
X6874Y52150D02*
Y54150D01*
Y6874D02*
X8874D01*
Y8874D01*
X6874D02*
X8874D01*
X6874Y6874D02*
Y8874D01*
X365142Y6874D02*
X367142D01*
Y8874D01*
X365142D02*
X367142D01*
X365142Y6874D02*
Y8874D01*
Y52150D02*
X367142D01*
Y54150D01*
X365142D02*
X367142D01*
X365142Y52150D02*
Y54150D01*
D20*
X1057222Y27559D02*
Y31337D01*
X1059112D01*
X1059741Y30708D01*
Y29448D01*
X1059112Y28819D01*
X1057222D01*
X1058482D02*
X1059741Y27559D01*
X1061631D02*
X1062890D01*
X1063520Y28189D01*
Y29448D01*
X1062890Y30078D01*
X1061631D01*
X1061001Y29448D01*
Y28189D01*
X1061631Y27559D01*
X1064779Y30078D02*
Y28189D01*
X1065409Y27559D01*
X1067298D01*
Y30078D01*
X1069187Y30708D02*
Y30078D01*
X1068557D01*
X1069817D01*
X1069187D01*
Y28189D01*
X1069817Y27559D01*
X1073595D02*
X1072336D01*
X1071706Y28189D01*
Y29448D01*
X1072336Y30078D01*
X1073595D01*
X1074225Y29448D01*
Y28819D01*
X1071706D01*
X1078003Y31337D02*
Y27559D01*
X1076114D01*
X1075484Y28189D01*
Y29448D01*
X1076114Y30078D01*
X1078003D01*
X1083041Y27559D02*
Y31337D01*
X1084930D01*
X1085560Y30708D01*
Y29448D01*
X1084930Y28819D01*
X1083041D01*
X1087449Y30078D02*
X1088708D01*
X1089338Y29448D01*
Y27559D01*
X1087449D01*
X1086819Y28189D01*
X1087449Y28819D01*
X1089338D01*
X1091227Y30708D02*
Y30078D01*
X1090598D01*
X1091857D01*
X1091227D01*
Y28189D01*
X1091857Y27559D01*
X1093746Y31337D02*
Y27559D01*
Y29448D01*
X1094376Y30078D01*
X1095635D01*
X1096265Y29448D01*
Y27559D01*
X1101303Y31337D02*
Y27559D01*
X1103822D01*
X1106970D02*
X1105711D01*
X1105081Y28189D01*
Y29448D01*
X1105711Y30078D01*
X1106970D01*
X1107600Y29448D01*
Y28819D01*
X1105081D01*
X1108859Y27559D02*
Y30078D01*
X1110749D01*
X1111378Y29448D01*
Y27559D01*
X1113897Y26300D02*
X1114527D01*
X1115157Y26929D01*
Y30078D01*
X1113267D01*
X1112638Y29448D01*
Y28189D01*
X1113267Y27559D01*
X1115157D01*
X1117046Y30708D02*
Y30078D01*
X1116416D01*
X1117675D01*
X1117046D01*
Y28189D01*
X1117675Y27559D01*
X1119565Y31337D02*
Y27559D01*
Y29448D01*
X1120194Y30078D01*
X1121454D01*
X1122083Y29448D01*
Y27559D01*
X1011566Y31337D02*
Y27559D01*
Y29448D01*
X1014085D01*
Y31337D01*
Y27559D01*
X1015974D02*
X1017233D01*
X1017863Y28189D01*
Y29448D01*
X1017233Y30078D01*
X1015974D01*
X1015344Y29448D01*
Y28189D01*
X1015974Y27559D01*
X1019123D02*
X1020382D01*
X1019752D01*
Y31337D01*
X1019123D01*
X1024160Y27559D02*
X1022901D01*
X1022271Y28189D01*
Y29448D01*
X1022901Y30078D01*
X1024160D01*
X1024790Y29448D01*
Y28819D01*
X1022271D01*
X1029828Y31337D02*
Y27559D01*
X1032347D01*
X1035495D02*
X1034236D01*
X1033606Y28189D01*
Y29448D01*
X1034236Y30078D01*
X1035495D01*
X1036125Y29448D01*
Y28819D01*
X1033606D01*
X1037384Y27559D02*
Y30078D01*
X1039273D01*
X1039903Y29448D01*
Y27559D01*
X1042422Y26300D02*
X1043052D01*
X1043682Y26929D01*
Y30078D01*
X1041792D01*
X1041163Y29448D01*
Y28189D01*
X1041792Y27559D01*
X1043682D01*
X1045571Y30708D02*
Y30078D01*
X1044941D01*
X1046200D01*
X1045571D01*
Y28189D01*
X1046200Y27559D01*
X1048090Y31337D02*
Y27559D01*
Y29448D01*
X1048719Y30078D01*
X1049979D01*
X1050608Y29448D01*
Y27559D01*
X941350Y31337D02*
Y27559D01*
Y29448D01*
X943869D01*
Y31337D01*
Y27559D01*
X945758D02*
X947018D01*
X947647Y28189D01*
Y29448D01*
X947018Y30078D01*
X945758D01*
X945128Y29448D01*
Y28189D01*
X945758Y27559D01*
X948907D02*
X950166D01*
X949537D01*
Y31337D01*
X948907D01*
X953944Y27559D02*
X952685D01*
X952055Y28189D01*
Y29448D01*
X952685Y30078D01*
X953944D01*
X954574Y29448D01*
Y28819D01*
X952055D01*
X959612Y31337D02*
X962131D01*
X960871D01*
Y27559D01*
X964020D02*
X965279D01*
X965909Y28189D01*
Y29448D01*
X965279Y30078D01*
X964020D01*
X963390Y29448D01*
Y28189D01*
X964020Y27559D01*
X967169D02*
X968428D01*
X967798D01*
Y31337D01*
X967169D01*
X972206Y27559D02*
X970947D01*
X970317Y28189D01*
Y29448D01*
X970947Y30078D01*
X972206D01*
X972836Y29448D01*
Y28819D01*
X970317D01*
X974096Y30078D02*
Y27559D01*
Y28819D01*
X974725Y29448D01*
X975355Y30078D01*
X975985D01*
X978504D02*
X979763D01*
X980393Y29448D01*
Y27559D01*
X978504D01*
X977874Y28189D01*
X978504Y28819D01*
X980393D01*
X981652Y27559D02*
Y30078D01*
X983541D01*
X984171Y29448D01*
Y27559D01*
X987949Y30078D02*
X986060D01*
X985430Y29448D01*
Y28189D01*
X986060Y27559D01*
X987949D01*
X991098D02*
X989838D01*
X989209Y28189D01*
Y29448D01*
X989838Y30078D01*
X991098D01*
X991728Y29448D01*
Y28819D01*
X989209D01*
X998025Y27559D02*
X996765Y28819D01*
Y30078D01*
X998025Y31337D01*
X999914Y29448D02*
X1002433D01*
X1003692Y27559D02*
X1004952Y28819D01*
Y30078D01*
X1003692Y31337D01*
X871134D02*
Y27559D01*
Y29448D01*
X873653D01*
Y31337D01*
Y27559D01*
X875542D02*
X876802D01*
X877432Y28189D01*
Y29448D01*
X876802Y30078D01*
X875542D01*
X874913Y29448D01*
Y28189D01*
X875542Y27559D01*
X878691D02*
X879951D01*
X879321D01*
Y31337D01*
X878691D01*
X883729Y27559D02*
X882469D01*
X881840Y28189D01*
Y29448D01*
X882469Y30078D01*
X883729D01*
X884359Y29448D01*
Y28819D01*
X881840D01*
X889396Y31337D02*
X891915D01*
X890656D01*
Y27559D01*
X893804D02*
X895064D01*
X895693Y28189D01*
Y29448D01*
X895064Y30078D01*
X893804D01*
X893175Y29448D01*
Y28189D01*
X893804Y27559D01*
X896953D02*
X898212D01*
X897583D01*
Y31337D01*
X896953D01*
X901991Y27559D02*
X900731D01*
X900101Y28189D01*
Y29448D01*
X900731Y30078D01*
X901991D01*
X902620Y29448D01*
Y28819D01*
X900101D01*
X903880Y30078D02*
Y27559D01*
Y28819D01*
X904510Y29448D01*
X905139Y30078D01*
X905769D01*
X908288D02*
X909547D01*
X910177Y29448D01*
Y27559D01*
X908288D01*
X907658Y28189D01*
X908288Y28819D01*
X910177D01*
X911436Y27559D02*
Y30078D01*
X913326D01*
X913955Y29448D01*
Y27559D01*
X917734Y30078D02*
X915844D01*
X915215Y29448D01*
Y28189D01*
X915844Y27559D01*
X917734D01*
X920882D02*
X919623D01*
X918993Y28189D01*
Y29448D01*
X919623Y30078D01*
X920882D01*
X921512Y29448D01*
Y28819D01*
X918993D01*
X927809Y27559D02*
X926550Y28819D01*
Y30078D01*
X927809Y31337D01*
X929698Y29448D02*
X932217D01*
X930958Y30708D02*
Y28189D01*
X933477Y27559D02*
X934736Y28819D01*
Y30078D01*
X933477Y31337D01*
X826107D02*
Y27559D01*
X827997D01*
X828626Y28189D01*
Y30708D01*
X827997Y31337D01*
X826107D01*
X831775Y27559D02*
X830515D01*
X829886Y28189D01*
Y29448D01*
X830515Y30078D01*
X831775D01*
X832405Y29448D01*
Y28819D01*
X829886D01*
X833664Y27559D02*
X835553D01*
X836183Y28189D01*
X835553Y28819D01*
X834294D01*
X833664Y29448D01*
X834294Y30078D01*
X836183D01*
X839961D02*
X838072D01*
X837442Y29448D01*
Y28189D01*
X838072Y27559D01*
X839961D01*
X841221Y30078D02*
Y27559D01*
Y28819D01*
X841850Y29448D01*
X842480Y30078D01*
X843110D01*
X844999Y27559D02*
X846258D01*
X845629D01*
Y30078D01*
X844999D01*
X848148Y26300D02*
Y30078D01*
X850037D01*
X850667Y29448D01*
Y28189D01*
X850037Y27559D01*
X848148D01*
X852556Y30708D02*
Y30078D01*
X851926D01*
X853185D01*
X852556D01*
Y28189D01*
X853185Y27559D01*
X855075D02*
X856334D01*
X855704D01*
Y30078D01*
X855075D01*
X858853Y27559D02*
X860112D01*
X860742Y28189D01*
Y29448D01*
X860112Y30078D01*
X858853D01*
X858223Y29448D01*
Y28189D01*
X858853Y27559D01*
X862001D02*
Y30078D01*
X863890D01*
X864520Y29448D01*
Y27559D01*
X791786Y31337D02*
X794305D01*
X793045D01*
Y27559D01*
X797453D02*
X796194D01*
X795564Y28189D01*
Y29448D01*
X796194Y30078D01*
X797453D01*
X798083Y29448D01*
Y28819D01*
X795564D01*
X799342Y27559D02*
Y30078D01*
X799972D01*
X800602Y29448D01*
Y27559D01*
Y29448D01*
X801231Y30078D01*
X801861Y29448D01*
Y27559D01*
X803121Y26300D02*
Y30078D01*
X805010D01*
X805639Y29448D01*
Y28189D01*
X805010Y27559D01*
X803121D01*
X806899D02*
X808158D01*
X807529D01*
Y31337D01*
X806899D01*
X810677Y30078D02*
X811937D01*
X812566Y29448D01*
Y27559D01*
X810677D01*
X810048Y28189D01*
X810677Y28819D01*
X812566D01*
X814456Y30708D02*
Y30078D01*
X813826D01*
X815085D01*
X814456D01*
Y28189D01*
X815085Y27559D01*
X818864D02*
X817604D01*
X816974Y28189D01*
Y29448D01*
X817604Y30078D01*
X818864D01*
X819493Y29448D01*
Y28819D01*
X816974D01*
X752426Y27559D02*
Y31337D01*
X754315D01*
X754945Y30708D01*
Y29448D01*
X754315Y28819D01*
X752426D01*
X756834Y30078D02*
X758094D01*
X758723Y29448D01*
Y27559D01*
X756834D01*
X756205Y28189D01*
X756834Y28819D01*
X758723D01*
X762502Y31337D02*
Y27559D01*
X760612D01*
X759983Y28189D01*
Y29448D01*
X760612Y30078D01*
X762502D01*
X770058Y30708D02*
X769429Y31337D01*
X768169D01*
X767539Y30708D01*
Y30078D01*
X768169Y29448D01*
X769429D01*
X770058Y28819D01*
Y28189D01*
X769429Y27559D01*
X768169D01*
X767539Y28189D01*
X771318Y31337D02*
Y27559D01*
Y29448D01*
X771947Y30078D01*
X773207D01*
X773837Y29448D01*
Y27559D01*
X775726Y30078D02*
X776985D01*
X777615Y29448D01*
Y27559D01*
X775726D01*
X775096Y28189D01*
X775726Y28819D01*
X777615D01*
X778874Y26300D02*
Y30078D01*
X780763D01*
X781393Y29448D01*
Y28189D01*
X780763Y27559D01*
X778874D01*
X784542D02*
X783282D01*
X782653Y28189D01*
Y29448D01*
X783282Y30078D01*
X784542D01*
X785172Y29448D01*
Y28819D01*
X782653D01*
X721253Y31337D02*
Y28819D01*
X722512Y27559D01*
X723772Y28819D01*
Y31337D01*
X725031Y27559D02*
X726291D01*
X725661D01*
Y30078D01*
X725031D01*
X728810D02*
X730069D01*
X730699Y29448D01*
Y27559D01*
X728810D01*
X728180Y28189D01*
X728810Y28819D01*
X730699D01*
X731958Y27559D02*
X734477Y30078D01*
X735737Y27559D02*
Y31337D01*
X737626D01*
X738255Y30708D01*
Y29448D01*
X737626Y28819D01*
X735737D01*
X740144Y30078D02*
X741404D01*
X742034Y29448D01*
Y27559D01*
X740144D01*
X739515Y28189D01*
X740144Y28819D01*
X742034D01*
X745812Y31337D02*
Y27559D01*
X743923D01*
X743293Y28189D01*
Y29448D01*
X743923Y30078D01*
X745812D01*
X642405Y31337D02*
Y27559D01*
X644294D01*
X644924Y28189D01*
Y30708D01*
X644294Y31337D01*
X642405D01*
X646183Y30078D02*
Y27559D01*
Y28819D01*
X646813Y29448D01*
X647443Y30078D01*
X648073D01*
X649962Y27559D02*
X651221D01*
X650592D01*
Y30078D01*
X649962D01*
X653110Y27559D02*
X654370D01*
X653740D01*
Y31337D01*
X653110D01*
X656259Y27559D02*
X657518D01*
X656889D01*
Y31337D01*
X656259D01*
X663186D02*
Y27559D01*
X665705D01*
X667594Y30078D02*
X668853D01*
X669483Y29448D01*
Y27559D01*
X667594D01*
X666964Y28189D01*
X667594Y28819D01*
X669483D01*
X670743Y30078D02*
Y28189D01*
X671372Y27559D01*
X673261D01*
Y26929D01*
X672632Y26300D01*
X672002D01*
X673261Y27559D02*
Y30078D01*
X676410Y27559D02*
X675150D01*
X674521Y28189D01*
Y29448D01*
X675150Y30078D01*
X676410D01*
X677040Y29448D01*
Y28819D01*
X674521D01*
X678299Y30078D02*
Y27559D01*
Y28819D01*
X678929Y29448D01*
X679559Y30078D01*
X680188D01*
X685856Y27559D02*
Y31337D01*
X687745D01*
X688375Y30708D01*
Y29448D01*
X687745Y28819D01*
X685856D01*
X690264Y30078D02*
X691523D01*
X692153Y29448D01*
Y27559D01*
X690264D01*
X689634Y28189D01*
X690264Y28819D01*
X692153D01*
X693412Y27559D02*
X694672D01*
X694042D01*
Y30078D01*
X693412D01*
X696561D02*
Y27559D01*
Y28819D01*
X697191Y29448D01*
X697820Y30078D01*
X698450D01*
X603675Y31337D02*
Y27559D01*
Y29448D01*
X606194D01*
Y31337D01*
Y27559D01*
X608083D02*
X609343D01*
X609973Y28189D01*
Y29448D01*
X609343Y30078D01*
X608083D01*
X607454Y29448D01*
Y28189D01*
X608083Y27559D01*
X611232D02*
X612491D01*
X611862D01*
Y31337D01*
X611232D01*
X616270Y27559D02*
X615010D01*
X614381Y28189D01*
Y29448D01*
X615010Y30078D01*
X616270D01*
X616899Y29448D01*
Y28819D01*
X614381D01*
X621937Y31337D02*
X624456D01*
X623197D01*
Y27559D01*
X625715Y30078D02*
Y28189D01*
X626345Y27559D01*
X628234D01*
Y26929D01*
X627605Y26300D01*
X626975D01*
X628234Y27559D02*
Y30078D01*
X629494Y26300D02*
Y30078D01*
X631383D01*
X632013Y29448D01*
Y28189D01*
X631383Y27559D01*
X629494D01*
X635161D02*
X633902D01*
X633272Y28189D01*
Y29448D01*
X633902Y30078D01*
X635161D01*
X635791Y29448D01*
Y28819D01*
X633272D01*
X576910Y27559D02*
Y31337D01*
X578799D01*
X579429Y30708D01*
Y29448D01*
X578799Y28819D01*
X576910D01*
X580689Y27559D02*
X581948D01*
X581318D01*
Y31337D01*
X580689D01*
X584467Y30078D02*
X585726D01*
X586356Y29448D01*
Y27559D01*
X584467D01*
X583837Y28189D01*
X584467Y28819D01*
X586356D01*
X588245Y30708D02*
Y30078D01*
X587615D01*
X588875D01*
X588245D01*
Y28189D01*
X588875Y27559D01*
X592653D02*
X591394D01*
X590764Y28189D01*
Y29448D01*
X591394Y30078D01*
X592653D01*
X593283Y29448D01*
Y28819D01*
X590764D01*
X597061Y31337D02*
Y27559D01*
X595172D01*
X594542Y28189D01*
Y29448D01*
X595172Y30078D01*
X597061D01*
X518528Y31337D02*
Y27559D01*
Y29448D01*
X521047D01*
Y31337D01*
Y27559D01*
X522936D02*
X524196D01*
X524825Y28189D01*
Y29448D01*
X524196Y30078D01*
X522936D01*
X522306Y29448D01*
Y28189D01*
X522936Y27559D01*
X526085D02*
X527344D01*
X526715D01*
Y31337D01*
X526085D01*
X531123Y27559D02*
X529863D01*
X529233Y28189D01*
Y29448D01*
X529863Y30078D01*
X531123D01*
X531752Y29448D01*
Y28819D01*
X529233D01*
X539309Y30708D02*
X538679Y31337D01*
X537420D01*
X536790Y30708D01*
Y30078D01*
X537420Y29448D01*
X538679D01*
X539309Y28819D01*
Y28189D01*
X538679Y27559D01*
X537420D01*
X536790Y28189D01*
X540568Y27559D02*
X541828D01*
X541198D01*
Y30078D01*
X540568D01*
X543717D02*
X546236D01*
X543717Y27559D01*
X546236D01*
X549384D02*
X548125D01*
X547495Y28189D01*
Y29448D01*
X548125Y30078D01*
X549384D01*
X550014Y29448D01*
Y28819D01*
X547495D01*
X495725Y30708D02*
X495096Y31337D01*
X493836D01*
X493207Y30708D01*
Y28189D01*
X493836Y27559D01*
X495096D01*
X495725Y28189D01*
X497614Y27559D02*
X498874D01*
X499504Y28189D01*
Y29448D01*
X498874Y30078D01*
X497614D01*
X496985Y29448D01*
Y28189D01*
X497614Y27559D01*
X500763Y30078D02*
Y28189D01*
X501393Y27559D01*
X503282D01*
Y30078D01*
X504541Y27559D02*
Y30078D01*
X506430D01*
X507060Y29448D01*
Y27559D01*
X508949Y30708D02*
Y30078D01*
X508320D01*
X509579D01*
X508949D01*
Y28189D01*
X509579Y27559D01*
X468960Y30708D02*
X468330Y31337D01*
X467071D01*
X466441Y30708D01*
Y30078D01*
X467071Y29448D01*
X468330D01*
X468960Y28819D01*
Y28189D01*
X468330Y27559D01*
X467071D01*
X466441Y28189D01*
X470220Y30078D02*
Y28189D01*
X470849Y27559D01*
X472739D01*
Y26929D01*
X472109Y26300D01*
X471479D01*
X472739Y27559D02*
Y30078D01*
X473998Y27559D02*
Y30078D01*
X474628D01*
X475257Y29448D01*
Y27559D01*
Y29448D01*
X475887Y30078D01*
X476517Y29448D01*
Y27559D01*
X477776Y31337D02*
Y27559D01*
X479665D01*
X480295Y28189D01*
Y28819D01*
Y29448D01*
X479665Y30078D01*
X477776D01*
X482184Y27559D02*
X483444D01*
X484073Y28189D01*
Y29448D01*
X483444Y30078D01*
X482184D01*
X481555Y29448D01*
Y28189D01*
X482184Y27559D01*
X485333D02*
X486592D01*
X485963D01*
Y31337D01*
X485333D01*
M02*
