G04*
G04 #@! TF.GenerationSoftware,Altium Limited,Altium Designer,18.1.11 (251)*
G04*
G04 Layer_Color=65535*
%FSLAX25Y25*%
%MOIN*%
G70*
G01*
G75*
%ADD10C,0.01000*%
%ADD11C,0.00591*%
%ADD12C,0.01575*%
%ADD13R,0.00787X0.00787*%
%ADD14R,0.03150X0.03150*%
%ADD15C,0.00394*%
%ADD16C,0.00787*%
%ADD17C,0.00984*%
G36*
X24585Y40888D02*
X25028Y40911D01*
X25051Y40475D01*
X25490Y40498D01*
X25513Y40050D01*
X25537Y39605D01*
X25560Y39160D01*
X25583Y38712D01*
X25607Y38266D01*
X25630Y37823D01*
X25653Y37387D01*
X25676Y36946D01*
X23901Y36853D01*
X23878Y37294D01*
X23430Y37271D01*
X23453Y36830D01*
X21679Y36737D01*
X21656Y37178D01*
X21646Y37177D01*
X21669Y36737D01*
X17672Y36527D01*
X17649Y36968D01*
X17640Y36967D01*
X17663Y36527D01*
X15888Y36434D01*
X15865Y36874D01*
X15417Y36851D01*
X15440Y36410D01*
X13666Y36317D01*
X13643Y36758D01*
X13633Y36757D01*
X13656Y36316D01*
X11882Y36224D01*
X11858Y36664D01*
X11411Y36641D01*
X11434Y36200D01*
X9659Y36107D01*
X9636Y36548D01*
X9191Y36524D01*
X9168Y36960D01*
X9145Y37404D01*
X9121Y37849D01*
X9098Y38297D01*
X9075Y38742D01*
X9051Y39188D01*
X9028Y39635D01*
X9005Y40071D01*
X9450Y40095D01*
X9427Y40543D01*
X12542Y40706D01*
X12566Y40258D01*
X13009Y40281D01*
X13032Y39845D01*
X13034Y39845D01*
X13011Y40281D01*
X12988Y40729D01*
X16549Y40916D01*
X16572Y40468D01*
X17016Y40491D01*
X17038Y40055D01*
X17041Y40055D01*
X17018Y40491D01*
X16994Y40939D01*
X20999Y41149D01*
X21022Y40701D01*
X21024Y40701D01*
X21470Y40725D01*
X21446Y41172D01*
X24562Y41336D01*
X24585Y40888D01*
D02*
G37*
G36*
X40984Y41747D02*
X41429Y41771D01*
X41452Y41335D01*
X41475Y40887D01*
X41499Y40441D01*
X41522Y39996D01*
X41546Y39548D01*
X41993Y39572D01*
X42017Y39126D01*
X42460Y39149D01*
X42483Y38706D01*
X42506Y38270D01*
X42529Y37830D01*
X38970Y37643D01*
X38947Y38084D01*
X38502Y38061D01*
X38499Y38060D01*
X38522Y37620D01*
X35409Y37457D01*
X35386Y37897D01*
X34941Y37874D01*
X34918Y38310D01*
X34908Y38309D01*
X34931Y37873D01*
X34493Y37850D01*
X34516Y37410D01*
X31403Y37247D01*
X31380Y37687D01*
X30934Y37664D01*
X30911Y38100D01*
X30902Y38100D01*
X30925Y37663D01*
X30486Y37641D01*
X30509Y37200D01*
X27396Y37037D01*
X27373Y37477D01*
X26928Y37454D01*
X26905Y37890D01*
X26459Y37867D01*
X26436Y38310D01*
X26413Y38755D01*
X26389Y39203D01*
X26835Y39226D01*
X26812Y39672D01*
X26366Y39648D01*
X26343Y40094D01*
X26319Y40542D01*
X26296Y40978D01*
X26742Y41001D01*
X26718Y41449D01*
X29834Y41612D01*
X29858Y41164D01*
X30301Y41187D01*
X30323Y40751D01*
X30326Y40751D01*
X30303Y41188D01*
X30748Y41211D01*
X30725Y41659D01*
X33841Y41822D01*
X33864Y41374D01*
X34307Y41397D01*
X34330Y40961D01*
X34332Y40962D01*
X34309Y41398D01*
X34755Y41421D01*
X34731Y41869D01*
X37847Y42032D01*
X37870Y41584D01*
X38313Y41607D01*
X38336Y41171D01*
X38775Y41194D01*
X38798Y40747D01*
X38822Y40301D01*
X38845Y39856D01*
X38868Y39408D01*
X39323Y39432D01*
X39300Y39880D01*
X39276Y40325D01*
X38831Y40302D01*
X38808Y40747D01*
X38784Y41195D01*
X38761Y41631D01*
X39207Y41654D01*
X39183Y42102D01*
X40960Y42195D01*
X40984Y41747D01*
D02*
G37*
G36*
X16080Y33901D02*
X15181Y32874D01*
X15188D01*
X15203Y32871D01*
X15232Y32863D01*
X15268Y32856D01*
X15312Y32845D01*
X15363Y32831D01*
X15417Y32816D01*
X15479Y32794D01*
X15541Y32769D01*
X15607Y32743D01*
X15672Y32710D01*
X15742Y32674D01*
X15807Y32634D01*
X15869Y32590D01*
X15927Y32539D01*
X15982Y32485D01*
X15985Y32481D01*
X15993Y32470D01*
X16007Y32452D01*
X16025Y32430D01*
X16047Y32401D01*
X16069Y32365D01*
X16095Y32324D01*
X16124Y32277D01*
X16149Y32223D01*
X16175Y32168D01*
X16196Y32106D01*
X16218Y32037D01*
X16237Y31968D01*
X16251Y31891D01*
X16258Y31815D01*
X16262Y31731D01*
Y31728D01*
Y31717D01*
Y31699D01*
X16258Y31673D01*
Y31640D01*
X16251Y31604D01*
X16248Y31564D01*
X16240Y31520D01*
X16218Y31422D01*
X16186Y31313D01*
X16164Y31254D01*
X16142Y31200D01*
X16113Y31141D01*
X16080Y31087D01*
X16076Y31083D01*
X16073Y31076D01*
X16062Y31058D01*
X16047Y31040D01*
X16025Y31014D01*
X16004Y30985D01*
X15974Y30952D01*
X15942Y30920D01*
X15905Y30883D01*
X15865Y30847D01*
X15818Y30807D01*
X15767Y30767D01*
X15712Y30730D01*
X15654Y30690D01*
X15592Y30654D01*
X15523Y30621D01*
X15519Y30617D01*
X15505Y30614D01*
X15487Y30606D01*
X15458Y30595D01*
X15421Y30581D01*
X15378Y30566D01*
X15327Y30552D01*
X15268Y30534D01*
X15206Y30519D01*
X15137Y30501D01*
X15061Y30486D01*
X14981Y30475D01*
X14897Y30461D01*
X14806Y30454D01*
X14708Y30450D01*
X14609Y30446D01*
X14569D01*
X14537Y30450D01*
X14500D01*
X14453Y30454D01*
X14402Y30457D01*
X14347Y30461D01*
X14286Y30465D01*
X14220Y30472D01*
X14082Y30494D01*
X13932Y30519D01*
X13780Y30555D01*
X13776D01*
X13761Y30559D01*
X13739Y30566D01*
X13710Y30577D01*
X13678Y30588D01*
X13638Y30599D01*
X13590Y30617D01*
X13539Y30636D01*
X13434Y30679D01*
X13317Y30734D01*
X13201Y30796D01*
X13092Y30869D01*
X13448Y31575D01*
X13452Y31571D01*
X13459Y31567D01*
X13470Y31560D01*
X13488Y31546D01*
X13510Y31531D01*
X13536Y31516D01*
X13565Y31498D01*
X13598Y31476D01*
X13674Y31436D01*
X13765Y31389D01*
X13863Y31349D01*
X13972Y31309D01*
X13976D01*
X13987Y31305D01*
X14002Y31302D01*
X14023Y31294D01*
X14052Y31287D01*
X14085Y31280D01*
X14122Y31273D01*
X14162Y31265D01*
X14209Y31254D01*
X14256Y31247D01*
X14358Y31233D01*
X14471Y31222D01*
X14588Y31218D01*
X14620D01*
X14646Y31222D01*
X14675D01*
X14708Y31225D01*
X14744Y31229D01*
X14784Y31236D01*
X14872Y31251D01*
X14963Y31273D01*
X15054Y31305D01*
X15134Y31349D01*
X15137D01*
X15141Y31356D01*
X15166Y31374D01*
X15195Y31404D01*
X15236Y31447D01*
X15272Y31502D01*
X15301Y31567D01*
X15327Y31644D01*
X15330Y31688D01*
X15334Y31731D01*
Y31738D01*
Y31753D01*
X15330Y31775D01*
X15323Y31808D01*
X15312Y31844D01*
X15294Y31884D01*
X15272Y31931D01*
X15239Y31975D01*
X15203Y32022D01*
X15152Y32066D01*
X15090Y32106D01*
X15021Y32142D01*
X14933Y32175D01*
X14886Y32186D01*
X14835Y32197D01*
X14777Y32208D01*
X14719Y32215D01*
X14657Y32219D01*
X14165D01*
Y32831D01*
X14984Y33759D01*
X13288D01*
Y34501D01*
X16080D01*
Y33901D01*
D02*
G37*
G36*
X40444Y30512D02*
X39523D01*
Y33759D01*
X38722D01*
Y34501D01*
X40444D01*
Y30512D01*
D02*
G37*
G36*
X36367Y34498D02*
X36425Y34494D01*
X36491Y34487D01*
X36564Y34479D01*
X36647Y34468D01*
X36735Y34458D01*
X36826Y34439D01*
X36920Y34421D01*
X37019Y34396D01*
X37117Y34367D01*
X37215Y34334D01*
X37314Y34294D01*
X37408Y34250D01*
X37415Y34246D01*
X37430Y34239D01*
X37455Y34225D01*
X37492Y34203D01*
X37532Y34177D01*
X37579Y34148D01*
X37634Y34112D01*
X37692Y34072D01*
X37754Y34024D01*
X37816Y33970D01*
X37881Y33915D01*
X37947Y33850D01*
X38009Y33784D01*
X38071Y33711D01*
X38129Y33635D01*
X38184Y33551D01*
X38187Y33548D01*
X38194Y33529D01*
X38209Y33507D01*
X38227Y33471D01*
X38249Y33427D01*
X38271Y33377D01*
X38296Y33318D01*
X38322Y33253D01*
X38347Y33180D01*
X38373Y33100D01*
X38395Y33013D01*
X38416Y32921D01*
X38435Y32823D01*
X38449Y32721D01*
X38456Y32616D01*
X38460Y32506D01*
Y32499D01*
Y32481D01*
Y32448D01*
X38456Y32405D01*
X38453Y32354D01*
X38445Y32292D01*
X38438Y32226D01*
X38427Y32150D01*
X38413Y32070D01*
X38391Y31986D01*
X38369Y31899D01*
X38344Y31811D01*
X38311Y31720D01*
X38274Y31629D01*
X38231Y31542D01*
X38184Y31455D01*
X38180Y31451D01*
X38169Y31436D01*
X38154Y31411D01*
X38133Y31382D01*
X38103Y31342D01*
X38071Y31302D01*
X38031Y31251D01*
X37983Y31200D01*
X37932Y31145D01*
X37874Y31087D01*
X37808Y31029D01*
X37739Y30974D01*
X37667Y30916D01*
X37587Y30861D01*
X37499Y30807D01*
X37408Y30759D01*
X37401Y30756D01*
X37386Y30748D01*
X37357Y30738D01*
X37321Y30719D01*
X37273Y30701D01*
X37215Y30683D01*
X37150Y30657D01*
X37077Y30636D01*
X36997Y30614D01*
X36909Y30592D01*
X36815Y30570D01*
X36713Y30552D01*
X36607Y30534D01*
X36494Y30523D01*
X36378Y30515D01*
X36258Y30512D01*
X34445D01*
Y34501D01*
X36320D01*
X36367Y34498D01*
D02*
G37*
G36*
X27554Y34563D02*
X27590D01*
X27638Y34560D01*
X27689Y34556D01*
X27743Y34549D01*
X27801Y34541D01*
X27863Y34530D01*
X27994Y34505D01*
X28129Y34468D01*
X28256Y34421D01*
X28260D01*
X28271Y34414D01*
X28289Y34407D01*
X28311Y34396D01*
X28340Y34381D01*
X28373Y34363D01*
X28446Y34316D01*
X28530Y34261D01*
X28617Y34188D01*
X28701Y34108D01*
X28777Y34014D01*
X28781Y34010D01*
X28784Y34003D01*
X28795Y33988D01*
X28806Y33966D01*
X28821Y33941D01*
X28835Y33912D01*
X28853Y33875D01*
X28872Y33835D01*
X28886Y33791D01*
X28904Y33744D01*
X28919Y33693D01*
X28934Y33639D01*
X28955Y33518D01*
X28959Y33453D01*
X28963Y33387D01*
Y33384D01*
Y33373D01*
Y33355D01*
X28959Y33333D01*
Y33304D01*
X28955Y33271D01*
X28952Y33231D01*
X28945Y33191D01*
X28930Y33096D01*
X28904Y32994D01*
X28872Y32885D01*
X28824Y32776D01*
Y32772D01*
X28817Y32761D01*
X28810Y32747D01*
X28795Y32725D01*
X28781Y32699D01*
X28759Y32667D01*
X28737Y32630D01*
X28708Y32590D01*
X28672Y32543D01*
X28635Y32492D01*
X28591Y32441D01*
X28540Y32383D01*
X28490Y32324D01*
X28428Y32259D01*
X28362Y32197D01*
X28293Y32128D01*
X27376Y31262D01*
X29094D01*
Y30512D01*
X26076D01*
Y31109D01*
X27616Y32561D01*
X27619Y32565D01*
X27627Y32572D01*
X27638Y32583D01*
X27656Y32601D01*
X27674Y32619D01*
X27696Y32645D01*
X27747Y32699D01*
X27801Y32761D01*
X27856Y32827D01*
X27907Y32896D01*
X27925Y32929D01*
X27944Y32961D01*
Y32965D01*
X27947Y32969D01*
X27958Y32991D01*
X27973Y33023D01*
X27987Y33067D01*
X28002Y33118D01*
X28016Y33176D01*
X28027Y33235D01*
X28031Y33296D01*
Y33300D01*
Y33307D01*
Y33318D01*
X28027Y33336D01*
X28023Y33380D01*
X28009Y33431D01*
X27991Y33493D01*
X27962Y33551D01*
X27922Y33613D01*
X27896Y33639D01*
X27867Y33664D01*
X27860Y33671D01*
X27849Y33675D01*
X27838Y33686D01*
X27820Y33693D01*
X27801Y33704D01*
X27776Y33719D01*
X27747Y33730D01*
X27718Y33740D01*
X27681Y33755D01*
X27641Y33766D01*
X27601Y33773D01*
X27503Y33788D01*
X27394Y33795D01*
X27350D01*
X27328Y33791D01*
X27299D01*
X27237Y33784D01*
X27165Y33770D01*
X27084Y33751D01*
X27001Y33726D01*
X26921Y33693D01*
X26917D01*
X26910Y33689D01*
X26899Y33682D01*
X26884Y33675D01*
X26848Y33653D01*
X26797Y33620D01*
X26742Y33577D01*
X26684Y33526D01*
X26622Y33464D01*
X26568Y33395D01*
X25894Y33828D01*
X25898Y33832D01*
X25905Y33842D01*
X25920Y33861D01*
X25938Y33886D01*
X25960Y33915D01*
X25989Y33948D01*
X26025Y33984D01*
X26062Y34024D01*
X26105Y34068D01*
X26153Y34112D01*
X26207Y34159D01*
X26265Y34203D01*
X26327Y34246D01*
X26393Y34290D01*
X26462Y34330D01*
X26538Y34370D01*
X26542Y34374D01*
X26557Y34378D01*
X26579Y34388D01*
X26611Y34399D01*
X26651Y34418D01*
X26695Y34432D01*
X26750Y34450D01*
X26811Y34468D01*
X26877Y34487D01*
X26950Y34505D01*
X27026Y34523D01*
X27110Y34538D01*
X27194Y34549D01*
X27285Y34560D01*
X27379Y34563D01*
X27477Y34567D01*
X27521D01*
X27554Y34563D01*
D02*
G37*
G36*
X23572Y34498D02*
X23630Y34494D01*
X23696Y34487D01*
X23768Y34479D01*
X23852Y34468D01*
X23939Y34458D01*
X24031Y34439D01*
X24125Y34421D01*
X24223Y34396D01*
X24322Y34367D01*
X24420Y34334D01*
X24518Y34294D01*
X24613Y34250D01*
X24620Y34246D01*
X24635Y34239D01*
X24660Y34225D01*
X24697Y34203D01*
X24737Y34177D01*
X24784Y34148D01*
X24838Y34112D01*
X24897Y34072D01*
X24959Y34024D01*
X25021Y33970D01*
X25086Y33915D01*
X25152Y33850D01*
X25214Y33784D01*
X25275Y33711D01*
X25334Y33635D01*
X25388Y33551D01*
X25392Y33548D01*
X25399Y33529D01*
X25414Y33507D01*
X25432Y33471D01*
X25454Y33427D01*
X25475Y33377D01*
X25501Y33318D01*
X25526Y33253D01*
X25552Y33180D01*
X25578Y33100D01*
X25599Y33013D01*
X25621Y32921D01*
X25639Y32823D01*
X25654Y32721D01*
X25661Y32616D01*
X25665Y32506D01*
Y32499D01*
Y32481D01*
Y32448D01*
X25661Y32405D01*
X25657Y32354D01*
X25650Y32292D01*
X25643Y32226D01*
X25632Y32150D01*
X25618Y32070D01*
X25596Y31986D01*
X25574Y31899D01*
X25548Y31811D01*
X25516Y31720D01*
X25479Y31629D01*
X25436Y31542D01*
X25388Y31455D01*
X25385Y31451D01*
X25374Y31436D01*
X25359Y31411D01*
X25337Y31382D01*
X25308Y31342D01*
X25275Y31302D01*
X25235Y31251D01*
X25188Y31200D01*
X25137Y31145D01*
X25079Y31087D01*
X25013Y31029D01*
X24944Y30974D01*
X24871Y30916D01*
X24791Y30861D01*
X24704Y30807D01*
X24613Y30759D01*
X24606Y30756D01*
X24591Y30748D01*
X24562Y30738D01*
X24525Y30719D01*
X24478Y30701D01*
X24420Y30683D01*
X24354Y30657D01*
X24282Y30636D01*
X24202Y30614D01*
X24114Y30592D01*
X24020Y30570D01*
X23918Y30552D01*
X23812Y30534D01*
X23699Y30523D01*
X23583Y30515D01*
X23463Y30512D01*
X21650D01*
Y34501D01*
X23525D01*
X23572Y34498D01*
D02*
G37*
G36*
X10777D02*
X10835Y34494D01*
X10900Y34487D01*
X10973Y34479D01*
X11057Y34468D01*
X11144Y34458D01*
X11235Y34439D01*
X11330Y34421D01*
X11428Y34396D01*
X11526Y34367D01*
X11625Y34334D01*
X11723Y34294D01*
X11818Y34250D01*
X11825Y34246D01*
X11839Y34239D01*
X11865Y34225D01*
X11901Y34203D01*
X11941Y34177D01*
X11989Y34148D01*
X12043Y34112D01*
X12101Y34072D01*
X12163Y34024D01*
X12225Y33970D01*
X12291Y33915D01*
X12356Y33850D01*
X12418Y33784D01*
X12480Y33711D01*
X12538Y33635D01*
X12593Y33551D01*
X12597Y33548D01*
X12604Y33529D01*
X12618Y33507D01*
X12637Y33471D01*
X12658Y33427D01*
X12680Y33377D01*
X12706Y33318D01*
X12731Y33253D01*
X12757Y33180D01*
X12782Y33100D01*
X12804Y33013D01*
X12826Y32921D01*
X12844Y32823D01*
X12859Y32721D01*
X12866Y32616D01*
X12870Y32506D01*
Y32499D01*
Y32481D01*
Y32448D01*
X12866Y32405D01*
X12862Y32354D01*
X12855Y32292D01*
X12848Y32226D01*
X12837Y32150D01*
X12822Y32070D01*
X12800Y31986D01*
X12778Y31899D01*
X12753Y31811D01*
X12720Y31720D01*
X12684Y31629D01*
X12640Y31542D01*
X12593Y31455D01*
X12589Y31451D01*
X12578Y31436D01*
X12564Y31411D01*
X12542Y31382D01*
X12513Y31342D01*
X12480Y31302D01*
X12440Y31251D01*
X12393Y31200D01*
X12342Y31145D01*
X12284Y31087D01*
X12218Y31029D01*
X12149Y30974D01*
X12076Y30916D01*
X11996Y30861D01*
X11909Y30807D01*
X11818Y30759D01*
X11810Y30756D01*
X11796Y30748D01*
X11767Y30738D01*
X11730Y30719D01*
X11683Y30701D01*
X11625Y30683D01*
X11559Y30657D01*
X11486Y30636D01*
X11406Y30614D01*
X11319Y30592D01*
X11224Y30570D01*
X11122Y30552D01*
X11017Y30534D01*
X10904Y30523D01*
X10787Y30515D01*
X10667Y30512D01*
X8855D01*
Y34501D01*
X10729D01*
X10777Y34498D01*
D02*
G37*
G36*
X3321Y32311D02*
X3370Y32308D01*
X3429Y32305D01*
X3494Y32298D01*
X3563Y32292D01*
X3642Y32279D01*
X3721Y32265D01*
X3806Y32252D01*
X3888Y32233D01*
X3973Y32210D01*
X4059Y32183D01*
X4141Y32154D01*
X4223Y32118D01*
X4226Y32115D01*
X4242Y32108D01*
X4262Y32098D01*
X4292Y32082D01*
X4328Y32062D01*
X4367Y32036D01*
X4413Y32010D01*
X4459Y31977D01*
X4511Y31937D01*
X4564Y31898D01*
X4616Y31852D01*
X4669Y31803D01*
X4721Y31751D01*
X4770Y31695D01*
X4820Y31636D01*
X4862Y31570D01*
X4865Y31567D01*
X4872Y31554D01*
X4882Y31534D01*
X4895Y31508D01*
X4911Y31475D01*
X4931Y31436D01*
X4951Y31390D01*
X4970Y31341D01*
X4990Y31285D01*
X5010Y31222D01*
X5029Y31157D01*
X5046Y31088D01*
X5059Y31012D01*
X5069Y30937D01*
X5076Y30855D01*
X5079Y30773D01*
Y30730D01*
X5076Y30698D01*
X5072Y30658D01*
X5066Y30612D01*
X5059Y30563D01*
X5052Y30507D01*
X5039Y30445D01*
X5026Y30383D01*
X5010Y30317D01*
X4987Y30248D01*
X4964Y30179D01*
X4934Y30110D01*
X4902Y30042D01*
X4862Y29976D01*
X4859Y29973D01*
X4852Y29960D01*
X4839Y29943D01*
X4820Y29920D01*
X4800Y29891D01*
X4770Y29855D01*
X4738Y29818D01*
X4698Y29779D01*
X4656Y29733D01*
X4610Y29691D01*
X4557Y29645D01*
X4498Y29599D01*
X4436Y29556D01*
X4370Y29510D01*
X4298Y29471D01*
X4223Y29432D01*
X4216Y29428D01*
X4203Y29422D01*
X4180Y29412D01*
X4147Y29402D01*
X4108Y29386D01*
X4059Y29369D01*
X4003Y29353D01*
X3941Y29333D01*
X3872Y29313D01*
X3793Y29297D01*
X3711Y29281D01*
X3622Y29264D01*
X3531Y29254D01*
X3432Y29245D01*
X3331Y29238D01*
X3222Y29235D01*
X3219D01*
X3216D01*
X3196D01*
X3167D01*
X3124Y29238D01*
X3075Y29241D01*
X3016Y29245D01*
X2950Y29251D01*
X2881Y29261D01*
X2802Y29271D01*
X2724Y29284D01*
X2642Y29300D01*
X2556Y29317D01*
X2471Y29340D01*
X2386Y29366D01*
X2304Y29395D01*
X2225Y29432D01*
X2222Y29435D01*
X2206Y29441D01*
X2186Y29451D01*
X2156Y29468D01*
X2120Y29487D01*
X2081Y29513D01*
X2035Y29540D01*
X1989Y29573D01*
X1936Y29609D01*
X1884Y29651D01*
X1832Y29697D01*
X1779Y29743D01*
X1727Y29796D01*
X1677Y29851D01*
X1628Y29914D01*
X1585Y29976D01*
X1582Y29979D01*
X1576Y29992D01*
X1566Y30012D01*
X1550Y30038D01*
X1533Y30071D01*
X1517Y30110D01*
X1497Y30156D01*
X1474Y30209D01*
X1454Y30265D01*
X1435Y30324D01*
X1418Y30389D01*
X1399Y30461D01*
X1385Y30534D01*
X1376Y30612D01*
X1369Y30691D01*
X1366Y30773D01*
Y30816D01*
X1369Y30849D01*
X1372Y30888D01*
X1379Y30934D01*
X1385Y30986D01*
X1392Y31042D01*
X1405Y31101D01*
X1418Y31167D01*
X1438Y31232D01*
X1458Y31298D01*
X1484Y31367D01*
X1513Y31436D01*
X1546Y31504D01*
X1585Y31570D01*
X1589Y31573D01*
X1595Y31587D01*
X1609Y31603D01*
X1625Y31629D01*
X1648Y31659D01*
X1677Y31691D01*
X1710Y31731D01*
X1746Y31770D01*
X1789Y31813D01*
X1838Y31859D01*
X1891Y31905D01*
X1946Y31951D01*
X2009Y31993D01*
X2077Y32039D01*
X2150Y32078D01*
X2225Y32118D01*
X2228Y32121D01*
X2245Y32128D01*
X2268Y32138D01*
X2301Y32147D01*
X2340Y32164D01*
X2386Y32180D01*
X2442Y32197D01*
X2507Y32216D01*
X2576Y32236D01*
X2651Y32252D01*
X2733Y32269D01*
X2822Y32285D01*
X2914Y32295D01*
X3012Y32305D01*
X3114Y32311D01*
X3222Y32315D01*
X3229D01*
X3249D01*
X3278D01*
X3321Y32311D01*
D02*
G37*
G36*
Y28825D02*
X3370Y28821D01*
X3429Y28818D01*
X3494Y28812D01*
X3563Y28805D01*
X3642Y28792D01*
X3721Y28779D01*
X3806Y28766D01*
X3888Y28746D01*
X3973Y28723D01*
X4059Y28697D01*
X4141Y28667D01*
X4223Y28631D01*
X4226Y28628D01*
X4242Y28621D01*
X4262Y28611D01*
X4292Y28595D01*
X4328Y28575D01*
X4367Y28549D01*
X4413Y28523D01*
X4459Y28490D01*
X4511Y28451D01*
X4564Y28411D01*
X4616Y28365D01*
X4669Y28316D01*
X4721Y28264D01*
X4770Y28208D01*
X4820Y28149D01*
X4862Y28083D01*
X4865Y28080D01*
X4872Y28067D01*
X4882Y28047D01*
X4895Y28021D01*
X4911Y27988D01*
X4931Y27949D01*
X4951Y27903D01*
X4970Y27854D01*
X4990Y27798D01*
X5010Y27736D01*
X5029Y27670D01*
X5046Y27601D01*
X5059Y27526D01*
X5069Y27450D01*
X5076Y27368D01*
X5079Y27286D01*
Y27244D01*
X5076Y27211D01*
X5072Y27172D01*
X5066Y27126D01*
X5059Y27077D01*
X5052Y27021D01*
X5039Y26958D01*
X5026Y26896D01*
X5010Y26831D01*
X4987Y26762D01*
X4964Y26693D01*
X4934Y26624D01*
X4902Y26555D01*
X4862Y26489D01*
X4859Y26486D01*
X4852Y26473D01*
X4839Y26456D01*
X4820Y26434D01*
X4800Y26404D01*
X4770Y26368D01*
X4738Y26332D01*
X4698Y26292D01*
X4656Y26247D01*
X4610Y26204D01*
X4557Y26158D01*
X4498Y26112D01*
X4436Y26070D01*
X4370Y26024D01*
X4298Y25984D01*
X4223Y25945D01*
X4216Y25942D01*
X4203Y25935D01*
X4180Y25925D01*
X4147Y25915D01*
X4108Y25899D01*
X4059Y25883D01*
X4003Y25866D01*
X3941Y25846D01*
X3872Y25827D01*
X3793Y25810D01*
X3711Y25794D01*
X3622Y25778D01*
X3531Y25768D01*
X3432Y25758D01*
X3331Y25751D01*
X3222Y25748D01*
X3219D01*
X3216D01*
X3196D01*
X3167D01*
X3124Y25751D01*
X3075Y25755D01*
X3016Y25758D01*
X2950Y25765D01*
X2881Y25774D01*
X2802Y25784D01*
X2724Y25797D01*
X2642Y25814D01*
X2556Y25830D01*
X2471Y25853D01*
X2386Y25879D01*
X2304Y25909D01*
X2225Y25945D01*
X2222Y25948D01*
X2206Y25955D01*
X2186Y25965D01*
X2156Y25981D01*
X2120Y26001D01*
X2081Y26027D01*
X2035Y26053D01*
X1989Y26086D01*
X1936Y26122D01*
X1884Y26165D01*
X1832Y26211D01*
X1779Y26256D01*
X1727Y26309D01*
X1677Y26365D01*
X1628Y26427D01*
X1585Y26489D01*
X1582Y26493D01*
X1576Y26506D01*
X1566Y26525D01*
X1550Y26552D01*
X1533Y26585D01*
X1517Y26624D01*
X1497Y26670D01*
X1474Y26722D01*
X1454Y26778D01*
X1435Y26837D01*
X1418Y26903D01*
X1399Y26975D01*
X1385Y27047D01*
X1376Y27126D01*
X1369Y27204D01*
X1366Y27286D01*
Y27329D01*
X1369Y27362D01*
X1372Y27401D01*
X1379Y27447D01*
X1385Y27500D01*
X1392Y27555D01*
X1405Y27614D01*
X1418Y27680D01*
X1438Y27746D01*
X1458Y27811D01*
X1484Y27880D01*
X1513Y27949D01*
X1546Y28018D01*
X1585Y28083D01*
X1589Y28087D01*
X1595Y28100D01*
X1609Y28116D01*
X1625Y28142D01*
X1648Y28172D01*
X1677Y28205D01*
X1710Y28244D01*
X1746Y28284D01*
X1789Y28326D01*
X1838Y28372D01*
X1891Y28418D01*
X1946Y28464D01*
X2009Y28506D01*
X2077Y28552D01*
X2150Y28592D01*
X2225Y28631D01*
X2228Y28635D01*
X2245Y28641D01*
X2268Y28651D01*
X2301Y28661D01*
X2340Y28677D01*
X2386Y28694D01*
X2442Y28710D01*
X2507Y28730D01*
X2576Y28749D01*
X2651Y28766D01*
X2733Y28782D01*
X2822Y28798D01*
X2914Y28808D01*
X3012Y28818D01*
X3114Y28825D01*
X3222Y28828D01*
X3229D01*
X3249D01*
X3278D01*
X3321Y28825D01*
D02*
G37*
G36*
X4597Y23918D02*
X4613D01*
X4636Y23914D01*
X4685Y23905D01*
X4741Y23885D01*
X4800Y23859D01*
X4862Y23826D01*
X4888Y23803D01*
X4918Y23777D01*
X4925Y23770D01*
X4941Y23751D01*
X4964Y23721D01*
X4987Y23678D01*
X5013Y23626D01*
X5036Y23567D01*
X5052Y23498D01*
X5056Y23462D01*
X5059Y23423D01*
Y23403D01*
X5056Y23386D01*
Y23370D01*
X5052Y23347D01*
X5043Y23298D01*
X5023Y23242D01*
X5000Y23183D01*
X4964Y23121D01*
X4944Y23095D01*
X4918Y23065D01*
X4915D01*
X4911Y23058D01*
X4892Y23042D01*
X4862Y23019D01*
X4820Y22996D01*
X4767Y22970D01*
X4705Y22947D01*
X4636Y22930D01*
X4600Y22927D01*
X4561Y22924D01*
X4557D01*
X4551D01*
X4538D01*
X4524Y22927D01*
X4505D01*
X4482Y22930D01*
X4433Y22940D01*
X4374Y22960D01*
X4315Y22983D01*
X4255Y23019D01*
X4229Y23039D01*
X4203Y23065D01*
X4200Y23068D01*
X4196Y23072D01*
X4180Y23091D01*
X4160Y23121D01*
X4134Y23163D01*
X4108Y23216D01*
X4088Y23278D01*
X4072Y23347D01*
X4065Y23423D01*
Y23442D01*
X4069Y23459D01*
Y23475D01*
X4072Y23498D01*
X4082Y23547D01*
X4098Y23603D01*
X4124Y23662D01*
X4157Y23721D01*
X4203Y23777D01*
Y23780D01*
X4210Y23783D01*
X4226Y23800D01*
X4259Y23823D01*
X4298Y23849D01*
X4351Y23875D01*
X4410Y23898D01*
X4482Y23914D01*
X4521Y23921D01*
X4561D01*
X4564D01*
X4570D01*
X4580D01*
X4597Y23918D01*
D02*
G37*
G36*
X48116Y19506D02*
X48096Y19502D01*
X48100Y19482D01*
X48079Y19478D01*
X48059Y19474D01*
X48039Y19470D01*
X48043Y19450D01*
X48023Y19446D01*
X48002Y19442D01*
X47982Y19438D01*
X47986Y19418D01*
X47966Y19414D01*
X47946Y19410D01*
X47949Y19390D01*
X47929Y19386D01*
X47909Y19382D01*
X47889Y19378D01*
X47893Y19358D01*
X47872Y19354D01*
X47852Y19350D01*
X47832Y19346D01*
X47836Y19326D01*
X47816Y19322D01*
X47796Y19318D01*
X47799Y19298D01*
X47779Y19294D01*
X47759Y19290D01*
X47739Y19286D01*
X47743Y19266D01*
X47722Y19262D01*
X47702Y19258D01*
X47682Y19254D01*
X47686Y19234D01*
X47666Y19230D01*
X47645Y19226D01*
X47625Y19222D01*
X47629Y19202D01*
X47609Y19198D01*
X47617Y19157D01*
X47637Y19161D01*
X47657Y19165D01*
X47661Y19145D01*
X47681Y19149D01*
X47685Y19128D01*
X47706Y19132D01*
X47726Y19136D01*
X47730Y19116D01*
X47750Y19120D01*
X47754Y19100D01*
X47774Y19104D01*
X47794Y19108D01*
X47798Y19087D01*
X47818Y19091D01*
X47822Y19071D01*
X47843Y19075D01*
X47863Y19079D01*
X47867Y19059D01*
X47887Y19063D01*
X47891Y19042D01*
X47911Y19046D01*
X47915Y19026D01*
X47936Y19030D01*
X47956Y19034D01*
X47960Y19014D01*
X47980Y19018D01*
X47984Y18997D01*
X48004Y19001D01*
X48024Y19005D01*
X48028Y18985D01*
X48048Y18989D01*
X48052Y18969D01*
X48073Y18973D01*
X48093Y18977D01*
X48097Y18956D01*
X48117Y18960D01*
X48121Y18940D01*
X48141Y18944D01*
X48162Y18948D01*
X48165Y18928D01*
X48186Y18932D01*
X48190Y18911D01*
X48210Y18915D01*
X48230Y18919D01*
X48450Y17786D01*
X48430Y17782D01*
X48426Y17802D01*
X48406Y17798D01*
X48402Y17818D01*
X48382Y17815D01*
X48378Y17835D01*
X48358Y17831D01*
X48354Y17851D01*
X48333Y17847D01*
X48313Y17843D01*
X48309Y17863D01*
X48289Y17860D01*
X48285Y17880D01*
X48265Y17876D01*
X48261Y17896D01*
X48241Y17892D01*
X48237Y17912D01*
X48217Y17908D01*
X48196Y17904D01*
X48192Y17925D01*
X48172Y17921D01*
X48168Y17941D01*
X48148Y17937D01*
X48144Y17957D01*
X48124Y17953D01*
X48103Y17949D01*
X48100Y17970D01*
X48079Y17966D01*
X48075Y17986D01*
X48055Y17982D01*
X48051Y18002D01*
X48031Y17998D01*
X48027Y18019D01*
X48007Y18015D01*
X47987Y18011D01*
X47983Y18031D01*
X47962Y18027D01*
X47958Y18047D01*
X47938Y18043D01*
X47934Y18064D01*
X47914Y18060D01*
X47910Y18080D01*
X47890Y18076D01*
X47870Y18072D01*
X47866Y18092D01*
X47846Y18088D01*
X47842Y18109D01*
X47821Y18105D01*
X47817Y18125D01*
X47797Y18121D01*
X47777Y18117D01*
X47773Y18137D01*
X47753Y18133D01*
X47749Y18154D01*
X47728Y18150D01*
X47725Y18170D01*
X47704Y18166D01*
X47700Y18186D01*
X47680Y18182D01*
X47660Y18178D01*
X47656Y18199D01*
X47636Y18195D01*
X47632Y18215D01*
X47612Y18211D01*
X47608Y18231D01*
X47587Y18227D01*
X47567Y18223D01*
X47563Y18244D01*
X47543Y18240D01*
X47539Y18260D01*
X47519Y18256D01*
X47515Y18276D01*
X47495Y18272D01*
X47491Y18292D01*
X47471Y18289D01*
X47450Y18284D01*
X47446Y18305D01*
X47426Y18301D01*
X47422Y18321D01*
X47402Y18317D01*
X47398Y18337D01*
X47378Y18334D01*
X47357Y18329D01*
X47354Y18350D01*
X47333Y18346D01*
X47329Y18366D01*
X47309Y18362D01*
X47305Y18382D01*
X47285Y18379D01*
X47281Y18399D01*
X47261Y18395D01*
X47240Y18391D01*
X47237Y18411D01*
X47216Y18407D01*
X47212Y18427D01*
X47192Y18423D01*
X47188Y18444D01*
X47168Y18440D01*
X47164Y18460D01*
X47144Y18456D01*
X47124Y18452D01*
X47120Y18472D01*
X47099Y18468D01*
X47096Y18489D01*
X47075Y18485D01*
X47071Y18505D01*
X47051Y18501D01*
X47031Y18497D01*
X47027Y18517D01*
X47007Y18513D01*
X47003Y18534D01*
X46982Y18530D01*
X46979Y18550D01*
X46958Y18546D01*
X46954Y18566D01*
X46934Y18562D01*
X46914Y18558D01*
X46910Y18579D01*
X46890Y18575D01*
X46870Y18571D01*
X46849Y18567D01*
X46853Y18547D01*
X46833Y18543D01*
X46837Y18522D01*
X46817Y18519D01*
X46796Y18515D01*
X46800Y18494D01*
X46780Y18490D01*
X46760Y18486D01*
X46764Y18466D01*
X46744Y18462D01*
X46723Y18458D01*
X46727Y18438D01*
X46707Y18434D01*
X46687Y18430D01*
X46691Y18410D01*
X46670Y18406D01*
X46650Y18402D01*
X46654Y18382D01*
X46634Y18378D01*
X46614Y18374D01*
X46618Y18354D01*
X46597Y18350D01*
X46601Y18330D01*
X46581Y18326D01*
X46561Y18322D01*
X46565Y18302D01*
X46545Y18297D01*
X46524Y18294D01*
X46528Y18273D01*
X46508Y18269D01*
X46488Y18266D01*
X46492Y18245D01*
X46471Y18241D01*
X46451Y18237D01*
X46455Y18217D01*
X46435Y18213D01*
X46415Y18209D01*
X46418Y18189D01*
X46398Y18185D01*
X46378Y18181D01*
X46382Y18161D01*
X46362Y18157D01*
X46366Y18137D01*
X46345Y18133D01*
X46325Y18129D01*
X46329Y18109D01*
X46309Y18105D01*
X46289Y18101D01*
X46293Y18080D01*
X46272Y18077D01*
X46252Y18073D01*
X46256Y18052D01*
X46236Y18048D01*
X46216Y18045D01*
X46220Y18024D01*
X46199Y18020D01*
X46179Y18016D01*
X46183Y17996D01*
X46163Y17992D01*
X46143Y17988D01*
X46146Y17968D01*
X46126Y17964D01*
X46106Y17960D01*
X46110Y17940D01*
X46090Y17936D01*
X46094Y17916D01*
X46073Y17912D01*
X46053Y17908D01*
X46057Y17888D01*
X46037Y17884D01*
X46016Y17880D01*
X46020Y17860D01*
X46000Y17856D01*
X45980Y17852D01*
X45984Y17831D01*
X45964Y17828D01*
X45943Y17824D01*
X45947Y17803D01*
X45927Y17799D01*
X45907Y17796D01*
X45911Y17775D01*
X45891Y17771D01*
X45870Y17767D01*
X45874Y17747D01*
X45854Y17743D01*
X45858Y17723D01*
X45838Y17719D01*
X45818Y17715D01*
X45821Y17695D01*
X45801Y17691D01*
X45585Y18804D01*
X45605Y18808D01*
X45601Y18828D01*
X45621Y18832D01*
X45642Y18836D01*
X45662Y18840D01*
X45658Y18860D01*
X45678Y18864D01*
X45698Y18868D01*
X45719Y18872D01*
X45715Y18892D01*
X45735Y18896D01*
X45755Y18900D01*
X45775Y18904D01*
X45772Y18925D01*
X45792Y18928D01*
X45812Y18932D01*
X45832Y18936D01*
X45828Y18957D01*
X45849Y18960D01*
X45869Y18964D01*
X45889Y18968D01*
X45885Y18989D01*
X45905Y18993D01*
X45926Y18996D01*
X45946Y19000D01*
X45942Y19021D01*
X45962Y19025D01*
X45982Y19028D01*
X46003Y19032D01*
X45999Y19053D01*
X46019Y19057D01*
X46039Y19060D01*
X46059Y19064D01*
X46055Y19085D01*
X46076Y19089D01*
X46096Y19093D01*
X46116Y19096D01*
X46136Y19100D01*
X46128Y19141D01*
X46108Y19137D01*
X46104Y19157D01*
X46084Y19153D01*
X46080Y19173D01*
X46060Y19170D01*
X46040Y19166D01*
X46036Y19186D01*
X46016Y19182D01*
X46012Y19202D01*
X45991Y19198D01*
X45971Y19194D01*
X45967Y19215D01*
X45947Y19211D01*
X45943Y19231D01*
X45923Y19227D01*
X45902Y19223D01*
X45899Y19243D01*
X45878Y19239D01*
X45874Y19260D01*
X45854Y19256D01*
X45834Y19252D01*
X45830Y19272D01*
X45810Y19268D01*
X45806Y19288D01*
X45786Y19284D01*
X45765Y19280D01*
X45761Y19301D01*
X45741Y19297D01*
X45737Y19317D01*
X45717Y19313D01*
X45697Y19309D01*
X45693Y19329D01*
X45673Y19325D01*
X45669Y19346D01*
X45648Y19342D01*
X45628Y19338D01*
X45624Y19358D01*
X45604Y19354D01*
X45600Y19374D01*
X45580Y19370D01*
X45560Y19366D01*
X45556Y19387D01*
X45535Y19383D01*
X45531Y19403D01*
X45511Y19399D01*
X45491Y19395D01*
X45487Y19415D01*
X45467Y19411D01*
X45250Y20525D01*
X45271Y20528D01*
X45275Y20508D01*
X45295Y20512D01*
X45299Y20492D01*
X45319Y20496D01*
X45339Y20500D01*
X45343Y20480D01*
X45363Y20483D01*
X45367Y20463D01*
X45388Y20467D01*
X45391Y20447D01*
X45412Y20451D01*
X45432Y20455D01*
X45436Y20435D01*
X45456Y20438D01*
X45460Y20418D01*
X45480Y20422D01*
X45484Y20402D01*
X45505Y20406D01*
X45508Y20386D01*
X45529Y20390D01*
X45549Y20393D01*
X45553Y20373D01*
X45573Y20377D01*
X45577Y20357D01*
X45597Y20361D01*
X45601Y20341D01*
X45621Y20345D01*
X45642Y20349D01*
X45646Y20328D01*
X45666Y20332D01*
X45670Y20312D01*
X45690Y20316D01*
X45694Y20296D01*
X45714Y20300D01*
X45718Y20279D01*
X45738Y20283D01*
X45759Y20287D01*
X45763Y20267D01*
X45783Y20271D01*
X45787Y20251D01*
X45807Y20255D01*
X45811Y20234D01*
X45831Y20238D01*
X45851Y20242D01*
X45855Y20222D01*
X45876Y20226D01*
X45880Y20206D01*
X45900Y20210D01*
X45904Y20189D01*
X45924Y20193D01*
X45944Y20197D01*
X45948Y20177D01*
X45968Y20181D01*
X45972Y20161D01*
X45992Y20165D01*
X45996Y20144D01*
X46017Y20148D01*
X46021Y20128D01*
X46041Y20132D01*
X46061Y20136D01*
X46065Y20116D01*
X46085Y20120D01*
X46089Y20099D01*
X46109Y20103D01*
X46113Y20083D01*
X46134Y20087D01*
X46154Y20091D01*
X46158Y20071D01*
X46178Y20075D01*
X46182Y20054D01*
X46202Y20058D01*
X46206Y20038D01*
X46226Y20042D01*
X46247Y20046D01*
X46251Y20026D01*
X46271Y20030D01*
X46275Y20009D01*
X46295Y20013D01*
X46299Y19993D01*
X46319Y19997D01*
X46323Y19977D01*
X46343Y19981D01*
X46364Y19985D01*
X46367Y19964D01*
X46388Y19969D01*
X46392Y19948D01*
X46412Y19952D01*
X46416Y19932D01*
X46436Y19936D01*
X46456Y19940D01*
X46460Y19920D01*
X46481Y19924D01*
X46484Y19903D01*
X46505Y19907D01*
X46509Y19887D01*
X46529Y19891D01*
X46549Y19895D01*
X46553Y19875D01*
X46573Y19879D01*
X46577Y19858D01*
X46597Y19862D01*
X46601Y19842D01*
X46622Y19846D01*
X46626Y19826D01*
X46646Y19830D01*
X46666Y19834D01*
X46670Y19813D01*
X46690Y19817D01*
X46694Y19797D01*
X46714Y19801D01*
X46718Y19781D01*
X46738Y19785D01*
X46759Y19789D01*
X46763Y19768D01*
X46783Y19772D01*
X46787Y19752D01*
X46807Y19756D01*
X46811Y19736D01*
X46831Y19740D01*
X46835Y19719D01*
X46856Y19723D01*
X46876Y19727D01*
X46872Y19748D01*
X46892Y19751D01*
X46912Y19755D01*
X46908Y19776D01*
X46929Y19780D01*
X46949Y19783D01*
X46945Y19804D01*
X46965Y19808D01*
X46961Y19828D01*
X46981Y19832D01*
X47002Y19836D01*
X46998Y19856D01*
X47018Y19860D01*
X47038Y19864D01*
X47034Y19884D01*
X47054Y19888D01*
X47075Y19892D01*
X47071Y19912D01*
X47091Y19916D01*
X47111Y19920D01*
X47107Y19940D01*
X47128Y19944D01*
X47148Y19948D01*
X47144Y19968D01*
X47164Y19972D01*
X47184Y19976D01*
X47181Y19997D01*
X47201Y20000D01*
X47221Y20004D01*
X47217Y20025D01*
X47237Y20029D01*
X47258Y20032D01*
X47254Y20053D01*
X47274Y20057D01*
X47270Y20077D01*
X47290Y20081D01*
X47310Y20085D01*
X47306Y20105D01*
X47327Y20109D01*
X47347Y20113D01*
X47343Y20133D01*
X47363Y20137D01*
X47383Y20141D01*
X47379Y20161D01*
X47400Y20165D01*
X47420Y20169D01*
X47416Y20189D01*
X47436Y20193D01*
X47456Y20197D01*
X47453Y20218D01*
X47473Y20221D01*
X47493Y20225D01*
X47489Y20246D01*
X47509Y20249D01*
X47530Y20253D01*
X47526Y20274D01*
X47546Y20278D01*
X47542Y20298D01*
X47562Y20302D01*
X47583Y20306D01*
X47579Y20326D01*
X47599Y20330D01*
X47619Y20334D01*
X47615Y20354D01*
X47635Y20358D01*
X47656Y20362D01*
X47652Y20382D01*
X47672Y20386D01*
X47692Y20390D01*
X47688Y20410D01*
X47708Y20414D01*
X47729Y20418D01*
X47725Y20438D01*
X47745Y20442D01*
X47765Y20446D01*
X47761Y20467D01*
X47782Y20470D01*
X47802Y20474D01*
X47798Y20495D01*
X47818Y20499D01*
X47814Y20519D01*
X47834Y20523D01*
X47855Y20527D01*
X47851Y20547D01*
X47871Y20551D01*
X47891Y20555D01*
X47887Y20575D01*
X47908Y20579D01*
X48116Y19506D01*
D02*
G37*
G36*
X5020Y21625D02*
Y20799D01*
X2258Y19641D01*
Y20464D01*
X4137Y21228D01*
X2258Y22022D01*
Y22793D01*
X5020Y21625D01*
D02*
G37*
G36*
X3681Y19513D02*
X3708D01*
X3727Y19510D01*
X3747D01*
X3770Y19506D01*
X3799D01*
X3829Y19503D01*
X3865Y19500D01*
Y17407D01*
X3868D01*
X3875Y17410D01*
X3888Y17414D01*
X3908Y17420D01*
X3928Y17427D01*
X3954Y17436D01*
X4013Y17463D01*
X4078Y17499D01*
X4144Y17545D01*
X4210Y17604D01*
X4242Y17640D01*
X4272Y17676D01*
Y17679D01*
X4278Y17686D01*
X4285Y17699D01*
X4295Y17715D01*
X4305Y17735D01*
X4318Y17758D01*
X4331Y17787D01*
X4344Y17820D01*
X4360Y17856D01*
X4374Y17896D01*
X4387Y17938D01*
X4397Y17988D01*
X4413Y18089D01*
X4416Y18142D01*
X4419Y18201D01*
Y18237D01*
X4416Y18257D01*
Y18276D01*
X4413Y18329D01*
X4403Y18388D01*
X4393Y18450D01*
X4377Y18516D01*
X4357Y18581D01*
Y18585D01*
X4354Y18588D01*
X4351Y18598D01*
X4344Y18611D01*
X4328Y18640D01*
X4308Y18683D01*
X4278Y18732D01*
X4242Y18785D01*
X4203Y18837D01*
X4154Y18893D01*
X4616Y19319D01*
X4620Y19316D01*
X4636Y19300D01*
X4656Y19280D01*
X4685Y19247D01*
X4718Y19205D01*
X4757Y19155D01*
X4797Y19096D01*
X4836Y19031D01*
X4879Y18955D01*
X4918Y18870D01*
X4957Y18775D01*
X4990Y18673D01*
X5020Y18562D01*
X5039Y18443D01*
X5052Y18316D01*
X5059Y18178D01*
Y18132D01*
X5056Y18099D01*
X5052Y18060D01*
X5049Y18011D01*
X5043Y17958D01*
X5036Y17899D01*
X5026Y17837D01*
X5016Y17771D01*
X4984Y17633D01*
X4961Y17561D01*
X4938Y17489D01*
X4911Y17420D01*
X4879Y17351D01*
X4875Y17348D01*
X4869Y17335D01*
X4859Y17319D01*
X4846Y17292D01*
X4826Y17263D01*
X4803Y17227D01*
X4777Y17190D01*
X4747Y17148D01*
X4715Y17105D01*
X4675Y17059D01*
X4636Y17013D01*
X4590Y16967D01*
X4541Y16922D01*
X4492Y16879D01*
X4436Y16836D01*
X4377Y16797D01*
X4374Y16794D01*
X4360Y16787D01*
X4344Y16781D01*
X4321Y16767D01*
X4288Y16751D01*
X4252Y16735D01*
X4210Y16718D01*
X4164Y16702D01*
X4111Y16682D01*
X4055Y16666D01*
X3993Y16649D01*
X3928Y16633D01*
X3862Y16620D01*
X3790Y16613D01*
X3714Y16607D01*
X3639Y16603D01*
X3635D01*
X3619D01*
X3599D01*
X3570Y16607D01*
X3534Y16610D01*
X3494Y16613D01*
X3449Y16620D01*
X3396Y16626D01*
X3340Y16636D01*
X3285Y16649D01*
X3222Y16666D01*
X3160Y16685D01*
X3098Y16705D01*
X3035Y16731D01*
X2973Y16761D01*
X2911Y16794D01*
X2907Y16797D01*
X2898Y16804D01*
X2878Y16813D01*
X2855Y16830D01*
X2829Y16849D01*
X2796Y16872D01*
X2763Y16902D01*
X2724Y16931D01*
X2684Y16967D01*
X2642Y17007D01*
X2599Y17050D01*
X2556Y17099D01*
X2514Y17148D01*
X2474Y17204D01*
X2435Y17259D01*
X2399Y17322D01*
X2396Y17325D01*
X2392Y17338D01*
X2383Y17355D01*
X2369Y17381D01*
X2356Y17414D01*
X2340Y17450D01*
X2324Y17496D01*
X2307Y17541D01*
X2291Y17597D01*
X2274Y17653D01*
X2258Y17715D01*
X2245Y17784D01*
X2232Y17853D01*
X2222Y17925D01*
X2219Y18001D01*
X2215Y18076D01*
Y18115D01*
X2219Y18145D01*
X2222Y18181D01*
X2225Y18224D01*
X2228Y18270D01*
X2238Y18322D01*
X2248Y18375D01*
X2258Y18434D01*
X2291Y18558D01*
X2310Y18621D01*
X2333Y18686D01*
X2360Y18749D01*
X2392Y18811D01*
X2396Y18814D01*
X2399Y18824D01*
X2412Y18844D01*
X2425Y18867D01*
X2442Y18893D01*
X2465Y18926D01*
X2491Y18959D01*
X2520Y18998D01*
X2553Y19040D01*
X2592Y19080D01*
X2632Y19123D01*
X2678Y19165D01*
X2727Y19208D01*
X2779Y19250D01*
X2835Y19290D01*
X2894Y19326D01*
X2898Y19329D01*
X2907Y19336D01*
X2927Y19342D01*
X2950Y19355D01*
X2983Y19368D01*
X3019Y19385D01*
X3062Y19405D01*
X3111Y19421D01*
X3163Y19437D01*
X3222Y19457D01*
X3285Y19473D01*
X3350Y19487D01*
X3419Y19500D01*
X3491Y19510D01*
X3570Y19513D01*
X3649Y19516D01*
X3655D01*
X3665D01*
X3681Y19513D01*
D02*
G37*
G36*
X5020Y15380D02*
X4019Y14688D01*
Y13920D01*
X5020D01*
Y13087D01*
X1425D01*
Y14691D01*
X1428Y14727D01*
Y14767D01*
X1435Y14816D01*
X1438Y14868D01*
X1445Y14927D01*
X1454Y14993D01*
X1464Y15058D01*
X1494Y15196D01*
X1510Y15269D01*
X1533Y15337D01*
X1556Y15409D01*
X1585Y15475D01*
X1589Y15478D01*
X1592Y15492D01*
X1602Y15508D01*
X1615Y15534D01*
X1631Y15564D01*
X1651Y15597D01*
X1674Y15633D01*
X1700Y15675D01*
X1730Y15718D01*
X1766Y15761D01*
X1802Y15806D01*
X1841Y15852D01*
X1887Y15895D01*
X1933Y15938D01*
X1986Y15980D01*
X2038Y16016D01*
X2042Y16020D01*
X2051Y16026D01*
X2068Y16033D01*
X2091Y16046D01*
X2117Y16059D01*
X2153Y16075D01*
X2189Y16095D01*
X2235Y16111D01*
X2281Y16128D01*
X2337Y16148D01*
X2392Y16164D01*
X2455Y16177D01*
X2517Y16190D01*
X2586Y16200D01*
X2655Y16203D01*
X2730Y16206D01*
X2733D01*
X2747D01*
X2770D01*
X2796Y16203D01*
X2832Y16200D01*
X2871Y16197D01*
X2917Y16190D01*
X2966Y16184D01*
X3019Y16174D01*
X3075Y16161D01*
X3134Y16144D01*
X3190Y16125D01*
X3249Y16102D01*
X3308Y16079D01*
X3367Y16046D01*
X3422Y16013D01*
X3426Y16010D01*
X3435Y16003D01*
X3449Y15993D01*
X3468Y15977D01*
X3494Y15957D01*
X3521Y15934D01*
X3554Y15905D01*
X3586Y15875D01*
X3622Y15836D01*
X3658Y15797D01*
X3695Y15751D01*
X3731Y15705D01*
X3767Y15649D01*
X3803Y15593D01*
X3836Y15534D01*
X3865Y15469D01*
X5020Y16272D01*
Y15380D01*
D02*
G37*
G36*
X46285Y17470D02*
X46306Y17474D01*
X46326Y17478D01*
X46346Y17482D01*
X46366Y17486D01*
X46387Y17490D01*
X46390Y17469D01*
X46411Y17473D01*
X46431Y17477D01*
X46451Y17481D01*
X46471Y17485D01*
X46475Y17465D01*
X46496Y17469D01*
X46516Y17473D01*
X46536Y17477D01*
X46556Y17481D01*
X46560Y17460D01*
X46580Y17464D01*
X46601Y17468D01*
X46621Y17472D01*
X46625Y17452D01*
X46645Y17456D01*
X46665Y17460D01*
X46686Y17464D01*
X46690Y17444D01*
X46710Y17447D01*
X46730Y17451D01*
X46750Y17455D01*
X46754Y17435D01*
X46774Y17439D01*
X46795Y17443D01*
X46815Y17447D01*
X46819Y17427D01*
X46839Y17431D01*
X46859Y17435D01*
X46863Y17414D01*
X46883Y17418D01*
X46904Y17422D01*
X46908Y17402D01*
X46928Y17406D01*
X46948Y17410D01*
X46968Y17414D01*
X46972Y17393D01*
X46992Y17397D01*
X47013Y17401D01*
X47017Y17381D01*
X47037Y17385D01*
X47057Y17389D01*
X47077Y17393D01*
X47081Y17373D01*
X47102Y17377D01*
X47122Y17380D01*
X47126Y17360D01*
X47146Y17364D01*
X47166Y17368D01*
X47186Y17372D01*
X47190Y17352D01*
X47211Y17356D01*
X47231Y17360D01*
X47235Y17339D01*
X47255Y17343D01*
X47275Y17347D01*
X47295Y17351D01*
X47300Y17331D01*
X47320Y17335D01*
X47340Y17339D01*
X47344Y17319D01*
X47364Y17323D01*
X47384Y17326D01*
X47405Y17331D01*
X47409Y17310D01*
X47429Y17314D01*
X47449Y17318D01*
X47453Y17298D01*
X47473Y17302D01*
X47493Y17306D01*
X47514Y17310D01*
X47518Y17289D01*
X47538Y17293D01*
X47558Y17297D01*
X47562Y17277D01*
X47582Y17281D01*
X47602Y17285D01*
X47623Y17289D01*
X47627Y17269D01*
X47647Y17273D01*
X47667Y17277D01*
X47671Y17256D01*
X47691Y17260D01*
X47712Y17264D01*
X47732Y17268D01*
X47736Y17248D01*
X47756Y17252D01*
X47776Y17256D01*
X47780Y17235D01*
X47800Y17239D01*
X47821Y17243D01*
X47841Y17247D01*
X47845Y17227D01*
X47865Y17231D01*
X47885Y17235D01*
X47889Y17215D01*
X47910Y17219D01*
X47930Y17222D01*
X47950Y17226D01*
X47954Y17206D01*
X47974Y17210D01*
X47994Y17214D01*
X47998Y17194D01*
X48019Y17198D01*
X48039Y17202D01*
X48059Y17206D01*
X48063Y17185D01*
X48083Y17189D01*
X48103Y17193D01*
X48107Y17173D01*
X48128Y17177D01*
X48148Y17181D01*
X48168Y17185D01*
X48172Y17165D01*
X48192Y17168D01*
X48213Y17172D01*
X48217Y17152D01*
X48237Y17156D01*
X48257Y17160D01*
X48277Y17164D01*
X48281Y17144D01*
X48301Y17148D01*
X48322Y17152D01*
X48325Y17131D01*
X48346Y17135D01*
X48366Y17139D01*
X48386Y17143D01*
X48390Y17123D01*
X48410Y17127D01*
X48431Y17131D01*
X48435Y17111D01*
X48455Y17115D01*
X48475Y17118D01*
X48495Y17122D01*
X48499Y17102D01*
X48520Y17106D01*
X48540Y17110D01*
X48544Y17090D01*
X48564Y17094D01*
X48584Y17098D01*
X48604Y17102D01*
X48608Y17081D01*
X48629Y17085D01*
X48649Y17089D01*
X48653Y17069D01*
X48673Y17073D01*
X48693Y17077D01*
X48697Y17057D01*
X48717Y17061D01*
X48738Y17064D01*
X48742Y17044D01*
X48762Y17048D01*
X48782Y17052D01*
X48802Y17056D01*
X48806Y17036D01*
X48827Y17040D01*
X48830Y17019D01*
X48851Y17023D01*
X48871Y17027D01*
X48891Y17031D01*
X48895Y17011D01*
X48915Y17015D01*
X48919Y16995D01*
X48939Y16999D01*
X48960Y17003D01*
X48964Y16982D01*
X48984Y16986D01*
X49004Y16990D01*
X49008Y16970D01*
X49028Y16974D01*
X49049Y16978D01*
X49053Y16958D01*
X49073Y16962D01*
X49093Y16965D01*
X49097Y16945D01*
X49117Y16949D01*
X49121Y16929D01*
X49141Y16933D01*
X49161Y16937D01*
X49165Y16917D01*
X49186Y16920D01*
X49206Y16924D01*
X49210Y16904D01*
X49230Y16908D01*
X49234Y16888D01*
X49254Y16892D01*
X49258Y16872D01*
X49279Y16875D01*
X49299Y16879D01*
X49303Y16859D01*
X49323Y16863D01*
X49327Y16843D01*
X49347Y16847D01*
X49367Y16851D01*
X49371Y16830D01*
X49391Y16835D01*
X49395Y16814D01*
X49416Y16818D01*
X49420Y16798D01*
X49440Y16802D01*
X49460Y16806D01*
X49464Y16785D01*
X49484Y16790D01*
X49488Y16769D01*
X49508Y16773D01*
X49512Y16753D01*
X49533Y16757D01*
X49536Y16737D01*
X49557Y16740D01*
X49561Y16720D01*
X49581Y16724D01*
X49601Y16728D01*
X49605Y16708D01*
X49625Y16712D01*
X49629Y16692D01*
X49650Y16696D01*
X49654Y16675D01*
X49674Y16679D01*
X49678Y16659D01*
X49698Y16663D01*
X49702Y16643D01*
X49722Y16647D01*
X49726Y16626D01*
X49746Y16630D01*
X49750Y16610D01*
X49770Y16614D01*
X49778Y16574D01*
X49799Y16578D01*
X49802Y16557D01*
X49823Y16561D01*
X49827Y16541D01*
X49847Y16545D01*
X49851Y16525D01*
X49871Y16529D01*
X49875Y16508D01*
X49895Y16512D01*
X49903Y16472D01*
X49923Y16476D01*
X49927Y16455D01*
X49948Y16459D01*
X49955Y16419D01*
X49976Y16423D01*
X49979Y16403D01*
X50000Y16407D01*
X50008Y16366D01*
X50028Y16370D01*
X50032Y16350D01*
X50052Y16354D01*
X50060Y16313D01*
X50080Y16317D01*
X50088Y16277D01*
X50108Y16281D01*
X50116Y16240D01*
X50136Y16244D01*
X50144Y16204D01*
X50165Y16207D01*
X50172Y16167D01*
X50193Y16171D01*
X50204Y16110D01*
X50225Y16114D01*
X50232Y16074D01*
X50253Y16078D01*
X50265Y16017D01*
X50285Y16021D01*
X50301Y15940D01*
X50321Y15944D01*
X50336Y15863D01*
X50357Y15867D01*
X50380Y15745D01*
X50401Y15749D01*
X50428Y15608D01*
X50448Y15611D01*
X50452Y15591D01*
X50432Y15587D01*
X50412Y15583D01*
X50392Y15579D01*
X50371Y15576D01*
X50351Y15572D01*
X50331Y15568D01*
X50311Y15564D01*
X50290Y15560D01*
X50270Y15556D01*
X50250Y15552D01*
X50230Y15548D01*
X50209Y15544D01*
X50189Y15540D01*
X50169Y15536D01*
X50149Y15532D01*
X50129Y15528D01*
X50108Y15524D01*
X50088Y15520D01*
X50068Y15517D01*
X50047Y15513D01*
X50027Y15509D01*
X50007Y15505D01*
X49987Y15501D01*
X49967Y15497D01*
X49946Y15493D01*
X49926Y15489D01*
X49906Y15485D01*
X49886Y15481D01*
X49865Y15477D01*
X49845Y15473D01*
X49825Y15469D01*
X49805Y15465D01*
X49784Y15461D01*
X49777Y15502D01*
X49756Y15498D01*
X49748Y15539D01*
X49728Y15535D01*
X49720Y15575D01*
X49700Y15571D01*
X49692Y15612D01*
X49672Y15608D01*
X49664Y15648D01*
X49644Y15644D01*
X49636Y15685D01*
X49616Y15681D01*
X49612Y15701D01*
X49592Y15697D01*
X49584Y15738D01*
X49564Y15734D01*
X49560Y15754D01*
X49539Y15750D01*
X49531Y15790D01*
X49511Y15787D01*
X49507Y15807D01*
X49487Y15803D01*
X49483Y15823D01*
X49463Y15819D01*
X49455Y15860D01*
X49435Y15856D01*
X49431Y15876D01*
X49411Y15872D01*
X49407Y15892D01*
X49386Y15888D01*
X49382Y15909D01*
X49362Y15905D01*
X49358Y15925D01*
X49338Y15921D01*
X49334Y15941D01*
X49314Y15937D01*
X49310Y15957D01*
X49290Y15954D01*
X49286Y15974D01*
X49266Y15970D01*
X49262Y15990D01*
X49241Y15986D01*
X49237Y16006D01*
X49217Y16002D01*
X49213Y16023D01*
X49193Y16019D01*
X49189Y16039D01*
X49169Y16035D01*
X49149Y16031D01*
X49145Y16051D01*
X49124Y16047D01*
X49120Y16068D01*
X49100Y16064D01*
X49096Y16084D01*
X49076Y16080D01*
X49056Y16076D01*
X49052Y16096D01*
X49032Y16092D01*
X49028Y16113D01*
X49007Y16109D01*
X48987Y16105D01*
X48983Y16125D01*
X48963Y16121D01*
X48943Y16117D01*
X48939Y16137D01*
X48919Y16133D01*
X48915Y16154D01*
X48894Y16150D01*
X48874Y16146D01*
X48870Y16166D01*
X48850Y16162D01*
X48830Y16158D01*
X48826Y16178D01*
X48806Y16174D01*
X48785Y16171D01*
X48809Y16049D01*
X48789Y16045D01*
X48816Y15903D01*
X48796Y15900D01*
X48812Y15819D01*
X48792Y15815D01*
X48799Y15774D01*
X48779Y15770D01*
X48791Y15710D01*
X48771Y15706D01*
X48779Y15665D01*
X48758Y15661D01*
X48762Y15641D01*
X48742Y15637D01*
X48750Y15597D01*
X48730Y15593D01*
X48734Y15572D01*
X48713Y15568D01*
X48717Y15548D01*
X48697Y15544D01*
X48701Y15524D01*
X48681Y15520D01*
X48685Y15500D01*
X48665Y15496D01*
X48668Y15476D01*
X48648Y15472D01*
X48628Y15468D01*
X48632Y15448D01*
X48612Y15444D01*
X48616Y15423D01*
X48595Y15419D01*
X48575Y15416D01*
X48579Y15395D01*
X48559Y15391D01*
X48539Y15387D01*
X48542Y15367D01*
X48522Y15363D01*
X48502Y15359D01*
X48506Y15339D01*
X48486Y15335D01*
X48465Y15331D01*
X48445Y15327D01*
X48449Y15307D01*
X48429Y15303D01*
X48409Y15299D01*
X48388Y15295D01*
X48368Y15291D01*
X48372Y15271D01*
X48352Y15267D01*
X48332Y15263D01*
X48311Y15259D01*
X48291Y15255D01*
X48271Y15251D01*
X48251Y15247D01*
X48230Y15244D01*
X48234Y15223D01*
X48214Y15219D01*
X48194Y15215D01*
X48174Y15211D01*
X48153Y15207D01*
X48133Y15203D01*
X48113Y15200D01*
X48093Y15196D01*
X48072Y15192D01*
X48052Y15188D01*
X48032Y15184D01*
X48012Y15180D01*
X47991Y15176D01*
X47971Y15172D01*
X47951Y15168D01*
X47931Y15164D01*
X47935Y15144D01*
X47914Y15140D01*
X47894Y15136D01*
X47874Y15132D01*
X47854Y15128D01*
X47833Y15124D01*
X47813Y15120D01*
X47793Y15116D01*
X47773Y15112D01*
X47752Y15109D01*
X47732Y15105D01*
X47712Y15101D01*
X47692Y15097D01*
X47672Y15093D01*
X47651Y15089D01*
X47631Y15085D01*
X47635Y15065D01*
X47615Y15061D01*
X47594Y15057D01*
X47574Y15053D01*
X47554Y15049D01*
X47534Y15045D01*
X47514Y15041D01*
X47493Y15037D01*
X47473Y15033D01*
X47453Y15029D01*
X47433Y15025D01*
X47412Y15021D01*
X47392Y15018D01*
X47372Y15014D01*
X47352Y15010D01*
X47331Y15006D01*
X47311Y15002D01*
X47315Y14981D01*
X47295Y14978D01*
X47275Y14974D01*
X47254Y14970D01*
X47234Y14966D01*
X47214Y14962D01*
X47194Y14958D01*
X47173Y14954D01*
X47153Y14950D01*
X47133Y14946D01*
X47113Y14942D01*
X47093Y14938D01*
X47072Y14934D01*
X47052Y14930D01*
X47032Y14926D01*
X47012Y14922D01*
X46991Y14919D01*
X46995Y14898D01*
X46975Y14894D01*
X46955Y14890D01*
X46935Y14886D01*
X46914Y14883D01*
X46894Y14879D01*
X46874Y14875D01*
X46854Y14871D01*
X46833Y14867D01*
X46813Y14863D01*
X46793Y14859D01*
X46773Y14855D01*
X46752Y14851D01*
X46732Y14847D01*
X46712Y14843D01*
X46716Y14823D01*
X46696Y14819D01*
X46675Y14815D01*
X46655Y14811D01*
X46635Y14807D01*
X46615Y14803D01*
X46594Y14799D01*
X46574Y14795D01*
X46554Y14792D01*
X46534Y14788D01*
X46513Y14784D01*
X46493Y14780D01*
X46473Y14776D01*
X46453Y14772D01*
X46432Y14768D01*
X46412Y14764D01*
X46392Y14760D01*
X46396Y14740D01*
X46376Y14736D01*
X46187Y15707D01*
X46207Y15711D01*
X46227Y15715D01*
X46248Y15719D01*
X46268Y15723D01*
X46288Y15727D01*
X46308Y15731D01*
X46328Y15735D01*
X46349Y15739D01*
X46369Y15743D01*
X46389Y15747D01*
X46409Y15751D01*
X46430Y15755D01*
X46450Y15759D01*
X46470Y15763D01*
X46466Y15783D01*
X46486Y15787D01*
X46507Y15791D01*
X46527Y15795D01*
X46547Y15799D01*
X46567Y15802D01*
X46588Y15806D01*
X46608Y15810D01*
X46628Y15814D01*
X46648Y15818D01*
X46669Y15822D01*
X46689Y15826D01*
X46709Y15830D01*
X46729Y15834D01*
X46749Y15838D01*
X46770Y15842D01*
X46790Y15846D01*
X46810Y15850D01*
X46830Y15854D01*
X46851Y15857D01*
X46871Y15861D01*
X46891Y15865D01*
X46911Y15869D01*
X46932Y15873D01*
X46952Y15877D01*
X46972Y15881D01*
X46992Y15885D01*
X47013Y15889D01*
X47033Y15893D01*
X47053Y15897D01*
X47073Y15901D01*
X47094Y15905D01*
X47114Y15909D01*
X47134Y15913D01*
X47154Y15916D01*
X47175Y15920D01*
X47195Y15924D01*
X47215Y15928D01*
X47235Y15932D01*
X47256Y15936D01*
X47276Y15940D01*
X47296Y15944D01*
X47292Y15964D01*
X47312Y15968D01*
X47316Y15948D01*
X47337Y15952D01*
X47357Y15956D01*
X47353Y15976D01*
X47373Y15980D01*
X47393Y15984D01*
X47414Y15988D01*
X47434Y15992D01*
X47454Y15996D01*
X47474Y16000D01*
X47495Y16004D01*
X47515Y16008D01*
X47535Y16012D01*
X47555Y16015D01*
X47576Y16019D01*
X47596Y16023D01*
X47616Y16027D01*
X47636Y16031D01*
X47656Y16035D01*
X47677Y16039D01*
X47697Y16043D01*
X47717Y16047D01*
X47737Y16051D01*
X47758Y16055D01*
X47778Y16059D01*
X47798Y16063D01*
X47818Y16067D01*
X47839Y16071D01*
X47859Y16074D01*
X47879Y16078D01*
X47875Y16099D01*
X47895Y16103D01*
X47916Y16106D01*
X47936Y16110D01*
X47932Y16131D01*
X47952Y16135D01*
X47948Y16155D01*
X47969Y16159D01*
X47965Y16179D01*
X47985Y16183D01*
X47973Y16244D01*
X47993Y16248D01*
X47981Y16308D01*
X47961Y16304D01*
X47957Y16325D01*
X47937Y16321D01*
X47917Y16317D01*
X47897Y16313D01*
X47893Y16333D01*
X47872Y16329D01*
X47852Y16325D01*
X47848Y16345D01*
X47828Y16341D01*
X47808Y16338D01*
X47787Y16334D01*
X47783Y16354D01*
X47763Y16350D01*
X47743Y16346D01*
X47723Y16342D01*
X47719Y16362D01*
X47699Y16358D01*
X47678Y16354D01*
X47658Y16351D01*
X47654Y16371D01*
X47634Y16367D01*
X47614Y16363D01*
X47594Y16359D01*
X47589Y16379D01*
X47569Y16375D01*
X47549Y16371D01*
X47545Y16391D01*
X47525Y16388D01*
X47505Y16384D01*
X47484Y16380D01*
X47480Y16400D01*
X47460Y16396D01*
X47440Y16392D01*
X47420Y16388D01*
X47416Y16408D01*
X47396Y16405D01*
X47375Y16400D01*
X47355Y16397D01*
X47351Y16417D01*
X47331Y16413D01*
X47311Y16409D01*
X47307Y16429D01*
X47286Y16425D01*
X47266Y16421D01*
X47246Y16417D01*
X47242Y16438D01*
X47222Y16434D01*
X47202Y16430D01*
X47181Y16426D01*
X47177Y16446D01*
X47157Y16442D01*
X47137Y16438D01*
X47117Y16434D01*
X47113Y16454D01*
X47093Y16451D01*
X47072Y16447D01*
X47068Y16467D01*
X47048Y16463D01*
X47028Y16459D01*
X47008Y16455D01*
X47004Y16475D01*
X46984Y16471D01*
X46963Y16467D01*
X46943Y16464D01*
X46939Y16484D01*
X46919Y16480D01*
X46899Y16476D01*
X46878Y16472D01*
X46874Y16492D01*
X46854Y16488D01*
X46834Y16484D01*
X46830Y16505D01*
X46810Y16501D01*
X46790Y16497D01*
X46769Y16493D01*
X46765Y16513D01*
X46745Y16509D01*
X46725Y16505D01*
X46705Y16501D01*
X46701Y16522D01*
X46680Y16518D01*
X46660Y16514D01*
X46640Y16510D01*
X46636Y16530D01*
X46616Y16526D01*
X46595Y16522D01*
X46575Y16518D01*
X46555Y16514D01*
X46551Y16534D01*
X46531Y16531D01*
X46511Y16526D01*
X46490Y16523D01*
X46470Y16519D01*
X46466Y16539D01*
X46446Y16535D01*
X46426Y16531D01*
X46406Y16527D01*
X46385Y16523D01*
X46365Y16519D01*
X46361Y16540D01*
X46341Y16536D01*
X46321Y16532D01*
X46300Y16528D01*
X46280Y16524D01*
X46260Y16520D01*
X46240Y16516D01*
X46236Y16536D01*
X46216Y16532D01*
X46195Y16528D01*
X46175Y16524D01*
X46155Y16520D01*
X46134Y16516D01*
X46114Y16512D01*
X46094Y16509D01*
X46074Y16505D01*
X46054Y16501D01*
X46033Y16497D01*
X45856Y17408D01*
X45877Y17412D01*
X45897Y17415D01*
X45917Y17419D01*
X45937Y17423D01*
X45957Y17427D01*
X45978Y17431D01*
X45998Y17435D01*
X46018Y17439D01*
X46038Y17443D01*
X46059Y17447D01*
X46079Y17451D01*
X46099Y17455D01*
X46119Y17459D01*
X46140Y17463D01*
X46160Y17467D01*
X46180Y17470D01*
X46200Y17474D01*
X46221Y17478D01*
X46241Y17482D01*
X46261Y17486D01*
X46281Y17490D01*
X46285Y17470D01*
D02*
G37*
G36*
X49012Y14681D02*
X49032Y14685D01*
X49052Y14689D01*
X49233Y13758D01*
X49213Y13754D01*
X49193Y13750D01*
X49189Y13770D01*
X49169Y13766D01*
X49148Y13762D01*
X49128Y13759D01*
X49108Y13755D01*
X49088Y13751D01*
X49068Y13747D01*
X49064Y13767D01*
X49043Y13763D01*
X49023Y13759D01*
X49003Y13755D01*
X48983Y13751D01*
X48962Y13747D01*
X48942Y13743D01*
X48922Y13739D01*
X48918Y13760D01*
X48898Y13756D01*
X48877Y13752D01*
X48857Y13748D01*
X48837Y13744D01*
X48817Y13740D01*
X48796Y13736D01*
X48792Y13756D01*
X48772Y13752D01*
X48752Y13748D01*
X48732Y13745D01*
X48712Y13741D01*
X48691Y13737D01*
X48671Y13733D01*
X48667Y13753D01*
X48647Y13749D01*
X48627Y13745D01*
X48606Y13741D01*
X48586Y13737D01*
X48566Y13733D01*
X48546Y13729D01*
X48526Y13725D01*
X48522Y13746D01*
X48501Y13742D01*
X48481Y13738D01*
X48461Y13734D01*
X48441Y13730D01*
X48420Y13726D01*
X48400Y13722D01*
X48396Y13742D01*
X48376Y13738D01*
X48356Y13734D01*
X48335Y13731D01*
X48315Y13727D01*
X48295Y13723D01*
X48275Y13719D01*
X48254Y13715D01*
X48250Y13735D01*
X48230Y13731D01*
X48210Y13727D01*
X48190Y13723D01*
X48170Y13719D01*
X48149Y13715D01*
X48129Y13711D01*
X48125Y13732D01*
X48105Y13728D01*
X48085Y13724D01*
X48064Y13720D01*
X48044Y13716D01*
X48024Y13712D01*
X48004Y13708D01*
X48000Y13728D01*
X47980Y13724D01*
X47959Y13720D01*
X47939Y13716D01*
X47919Y13713D01*
X47899Y13709D01*
X47878Y13705D01*
X47874Y13725D01*
X47854Y13721D01*
X47834Y13717D01*
X47814Y13713D01*
X47793Y13709D01*
X47773Y13705D01*
X47753Y13701D01*
X47733Y13697D01*
X47729Y13718D01*
X47709Y13714D01*
X47688Y13710D01*
X47668Y13706D01*
X47648Y13702D01*
X47628Y13698D01*
X47607Y13694D01*
X47603Y13714D01*
X47583Y13710D01*
X47563Y13706D01*
X47543Y13702D01*
X47523Y13699D01*
X47502Y13695D01*
X47482Y13691D01*
X47462Y13687D01*
X47458Y13707D01*
X47438Y13703D01*
X47417Y13699D01*
X47397Y13695D01*
X47377Y13691D01*
X47357Y13687D01*
X47336Y13683D01*
X47340Y13663D01*
X47320Y13659D01*
X47300Y13655D01*
X47304Y13635D01*
X47284Y13631D01*
X47287Y13611D01*
X47267Y13607D01*
X47275Y13566D01*
X47255Y13563D01*
X47278Y13441D01*
X47299Y13445D01*
X47318Y13344D01*
X47339Y13348D01*
X47350Y13287D01*
X47371Y13291D01*
X47379Y13250D01*
X47399Y13254D01*
X47403Y13234D01*
X47423Y13238D01*
X47431Y13198D01*
X47451Y13202D01*
X47455Y13181D01*
X47475Y13185D01*
X47479Y13165D01*
X47499Y13169D01*
X47520Y13173D01*
X47524Y13153D01*
X47544Y13157D01*
X47564Y13160D01*
X47584Y13164D01*
X47588Y13144D01*
X47609Y13148D01*
X47629Y13152D01*
X47649Y13156D01*
X47669Y13160D01*
X47689Y13164D01*
X47710Y13168D01*
X47714Y13148D01*
X47734Y13151D01*
X47754Y13155D01*
X47774Y13159D01*
X47795Y13163D01*
X47815Y13167D01*
X47835Y13171D01*
X47855Y13175D01*
X47859Y13155D01*
X47879Y13159D01*
X47900Y13163D01*
X47920Y13167D01*
X47940Y13171D01*
X47960Y13174D01*
X47981Y13178D01*
X47985Y13158D01*
X48005Y13162D01*
X48025Y13166D01*
X48045Y13170D01*
X48066Y13174D01*
X48086Y13178D01*
X48106Y13182D01*
X48110Y13161D01*
X48130Y13165D01*
X48150Y13169D01*
X48171Y13173D01*
X48191Y13177D01*
X48211Y13181D01*
X48231Y13185D01*
X48235Y13165D01*
X48256Y13169D01*
X48276Y13173D01*
X48296Y13177D01*
X48316Y13181D01*
X48336Y13185D01*
X48357Y13189D01*
X48377Y13193D01*
X48381Y13172D01*
X48401Y13176D01*
X48421Y13180D01*
X48442Y13184D01*
X48462Y13188D01*
X48482Y13192D01*
X48502Y13196D01*
X48506Y13176D01*
X48527Y13180D01*
X48547Y13183D01*
X48567Y13187D01*
X48587Y13191D01*
X48608Y13195D01*
X48628Y13199D01*
X48632Y13179D01*
X48652Y13183D01*
X48672Y13187D01*
X48692Y13191D01*
X48713Y13195D01*
X48733Y13199D01*
X48753Y13203D01*
X48773Y13206D01*
X48777Y13186D01*
X48798Y13190D01*
X48818Y13194D01*
X48838Y13198D01*
X48858Y13202D01*
X48878Y13206D01*
X48899Y13210D01*
X48903Y13190D01*
X48923Y13194D01*
X48943Y13197D01*
X48963Y13201D01*
X48984Y13205D01*
X49004Y13209D01*
X49024Y13213D01*
X49028Y13193D01*
X49048Y13197D01*
X49068Y13201D01*
X49089Y13205D01*
X49109Y13209D01*
X49129Y13213D01*
X49150Y13217D01*
X49153Y13196D01*
X49174Y13200D01*
X49194Y13204D01*
X49214Y13208D01*
X49234Y13212D01*
X49255Y13216D01*
X49275Y13220D01*
X49295Y13224D01*
X49299Y13204D01*
X49319Y13208D01*
X49340Y13212D01*
X49520Y12280D01*
X49500Y12276D01*
X49480Y12273D01*
X49476Y12293D01*
X49456Y12289D01*
X49436Y12285D01*
X49415Y12281D01*
X49395Y12277D01*
X49375Y12273D01*
X49355Y12269D01*
X49334Y12265D01*
X49330Y12286D01*
X49310Y12282D01*
X49290Y12278D01*
X49270Y12274D01*
X49250Y12270D01*
X49229Y12266D01*
X49209Y12262D01*
X49205Y12282D01*
X49185Y12278D01*
X49165Y12274D01*
X49144Y12270D01*
X49124Y12266D01*
X49104Y12263D01*
X49084Y12259D01*
X49080Y12279D01*
X49060Y12275D01*
X49039Y12271D01*
X49019Y12267D01*
X48999Y12263D01*
X48978Y12259D01*
X48958Y12255D01*
X48938Y12251D01*
X48934Y12271D01*
X48914Y12268D01*
X48894Y12264D01*
X48873Y12260D01*
X48853Y12256D01*
X48833Y12252D01*
X48813Y12248D01*
X48809Y12268D01*
X48788Y12264D01*
X48768Y12260D01*
X48748Y12256D01*
X48728Y12252D01*
X48708Y12248D01*
X48687Y12245D01*
X48683Y12265D01*
X48663Y12261D01*
X48643Y12257D01*
X48623Y12253D01*
X48602Y12249D01*
X48582Y12245D01*
X48562Y12241D01*
X48558Y12261D01*
X48538Y12257D01*
X48518Y12253D01*
X48497Y12250D01*
X48477Y12246D01*
X48457Y12242D01*
X48436Y12238D01*
X48416Y12234D01*
X48412Y12254D01*
X48392Y12250D01*
X48372Y12246D01*
X48352Y12242D01*
X48331Y12238D01*
X48311Y12234D01*
X48291Y12230D01*
X48287Y12251D01*
X48267Y12247D01*
X48246Y12243D01*
X48226Y12239D01*
X48206Y12235D01*
X48186Y12231D01*
X48166Y12227D01*
X48162Y12247D01*
X48141Y12243D01*
X48121Y12240D01*
X48101Y12236D01*
X48081Y12232D01*
X48060Y12228D01*
X48040Y12224D01*
X48020Y12220D01*
X48016Y12240D01*
X47996Y12236D01*
X47976Y12232D01*
X47955Y12228D01*
X47935Y12224D01*
X47915Y12220D01*
X47895Y12217D01*
X47891Y12237D01*
X47870Y12233D01*
X47850Y12229D01*
X47830Y12225D01*
X47810Y12221D01*
X47789Y12217D01*
X47769Y12213D01*
X47765Y12233D01*
X47745Y12229D01*
X47725Y12225D01*
X47704Y12222D01*
X47684Y12218D01*
X47664Y12214D01*
X47644Y12210D01*
X47640Y12230D01*
X47620Y12226D01*
X47599Y12222D01*
X47579Y12218D01*
X47559Y12214D01*
X47539Y12210D01*
X47518Y12206D01*
X47498Y12202D01*
X47494Y12223D01*
X47474Y12219D01*
X47454Y12215D01*
X47434Y12211D01*
X47413Y12207D01*
X47393Y12203D01*
X47373Y12199D01*
X47369Y12219D01*
X47349Y12215D01*
X47328Y12211D01*
X47308Y12207D01*
X47288Y12204D01*
X47268Y12200D01*
X47247Y12196D01*
X47243Y12216D01*
X47223Y12212D01*
X47203Y12208D01*
X47183Y12204D01*
X47163Y12200D01*
X47142Y12196D01*
X47122Y12192D01*
X47118Y12213D01*
X47098Y12209D01*
X47078Y12205D01*
X47057Y12201D01*
X47037Y12197D01*
X47017Y12193D01*
X46997Y12189D01*
X46977Y12185D01*
X46973Y12205D01*
X46952Y12201D01*
X46932Y12197D01*
X46912Y12194D01*
X46892Y12190D01*
X46871Y12186D01*
X46851Y12182D01*
X46847Y12202D01*
X46827Y12198D01*
X46807Y12194D01*
X46786Y12190D01*
X46766Y12186D01*
X46746Y12182D01*
X46726Y12178D01*
X46722Y12199D01*
X46701Y12195D01*
X46681Y12191D01*
X46661Y12187D01*
X46641Y12183D01*
X46621Y12179D01*
X46600Y12175D01*
X46580Y12171D01*
X46576Y12191D01*
X46556Y12187D01*
X46536Y12183D01*
X46515Y12179D01*
X46495Y12175D01*
X46475Y12172D01*
X46455Y12168D01*
X46451Y12188D01*
X46431Y12184D01*
X46410Y12180D01*
X46390Y12176D01*
X46370Y12172D01*
X46350Y12168D01*
X46329Y12164D01*
X46325Y12184D01*
X46305Y12181D01*
X46285Y12177D01*
X46265Y12173D01*
X46244Y12169D01*
X46224Y12165D01*
X46204Y12161D01*
X46200Y12181D01*
X46180Y12177D01*
X46159Y12173D01*
X46139Y12169D01*
X46119Y12165D01*
X46099Y12162D01*
X46079Y12158D01*
X46058Y12154D01*
X46054Y12174D01*
X46034Y12170D01*
X46014Y12166D01*
X45994Y12162D01*
X45974Y12158D01*
X45953Y12154D01*
X45933Y12150D01*
X45929Y12171D01*
X45909Y12167D01*
X45889Y12163D01*
X45868Y12159D01*
X45848Y12155D01*
X45828Y12151D01*
X45808Y12147D01*
X45804Y12167D01*
X45783Y12163D01*
X45763Y12159D01*
X45743Y12155D01*
X45723Y12151D01*
X45702Y12148D01*
X45682Y12144D01*
X45662Y12140D01*
X45658Y12160D01*
X45638Y12156D01*
X45618Y12152D01*
X45597Y12148D01*
X45416Y13079D01*
X45437Y13083D01*
X45457Y13087D01*
X45461Y13067D01*
X45481Y13071D01*
X45501Y13075D01*
X45522Y13079D01*
X45542Y13082D01*
X45562Y13086D01*
X45582Y13090D01*
X45586Y13070D01*
X45606Y13074D01*
X45627Y13078D01*
X45647Y13082D01*
X45667Y13086D01*
X45687Y13090D01*
X45708Y13094D01*
X45711Y13073D01*
X45732Y13077D01*
X45752Y13081D01*
X45772Y13085D01*
X45792Y13089D01*
X45813Y13093D01*
X45833Y13097D01*
X45853Y13101D01*
X45857Y13081D01*
X45877Y13085D01*
X45898Y13089D01*
X45918Y13092D01*
X45938Y13096D01*
X45958Y13100D01*
X45979Y13104D01*
X45983Y13084D01*
X46003Y13088D01*
X46023Y13092D01*
X46043Y13096D01*
X46064Y13100D01*
X46084Y13104D01*
X46104Y13108D01*
X46108Y13088D01*
X46128Y13091D01*
X46148Y13095D01*
X46169Y13099D01*
X46189Y13103D01*
X46209Y13107D01*
X46229Y13111D01*
X46250Y13115D01*
X46253Y13095D01*
X46274Y13099D01*
X46294Y13103D01*
X46314Y13107D01*
X46334Y13111D01*
X46355Y13114D01*
X46375Y13118D01*
X46379Y13098D01*
X46399Y13102D01*
X46419Y13106D01*
X46440Y13110D01*
X46460Y13114D01*
X46480Y13118D01*
X46500Y13122D01*
X46504Y13102D01*
X46525Y13105D01*
X46545Y13109D01*
X46565Y13113D01*
X46585Y13117D01*
X46606Y13121D01*
X46626Y13125D01*
X46630Y13105D01*
X46650Y13109D01*
X46670Y13113D01*
X46690Y13117D01*
X46711Y13121D01*
X46731Y13125D01*
X46751Y13128D01*
X46771Y13132D01*
X46775Y13112D01*
X46795Y13116D01*
X46816Y13120D01*
X46836Y13124D01*
X46856Y13128D01*
X46876Y13132D01*
X46897Y13136D01*
X46901Y13115D01*
X46921Y13119D01*
X46941Y13123D01*
X46933Y13164D01*
X46913Y13160D01*
X46909Y13180D01*
X46889Y13176D01*
X46885Y13196D01*
X46865Y13193D01*
X46857Y13233D01*
X46837Y13229D01*
X46833Y13249D01*
X46812Y13245D01*
X46808Y13266D01*
X46788Y13262D01*
X46780Y13302D01*
X46760Y13298D01*
X46752Y13339D01*
X46732Y13335D01*
X46728Y13355D01*
X46708Y13351D01*
X46700Y13392D01*
X46680Y13388D01*
X46668Y13448D01*
X46648Y13444D01*
X46640Y13485D01*
X46619Y13481D01*
X46608Y13542D01*
X46587Y13538D01*
X46568Y13639D01*
X46548Y13635D01*
X46461Y14080D01*
X46481Y14084D01*
X46466Y14165D01*
X46486Y14169D01*
X46474Y14230D01*
X46494Y14234D01*
X46486Y14274D01*
X46507Y14278D01*
X46503Y14299D01*
X46523Y14302D01*
X46515Y14343D01*
X46535Y14347D01*
X46531Y14367D01*
X46552Y14371D01*
X46548Y14391D01*
X46568Y14395D01*
X46564Y14415D01*
X46584Y14419D01*
X46580Y14440D01*
X46600Y14444D01*
X46621Y14447D01*
X46617Y14468D01*
X46637Y14472D01*
X46657Y14476D01*
X46653Y14496D01*
X46674Y14500D01*
X46694Y14504D01*
X46714Y14508D01*
X46710Y14528D01*
X46730Y14532D01*
X46751Y14536D01*
X46771Y14540D01*
X46791Y14544D01*
X46787Y14564D01*
X46807Y14568D01*
X46828Y14572D01*
X46848Y14576D01*
X46868Y14580D01*
X46888Y14583D01*
X46909Y14587D01*
X46929Y14591D01*
X46949Y14595D01*
X46969Y14599D01*
X46990Y14603D01*
X47010Y14607D01*
X47030Y14611D01*
X47050Y14615D01*
X47071Y14619D01*
X47091Y14623D01*
X47111Y14627D01*
X47131Y14631D01*
X47151Y14635D01*
X47155Y14614D01*
X47176Y14618D01*
X47196Y14622D01*
X47216Y14626D01*
X47236Y14630D01*
X47257Y14634D01*
X47277Y14638D01*
X47297Y14642D01*
X47301Y14622D01*
X47321Y14626D01*
X47341Y14630D01*
X47362Y14634D01*
X47382Y14637D01*
X47402Y14641D01*
X47422Y14645D01*
X47443Y14649D01*
X47447Y14629D01*
X47467Y14633D01*
X47487Y14637D01*
X47507Y14641D01*
X47528Y14645D01*
X47548Y14649D01*
X47568Y14653D01*
X47572Y14632D01*
X47592Y14636D01*
X47613Y14640D01*
X47633Y14644D01*
X47653Y14648D01*
X47673Y14652D01*
X47693Y14656D01*
X47697Y14636D01*
X47718Y14640D01*
X47738Y14644D01*
X47758Y14648D01*
X47778Y14651D01*
X47799Y14655D01*
X47819Y14659D01*
X47823Y14639D01*
X47843Y14643D01*
X47863Y14647D01*
X47883Y14651D01*
X47904Y14655D01*
X47924Y14659D01*
X47944Y14663D01*
X47964Y14667D01*
X47968Y14646D01*
X47989Y14650D01*
X48009Y14654D01*
X48029Y14658D01*
X48049Y14662D01*
X48070Y14666D01*
X48090Y14670D01*
X48094Y14650D01*
X48114Y14654D01*
X48134Y14658D01*
X48155Y14662D01*
X48175Y14665D01*
X48195Y14669D01*
X48215Y14673D01*
X48219Y14653D01*
X48239Y14657D01*
X48260Y14661D01*
X48280Y14665D01*
X48300Y14669D01*
X48320Y14673D01*
X48341Y14677D01*
X48361Y14681D01*
X48365Y14660D01*
X48385Y14664D01*
X48405Y14668D01*
X48425Y14672D01*
X48446Y14676D01*
X48466Y14680D01*
X48486Y14684D01*
X48490Y14664D01*
X48510Y14668D01*
X48531Y14672D01*
X48551Y14676D01*
X48571Y14680D01*
X48591Y14683D01*
X48612Y14687D01*
X48616Y14667D01*
X48636Y14671D01*
X48656Y14675D01*
X48676Y14679D01*
X48696Y14683D01*
X48717Y14687D01*
X48737Y14691D01*
X48741Y14671D01*
X48761Y14674D01*
X48781Y14678D01*
X48802Y14682D01*
X48822Y14686D01*
X48842Y14690D01*
X48862Y14694D01*
X48882Y14698D01*
X48886Y14678D01*
X48907Y14682D01*
X48927Y14686D01*
X48947Y14690D01*
X48967Y14694D01*
X48988Y14697D01*
X49008Y14701D01*
X49012Y14681D01*
D02*
G37*
G36*
X47262Y11904D02*
X47282Y11908D01*
X47302Y11912D01*
X47323Y11916D01*
X47343Y11920D01*
X47363Y11924D01*
X47367Y11904D01*
X47387Y11908D01*
X47408Y11912D01*
X47428Y11916D01*
X47448Y11920D01*
X47468Y11924D01*
X47472Y11903D01*
X47493Y11907D01*
X47513Y11911D01*
X47533Y11915D01*
X47537Y11895D01*
X47557Y11899D01*
X47577Y11903D01*
X47598Y11907D01*
X47618Y11911D01*
X47622Y11890D01*
X47642Y11894D01*
X47662Y11898D01*
X47683Y11902D01*
X47686Y11882D01*
X47707Y11886D01*
X47727Y11890D01*
X47731Y11870D01*
X47751Y11874D01*
X47771Y11878D01*
X47792Y11881D01*
X47796Y11861D01*
X47816Y11865D01*
X47836Y11869D01*
X47840Y11849D01*
X47860Y11853D01*
X47881Y11857D01*
X47884Y11836D01*
X47905Y11840D01*
X47925Y11844D01*
X47929Y11824D01*
X47949Y11828D01*
X47953Y11808D01*
X47973Y11812D01*
X47993Y11816D01*
X47997Y11795D01*
X48018Y11799D01*
X48022Y11779D01*
X48042Y11783D01*
X48046Y11763D01*
X48066Y11767D01*
X48086Y11771D01*
X48090Y11750D01*
X48110Y11754D01*
X48114Y11734D01*
X48135Y11738D01*
X48138Y11718D01*
X48159Y11722D01*
X48163Y11701D01*
X48183Y11705D01*
X48187Y11685D01*
X48207Y11689D01*
X48215Y11649D01*
X48235Y11653D01*
X48239Y11632D01*
X48259Y11636D01*
X48267Y11596D01*
X48287Y11600D01*
X48292Y11579D01*
X48312Y11583D01*
X48320Y11543D01*
X48340Y11547D01*
X48352Y11486D01*
X48372Y11490D01*
X48384Y11429D01*
X48404Y11433D01*
X48416Y11372D01*
X48436Y11377D01*
X48460Y11255D01*
X48480Y11259D01*
X48551Y10895D01*
X48530Y10891D01*
X48566Y10709D01*
X48546Y10705D01*
X48573Y10563D01*
X48553Y10559D01*
X48572Y10458D01*
X48552Y10454D01*
X48572Y10353D01*
X48552Y10349D01*
X48571Y10248D01*
X48592Y10251D01*
X48612Y10255D01*
X48632Y10259D01*
X48652Y10263D01*
X48673Y10267D01*
X48693Y10271D01*
X48713Y10275D01*
X48717Y10255D01*
X48737Y10259D01*
X48757Y10263D01*
X48778Y10267D01*
X48798Y10271D01*
X48818Y10274D01*
X48838Y10278D01*
X48842Y10258D01*
X48863Y10262D01*
X48883Y10266D01*
X48903Y10270D01*
X48923Y10274D01*
X48943Y10278D01*
X48964Y10282D01*
X48968Y10262D01*
X48988Y10266D01*
X49008Y10269D01*
X49028Y10273D01*
X49049Y10277D01*
X49069Y10281D01*
X49089Y10285D01*
X49109Y10289D01*
X49113Y10269D01*
X49134Y10273D01*
X49154Y10277D01*
X49174Y10281D01*
X49194Y10285D01*
X49215Y10289D01*
X49235Y10293D01*
X49239Y10272D01*
X49259Y10276D01*
X49279Y10280D01*
X49299Y10284D01*
X49320Y10288D01*
X49340Y10292D01*
X49360Y10296D01*
X49364Y10276D01*
X49384Y10279D01*
X49405Y10283D01*
X49425Y10287D01*
X49445Y10291D01*
X49465Y10295D01*
X49485Y10299D01*
X49506Y10303D01*
X49510Y10283D01*
X49530Y10287D01*
X49550Y10291D01*
X49570Y10295D01*
X49591Y10299D01*
X49611Y10303D01*
X49631Y10306D01*
X49635Y10286D01*
X49655Y10290D01*
X49676Y10294D01*
X49696Y10298D01*
X49716Y10302D01*
X49736Y10306D01*
X49757Y10310D01*
X49760Y10290D01*
X49781Y10294D01*
X49801Y10298D01*
X49821Y10301D01*
X49841Y10305D01*
X49862Y10309D01*
X49882Y10313D01*
X49902Y10317D01*
X50087Y9366D01*
X50067Y9362D01*
X50063Y9382D01*
X50043Y9378D01*
X50022Y9374D01*
X50002Y9370D01*
X49982Y9366D01*
X49962Y9363D01*
X49958Y9383D01*
X49937Y9379D01*
X49917Y9375D01*
X49897Y9371D01*
X49877Y9367D01*
X49856Y9363D01*
X49836Y9359D01*
X49816Y9355D01*
X49812Y9375D01*
X49792Y9371D01*
X49772Y9368D01*
X49751Y9364D01*
X49731Y9360D01*
X49711Y9356D01*
X49691Y9352D01*
X49687Y9372D01*
X49667Y9368D01*
X49646Y9364D01*
X49626Y9360D01*
X49606Y9356D01*
X49586Y9352D01*
X49565Y9348D01*
X49561Y9369D01*
X49541Y9365D01*
X49521Y9361D01*
X49501Y9357D01*
X49480Y9353D01*
X49460Y9349D01*
X49440Y9345D01*
X49420Y9341D01*
X49416Y9361D01*
X49395Y9358D01*
X49375Y9354D01*
X49355Y9350D01*
X49335Y9346D01*
X49315Y9342D01*
X49294Y9338D01*
X49290Y9358D01*
X49270Y9354D01*
X49250Y9350D01*
X49230Y9346D01*
X49209Y9342D01*
X49189Y9338D01*
X49169Y9335D01*
X49165Y9355D01*
X49145Y9351D01*
X49125Y9347D01*
X49104Y9343D01*
X49084Y9339D01*
X49064Y9335D01*
X49044Y9331D01*
X49040Y9351D01*
X49019Y9347D01*
X48999Y9343D01*
X48979Y9340D01*
X48959Y9336D01*
X48938Y9332D01*
X48918Y9328D01*
X48898Y9324D01*
X48894Y9344D01*
X48874Y9340D01*
X48853Y9336D01*
X48833Y9332D01*
X48813Y9328D01*
X48793Y9324D01*
X48773Y9320D01*
X48769Y9341D01*
X48748Y9337D01*
X48728Y9333D01*
X48708Y9329D01*
X48688Y9325D01*
X48667Y9321D01*
X48647Y9317D01*
X48643Y9337D01*
X48623Y9333D01*
X48603Y9329D01*
X48583Y9325D01*
X48562Y9322D01*
X48542Y9318D01*
X48522Y9314D01*
X48518Y9334D01*
X48498Y9330D01*
X48477Y9326D01*
X48457Y9322D01*
X48437Y9318D01*
X48417Y9314D01*
X48396Y9310D01*
X48376Y9306D01*
X48372Y9327D01*
X48352Y9323D01*
X48332Y9319D01*
X48311Y9315D01*
X48291Y9311D01*
X48271Y9307D01*
X48251Y9303D01*
X48247Y9323D01*
X48227Y9319D01*
X48206Y9315D01*
X48186Y9312D01*
X48166Y9307D01*
X48146Y9304D01*
X48125Y9300D01*
X48122Y9320D01*
X48101Y9316D01*
X48081Y9312D01*
X48061Y9308D01*
X48041Y9304D01*
X48020Y9300D01*
X48000Y9296D01*
X47980Y9292D01*
X47976Y9313D01*
X47956Y9309D01*
X47935Y9305D01*
X47915Y9301D01*
X47895Y9297D01*
X47875Y9293D01*
X47855Y9289D01*
X47850Y9309D01*
X47830Y9305D01*
X47810Y9301D01*
X47790Y9297D01*
X47770Y9294D01*
X47749Y9290D01*
X47729Y9286D01*
X47725Y9306D01*
X47705Y9302D01*
X47685Y9298D01*
X47664Y9294D01*
X47644Y9290D01*
X47624Y9286D01*
X47604Y9282D01*
X47600Y9302D01*
X47580Y9299D01*
X47559Y9295D01*
X47539Y9291D01*
X47519Y9287D01*
X47499Y9283D01*
X47478Y9279D01*
X47458Y9275D01*
X47454Y9295D01*
X47434Y9291D01*
X47414Y9287D01*
X47394Y9283D01*
X47373Y9279D01*
X47353Y9275D01*
X47333Y9272D01*
X47329Y9292D01*
X47309Y9288D01*
X47288Y9284D01*
X47268Y9280D01*
X47248Y9276D01*
X47228Y9272D01*
X47207Y9268D01*
X47203Y9289D01*
X47183Y9285D01*
X47163Y9281D01*
X47143Y9277D01*
X47122Y9273D01*
X47102Y9269D01*
X47082Y9265D01*
X47062Y9261D01*
X47058Y9281D01*
X47038Y9277D01*
X47017Y9273D01*
X46997Y9269D01*
X46977Y9265D01*
X46957Y9262D01*
X46936Y9258D01*
X46932Y9278D01*
X46912Y9274D01*
X46892Y9270D01*
X46872Y9266D01*
X46852Y9262D01*
X46831Y9258D01*
X46811Y9254D01*
X46807Y9274D01*
X46787Y9270D01*
X46767Y9267D01*
X46746Y9263D01*
X46726Y9259D01*
X46706Y9255D01*
X46686Y9251D01*
X46665Y9247D01*
X46661Y9267D01*
X46641Y9263D01*
X46621Y9259D01*
X46601Y9255D01*
X46580Y9251D01*
X46560Y9247D01*
X46540Y9244D01*
X46536Y9264D01*
X46516Y9260D01*
X46496Y9256D01*
X46475Y9252D01*
X46455Y9248D01*
X46435Y9244D01*
X46415Y9240D01*
X46088Y10920D01*
X46108Y10924D01*
X46085Y11045D01*
X46105Y11049D01*
X46093Y11110D01*
X46113Y11114D01*
X46102Y11175D01*
X46122Y11179D01*
X46110Y11239D01*
X46130Y11243D01*
X46122Y11284D01*
X46143Y11288D01*
X46139Y11308D01*
X46159Y11312D01*
X46151Y11353D01*
X46171Y11356D01*
X46167Y11377D01*
X46188Y11381D01*
X46180Y11421D01*
X46200Y11425D01*
X46196Y11445D01*
X46216Y11449D01*
X46212Y11469D01*
X46233Y11473D01*
X46229Y11494D01*
X46249Y11497D01*
X46245Y11518D01*
X46265Y11522D01*
X46261Y11542D01*
X46281Y11546D01*
X46278Y11566D01*
X46298Y11570D01*
X46318Y11574D01*
X46314Y11594D01*
X46334Y11598D01*
X46330Y11618D01*
X46351Y11622D01*
X46371Y11626D01*
X46367Y11647D01*
X46387Y11650D01*
X46383Y11671D01*
X46404Y11675D01*
X46424Y11678D01*
X46420Y11699D01*
X46440Y11703D01*
X46460Y11707D01*
X46481Y11711D01*
X46477Y11731D01*
X46497Y11735D01*
X46517Y11739D01*
X46537Y11743D01*
X46533Y11763D01*
X46554Y11767D01*
X46574Y11771D01*
X46594Y11775D01*
X46614Y11779D01*
X46610Y11799D01*
X46631Y11803D01*
X46651Y11807D01*
X46671Y11811D01*
X46691Y11814D01*
X46712Y11818D01*
X46708Y11839D01*
X46728Y11843D01*
X46748Y11847D01*
X46768Y11851D01*
X46789Y11855D01*
X46809Y11858D01*
X46829Y11862D01*
X46849Y11866D01*
X46870Y11870D01*
X46890Y11874D01*
X46910Y11878D01*
X46930Y11882D01*
X46951Y11886D01*
X46971Y11890D01*
X46991Y11894D01*
X47011Y11898D01*
X47032Y11902D01*
X47052Y11906D01*
X47072Y11910D01*
X47092Y11913D01*
X47113Y11917D01*
X47116Y11897D01*
X47137Y11901D01*
X47157Y11905D01*
X47177Y11909D01*
X47197Y11913D01*
X47218Y11917D01*
X47238Y11921D01*
X47258Y11925D01*
X47262Y11904D01*
D02*
G37*
G36*
X41026Y8973D02*
X41059D01*
X41096Y8969D01*
X41139D01*
X41230Y8958D01*
X41336Y8947D01*
X41445Y8929D01*
X41554Y8903D01*
X41558D01*
X41569Y8900D01*
X41583Y8896D01*
X41605Y8892D01*
X41631Y8885D01*
X41660Y8874D01*
X41729Y8852D01*
X41805Y8823D01*
X41889Y8791D01*
X41973Y8750D01*
X42053Y8703D01*
X41711Y8026D01*
X41707Y8030D01*
X41696Y8033D01*
X41682Y8044D01*
X41656Y8059D01*
X41627Y8073D01*
X41594Y8088D01*
X41554Y8106D01*
X41507Y8128D01*
X41456Y8146D01*
X41398Y8164D01*
X41339Y8179D01*
X41270Y8194D01*
X41201Y8208D01*
X41125Y8219D01*
X41048Y8223D01*
X40964Y8226D01*
X40943D01*
X40917Y8223D01*
X40881D01*
X40837Y8219D01*
X40790Y8212D01*
X40735Y8201D01*
X40673Y8190D01*
X40611Y8172D01*
X40546Y8154D01*
X40480Y8128D01*
X40411Y8099D01*
X40346Y8066D01*
X40280Y8026D01*
X40218Y7979D01*
X40160Y7928D01*
X40156Y7924D01*
X40149Y7913D01*
X40135Y7899D01*
X40113Y7873D01*
X40091Y7844D01*
X40065Y7804D01*
X40036Y7761D01*
X40011Y7710D01*
X39982Y7651D01*
X39952Y7589D01*
X39927Y7517D01*
X39902Y7440D01*
X39880Y7356D01*
X39862Y7269D01*
X39847Y7171D01*
X39840Y7069D01*
X39843Y7073D01*
X39858Y7083D01*
X39876Y7102D01*
X39905Y7124D01*
X39942Y7153D01*
X39985Y7182D01*
X40036Y7211D01*
X40095Y7247D01*
X40164Y7280D01*
X40236Y7309D01*
X40317Y7342D01*
X40404Y7367D01*
X40499Y7389D01*
X40600Y7407D01*
X40710Y7418D01*
X40826Y7422D01*
X40863D01*
X40892Y7418D01*
X40924D01*
X40964Y7415D01*
X41008Y7407D01*
X41055Y7404D01*
X41110Y7393D01*
X41165Y7385D01*
X41281Y7356D01*
X41401Y7316D01*
X41463Y7294D01*
X41521Y7265D01*
X41525D01*
X41536Y7258D01*
X41550Y7251D01*
X41572Y7236D01*
X41601Y7222D01*
X41631Y7203D01*
X41703Y7153D01*
X41783Y7091D01*
X41867Y7018D01*
X41947Y6931D01*
X42020Y6829D01*
X42024Y6825D01*
X42027Y6818D01*
X42038Y6799D01*
X42049Y6778D01*
X42064Y6752D01*
X42078Y6719D01*
X42093Y6683D01*
X42111Y6643D01*
X42129Y6596D01*
X42144Y6548D01*
X42158Y6494D01*
X42173Y6436D01*
X42195Y6315D01*
X42198Y6250D01*
X42202Y6181D01*
Y6177D01*
Y6163D01*
Y6141D01*
X42198Y6115D01*
X42195Y6079D01*
X42191Y6039D01*
X42184Y5991D01*
X42176Y5944D01*
X42155Y5835D01*
X42118Y5715D01*
X42096Y5657D01*
X42067Y5595D01*
X42038Y5536D01*
X42002Y5478D01*
X41998Y5474D01*
X41991Y5464D01*
X41980Y5449D01*
X41965Y5427D01*
X41944Y5402D01*
X41922Y5373D01*
X41893Y5344D01*
X41860Y5307D01*
X41820Y5271D01*
X41780Y5234D01*
X41736Y5194D01*
X41689Y5154D01*
X41634Y5118D01*
X41580Y5081D01*
X41456Y5016D01*
X41452D01*
X41441Y5009D01*
X41423Y5001D01*
X41398Y4990D01*
X41365Y4980D01*
X41325Y4965D01*
X41281Y4950D01*
X41234Y4936D01*
X41179Y4921D01*
X41117Y4907D01*
X41055Y4892D01*
X40990Y4881D01*
X40844Y4863D01*
X40771Y4859D01*
X40691Y4856D01*
X40655D01*
X40633Y4859D01*
X40611D01*
X40553Y4863D01*
X40484Y4870D01*
X40400Y4881D01*
X40313Y4899D01*
X40215Y4921D01*
X40109Y4947D01*
X40003Y4980D01*
X39894Y5023D01*
X39785Y5071D01*
X39680Y5129D01*
X39574Y5198D01*
X39472Y5274D01*
X39381Y5365D01*
X39377Y5373D01*
X39359Y5391D01*
X39337Y5420D01*
X39308Y5460D01*
X39272Y5515D01*
X39232Y5576D01*
X39188Y5653D01*
X39144Y5740D01*
X39101Y5838D01*
X39057Y5948D01*
X39017Y6068D01*
X38981Y6199D01*
X38952Y6341D01*
X38930Y6494D01*
X38912Y6657D01*
X38908Y6829D01*
Y6832D01*
Y6836D01*
Y6847D01*
Y6858D01*
Y6894D01*
X38912Y6942D01*
X38915Y7000D01*
X38922Y7069D01*
X38930Y7145D01*
X38941Y7229D01*
X38952Y7316D01*
X38970Y7411D01*
X38991Y7506D01*
X39017Y7604D01*
X39046Y7702D01*
X39079Y7801D01*
X39119Y7899D01*
X39163Y7990D01*
X39166Y7997D01*
X39173Y8012D01*
X39188Y8037D01*
X39210Y8070D01*
X39235Y8110D01*
X39268Y8157D01*
X39305Y8208D01*
X39348Y8266D01*
X39399Y8325D01*
X39450Y8383D01*
X39512Y8445D01*
X39574Y8507D01*
X39643Y8565D01*
X39716Y8623D01*
X39796Y8678D01*
X39880Y8725D01*
X39883Y8729D01*
X39902Y8736D01*
X39927Y8747D01*
X39960Y8765D01*
X40003Y8783D01*
X40058Y8805D01*
X40116Y8827D01*
X40185Y8852D01*
X40258Y8874D01*
X40342Y8896D01*
X40429Y8918D01*
X40520Y8936D01*
X40619Y8954D01*
X40724Y8965D01*
X40830Y8973D01*
X40943Y8976D01*
X40997D01*
X41026Y8973D01*
D02*
G37*
G36*
X28883Y8168D02*
X27215D01*
X27154Y7411D01*
X27536D01*
X27558Y7407D01*
X27616D01*
X27685Y7400D01*
X27765Y7393D01*
X27856Y7382D01*
X27951Y7367D01*
X28049Y7349D01*
X28151Y7327D01*
X28256Y7302D01*
X28358Y7269D01*
X28460Y7229D01*
X28555Y7185D01*
X28642Y7131D01*
X28722Y7073D01*
X28726Y7069D01*
X28741Y7058D01*
X28759Y7040D01*
X28784Y7011D01*
X28817Y6978D01*
X28850Y6938D01*
X28886Y6891D01*
X28926Y6836D01*
X28963Y6774D01*
X28999Y6705D01*
X29032Y6632D01*
X29065Y6552D01*
X29090Y6465D01*
X29108Y6374D01*
X29123Y6275D01*
X29127Y6173D01*
Y6170D01*
Y6159D01*
Y6137D01*
X29123Y6112D01*
Y6079D01*
X29116Y6042D01*
X29112Y5999D01*
X29105Y5955D01*
X29083Y5850D01*
X29050Y5740D01*
X29028Y5682D01*
X29006Y5624D01*
X28977Y5565D01*
X28945Y5507D01*
X28941Y5504D01*
X28937Y5493D01*
X28926Y5478D01*
X28912Y5456D01*
X28890Y5435D01*
X28868Y5405D01*
X28839Y5373D01*
X28806Y5336D01*
X28770Y5300D01*
X28730Y5260D01*
X28682Y5220D01*
X28631Y5180D01*
X28577Y5140D01*
X28519Y5103D01*
X28457Y5067D01*
X28387Y5031D01*
X28384Y5027D01*
X28369Y5023D01*
X28351Y5016D01*
X28322Y5005D01*
X28286Y4990D01*
X28242Y4976D01*
X28191Y4961D01*
X28133Y4943D01*
X28071Y4928D01*
X27998Y4910D01*
X27925Y4896D01*
X27841Y4885D01*
X27754Y4870D01*
X27663Y4863D01*
X27569Y4859D01*
X27467Y4856D01*
X27427D01*
X27394Y4859D01*
X27357D01*
X27310Y4863D01*
X27259Y4867D01*
X27204Y4870D01*
X27143Y4874D01*
X27077Y4881D01*
X26939Y4903D01*
X26790Y4928D01*
X26637Y4965D01*
X26633D01*
X26618Y4969D01*
X26597Y4976D01*
X26568Y4987D01*
X26535Y4998D01*
X26491Y5009D01*
X26447Y5027D01*
X26397Y5045D01*
X26287Y5089D01*
X26174Y5143D01*
X26058Y5205D01*
X25945Y5278D01*
X26309Y5984D01*
X26313Y5980D01*
X26320Y5977D01*
X26331Y5970D01*
X26349Y5955D01*
X26371Y5940D01*
X26397Y5926D01*
X26426Y5908D01*
X26462Y5886D01*
X26538Y5846D01*
X26626Y5799D01*
X26728Y5759D01*
X26833Y5718D01*
X26837D01*
X26848Y5715D01*
X26862Y5711D01*
X26884Y5704D01*
X26913Y5697D01*
X26946Y5689D01*
X26983Y5682D01*
X27022Y5675D01*
X27066Y5664D01*
X27114Y5657D01*
X27219Y5642D01*
X27328Y5631D01*
X27445Y5627D01*
X27477D01*
X27503Y5631D01*
X27532D01*
X27565Y5635D01*
X27605Y5638D01*
X27645Y5646D01*
X27732Y5660D01*
X27823Y5686D01*
X27911Y5718D01*
X27991Y5762D01*
X27994D01*
X27998Y5769D01*
X28023Y5788D01*
X28053Y5820D01*
X28093Y5860D01*
X28129Y5915D01*
X28158Y5980D01*
X28184Y6057D01*
X28187Y6101D01*
X28191Y6144D01*
Y6148D01*
Y6155D01*
Y6170D01*
X28187Y6188D01*
X28184Y6210D01*
X28180Y6232D01*
X28166Y6290D01*
X28140Y6352D01*
X28126Y6385D01*
X28104Y6417D01*
X28078Y6450D01*
X28053Y6479D01*
X28020Y6508D01*
X27983Y6534D01*
X27980D01*
X27973Y6541D01*
X27962Y6545D01*
X27944Y6556D01*
X27922Y6563D01*
X27893Y6574D01*
X27856Y6588D01*
X27816Y6599D01*
X27769Y6610D01*
X27718Y6625D01*
X27656Y6636D01*
X27590Y6643D01*
X27521Y6654D01*
X27441Y6657D01*
X27354Y6665D01*
X26244D01*
X26447Y8911D01*
X28883D01*
Y8168D01*
D02*
G37*
G36*
X36367Y8907D02*
X36425Y8903D01*
X36491Y8896D01*
X36564Y8889D01*
X36647Y8878D01*
X36735Y8867D01*
X36826Y8849D01*
X36920Y8831D01*
X37019Y8805D01*
X37117Y8776D01*
X37215Y8743D01*
X37314Y8703D01*
X37408Y8659D01*
X37415Y8656D01*
X37430Y8649D01*
X37455Y8634D01*
X37492Y8612D01*
X37532Y8587D01*
X37579Y8558D01*
X37634Y8521D01*
X37692Y8481D01*
X37754Y8434D01*
X37816Y8379D01*
X37881Y8325D01*
X37947Y8259D01*
X38009Y8194D01*
X38071Y8121D01*
X38129Y8044D01*
X38184Y7961D01*
X38187Y7957D01*
X38194Y7939D01*
X38209Y7917D01*
X38227Y7881D01*
X38249Y7837D01*
X38271Y7786D01*
X38296Y7728D01*
X38322Y7662D01*
X38347Y7589D01*
X38373Y7509D01*
X38395Y7422D01*
X38416Y7331D01*
X38435Y7233D01*
X38449Y7131D01*
X38456Y7025D01*
X38460Y6916D01*
Y6909D01*
Y6891D01*
Y6858D01*
X38456Y6814D01*
X38453Y6763D01*
X38445Y6701D01*
X38438Y6636D01*
X38427Y6559D01*
X38413Y6479D01*
X38391Y6396D01*
X38369Y6308D01*
X38344Y6221D01*
X38311Y6130D01*
X38274Y6039D01*
X38231Y5951D01*
X38184Y5864D01*
X38180Y5860D01*
X38169Y5846D01*
X38154Y5820D01*
X38133Y5791D01*
X38103Y5751D01*
X38071Y5711D01*
X38031Y5660D01*
X37983Y5609D01*
X37932Y5555D01*
X37874Y5496D01*
X37808Y5438D01*
X37739Y5384D01*
X37667Y5325D01*
X37587Y5271D01*
X37499Y5216D01*
X37408Y5169D01*
X37401Y5165D01*
X37386Y5158D01*
X37357Y5147D01*
X37321Y5129D01*
X37273Y5111D01*
X37215Y5092D01*
X37150Y5067D01*
X37077Y5045D01*
X36997Y5023D01*
X36909Y5001D01*
X36815Y4980D01*
X36713Y4961D01*
X36607Y4943D01*
X36494Y4932D01*
X36378Y4925D01*
X36258Y4921D01*
X34445D01*
Y8911D01*
X36320D01*
X36367Y8907D01*
D02*
G37*
G36*
X23572D02*
X23630Y8903D01*
X23696Y8896D01*
X23768Y8889D01*
X23852Y8878D01*
X23939Y8867D01*
X24031Y8849D01*
X24125Y8831D01*
X24223Y8805D01*
X24322Y8776D01*
X24420Y8743D01*
X24518Y8703D01*
X24613Y8659D01*
X24620Y8656D01*
X24635Y8649D01*
X24660Y8634D01*
X24697Y8612D01*
X24737Y8587D01*
X24784Y8558D01*
X24838Y8521D01*
X24897Y8481D01*
X24959Y8434D01*
X25021Y8379D01*
X25086Y8325D01*
X25152Y8259D01*
X25214Y8194D01*
X25275Y8121D01*
X25334Y8044D01*
X25388Y7961D01*
X25392Y7957D01*
X25399Y7939D01*
X25414Y7917D01*
X25432Y7881D01*
X25454Y7837D01*
X25475Y7786D01*
X25501Y7728D01*
X25526Y7662D01*
X25552Y7589D01*
X25578Y7509D01*
X25599Y7422D01*
X25621Y7331D01*
X25639Y7233D01*
X25654Y7131D01*
X25661Y7025D01*
X25665Y6916D01*
Y6909D01*
Y6891D01*
Y6858D01*
X25661Y6814D01*
X25657Y6763D01*
X25650Y6701D01*
X25643Y6636D01*
X25632Y6559D01*
X25618Y6479D01*
X25596Y6396D01*
X25574Y6308D01*
X25548Y6221D01*
X25516Y6130D01*
X25479Y6039D01*
X25436Y5951D01*
X25388Y5864D01*
X25385Y5860D01*
X25374Y5846D01*
X25359Y5820D01*
X25337Y5791D01*
X25308Y5751D01*
X25275Y5711D01*
X25235Y5660D01*
X25188Y5609D01*
X25137Y5555D01*
X25079Y5496D01*
X25013Y5438D01*
X24944Y5384D01*
X24871Y5325D01*
X24791Y5271D01*
X24704Y5216D01*
X24613Y5169D01*
X24606Y5165D01*
X24591Y5158D01*
X24562Y5147D01*
X24525Y5129D01*
X24478Y5111D01*
X24420Y5092D01*
X24354Y5067D01*
X24282Y5045D01*
X24202Y5023D01*
X24114Y5001D01*
X24020Y4980D01*
X23918Y4961D01*
X23812Y4943D01*
X23699Y4932D01*
X23583Y4925D01*
X23463Y4921D01*
X21650D01*
Y8911D01*
X23525D01*
X23572Y8907D01*
D02*
G37*
G36*
X14377Y6508D02*
X15447D01*
Y7258D01*
X16320D01*
Y6508D01*
X16968D01*
Y5759D01*
X16320D01*
Y4921D01*
X15417D01*
Y5759D01*
X13270D01*
Y6377D01*
X15152Y8911D01*
X16120D01*
X14377Y6508D01*
D02*
G37*
G36*
X10777Y8907D02*
X10835Y8903D01*
X10900Y8896D01*
X10973Y8889D01*
X11057Y8878D01*
X11144Y8867D01*
X11235Y8849D01*
X11330Y8831D01*
X11428Y8805D01*
X11526Y8776D01*
X11625Y8743D01*
X11723Y8703D01*
X11818Y8659D01*
X11825Y8656D01*
X11839Y8649D01*
X11865Y8634D01*
X11901Y8612D01*
X11941Y8587D01*
X11989Y8558D01*
X12043Y8521D01*
X12101Y8481D01*
X12163Y8434D01*
X12225Y8379D01*
X12291Y8325D01*
X12356Y8259D01*
X12418Y8194D01*
X12480Y8121D01*
X12538Y8044D01*
X12593Y7961D01*
X12597Y7957D01*
X12604Y7939D01*
X12618Y7917D01*
X12637Y7881D01*
X12658Y7837D01*
X12680Y7786D01*
X12706Y7728D01*
X12731Y7662D01*
X12757Y7589D01*
X12782Y7509D01*
X12804Y7422D01*
X12826Y7331D01*
X12844Y7233D01*
X12859Y7131D01*
X12866Y7025D01*
X12870Y6916D01*
Y6909D01*
Y6891D01*
Y6858D01*
X12866Y6814D01*
X12862Y6763D01*
X12855Y6701D01*
X12848Y6636D01*
X12837Y6559D01*
X12822Y6479D01*
X12800Y6396D01*
X12778Y6308D01*
X12753Y6221D01*
X12720Y6130D01*
X12684Y6039D01*
X12640Y5951D01*
X12593Y5864D01*
X12589Y5860D01*
X12578Y5846D01*
X12564Y5820D01*
X12542Y5791D01*
X12513Y5751D01*
X12480Y5711D01*
X12440Y5660D01*
X12393Y5609D01*
X12342Y5555D01*
X12284Y5496D01*
X12218Y5438D01*
X12149Y5384D01*
X12076Y5325D01*
X11996Y5271D01*
X11909Y5216D01*
X11818Y5169D01*
X11810Y5165D01*
X11796Y5158D01*
X11767Y5147D01*
X11730Y5129D01*
X11683Y5111D01*
X11625Y5092D01*
X11559Y5067D01*
X11486Y5045D01*
X11406Y5023D01*
X11319Y5001D01*
X11224Y4980D01*
X11122Y4961D01*
X11017Y4943D01*
X10904Y4932D01*
X10787Y4925D01*
X10667Y4921D01*
X8855D01*
Y8911D01*
X10729D01*
X10777Y8907D01*
D02*
G37*
G36*
X1005337Y-155808D02*
X1005050D01*
Y-156094D01*
X1004764D01*
Y-156380D01*
Y-156667D01*
X1004478D01*
Y-156953D01*
X1004192D01*
Y-157239D01*
X1003905D01*
Y-157526D01*
Y-157812D01*
X1003619D01*
Y-158098D01*
X1003333D01*
Y-158385D01*
X1003046D01*
Y-158671D01*
X1002760D01*
Y-158957D01*
Y-159244D01*
X1002474D01*
Y-159530D01*
X1002187D01*
Y-159816D01*
X1001901D01*
Y-160102D01*
Y-160389D01*
X1001615D01*
Y-160675D01*
X1001328D01*
Y-160961D01*
X1001042D01*
Y-161248D01*
X1000756D01*
Y-161534D01*
Y-161820D01*
X1000469D01*
Y-162107D01*
X1000183D01*
Y-162393D01*
X999897D01*
Y-162679D01*
Y-162966D01*
X999611D01*
Y-163252D01*
X999324D01*
Y-163538D01*
X999038D01*
Y-163824D01*
Y-164111D01*
X998752D01*
Y-164397D01*
X998465D01*
Y-164683D01*
X998179D01*
Y-164970D01*
X997893D01*
Y-165256D01*
Y-165542D01*
X997606D01*
Y-165829D01*
X997320D01*
Y-166115D01*
X997034D01*
Y-166401D01*
Y-166688D01*
X996747D01*
Y-166974D01*
X996461D01*
Y-167260D01*
X996175D01*
Y-167547D01*
Y-167833D01*
X995889D01*
Y-168119D01*
X995602D01*
Y-168405D01*
X995316D01*
Y-168692D01*
X995030D01*
Y-168978D01*
Y-169264D01*
X994743D01*
Y-169551D01*
X994457D01*
Y-169837D01*
X994171D01*
Y-170123D01*
Y-170410D01*
X993884D01*
Y-170696D01*
X993598D01*
Y-170982D01*
X993312D01*
Y-171269D01*
Y-171555D01*
X993025D01*
Y-171841D01*
X992739D01*
Y-172127D01*
X992453D01*
Y-172414D01*
X992166D01*
Y-172700D01*
Y-172986D01*
X991880D01*
Y-173273D01*
X991594D01*
Y-173559D01*
X991308D01*
Y-173845D01*
Y-174132D01*
X991021D01*
Y-174418D01*
X990735D01*
Y-174704D01*
X990449D01*
Y-174991D01*
X990162D01*
Y-175277D01*
Y-175563D01*
X990449D01*
Y-175850D01*
Y-176136D01*
X990735D01*
Y-176422D01*
Y-176709D01*
X991021D01*
Y-176995D01*
X991308D01*
Y-177281D01*
Y-177568D01*
X991594D01*
Y-177854D01*
Y-178140D01*
X991880D01*
Y-178426D01*
Y-178713D01*
X992166D01*
Y-178999D01*
Y-179285D01*
X992453D01*
Y-179572D01*
Y-179858D01*
X992739D01*
Y-180144D01*
Y-180431D01*
X993025D01*
Y-180717D01*
Y-181003D01*
X993312D01*
Y-181290D01*
Y-181576D01*
X993598D01*
Y-181862D01*
X993884D01*
Y-182149D01*
Y-182435D01*
X994171D01*
Y-182721D01*
Y-183007D01*
X994457D01*
Y-183294D01*
Y-183580D01*
X994743D01*
Y-183866D01*
Y-184153D01*
X995030D01*
Y-184439D01*
Y-184725D01*
X995316D01*
Y-185012D01*
Y-185298D01*
X995602D01*
Y-185584D01*
Y-185871D01*
X995889D01*
Y-186157D01*
X996175D01*
Y-186443D01*
Y-186730D01*
X996461D01*
Y-187016D01*
Y-187302D01*
X996747D01*
Y-187588D01*
Y-187875D01*
X997034D01*
Y-188161D01*
Y-188447D01*
X997320D01*
Y-188734D01*
Y-189020D01*
X997606D01*
Y-189306D01*
Y-189593D01*
X997893D01*
Y-189879D01*
Y-190165D01*
X998179D01*
Y-190452D01*
X998465D01*
Y-190738D01*
Y-191024D01*
X998752D01*
Y-191311D01*
Y-191597D01*
X999038D01*
Y-191883D01*
X983863D01*
Y-191597D01*
X983577D01*
Y-191311D01*
Y-191024D01*
Y-190738D01*
X983291D01*
Y-190452D01*
Y-190165D01*
Y-189879D01*
X983004D01*
Y-189593D01*
Y-189306D01*
X982718D01*
Y-189020D01*
Y-188734D01*
Y-188447D01*
X982432D01*
Y-188161D01*
Y-187875D01*
Y-187588D01*
X982146D01*
Y-187302D01*
Y-187016D01*
X981859D01*
Y-186730D01*
Y-186443D01*
Y-186157D01*
X981573D01*
Y-185871D01*
Y-185584D01*
Y-185298D01*
X981287D01*
Y-185012D01*
Y-184725D01*
Y-184439D01*
X981000D01*
Y-184153D01*
X980428D01*
Y-184439D01*
Y-184725D01*
X980141D01*
Y-185012D01*
X979855D01*
Y-185298D01*
Y-185584D01*
X979569D01*
Y-185871D01*
X979282D01*
Y-186157D01*
Y-186443D01*
X978996D01*
Y-186730D01*
X978710D01*
Y-187016D01*
Y-187302D01*
X978423D01*
Y-187588D01*
X978137D01*
Y-187875D01*
X977851D01*
Y-188161D01*
Y-188447D01*
X977565D01*
Y-188734D01*
X977278D01*
Y-189020D01*
Y-189306D01*
X976992D01*
Y-189593D01*
X976705D01*
Y-189879D01*
Y-190165D01*
X976419D01*
Y-190452D01*
X976133D01*
Y-190738D01*
Y-191024D01*
X975847D01*
Y-191311D01*
X975560D01*
Y-191597D01*
Y-191883D01*
X959527D01*
Y-191597D01*
X959813D01*
Y-191311D01*
X960099D01*
Y-191024D01*
X960386D01*
Y-190738D01*
X960672D01*
Y-190452D01*
Y-190165D01*
X960958D01*
Y-189879D01*
X961245D01*
Y-189593D01*
X961531D01*
Y-189306D01*
X961817D01*
Y-189020D01*
Y-188734D01*
X962104D01*
Y-188447D01*
X962390D01*
Y-188161D01*
X962676D01*
Y-187875D01*
Y-187588D01*
X962963D01*
Y-187302D01*
X963249D01*
Y-187016D01*
X963535D01*
Y-186730D01*
X963822D01*
Y-186443D01*
Y-186157D01*
X964108D01*
Y-185871D01*
X964394D01*
Y-185584D01*
X964680D01*
Y-185298D01*
X964967D01*
Y-185012D01*
Y-184725D01*
X965253D01*
Y-184439D01*
X965539D01*
Y-184153D01*
X965826D01*
Y-183866D01*
Y-183580D01*
X966112D01*
Y-183294D01*
X966398D01*
Y-183007D01*
X966685D01*
Y-182721D01*
X966971D01*
Y-182435D01*
Y-182149D01*
X967257D01*
Y-181862D01*
X967544D01*
Y-181576D01*
X967830D01*
Y-181290D01*
Y-181003D01*
X968116D01*
Y-180717D01*
X968402D01*
Y-180431D01*
X968689D01*
Y-180144D01*
X968975D01*
Y-179858D01*
Y-179572D01*
X969261D01*
Y-179285D01*
X969548D01*
Y-178999D01*
X969834D01*
Y-178713D01*
Y-178426D01*
X970120D01*
Y-178140D01*
X970407D01*
Y-177854D01*
X970693D01*
Y-177568D01*
X970979D01*
Y-177281D01*
Y-176995D01*
X971266D01*
Y-176709D01*
X971552D01*
Y-176422D01*
X971838D01*
Y-176136D01*
X972124D01*
Y-175850D01*
Y-175563D01*
X972411D01*
Y-175277D01*
X972697D01*
Y-174991D01*
X972983D01*
Y-174704D01*
Y-174418D01*
X973270D01*
Y-174132D01*
X973556D01*
Y-173845D01*
X973842D01*
Y-173559D01*
X974129D01*
Y-173273D01*
Y-172986D01*
X974415D01*
Y-172700D01*
Y-172414D01*
Y-172127D01*
X974129D01*
Y-171841D01*
X973842D01*
Y-171555D01*
Y-171269D01*
X973556D01*
Y-170982D01*
Y-170696D01*
X973270D01*
Y-170410D01*
Y-170123D01*
X972983D01*
Y-169837D01*
Y-169551D01*
X972697D01*
Y-169264D01*
Y-168978D01*
X972411D01*
Y-168692D01*
Y-168405D01*
X972124D01*
Y-168119D01*
X971838D01*
Y-167833D01*
Y-167547D01*
X971552D01*
Y-167260D01*
Y-166974D01*
X971266D01*
Y-166688D01*
Y-166401D01*
X970979D01*
Y-166115D01*
Y-165829D01*
X970693D01*
Y-165542D01*
Y-165256D01*
X970407D01*
Y-164970D01*
Y-164683D01*
X970120D01*
Y-164397D01*
X969834D01*
Y-164111D01*
Y-163824D01*
X969548D01*
Y-163538D01*
Y-163252D01*
X969261D01*
Y-162966D01*
Y-162679D01*
X968975D01*
Y-162393D01*
Y-162107D01*
X968689D01*
Y-161820D01*
Y-161534D01*
X968402D01*
Y-161248D01*
Y-160961D01*
X968116D01*
Y-160675D01*
Y-160389D01*
X967830D01*
Y-160102D01*
X967544D01*
Y-159816D01*
Y-159530D01*
X967257D01*
Y-159244D01*
Y-158957D01*
X966971D01*
Y-158671D01*
Y-158385D01*
X966685D01*
Y-158098D01*
Y-157812D01*
X966398D01*
Y-157526D01*
Y-157239D01*
X966112D01*
Y-156953D01*
Y-156667D01*
X965826D01*
Y-156380D01*
X965539D01*
Y-156094D01*
Y-155808D01*
X965253D01*
Y-155521D01*
X981000D01*
Y-155808D01*
X981287D01*
Y-156094D01*
Y-156380D01*
Y-156667D01*
X981573D01*
Y-156953D01*
Y-157239D01*
Y-157526D01*
X981859D01*
Y-157812D01*
Y-158098D01*
Y-158385D01*
X982146D01*
Y-158671D01*
Y-158957D01*
Y-159244D01*
X982432D01*
Y-159530D01*
Y-159816D01*
Y-160102D01*
X982718D01*
Y-160389D01*
Y-160675D01*
Y-160961D01*
X983004D01*
Y-161248D01*
Y-161534D01*
Y-161820D01*
X983291D01*
Y-162107D01*
Y-162393D01*
Y-162679D01*
X983577D01*
Y-162966D01*
Y-163252D01*
Y-163538D01*
Y-163824D01*
X984150D01*
Y-163538D01*
X984436D01*
Y-163252D01*
X984722D01*
Y-162966D01*
Y-162679D01*
X985009D01*
Y-162393D01*
X985295D01*
Y-162107D01*
Y-161820D01*
X985581D01*
Y-161534D01*
X985868D01*
Y-161248D01*
Y-160961D01*
X986154D01*
Y-160675D01*
X986440D01*
Y-160389D01*
Y-160102D01*
X986726D01*
Y-159816D01*
X987013D01*
Y-159530D01*
Y-159244D01*
X987299D01*
Y-158957D01*
X987585D01*
Y-158671D01*
Y-158385D01*
X987872D01*
Y-158098D01*
X988158D01*
Y-157812D01*
Y-157526D01*
X988444D01*
Y-157239D01*
X988731D01*
Y-156953D01*
Y-156667D01*
X989017D01*
Y-156380D01*
X989303D01*
Y-156094D01*
Y-155808D01*
X989590D01*
Y-155521D01*
X1005337D01*
Y-155808D01*
D02*
G37*
G36*
X872201Y-141778D02*
X873919D01*
Y-142065D01*
X874778D01*
Y-142351D01*
X875637D01*
Y-142637D01*
X876496D01*
Y-142924D01*
X877069D01*
Y-143210D01*
X877355D01*
Y-143496D01*
X877928D01*
Y-143783D01*
X878214D01*
Y-144069D01*
X878786D01*
Y-144355D01*
X879073D01*
Y-144641D01*
X879359D01*
Y-144928D01*
X879646D01*
Y-145214D01*
X879932D01*
Y-145501D01*
X880218D01*
Y-145787D01*
X880504D01*
Y-146073D01*
Y-146359D01*
X880791D01*
Y-146646D01*
X881077D01*
Y-146932D01*
Y-147218D01*
X881363D01*
Y-147505D01*
X881650D01*
Y-147791D01*
Y-148077D01*
X881936D01*
Y-148364D01*
Y-148650D01*
Y-148936D01*
X882222D01*
Y-149223D01*
Y-149509D01*
Y-149795D01*
X882509D01*
Y-150082D01*
Y-150368D01*
Y-150654D01*
Y-150940D01*
X882795D01*
Y-151227D01*
Y-151513D01*
Y-151799D01*
Y-152086D01*
Y-152372D01*
X883081D01*
Y-152658D01*
Y-152945D01*
Y-153231D01*
Y-153517D01*
Y-153804D01*
Y-154090D01*
Y-154376D01*
Y-154663D01*
Y-154949D01*
Y-155235D01*
Y-155521D01*
Y-155808D01*
Y-156094D01*
Y-156380D01*
Y-156667D01*
Y-156953D01*
Y-157239D01*
Y-157526D01*
Y-157812D01*
Y-158098D01*
X882795D01*
Y-158385D01*
Y-158671D01*
Y-158957D01*
Y-159244D01*
Y-159530D01*
Y-159816D01*
Y-160102D01*
X882509D01*
Y-160389D01*
Y-160675D01*
Y-160961D01*
Y-161248D01*
Y-161534D01*
X882222D01*
Y-161820D01*
Y-162107D01*
Y-162393D01*
Y-162679D01*
Y-162966D01*
X881936D01*
Y-163252D01*
Y-163538D01*
Y-163824D01*
X881650D01*
Y-164111D01*
Y-164397D01*
Y-164683D01*
Y-164970D01*
X881363D01*
Y-165256D01*
Y-165542D01*
Y-165829D01*
X881077D01*
Y-166115D01*
Y-166401D01*
X880791D01*
Y-166688D01*
Y-166974D01*
Y-167260D01*
X880504D01*
Y-167547D01*
Y-167833D01*
X880218D01*
Y-168119D01*
Y-168405D01*
X879932D01*
Y-168692D01*
Y-168978D01*
X879646D01*
Y-169264D01*
X879359D01*
Y-169551D01*
Y-169837D01*
X879073D01*
Y-170123D01*
X878786D01*
Y-170410D01*
X878500D01*
Y-170696D01*
Y-170982D01*
X878214D01*
Y-171269D01*
X877928D01*
Y-171555D01*
X877641D01*
Y-171841D01*
X877355D01*
Y-172127D01*
X877069D01*
Y-172414D01*
X876496D01*
Y-172700D01*
X876210D01*
Y-172986D01*
X875637D01*
Y-173273D01*
X875351D01*
Y-173559D01*
X874778D01*
Y-173845D01*
X873919D01*
Y-174132D01*
X873060D01*
Y-174418D01*
X872201D01*
Y-174704D01*
X870483D01*
Y-174991D01*
X865330D01*
Y-174704D01*
X862753D01*
Y-174418D01*
X860749D01*
Y-174132D01*
X859317D01*
Y-173845D01*
X857886D01*
Y-173559D01*
X856454D01*
Y-173845D01*
Y-174132D01*
Y-174418D01*
Y-174704D01*
Y-174991D01*
Y-175277D01*
Y-175563D01*
X856168D01*
Y-175850D01*
Y-176136D01*
Y-176422D01*
Y-176709D01*
Y-176995D01*
Y-177281D01*
X855882D01*
Y-177568D01*
Y-177854D01*
Y-178140D01*
Y-178426D01*
Y-178713D01*
Y-178999D01*
X855595D01*
Y-179285D01*
Y-179572D01*
Y-179858D01*
Y-180144D01*
Y-180431D01*
Y-180717D01*
Y-181003D01*
X855309D01*
Y-181290D01*
Y-181576D01*
Y-181862D01*
Y-182149D01*
Y-182435D01*
Y-182721D01*
X855023D01*
Y-183007D01*
Y-183294D01*
Y-183580D01*
Y-183866D01*
Y-184153D01*
Y-184439D01*
X854736D01*
Y-184725D01*
Y-185012D01*
Y-185298D01*
Y-185584D01*
Y-185871D01*
Y-186157D01*
Y-186443D01*
X854450D01*
Y-186730D01*
Y-187016D01*
Y-187302D01*
Y-187588D01*
Y-187875D01*
Y-188161D01*
X854164D01*
Y-188447D01*
Y-188734D01*
Y-189020D01*
Y-189306D01*
Y-189593D01*
Y-189879D01*
X853877D01*
Y-190165D01*
Y-190452D01*
Y-190738D01*
Y-191024D01*
Y-191311D01*
Y-191597D01*
Y-191883D01*
X840421D01*
Y-191597D01*
X840707D01*
Y-191311D01*
Y-191024D01*
Y-190738D01*
Y-190452D01*
Y-190165D01*
X840993D01*
Y-189879D01*
Y-189593D01*
Y-189306D01*
Y-189020D01*
Y-188734D01*
Y-188447D01*
Y-188161D01*
X841280D01*
Y-187875D01*
Y-187588D01*
Y-187302D01*
Y-187016D01*
Y-186730D01*
Y-186443D01*
X841566D01*
Y-186157D01*
Y-185871D01*
Y-185584D01*
Y-185298D01*
Y-185012D01*
Y-184725D01*
X841852D01*
Y-184439D01*
Y-184153D01*
Y-183866D01*
Y-183580D01*
Y-183294D01*
Y-183007D01*
Y-182721D01*
X842138D01*
Y-182435D01*
Y-182149D01*
Y-181862D01*
Y-181576D01*
Y-181290D01*
Y-181003D01*
X842425D01*
Y-180717D01*
Y-180431D01*
Y-180144D01*
Y-179858D01*
Y-179572D01*
Y-179285D01*
X842711D01*
Y-178999D01*
Y-178713D01*
Y-178426D01*
Y-178140D01*
Y-177854D01*
Y-177568D01*
X842997D01*
Y-177281D01*
Y-176995D01*
Y-176709D01*
Y-176422D01*
Y-176136D01*
Y-175850D01*
Y-175563D01*
X843284D01*
Y-175277D01*
Y-174991D01*
Y-174704D01*
Y-174418D01*
Y-174132D01*
Y-173845D01*
X843570D01*
Y-173559D01*
Y-173273D01*
Y-172986D01*
Y-172700D01*
Y-172414D01*
Y-172127D01*
X843856D01*
Y-171841D01*
Y-171555D01*
Y-171269D01*
Y-170982D01*
Y-170696D01*
Y-170410D01*
X844143D01*
Y-170123D01*
Y-169837D01*
Y-169551D01*
Y-169264D01*
Y-168978D01*
Y-168692D01*
Y-168405D01*
X844429D01*
Y-168119D01*
Y-167833D01*
Y-167547D01*
Y-167260D01*
Y-166974D01*
Y-166688D01*
X844715D01*
Y-166401D01*
Y-166115D01*
Y-165829D01*
Y-165542D01*
Y-165256D01*
Y-164970D01*
X845002D01*
Y-164683D01*
Y-164397D01*
Y-164111D01*
Y-163824D01*
Y-163538D01*
Y-163252D01*
Y-162966D01*
X845288D01*
Y-162679D01*
Y-162393D01*
Y-162107D01*
Y-161820D01*
Y-161534D01*
Y-161248D01*
X845574D01*
Y-160961D01*
Y-160675D01*
Y-160389D01*
Y-160102D01*
Y-159816D01*
Y-159530D01*
X845861D01*
Y-159244D01*
Y-158957D01*
Y-158671D01*
Y-158385D01*
Y-158098D01*
Y-157812D01*
X846147D01*
Y-157526D01*
Y-157239D01*
Y-156953D01*
Y-156667D01*
Y-156380D01*
Y-156094D01*
Y-155808D01*
X846433D01*
Y-155521D01*
Y-155235D01*
Y-154949D01*
Y-154663D01*
Y-154376D01*
Y-154090D01*
X846719D01*
Y-153804D01*
Y-153517D01*
Y-153231D01*
Y-152945D01*
Y-152658D01*
Y-152372D01*
X847006D01*
Y-152086D01*
Y-151799D01*
Y-151513D01*
Y-151227D01*
Y-150940D01*
Y-150654D01*
Y-150368D01*
X847292D01*
Y-150082D01*
Y-149795D01*
Y-149509D01*
Y-149223D01*
Y-148936D01*
Y-148650D01*
X847578D01*
Y-148364D01*
Y-148077D01*
Y-147791D01*
Y-147505D01*
Y-147218D01*
Y-146932D01*
X847865D01*
Y-146646D01*
Y-146359D01*
Y-146073D01*
Y-145787D01*
Y-145501D01*
Y-145214D01*
Y-144928D01*
X848151D01*
Y-144641D01*
Y-144355D01*
Y-144069D01*
Y-143783D01*
Y-143496D01*
Y-143210D01*
X848437D01*
Y-142924D01*
Y-142637D01*
Y-142351D01*
Y-142065D01*
Y-141778D01*
Y-141492D01*
X872201D01*
Y-141778D01*
D02*
G37*
G36*
X961245Y-155808D02*
Y-156094D01*
Y-156380D01*
Y-156667D01*
Y-156953D01*
Y-157239D01*
Y-157526D01*
Y-157812D01*
Y-158098D01*
Y-158385D01*
Y-158671D01*
Y-158957D01*
Y-159244D01*
Y-159530D01*
Y-159816D01*
Y-160102D01*
Y-160389D01*
Y-160675D01*
Y-160961D01*
Y-161248D01*
Y-161534D01*
X960958D01*
Y-161820D01*
Y-162107D01*
Y-162393D01*
Y-162679D01*
Y-162966D01*
X960672D01*
Y-163252D01*
Y-163538D01*
Y-163824D01*
Y-164111D01*
X960386D01*
Y-164397D01*
Y-164683D01*
Y-164970D01*
Y-165256D01*
X960099D01*
Y-165542D01*
Y-165829D01*
Y-166115D01*
X959813D01*
Y-166401D01*
Y-166688D01*
Y-166974D01*
X959527D01*
Y-167260D01*
Y-167547D01*
Y-167833D01*
X959241D01*
Y-168119D01*
Y-168405D01*
Y-168692D01*
X958954D01*
Y-168978D01*
Y-169264D01*
X958668D01*
Y-169551D01*
Y-169837D01*
X958381D01*
Y-170123D01*
Y-170410D01*
Y-170696D01*
X958095D01*
Y-170982D01*
Y-171269D01*
X957809D01*
Y-171555D01*
Y-171841D01*
Y-172127D01*
X957523D01*
Y-172414D01*
Y-172700D01*
X957236D01*
Y-172986D01*
Y-173273D01*
Y-173559D01*
X956950D01*
Y-173845D01*
Y-174132D01*
X956664D01*
Y-174418D01*
Y-174704D01*
Y-174991D01*
X956377D01*
Y-175277D01*
Y-175563D01*
X956091D01*
Y-175850D01*
Y-176136D01*
Y-176422D01*
X955805D01*
Y-176709D01*
Y-176995D01*
X955518D01*
Y-177281D01*
Y-177568D01*
Y-177854D01*
X955232D01*
Y-178140D01*
Y-178426D01*
X954946D01*
Y-178713D01*
Y-178999D01*
Y-179285D01*
X954659D01*
Y-179572D01*
Y-179858D01*
X954373D01*
Y-180144D01*
Y-180431D01*
Y-180717D01*
X954087D01*
Y-181003D01*
Y-181290D01*
X953800D01*
Y-181576D01*
Y-181862D01*
Y-182149D01*
X953514D01*
Y-182435D01*
Y-182721D01*
X953228D01*
Y-183007D01*
Y-183294D01*
Y-183580D01*
X952942D01*
Y-183866D01*
Y-184153D01*
X952655D01*
Y-184439D01*
Y-184725D01*
Y-185012D01*
X952369D01*
Y-185298D01*
Y-185584D01*
X952083D01*
Y-185871D01*
Y-186157D01*
Y-186443D01*
X951796D01*
Y-186730D01*
Y-187016D01*
X951510D01*
Y-187302D01*
Y-187588D01*
Y-187875D01*
X951224D01*
Y-188161D01*
Y-188447D01*
X950937D01*
Y-188734D01*
Y-189020D01*
Y-189306D01*
X950651D01*
Y-189593D01*
Y-189879D01*
X950365D01*
Y-190165D01*
Y-190452D01*
Y-190738D01*
X950078D01*
Y-191024D01*
Y-191311D01*
X949792D01*
Y-191597D01*
Y-191883D01*
Y-192169D01*
X949506D01*
Y-192456D01*
Y-192742D01*
X949220D01*
Y-193028D01*
Y-193315D01*
X948933D01*
Y-193601D01*
Y-193887D01*
X948647D01*
Y-194174D01*
Y-194460D01*
Y-194746D01*
X948361D01*
Y-195033D01*
X948074D01*
Y-195319D01*
Y-195605D01*
Y-195891D01*
X947788D01*
Y-196178D01*
X947502D01*
Y-196464D01*
Y-196750D01*
X947215D01*
Y-197037D01*
Y-197323D01*
X946929D01*
Y-197609D01*
Y-197896D01*
X946643D01*
Y-198182D01*
Y-198468D01*
X946356D01*
Y-198755D01*
X946070D01*
Y-199041D01*
Y-199327D01*
X945784D01*
Y-199614D01*
Y-199900D01*
X945497D01*
Y-200186D01*
X945211D01*
Y-200472D01*
X944925D01*
Y-200759D01*
Y-201045D01*
X944639D01*
Y-201331D01*
X944352D01*
Y-201618D01*
Y-201904D01*
X944066D01*
Y-202190D01*
X943780D01*
Y-202477D01*
X943493D01*
Y-202763D01*
Y-203049D01*
X943207D01*
Y-203336D01*
X942921D01*
Y-203622D01*
X942634D01*
Y-203908D01*
X942348D01*
Y-204195D01*
X942062D01*
Y-204481D01*
Y-204767D01*
X941775D01*
Y-205053D01*
X941489D01*
Y-205340D01*
X941203D01*
Y-205626D01*
X940916D01*
Y-205912D01*
X940630D01*
Y-206199D01*
X940344D01*
Y-206485D01*
X940057D01*
Y-206771D01*
X939485D01*
Y-207058D01*
X939199D01*
Y-207344D01*
X938912D01*
Y-207630D01*
X938626D01*
Y-207917D01*
X938340D01*
Y-208203D01*
X937767D01*
Y-208489D01*
X937481D01*
Y-208776D01*
X936908D01*
Y-209062D01*
X936622D01*
Y-209348D01*
X936049D01*
Y-209634D01*
X935763D01*
Y-209921D01*
X935190D01*
Y-210207D01*
X934618D01*
Y-210493D01*
X934045D01*
Y-210780D01*
X933472D01*
Y-211066D01*
X932900D01*
Y-211352D01*
X932041D01*
Y-211639D01*
X931468D01*
Y-211925D01*
X930609D01*
Y-212211D01*
X929464D01*
Y-212498D01*
X928319D01*
Y-212784D01*
X926601D01*
Y-213070D01*
X924597D01*
Y-213357D01*
X924310D01*
Y-213070D01*
Y-212784D01*
Y-212498D01*
Y-212211D01*
Y-211925D01*
Y-211639D01*
Y-211352D01*
Y-211066D01*
Y-210780D01*
Y-210493D01*
Y-210207D01*
Y-209921D01*
Y-209634D01*
Y-209348D01*
Y-209062D01*
Y-208776D01*
Y-208489D01*
Y-208203D01*
Y-207917D01*
Y-207630D01*
Y-207344D01*
Y-207058D01*
Y-206771D01*
Y-206485D01*
Y-206199D01*
Y-205912D01*
Y-205626D01*
Y-205340D01*
Y-205053D01*
Y-204767D01*
Y-204481D01*
Y-204195D01*
Y-203908D01*
X924883D01*
Y-203622D01*
X925455D01*
Y-203336D01*
X926028D01*
Y-203049D01*
X926601D01*
Y-202763D01*
X927173D01*
Y-202477D01*
X927746D01*
Y-202190D01*
X928032D01*
Y-201904D01*
X928605D01*
Y-201618D01*
X928891D01*
Y-201331D01*
X929464D01*
Y-201045D01*
X929750D01*
Y-200759D01*
X930037D01*
Y-200472D01*
X930609D01*
Y-200186D01*
X930896D01*
Y-199900D01*
X931182D01*
Y-199614D01*
X931468D01*
Y-199327D01*
X931754D01*
Y-199041D01*
X932041D01*
Y-198755D01*
X932327D01*
Y-198468D01*
X932613D01*
Y-198182D01*
X932900D01*
Y-197896D01*
X933186D01*
Y-197609D01*
X933472D01*
Y-197323D01*
X933759D01*
Y-197037D01*
Y-196750D01*
X934045D01*
Y-196464D01*
X934331D01*
Y-196178D01*
X934618D01*
Y-195891D01*
Y-195605D01*
X934904D01*
Y-195319D01*
X935190D01*
Y-195033D01*
Y-194746D01*
X935476D01*
Y-194460D01*
Y-194174D01*
X935763D01*
Y-193887D01*
X936049D01*
Y-193601D01*
Y-193315D01*
X936335D01*
Y-193028D01*
Y-192742D01*
X936622D01*
Y-192456D01*
Y-192169D01*
X934904D01*
Y-191883D01*
X932900D01*
Y-191597D01*
X931754D01*
Y-191311D01*
X931182D01*
Y-191024D01*
X930323D01*
Y-190738D01*
X929750D01*
Y-190452D01*
X929464D01*
Y-190165D01*
X928891D01*
Y-189879D01*
X928605D01*
Y-189593D01*
X928319D01*
Y-189306D01*
X928032D01*
Y-189020D01*
X927746D01*
Y-188734D01*
X927460D01*
Y-188447D01*
Y-188161D01*
X927173D01*
Y-187875D01*
X926887D01*
Y-187588D01*
Y-187302D01*
X926601D01*
Y-187016D01*
Y-186730D01*
X926315D01*
Y-186443D01*
Y-186157D01*
X926028D01*
Y-185871D01*
Y-185584D01*
Y-185298D01*
X925742D01*
Y-185012D01*
Y-184725D01*
Y-184439D01*
Y-184153D01*
X925455D01*
Y-183866D01*
Y-183580D01*
Y-183294D01*
Y-183007D01*
Y-182721D01*
Y-182435D01*
Y-182149D01*
X925169D01*
Y-181862D01*
Y-181576D01*
Y-181290D01*
Y-181003D01*
Y-180717D01*
Y-180431D01*
Y-180144D01*
Y-179858D01*
Y-179572D01*
Y-179285D01*
Y-178999D01*
Y-178713D01*
Y-178426D01*
Y-178140D01*
Y-177854D01*
X924883D01*
Y-177568D01*
Y-177281D01*
Y-176995D01*
Y-176709D01*
Y-176422D01*
Y-176136D01*
Y-175850D01*
Y-175563D01*
Y-175277D01*
Y-174991D01*
Y-174704D01*
Y-174418D01*
Y-174132D01*
Y-173845D01*
Y-173559D01*
X924597D01*
Y-173273D01*
Y-172986D01*
Y-172700D01*
Y-172414D01*
Y-172127D01*
Y-171841D01*
Y-171555D01*
Y-171269D01*
Y-170982D01*
Y-170696D01*
Y-170410D01*
Y-170123D01*
Y-169837D01*
Y-169551D01*
Y-169264D01*
Y-168978D01*
X924310D01*
Y-168692D01*
Y-168405D01*
Y-168119D01*
Y-167833D01*
Y-167547D01*
Y-167260D01*
Y-166974D01*
Y-166688D01*
Y-166401D01*
Y-166115D01*
Y-165829D01*
Y-165542D01*
Y-165256D01*
Y-164970D01*
Y-164683D01*
Y-164397D01*
X924024D01*
Y-164111D01*
Y-163824D01*
Y-163538D01*
Y-163252D01*
Y-162966D01*
Y-162679D01*
Y-162393D01*
Y-162107D01*
Y-161820D01*
Y-161534D01*
Y-161248D01*
Y-160961D01*
Y-160675D01*
Y-160389D01*
X923738D01*
Y-160102D01*
Y-159816D01*
Y-159530D01*
Y-159244D01*
Y-158957D01*
Y-158671D01*
Y-158385D01*
Y-158098D01*
Y-157812D01*
Y-157526D01*
Y-157239D01*
Y-156953D01*
Y-156667D01*
Y-156380D01*
Y-156094D01*
Y-155808D01*
X923451D01*
Y-155521D01*
X937194D01*
Y-155808D01*
Y-156094D01*
Y-156380D01*
Y-156667D01*
Y-156953D01*
Y-157239D01*
Y-157526D01*
Y-157812D01*
Y-158098D01*
Y-158385D01*
Y-158671D01*
Y-158957D01*
Y-159244D01*
Y-159530D01*
X937481D01*
Y-159816D01*
Y-160102D01*
Y-160389D01*
Y-160675D01*
Y-160961D01*
Y-161248D01*
Y-161534D01*
Y-161820D01*
Y-162107D01*
Y-162393D01*
Y-162679D01*
Y-162966D01*
Y-163252D01*
Y-163538D01*
Y-163824D01*
Y-164111D01*
Y-164397D01*
Y-164683D01*
Y-164970D01*
Y-165256D01*
Y-165542D01*
Y-165829D01*
Y-166115D01*
Y-166401D01*
Y-166688D01*
Y-166974D01*
Y-167260D01*
Y-167547D01*
Y-167833D01*
Y-168119D01*
Y-168405D01*
Y-168692D01*
Y-168978D01*
Y-169264D01*
Y-169551D01*
Y-169837D01*
Y-170123D01*
Y-170410D01*
Y-170696D01*
Y-170982D01*
Y-171269D01*
X937767D01*
Y-171555D01*
X937481D01*
Y-171841D01*
Y-172127D01*
X937767D01*
Y-172414D01*
Y-172700D01*
Y-172986D01*
Y-173273D01*
Y-173559D01*
Y-173845D01*
Y-174132D01*
Y-174418D01*
Y-174704D01*
Y-174991D01*
Y-175277D01*
Y-175563D01*
Y-175850D01*
Y-176136D01*
Y-176422D01*
Y-176709D01*
Y-176995D01*
Y-177281D01*
Y-177568D01*
Y-177854D01*
Y-178140D01*
Y-178426D01*
Y-178713D01*
Y-178999D01*
Y-179285D01*
Y-179572D01*
X938053D01*
Y-179858D01*
Y-180144D01*
Y-180431D01*
X938340D01*
Y-180717D01*
X938626D01*
Y-181003D01*
X938912D01*
Y-181290D01*
X939771D01*
Y-181576D01*
X940630D01*
Y-181290D01*
X940916D01*
Y-181003D01*
Y-180717D01*
Y-180431D01*
X941203D01*
Y-180144D01*
Y-179858D01*
X941489D01*
Y-179572D01*
Y-179285D01*
Y-178999D01*
X941775D01*
Y-178713D01*
Y-178426D01*
Y-178140D01*
X942062D01*
Y-177854D01*
Y-177568D01*
Y-177281D01*
X942348D01*
Y-176995D01*
Y-176709D01*
Y-176422D01*
X942634D01*
Y-176136D01*
Y-175850D01*
X942921D01*
Y-175563D01*
Y-175277D01*
Y-174991D01*
X943207D01*
Y-174704D01*
Y-174418D01*
Y-174132D01*
X943493D01*
Y-173845D01*
Y-173559D01*
Y-173273D01*
X943780D01*
Y-172986D01*
Y-172700D01*
X944066D01*
Y-172414D01*
Y-172127D01*
Y-171841D01*
X944352D01*
Y-171555D01*
Y-171269D01*
Y-170982D01*
X944639D01*
Y-170696D01*
Y-170410D01*
Y-170123D01*
X944925D01*
Y-169837D01*
Y-169551D01*
X945211D01*
Y-169264D01*
Y-168978D01*
Y-168692D01*
X945497D01*
Y-168405D01*
Y-168119D01*
Y-167833D01*
X945784D01*
Y-167547D01*
Y-167260D01*
Y-166974D01*
X946070D01*
Y-166688D01*
Y-166401D01*
X946356D01*
Y-166115D01*
Y-165829D01*
Y-165542D01*
X946643D01*
Y-165256D01*
Y-164970D01*
Y-164683D01*
X946929D01*
Y-164397D01*
Y-164111D01*
Y-163824D01*
X947215D01*
Y-163538D01*
Y-163252D01*
Y-162966D01*
Y-162679D01*
X947502D01*
Y-162393D01*
Y-162107D01*
Y-161820D01*
Y-161534D01*
X947788D01*
Y-161248D01*
Y-160961D01*
Y-160675D01*
Y-160389D01*
Y-160102D01*
X948074D01*
Y-159816D01*
Y-159530D01*
Y-159244D01*
Y-158957D01*
Y-158671D01*
Y-158385D01*
X948361D01*
Y-158098D01*
Y-157812D01*
Y-157526D01*
Y-157239D01*
Y-156953D01*
Y-156667D01*
Y-156380D01*
Y-156094D01*
Y-155808D01*
Y-155521D01*
X961245D01*
Y-155808D01*
D02*
G37*
G36*
X903409Y-138343D02*
Y-138629D01*
X903123D01*
Y-138915D01*
Y-139202D01*
Y-139488D01*
Y-139774D01*
Y-140060D01*
Y-140347D01*
X902837D01*
Y-140633D01*
Y-140919D01*
Y-141206D01*
Y-141492D01*
Y-141778D01*
Y-142065D01*
X902551D01*
Y-142351D01*
Y-142637D01*
Y-142924D01*
Y-143210D01*
Y-143496D01*
Y-143783D01*
Y-144069D01*
X902264D01*
Y-144355D01*
Y-144641D01*
Y-144928D01*
Y-145214D01*
Y-145501D01*
Y-145787D01*
X901978D01*
Y-146073D01*
Y-146359D01*
Y-146646D01*
Y-146932D01*
Y-147218D01*
Y-147505D01*
X901692D01*
Y-147791D01*
Y-148077D01*
Y-148364D01*
Y-148650D01*
Y-148936D01*
Y-149223D01*
Y-149509D01*
X901405D01*
Y-149795D01*
Y-150082D01*
Y-150368D01*
Y-150654D01*
Y-150940D01*
Y-151227D01*
X901119D01*
Y-151513D01*
Y-151799D01*
Y-152086D01*
Y-152372D01*
Y-152658D01*
Y-152945D01*
X900833D01*
Y-153231D01*
Y-153517D01*
Y-153804D01*
Y-154090D01*
Y-154376D01*
Y-154663D01*
X900546D01*
Y-154949D01*
Y-155235D01*
Y-155521D01*
Y-155808D01*
Y-156094D01*
Y-156380D01*
Y-156667D01*
X900260D01*
Y-156953D01*
Y-157239D01*
Y-157526D01*
Y-157812D01*
Y-158098D01*
Y-158385D01*
X899974D01*
Y-158671D01*
Y-158957D01*
X900546D01*
Y-158671D01*
X900833D01*
Y-158385D01*
X901119D01*
Y-158098D01*
X901692D01*
Y-157812D01*
X901978D01*
Y-157526D01*
X902264D01*
Y-157239D01*
X902837D01*
Y-156953D01*
X903409D01*
Y-156667D01*
X903696D01*
Y-156380D01*
X904268D01*
Y-156094D01*
X905127D01*
Y-155808D01*
X905700D01*
Y-155521D01*
X906559D01*
Y-155235D01*
X907990D01*
Y-154949D01*
X914289D01*
Y-155235D01*
X915435D01*
Y-155521D01*
X916294D01*
Y-155808D01*
X916866D01*
Y-156094D01*
X917153D01*
Y-156380D01*
X917725D01*
Y-156667D01*
X918011D01*
Y-156953D01*
X918298D01*
Y-157239D01*
X918584D01*
Y-157526D01*
X918870D01*
Y-157812D01*
Y-158098D01*
X919157D01*
Y-158385D01*
Y-158671D01*
X919443D01*
Y-158957D01*
Y-159244D01*
Y-159530D01*
X919729D01*
Y-159816D01*
Y-160102D01*
Y-160389D01*
Y-160675D01*
X920016D01*
Y-160961D01*
Y-161248D01*
Y-161534D01*
Y-161820D01*
Y-162107D01*
Y-162393D01*
Y-162679D01*
Y-162966D01*
Y-163252D01*
Y-163538D01*
Y-163824D01*
Y-164111D01*
Y-164397D01*
Y-164683D01*
Y-164970D01*
Y-165256D01*
Y-165542D01*
Y-165829D01*
X919729D01*
Y-166115D01*
Y-166401D01*
Y-166688D01*
Y-166974D01*
Y-167260D01*
Y-167547D01*
Y-167833D01*
X919443D01*
Y-168119D01*
Y-168405D01*
Y-168692D01*
Y-168978D01*
Y-169264D01*
Y-169551D01*
Y-169837D01*
X919157D01*
Y-170123D01*
Y-170410D01*
Y-170696D01*
Y-170982D01*
Y-171269D01*
Y-171555D01*
X918870D01*
Y-171841D01*
Y-172127D01*
Y-172414D01*
Y-172700D01*
Y-172986D01*
Y-173273D01*
X918584D01*
Y-173559D01*
Y-173845D01*
Y-174132D01*
Y-174418D01*
Y-174704D01*
Y-174991D01*
X918298D01*
Y-175277D01*
Y-175563D01*
Y-175850D01*
Y-176136D01*
Y-176422D01*
Y-176709D01*
Y-176995D01*
X918011D01*
Y-177281D01*
Y-177568D01*
Y-177854D01*
Y-178140D01*
Y-178426D01*
Y-178713D01*
X917725D01*
Y-178999D01*
Y-179285D01*
Y-179572D01*
Y-179858D01*
Y-180144D01*
Y-180431D01*
X917439D01*
Y-180717D01*
Y-181003D01*
Y-181290D01*
Y-181576D01*
Y-181862D01*
Y-182149D01*
Y-182435D01*
X917153D01*
Y-182721D01*
Y-183007D01*
Y-183294D01*
Y-183580D01*
Y-183866D01*
Y-184153D01*
X916866D01*
Y-184439D01*
Y-184725D01*
Y-185012D01*
Y-185298D01*
Y-185584D01*
Y-185871D01*
X916580D01*
Y-186157D01*
Y-186443D01*
Y-186730D01*
Y-187016D01*
Y-187302D01*
Y-187588D01*
X916294D01*
Y-187875D01*
Y-188161D01*
Y-188447D01*
Y-188734D01*
Y-189020D01*
Y-189306D01*
Y-189593D01*
X916007D01*
Y-189879D01*
Y-190165D01*
Y-190452D01*
Y-190738D01*
Y-191024D01*
Y-191311D01*
X915721D01*
Y-191597D01*
Y-191883D01*
X902551D01*
Y-191597D01*
Y-191311D01*
X902837D01*
Y-191024D01*
Y-190738D01*
Y-190452D01*
Y-190165D01*
Y-189879D01*
Y-189593D01*
X903123D01*
Y-189306D01*
Y-189020D01*
Y-188734D01*
Y-188447D01*
Y-188161D01*
Y-187875D01*
Y-187588D01*
X903409D01*
Y-187302D01*
Y-187016D01*
Y-186730D01*
Y-186443D01*
Y-186157D01*
Y-185871D01*
X903696D01*
Y-185584D01*
Y-185298D01*
Y-185012D01*
Y-184725D01*
Y-184439D01*
Y-184153D01*
X903982D01*
Y-183866D01*
Y-183580D01*
Y-183294D01*
Y-183007D01*
Y-182721D01*
Y-182435D01*
Y-182149D01*
X904268D01*
Y-181862D01*
Y-181576D01*
Y-181290D01*
Y-181003D01*
Y-180717D01*
Y-180431D01*
X904555D01*
Y-180144D01*
Y-179858D01*
Y-179572D01*
Y-179285D01*
Y-178999D01*
Y-178713D01*
Y-178426D01*
X904841D01*
Y-178140D01*
Y-177854D01*
Y-177568D01*
Y-177281D01*
Y-176995D01*
Y-176709D01*
X905127D01*
Y-176422D01*
Y-176136D01*
Y-175850D01*
Y-175563D01*
Y-175277D01*
Y-174991D01*
X905414D01*
Y-174704D01*
Y-174418D01*
Y-174132D01*
Y-173845D01*
Y-173559D01*
Y-173273D01*
X905700D01*
Y-172986D01*
Y-172700D01*
Y-172414D01*
Y-172127D01*
Y-171841D01*
Y-171555D01*
Y-171269D01*
X905986D01*
Y-170982D01*
Y-170696D01*
Y-170410D01*
Y-170123D01*
Y-169837D01*
Y-169551D01*
X906273D01*
Y-169264D01*
Y-168978D01*
Y-168692D01*
Y-168405D01*
Y-168119D01*
Y-167833D01*
Y-167547D01*
X906559D01*
Y-167260D01*
Y-166974D01*
Y-166688D01*
Y-166401D01*
Y-166115D01*
Y-165829D01*
X906273D01*
Y-165542D01*
Y-165256D01*
X905986D01*
Y-164970D01*
X905700D01*
Y-164683D01*
X905127D01*
Y-164397D01*
X903409D01*
Y-164683D01*
X901978D01*
Y-164970D01*
X901119D01*
Y-165256D01*
X900546D01*
Y-165542D01*
X900260D01*
Y-165829D01*
X899687D01*
Y-166115D01*
X899401D01*
Y-166401D01*
X899115D01*
Y-166688D01*
Y-166974D01*
X898828D01*
Y-167260D01*
Y-167547D01*
Y-167833D01*
X898542D01*
Y-168119D01*
Y-168405D01*
Y-168692D01*
Y-168978D01*
Y-169264D01*
Y-169551D01*
X898256D01*
Y-169837D01*
Y-170123D01*
Y-170410D01*
Y-170696D01*
Y-170982D01*
Y-171269D01*
Y-171555D01*
X897970D01*
Y-171841D01*
Y-172127D01*
Y-172414D01*
Y-172700D01*
Y-172986D01*
Y-173273D01*
X897683D01*
Y-173559D01*
Y-173845D01*
Y-174132D01*
Y-174418D01*
Y-174704D01*
Y-174991D01*
X897397D01*
Y-175277D01*
Y-175563D01*
Y-175850D01*
Y-176136D01*
Y-176422D01*
Y-176709D01*
X897111D01*
Y-176995D01*
Y-177281D01*
Y-177568D01*
Y-177854D01*
Y-178140D01*
Y-178426D01*
Y-178713D01*
X896824D01*
Y-178999D01*
Y-179285D01*
Y-179572D01*
Y-179858D01*
Y-180144D01*
Y-180431D01*
X896538D01*
Y-180717D01*
Y-181003D01*
Y-181290D01*
Y-181576D01*
Y-181862D01*
Y-182149D01*
X896252D01*
Y-182435D01*
Y-182721D01*
Y-183007D01*
Y-183294D01*
Y-183580D01*
Y-183866D01*
Y-184153D01*
X895965D01*
Y-184439D01*
Y-184725D01*
Y-185012D01*
Y-185298D01*
Y-185584D01*
Y-185871D01*
X895679D01*
Y-186157D01*
Y-186443D01*
Y-186730D01*
Y-187016D01*
Y-187302D01*
Y-187588D01*
X895393D01*
Y-187875D01*
Y-188161D01*
Y-188447D01*
Y-188734D01*
Y-189020D01*
Y-189306D01*
X895106D01*
Y-189593D01*
Y-189879D01*
Y-190165D01*
Y-190452D01*
Y-190738D01*
Y-191024D01*
Y-191311D01*
X894820D01*
Y-191597D01*
Y-191883D01*
X881650D01*
Y-191597D01*
Y-191311D01*
X881936D01*
Y-191024D01*
Y-190738D01*
Y-190452D01*
Y-190165D01*
Y-189879D01*
Y-189593D01*
Y-189306D01*
X882222D01*
Y-189020D01*
Y-188734D01*
Y-188447D01*
Y-188161D01*
Y-187875D01*
Y-187588D01*
X882509D01*
Y-187302D01*
Y-187016D01*
Y-186730D01*
Y-186443D01*
Y-186157D01*
Y-185871D01*
X882795D01*
Y-185584D01*
Y-185298D01*
Y-185012D01*
Y-184725D01*
Y-184439D01*
Y-184153D01*
Y-183866D01*
X883081D01*
Y-183580D01*
Y-183294D01*
Y-183007D01*
Y-182721D01*
Y-182435D01*
Y-182149D01*
X883368D01*
Y-181862D01*
Y-181576D01*
Y-181290D01*
Y-181003D01*
Y-180717D01*
Y-180431D01*
X883654D01*
Y-180144D01*
Y-179858D01*
Y-179572D01*
Y-179285D01*
Y-178999D01*
Y-178713D01*
X883940D01*
Y-178426D01*
Y-178140D01*
Y-177854D01*
Y-177568D01*
Y-177281D01*
Y-176995D01*
Y-176709D01*
X884227D01*
Y-176422D01*
Y-176136D01*
Y-175850D01*
Y-175563D01*
Y-175277D01*
Y-174991D01*
X884513D01*
Y-174704D01*
Y-174418D01*
Y-174132D01*
Y-173845D01*
Y-173559D01*
Y-173273D01*
X884799D01*
Y-172986D01*
Y-172700D01*
Y-172414D01*
Y-172127D01*
Y-171841D01*
Y-171555D01*
Y-171269D01*
X885085D01*
Y-170982D01*
Y-170696D01*
Y-170410D01*
Y-170123D01*
Y-169837D01*
Y-169551D01*
X885372D01*
Y-169264D01*
Y-168978D01*
Y-168692D01*
Y-168405D01*
Y-168119D01*
Y-167833D01*
X885658D01*
Y-167547D01*
Y-167260D01*
Y-166974D01*
Y-166688D01*
Y-166401D01*
Y-166115D01*
X885944D01*
Y-165829D01*
Y-165542D01*
Y-165256D01*
Y-164970D01*
Y-164683D01*
Y-164397D01*
Y-164111D01*
X886231D01*
Y-163824D01*
Y-163538D01*
Y-163252D01*
Y-162966D01*
Y-162679D01*
Y-162393D01*
X886517D01*
Y-162107D01*
Y-161820D01*
Y-161534D01*
Y-161248D01*
Y-160961D01*
Y-160675D01*
X886803D01*
Y-160389D01*
Y-160102D01*
Y-159816D01*
Y-159530D01*
Y-159244D01*
Y-158957D01*
X887090D01*
Y-158671D01*
Y-158385D01*
Y-158098D01*
Y-157812D01*
Y-157526D01*
Y-157239D01*
Y-156953D01*
X887376D01*
Y-156667D01*
Y-156380D01*
Y-156094D01*
Y-155808D01*
Y-155521D01*
Y-155235D01*
X887662D01*
Y-154949D01*
Y-154663D01*
Y-154376D01*
Y-154090D01*
Y-153804D01*
Y-153517D01*
X887949D01*
Y-153231D01*
Y-152945D01*
Y-152658D01*
Y-152372D01*
Y-152086D01*
Y-151799D01*
Y-151513D01*
X888235D01*
Y-151227D01*
Y-150940D01*
Y-150654D01*
Y-150368D01*
Y-150082D01*
Y-149795D01*
X888521D01*
Y-149509D01*
Y-149223D01*
Y-148936D01*
Y-148650D01*
Y-148364D01*
Y-148077D01*
X888807D01*
Y-147791D01*
Y-147505D01*
Y-147218D01*
Y-146932D01*
Y-146646D01*
Y-146359D01*
X889094D01*
Y-146073D01*
Y-145787D01*
Y-145501D01*
Y-145214D01*
Y-144928D01*
Y-144641D01*
Y-144355D01*
X889380D01*
Y-144069D01*
Y-143783D01*
Y-143496D01*
Y-143210D01*
Y-142924D01*
Y-142637D01*
X889666D01*
Y-142351D01*
Y-142065D01*
Y-141778D01*
Y-141492D01*
Y-141206D01*
Y-140919D01*
X889953D01*
Y-140633D01*
Y-140347D01*
Y-140060D01*
Y-139774D01*
Y-139488D01*
Y-139202D01*
Y-138915D01*
X890239D01*
Y-138629D01*
Y-138343D01*
Y-138056D01*
X903409D01*
Y-138343D01*
D02*
G37*
%LPC*%
G36*
X21094Y39372D02*
X21092Y39372D01*
X21115Y38927D01*
X21138Y38479D01*
X21162Y38033D01*
X21164Y38033D01*
X21141Y38479D01*
X21117Y38927D01*
X21094Y39372D01*
D02*
G37*
G36*
X24138Y40864D02*
X21915Y40748D01*
X21938Y40312D01*
X21493Y40289D01*
X21516Y39841D01*
X21539Y39395D01*
X21563Y38950D01*
X21586Y38502D01*
X21610Y38057D01*
X21633Y37614D01*
X22526Y37661D01*
X22503Y38104D01*
X22479Y38549D01*
X23809Y38619D01*
X23832Y38173D01*
X23855Y37730D01*
X24748Y37777D01*
X24725Y38220D01*
X24702Y38666D01*
X24678Y39113D01*
X24655Y39559D01*
X24632Y40004D01*
X24608Y40452D01*
X24160Y40428D01*
X24138Y40864D01*
D02*
G37*
G36*
X20579Y40678D02*
X17463Y40515D01*
X17486Y40079D01*
X17510Y39631D01*
X17533Y39185D01*
X17556Y38740D01*
X17580Y38292D01*
X17603Y37847D01*
X17626Y37404D01*
X20742Y37567D01*
X20719Y38010D01*
X18496Y37894D01*
X18473Y38339D01*
X18450Y38787D01*
X20224Y38880D01*
X20201Y39325D01*
X18426Y39232D01*
X18403Y39678D01*
X18379Y40126D01*
X20602Y40242D01*
X20579Y40678D01*
D02*
G37*
G36*
X16125Y40444D02*
X13457Y40305D01*
X13480Y39869D01*
X13503Y39421D01*
X13526Y38976D01*
X13550Y38530D01*
X13573Y38082D01*
X13597Y37637D01*
X13620Y37194D01*
X14513Y37241D01*
X14490Y37684D01*
X14466Y38129D01*
X14443Y38577D01*
X15772Y38647D01*
X15796Y38199D01*
X15819Y37753D01*
X15842Y37310D01*
X16735Y37357D01*
X16712Y37800D01*
X16689Y38245D01*
X16665Y38693D01*
X16218Y38670D01*
X16194Y39115D01*
X16642Y39139D01*
X16619Y39584D01*
X16595Y40032D01*
X16148Y40009D01*
X16125Y40444D01*
D02*
G37*
G36*
X12118Y40235D02*
X9896Y40118D01*
X9918Y39682D01*
X9473Y39659D01*
X9497Y39211D01*
X9520Y38765D01*
X9543Y38320D01*
X9567Y37872D01*
X9590Y37427D01*
X9613Y36984D01*
X10507Y37031D01*
X10483Y37474D01*
X10460Y37919D01*
X11789Y37989D01*
X11812Y37543D01*
X11836Y37100D01*
X12729Y37147D01*
X12706Y37590D01*
X12682Y38036D01*
X12659Y38483D01*
X12636Y38929D01*
X12612Y39374D01*
X12589Y39822D01*
X12141Y39799D01*
X12118Y40235D01*
D02*
G37*
%LPD*%
G36*
X23739Y39957D02*
X23762Y39512D01*
X23785Y39066D01*
X22456Y38997D01*
X22433Y39442D01*
X22409Y39888D01*
X22386Y40335D01*
X23715Y40405D01*
X23739Y39957D01*
D02*
G37*
G36*
X15725Y39537D02*
X15749Y39092D01*
X14420Y39022D01*
X14396Y39468D01*
X14373Y39915D01*
X15702Y39985D01*
X15725Y39537D01*
D02*
G37*
G36*
X11719Y39327D02*
X11742Y38882D01*
X11766Y38436D01*
X10436Y38367D01*
X10413Y38812D01*
X10390Y39258D01*
X10366Y39706D01*
X11695Y39775D01*
X11719Y39327D01*
D02*
G37*
%LPC*%
G36*
X40536Y41724D02*
X39654Y41678D01*
X39677Y41242D01*
X39230Y41218D01*
X39253Y40770D01*
X39701Y40794D01*
X39724Y40348D01*
X39748Y39903D01*
X39771Y39455D01*
X39794Y39010D01*
X38901Y38963D01*
X38924Y38520D01*
X41592Y38660D01*
X41569Y39103D01*
X40676Y39056D01*
X40652Y39501D01*
X40629Y39949D01*
X40606Y40395D01*
X40582Y40840D01*
X40559Y41288D01*
X40536Y41724D01*
D02*
G37*
G36*
X29410Y41141D02*
X27187Y41024D01*
X27210Y40588D01*
X26765Y40565D01*
X26788Y40117D01*
X27681Y40164D01*
X27658Y40612D01*
X28987Y40681D01*
X29011Y40234D01*
X29034Y39788D01*
X28141Y39741D01*
X28164Y39296D01*
X29057Y39343D01*
X29081Y38895D01*
X29104Y38449D01*
X27775Y38380D01*
X27751Y38825D01*
X26858Y38778D01*
X26882Y38333D01*
X27327Y38356D01*
X27350Y37913D01*
X29573Y38030D01*
X29550Y38473D01*
X29997Y38496D01*
X29974Y38942D01*
X29950Y39390D01*
X29503Y39366D01*
X29479Y39812D01*
X29927Y39835D01*
X29904Y40280D01*
X29880Y40728D01*
X29432Y40705D01*
X29410Y41141D01*
D02*
G37*
G36*
X37423Y41561D02*
X35200Y41444D01*
X35223Y41008D01*
X34778Y40985D01*
X34801Y40537D01*
X34824Y40092D01*
X34848Y39646D01*
X34871Y39198D01*
X34895Y38753D01*
X35340Y38776D01*
X35363Y38333D01*
X37586Y38450D01*
X37563Y38893D01*
X38010Y38916D01*
X37987Y39362D01*
X37964Y39810D01*
X37940Y40255D01*
X37917Y40700D01*
X37893Y41148D01*
X37446Y41125D01*
X37423Y41561D01*
D02*
G37*
G36*
X33416Y41351D02*
X31194Y41234D01*
X31217Y40798D01*
X30771Y40775D01*
X30795Y40327D01*
X30818Y39882D01*
X30841Y39436D01*
X30865Y38989D01*
X30888Y38543D01*
X31334Y38566D01*
X31357Y38123D01*
X33579Y38240D01*
X33556Y38683D01*
X34004Y38706D01*
X33980Y39152D01*
X33957Y39599D01*
X33934Y40045D01*
X33910Y40490D01*
X33887Y40938D01*
X33439Y40915D01*
X33416Y41351D01*
D02*
G37*
%LPD*%
G36*
X37024Y40654D02*
X36576Y40630D01*
X36599Y40185D01*
X36154Y40161D01*
X36177Y39716D01*
X35741Y39693D01*
X35718Y40139D01*
X35694Y40584D01*
X35671Y41032D01*
X37000Y41101D01*
X37024Y40654D01*
D02*
G37*
G36*
X37070Y39763D02*
X37094Y39315D01*
X37117Y38870D01*
X35788Y38800D01*
X35765Y39245D01*
X36200Y39268D01*
X36177Y39716D01*
X36623Y39739D01*
X36599Y40185D01*
X37047Y40208D01*
X37070Y39763D01*
D02*
G37*
G36*
X33017Y40444D02*
X32569Y40420D01*
X32593Y39975D01*
X32147Y39951D01*
X32171Y39506D01*
X31735Y39483D01*
X31711Y39928D01*
X31688Y40374D01*
X31664Y40822D01*
X32994Y40891D01*
X33017Y40444D01*
D02*
G37*
G36*
X33064Y39553D02*
X33087Y39105D01*
X33111Y38660D01*
X31781Y38590D01*
X31758Y39035D01*
X32194Y39058D01*
X32171Y39506D01*
X32616Y39529D01*
X32593Y39975D01*
X33040Y39998D01*
X33064Y39553D01*
D02*
G37*
%LPC*%
G36*
X36214Y33740D02*
X35370D01*
Y31269D01*
X36240D01*
X36272Y31273D01*
X36312D01*
X36364Y31280D01*
X36422Y31287D01*
X36487Y31298D01*
X36556Y31309D01*
X36633Y31327D01*
X36709Y31349D01*
X36789Y31378D01*
X36869Y31407D01*
X36946Y31447D01*
X37026Y31491D01*
X37099Y31542D01*
X37168Y31600D01*
X37172Y31604D01*
X37183Y31615D01*
X37201Y31637D01*
X37222Y31662D01*
X37252Y31695D01*
X37281Y31735D01*
X37314Y31786D01*
X37346Y31840D01*
X37379Y31902D01*
X37412Y31968D01*
X37441Y32044D01*
X37470Y32124D01*
X37492Y32212D01*
X37510Y32303D01*
X37521Y32401D01*
X37525Y32506D01*
Y32514D01*
Y32532D01*
X37521Y32561D01*
Y32601D01*
X37514Y32649D01*
X37506Y32703D01*
X37495Y32765D01*
X37481Y32831D01*
X37463Y32903D01*
X37437Y32976D01*
X37408Y33049D01*
X37375Y33125D01*
X37332Y33198D01*
X37284Y33271D01*
X37230Y33340D01*
X37168Y33406D01*
X37164Y33409D01*
X37153Y33420D01*
X37132Y33438D01*
X37102Y33457D01*
X37066Y33482D01*
X37022Y33511D01*
X36971Y33540D01*
X36917Y33573D01*
X36851Y33606D01*
X36778Y33635D01*
X36698Y33664D01*
X36615Y33689D01*
X36524Y33711D01*
X36425Y33726D01*
X36323Y33737D01*
X36214Y33740D01*
D02*
G37*
G36*
X23419D02*
X22575D01*
Y31269D01*
X23444D01*
X23477Y31273D01*
X23517D01*
X23568Y31280D01*
X23626Y31287D01*
X23692Y31298D01*
X23761Y31309D01*
X23837Y31327D01*
X23914Y31349D01*
X23994Y31378D01*
X24074Y31407D01*
X24151Y31447D01*
X24231Y31491D01*
X24304Y31542D01*
X24373Y31600D01*
X24376Y31604D01*
X24387Y31615D01*
X24405Y31637D01*
X24427Y31662D01*
X24456Y31695D01*
X24486Y31735D01*
X24518Y31786D01*
X24551Y31840D01*
X24584Y31902D01*
X24617Y31968D01*
X24646Y32044D01*
X24675Y32124D01*
X24697Y32212D01*
X24715Y32303D01*
X24726Y32401D01*
X24729Y32506D01*
Y32514D01*
Y32532D01*
X24726Y32561D01*
Y32601D01*
X24718Y32649D01*
X24711Y32703D01*
X24700Y32765D01*
X24686Y32831D01*
X24667Y32903D01*
X24642Y32976D01*
X24613Y33049D01*
X24580Y33125D01*
X24536Y33198D01*
X24489Y33271D01*
X24434Y33340D01*
X24373Y33406D01*
X24369Y33409D01*
X24358Y33420D01*
X24336Y33438D01*
X24307Y33457D01*
X24271Y33482D01*
X24227Y33511D01*
X24176Y33540D01*
X24122Y33573D01*
X24056Y33606D01*
X23983Y33635D01*
X23903Y33664D01*
X23819Y33689D01*
X23728Y33711D01*
X23630Y33726D01*
X23528Y33737D01*
X23419Y33740D01*
D02*
G37*
G36*
X10624D02*
X9779D01*
Y31269D01*
X10649D01*
X10682Y31273D01*
X10722D01*
X10773Y31280D01*
X10831Y31287D01*
X10897Y31298D01*
X10966Y31309D01*
X11042Y31327D01*
X11119Y31349D01*
X11199Y31378D01*
X11279Y31407D01*
X11355Y31447D01*
X11435Y31491D01*
X11508Y31542D01*
X11577Y31600D01*
X11581Y31604D01*
X11592Y31615D01*
X11610Y31637D01*
X11632Y31662D01*
X11661Y31695D01*
X11690Y31735D01*
X11723Y31786D01*
X11756Y31840D01*
X11789Y31902D01*
X11821Y31968D01*
X11850Y32044D01*
X11880Y32124D01*
X11901Y32212D01*
X11919Y32303D01*
X11930Y32401D01*
X11934Y32506D01*
Y32514D01*
Y32532D01*
X11930Y32561D01*
Y32601D01*
X11923Y32649D01*
X11916Y32703D01*
X11905Y32765D01*
X11890Y32831D01*
X11872Y32903D01*
X11847Y32976D01*
X11818Y33049D01*
X11785Y33125D01*
X11741Y33198D01*
X11694Y33271D01*
X11639Y33340D01*
X11577Y33406D01*
X11574Y33409D01*
X11563Y33420D01*
X11541Y33438D01*
X11512Y33457D01*
X11475Y33482D01*
X11432Y33511D01*
X11381Y33540D01*
X11326Y33573D01*
X11261Y33606D01*
X11188Y33635D01*
X11108Y33664D01*
X11024Y33689D01*
X10933Y33711D01*
X10835Y33726D01*
X10733Y33737D01*
X10624Y33740D01*
D02*
G37*
G36*
X3222Y31478D02*
X3219D01*
X3216D01*
X3196D01*
X3167D01*
X3124Y31475D01*
X3078Y31472D01*
X3019Y31468D01*
X2960Y31462D01*
X2891Y31455D01*
X2822Y31445D01*
X2750Y31432D01*
X2678Y31419D01*
X2606Y31400D01*
X2533Y31376D01*
X2468Y31354D01*
X2406Y31324D01*
X2350Y31291D01*
X2347Y31288D01*
X2337Y31281D01*
X2324Y31272D01*
X2307Y31258D01*
X2284Y31239D01*
X2261Y31216D01*
X2235Y31186D01*
X2209Y31157D01*
X2183Y31121D01*
X2156Y31081D01*
X2133Y31039D01*
X2110Y30993D01*
X2094Y30944D01*
X2081Y30891D01*
X2071Y30832D01*
X2068Y30773D01*
Y30760D01*
X2071Y30744D01*
Y30720D01*
X2077Y30694D01*
X2084Y30661D01*
X2091Y30625D01*
X2104Y30589D01*
X2117Y30550D01*
X2137Y30507D01*
X2159Y30465D01*
X2186Y30422D01*
X2219Y30379D01*
X2258Y30337D01*
X2301Y30297D01*
X2350Y30261D01*
X2353Y30258D01*
X2363Y30255D01*
X2379Y30245D01*
X2402Y30232D01*
X2432Y30219D01*
X2471Y30202D01*
X2514Y30186D01*
X2563Y30169D01*
X2622Y30150D01*
X2688Y30133D01*
X2760Y30117D01*
X2835Y30104D01*
X2924Y30091D01*
X3016Y30081D01*
X3114Y30078D01*
X3222Y30074D01*
X3229D01*
X3249D01*
X3278D01*
X3317Y30078D01*
X3367Y30081D01*
X3426Y30084D01*
X3485Y30091D01*
X3554Y30097D01*
X3622Y30107D01*
X3695Y30120D01*
X3767Y30137D01*
X3842Y30153D01*
X3911Y30176D01*
X3980Y30199D01*
X4042Y30229D01*
X4098Y30261D01*
X4101Y30265D01*
X4111Y30271D01*
X4124Y30281D01*
X4141Y30297D01*
X4164Y30314D01*
X4187Y30340D01*
X4213Y30366D01*
X4239Y30396D01*
X4265Y30432D01*
X4292Y30471D01*
X4315Y30511D01*
X4337Y30556D01*
X4354Y30606D01*
X4367Y30658D01*
X4377Y30714D01*
X4380Y30773D01*
Y30786D01*
X4377Y30806D01*
Y30829D01*
X4370Y30855D01*
X4364Y30888D01*
X4357Y30924D01*
X4344Y30963D01*
X4331Y31003D01*
X4311Y31045D01*
X4288Y31088D01*
X4262Y31130D01*
X4229Y31173D01*
X4190Y31216D01*
X4147Y31255D01*
X4098Y31291D01*
X4095Y31295D01*
X4085Y31298D01*
X4069Y31308D01*
X4045Y31321D01*
X4013Y31334D01*
X3977Y31350D01*
X3934Y31367D01*
X3881Y31386D01*
X3822Y31403D01*
X3760Y31419D01*
X3688Y31436D01*
X3609Y31449D01*
X3521Y31462D01*
X3429Y31472D01*
X3331Y31475D01*
X3222Y31478D01*
D02*
G37*
G36*
Y27992D02*
X3219D01*
X3216D01*
X3196D01*
X3167D01*
X3124Y27988D01*
X3078Y27985D01*
X3019Y27982D01*
X2960Y27975D01*
X2891Y27969D01*
X2822Y27959D01*
X2750Y27946D01*
X2678Y27933D01*
X2606Y27913D01*
X2533Y27890D01*
X2468Y27867D01*
X2406Y27837D01*
X2350Y27805D01*
X2347Y27801D01*
X2337Y27795D01*
X2324Y27785D01*
X2307Y27772D01*
X2284Y27752D01*
X2261Y27729D01*
X2235Y27700D01*
X2209Y27670D01*
X2183Y27634D01*
X2156Y27595D01*
X2133Y27552D01*
X2110Y27506D01*
X2094Y27457D01*
X2081Y27404D01*
X2071Y27345D01*
X2068Y27286D01*
Y27273D01*
X2071Y27257D01*
Y27234D01*
X2077Y27208D01*
X2084Y27175D01*
X2091Y27139D01*
X2104Y27103D01*
X2117Y27063D01*
X2137Y27021D01*
X2159Y26978D01*
X2186Y26935D01*
X2219Y26893D01*
X2258Y26850D01*
X2301Y26811D01*
X2350Y26775D01*
X2353Y26771D01*
X2363Y26768D01*
X2379Y26758D01*
X2402Y26745D01*
X2432Y26732D01*
X2471Y26716D01*
X2514Y26699D01*
X2563Y26683D01*
X2622Y26663D01*
X2688Y26647D01*
X2760Y26630D01*
X2835Y26617D01*
X2924Y26604D01*
X3016Y26594D01*
X3114Y26591D01*
X3222Y26588D01*
X3229D01*
X3249D01*
X3278D01*
X3317Y26591D01*
X3367Y26594D01*
X3426Y26598D01*
X3485Y26604D01*
X3554Y26611D01*
X3622Y26621D01*
X3695Y26634D01*
X3767Y26650D01*
X3842Y26667D01*
X3911Y26689D01*
X3980Y26712D01*
X4042Y26742D01*
X4098Y26775D01*
X4101Y26778D01*
X4111Y26785D01*
X4124Y26794D01*
X4141Y26811D01*
X4164Y26827D01*
X4187Y26853D01*
X4213Y26880D01*
X4239Y26909D01*
X4265Y26945D01*
X4292Y26985D01*
X4315Y27024D01*
X4337Y27070D01*
X4354Y27119D01*
X4367Y27172D01*
X4377Y27227D01*
X4380Y27286D01*
Y27299D01*
X4377Y27319D01*
Y27342D01*
X4370Y27368D01*
X4364Y27401D01*
X4357Y27437D01*
X4344Y27477D01*
X4331Y27516D01*
X4311Y27559D01*
X4288Y27601D01*
X4262Y27644D01*
X4229Y27687D01*
X4190Y27729D01*
X4147Y27768D01*
X4098Y27805D01*
X4095Y27808D01*
X4085Y27811D01*
X4069Y27821D01*
X4045Y27834D01*
X4013Y27847D01*
X3977Y27864D01*
X3934Y27880D01*
X3881Y27900D01*
X3822Y27916D01*
X3760Y27933D01*
X3688Y27949D01*
X3609Y27962D01*
X3521Y27975D01*
X3429Y27985D01*
X3331Y27988D01*
X3222Y27992D01*
D02*
G37*
G36*
X3399Y18758D02*
X3396D01*
X3386Y18755D01*
X3373D01*
X3357Y18749D01*
X3334Y18745D01*
X3308Y18735D01*
X3249Y18716D01*
X3183Y18686D01*
X3111Y18647D01*
X3042Y18594D01*
X3009Y18565D01*
X2980Y18532D01*
X2976Y18529D01*
X2973Y18522D01*
X2966Y18512D01*
X2953Y18499D01*
X2943Y18483D01*
X2930Y18460D01*
X2914Y18434D01*
X2901Y18407D01*
X2871Y18342D01*
X2845Y18266D01*
X2829Y18178D01*
X2825Y18132D01*
X2822Y18083D01*
Y18056D01*
X2825Y18037D01*
Y18014D01*
X2829Y17988D01*
X2842Y17922D01*
X2858Y17850D01*
X2888Y17774D01*
X2924Y17696D01*
X2950Y17660D01*
X2976Y17624D01*
X2980Y17620D01*
X2983Y17617D01*
X2993Y17607D01*
X3006Y17594D01*
X3019Y17581D01*
X3039Y17564D01*
X3088Y17525D01*
X3147Y17489D01*
X3219Y17450D01*
X3304Y17420D01*
X3350Y17407D01*
X3399Y17397D01*
Y18758D01*
D02*
G37*
G36*
X2730Y15364D02*
X2727D01*
X2717D01*
X2701D01*
X2681Y15360D01*
X2655Y15357D01*
X2625Y15354D01*
X2560Y15341D01*
X2484Y15314D01*
X2445Y15301D01*
X2409Y15282D01*
X2369Y15259D01*
X2333Y15232D01*
X2301Y15203D01*
X2268Y15167D01*
X2265Y15164D01*
X2261Y15157D01*
X2251Y15147D01*
X2241Y15131D01*
X2228Y15111D01*
X2215Y15085D01*
X2202Y15055D01*
X2186Y15022D01*
X2169Y14986D01*
X2156Y14944D01*
X2143Y14898D01*
X2130Y14845D01*
X2120Y14790D01*
X2110Y14730D01*
X2107Y14668D01*
X2104Y14599D01*
Y13920D01*
X3357D01*
Y14635D01*
X3353Y14662D01*
X3350Y14691D01*
X3347Y14727D01*
X3344Y14767D01*
X3337Y14809D01*
X3317Y14901D01*
X3288Y14996D01*
X3268Y15042D01*
X3245Y15088D01*
X3222Y15127D01*
X3193Y15167D01*
X3190Y15170D01*
X3186Y15177D01*
X3176Y15187D01*
X3163Y15196D01*
X3147Y15213D01*
X3124Y15229D01*
X3101Y15246D01*
X3075Y15265D01*
X3042Y15285D01*
X3009Y15301D01*
X2970Y15318D01*
X2927Y15334D01*
X2884Y15344D01*
X2835Y15354D01*
X2786Y15360D01*
X2730Y15364D01*
D02*
G37*
G36*
X47277Y10962D02*
X47257Y10958D01*
X47237Y10954D01*
X47216Y10950D01*
X47196Y10947D01*
X47176Y10943D01*
X47156Y10939D01*
X47135Y10935D01*
X47115Y10931D01*
X47095Y10927D01*
X47075Y10923D01*
X47054Y10919D01*
X47058Y10899D01*
X47038Y10895D01*
X47018Y10891D01*
X47022Y10871D01*
X47002Y10867D01*
X46981Y10863D01*
X46985Y10842D01*
X46965Y10838D01*
X46969Y10818D01*
X46949Y10814D01*
X46957Y10774D01*
X46937Y10770D01*
X47047Y10203D01*
X47067Y10207D01*
X47087Y10211D01*
X47107Y10215D01*
X47128Y10219D01*
X47148Y10223D01*
X47152Y10203D01*
X47172Y10207D01*
X47192Y10210D01*
X47212Y10215D01*
X47233Y10218D01*
X47253Y10222D01*
X47273Y10226D01*
X47277Y10206D01*
X47297Y10210D01*
X47318Y10214D01*
X47338Y10218D01*
X47358Y10222D01*
X47378Y10226D01*
X47399Y10230D01*
X47403Y10209D01*
X47423Y10213D01*
X47443Y10217D01*
X47463Y10221D01*
X47484Y10225D01*
X47504Y10229D01*
X47524Y10233D01*
X47528Y10213D01*
X47548Y10217D01*
X47568Y10221D01*
X47589Y10225D01*
X47609Y10228D01*
X47629Y10232D01*
X47649Y10236D01*
X47670Y10240D01*
X47673Y10220D01*
X47694Y10224D01*
X47714Y10228D01*
X47734Y10232D01*
X47754Y10236D01*
X47775Y10240D01*
X47795Y10244D01*
X47799Y10223D01*
X47819Y10227D01*
X47839Y10231D01*
X47860Y10235D01*
X47761Y10741D01*
X47741Y10737D01*
X47725Y10818D01*
X47705Y10814D01*
X47697Y10855D01*
X47677Y10851D01*
X47673Y10871D01*
X47653Y10867D01*
X47649Y10887D01*
X47629Y10883D01*
X47625Y10904D01*
X47604Y10900D01*
X47600Y10920D01*
X47580Y10916D01*
X47560Y10912D01*
X47556Y10932D01*
X47536Y10928D01*
X47516Y10925D01*
X47512Y10945D01*
X47491Y10941D01*
X47471Y10937D01*
X47467Y10957D01*
X47447Y10953D01*
X47427Y10949D01*
X47407Y10945D01*
X47386Y10941D01*
X47382Y10962D01*
X47362Y10958D01*
X47342Y10954D01*
X47322Y10950D01*
X47301Y10946D01*
X47281Y10942D01*
X47277Y10962D01*
D02*
G37*
G36*
X40684Y6730D02*
X40600D01*
X40579Y6727D01*
X40553D01*
X40524Y6723D01*
X40455Y6708D01*
X40375Y6690D01*
X40291Y6661D01*
X40207Y6617D01*
X40167Y6592D01*
X40131Y6563D01*
X40127Y6559D01*
X40124Y6556D01*
X40113Y6545D01*
X40102Y6534D01*
X40069Y6497D01*
X40036Y6446D01*
X40000Y6385D01*
X39967Y6312D01*
X39945Y6228D01*
X39942Y6181D01*
X39938Y6133D01*
Y6130D01*
Y6123D01*
Y6108D01*
X39942Y6090D01*
X39945Y6068D01*
X39949Y6042D01*
X39960Y5980D01*
X39982Y5915D01*
X40018Y5842D01*
X40036Y5806D01*
X40062Y5769D01*
X40091Y5737D01*
X40124Y5704D01*
X40127D01*
X40131Y5697D01*
X40142Y5689D01*
X40160Y5678D01*
X40178Y5667D01*
X40200Y5653D01*
X40229Y5638D01*
X40258Y5624D01*
X40295Y5606D01*
X40335Y5591D01*
X40375Y5576D01*
X40422Y5565D01*
X40524Y5547D01*
X40582Y5544D01*
X40641Y5540D01*
X40670D01*
X40688Y5544D01*
X40713D01*
X40742Y5547D01*
X40811Y5562D01*
X40888Y5580D01*
X40968Y5609D01*
X41048Y5649D01*
X41085Y5671D01*
X41121Y5700D01*
X41125Y5704D01*
X41128Y5708D01*
X41150Y5729D01*
X41179Y5766D01*
X41216Y5813D01*
X41248Y5875D01*
X41278Y5951D01*
X41299Y6035D01*
X41303Y6082D01*
X41307Y6133D01*
Y6137D01*
Y6144D01*
Y6159D01*
X41303Y6177D01*
X41299Y6202D01*
X41296Y6228D01*
X41285Y6290D01*
X41263Y6359D01*
X41230Y6432D01*
X41208Y6468D01*
X41183Y6501D01*
X41154Y6534D01*
X41121Y6566D01*
X41117Y6570D01*
X41114Y6574D01*
X41103Y6581D01*
X41088Y6592D01*
X41070Y6603D01*
X41045Y6617D01*
X41019Y6632D01*
X40990Y6650D01*
X40921Y6679D01*
X40837Y6705D01*
X40739Y6723D01*
X40684Y6730D01*
D02*
G37*
G36*
X36214Y8150D02*
X35370D01*
Y5678D01*
X36240D01*
X36272Y5682D01*
X36312D01*
X36364Y5689D01*
X36422Y5697D01*
X36487Y5708D01*
X36556Y5718D01*
X36633Y5737D01*
X36709Y5759D01*
X36789Y5788D01*
X36869Y5817D01*
X36946Y5857D01*
X37026Y5900D01*
X37099Y5951D01*
X37168Y6010D01*
X37172Y6013D01*
X37183Y6024D01*
X37201Y6046D01*
X37222Y6072D01*
X37252Y6104D01*
X37281Y6144D01*
X37314Y6195D01*
X37346Y6250D01*
X37379Y6312D01*
X37412Y6377D01*
X37441Y6454D01*
X37470Y6534D01*
X37492Y6621D01*
X37510Y6712D01*
X37521Y6810D01*
X37525Y6916D01*
Y6923D01*
Y6942D01*
X37521Y6971D01*
Y7011D01*
X37514Y7058D01*
X37506Y7113D01*
X37495Y7174D01*
X37481Y7240D01*
X37463Y7313D01*
X37437Y7385D01*
X37408Y7458D01*
X37375Y7535D01*
X37332Y7608D01*
X37284Y7680D01*
X37230Y7750D01*
X37168Y7815D01*
X37164Y7819D01*
X37153Y7830D01*
X37132Y7848D01*
X37102Y7866D01*
X37066Y7891D01*
X37022Y7921D01*
X36971Y7950D01*
X36917Y7982D01*
X36851Y8015D01*
X36778Y8044D01*
X36698Y8073D01*
X36615Y8099D01*
X36524Y8121D01*
X36425Y8135D01*
X36323Y8146D01*
X36214Y8150D01*
D02*
G37*
G36*
X23419D02*
X22575D01*
Y5678D01*
X23444D01*
X23477Y5682D01*
X23517D01*
X23568Y5689D01*
X23626Y5697D01*
X23692Y5708D01*
X23761Y5718D01*
X23837Y5737D01*
X23914Y5759D01*
X23994Y5788D01*
X24074Y5817D01*
X24151Y5857D01*
X24231Y5900D01*
X24304Y5951D01*
X24373Y6010D01*
X24376Y6013D01*
X24387Y6024D01*
X24405Y6046D01*
X24427Y6072D01*
X24456Y6104D01*
X24486Y6144D01*
X24518Y6195D01*
X24551Y6250D01*
X24584Y6312D01*
X24617Y6377D01*
X24646Y6454D01*
X24675Y6534D01*
X24697Y6621D01*
X24715Y6712D01*
X24726Y6810D01*
X24729Y6916D01*
Y6923D01*
Y6942D01*
X24726Y6971D01*
Y7011D01*
X24718Y7058D01*
X24711Y7113D01*
X24700Y7174D01*
X24686Y7240D01*
X24667Y7313D01*
X24642Y7385D01*
X24613Y7458D01*
X24580Y7535D01*
X24536Y7608D01*
X24489Y7680D01*
X24434Y7750D01*
X24373Y7815D01*
X24369Y7819D01*
X24358Y7830D01*
X24336Y7848D01*
X24307Y7866D01*
X24271Y7891D01*
X24227Y7921D01*
X24176Y7950D01*
X24122Y7982D01*
X24056Y8015D01*
X23983Y8044D01*
X23903Y8073D01*
X23819Y8099D01*
X23728Y8121D01*
X23630Y8135D01*
X23528Y8146D01*
X23419Y8150D01*
D02*
G37*
G36*
X10624D02*
X9779D01*
Y5678D01*
X10649D01*
X10682Y5682D01*
X10722D01*
X10773Y5689D01*
X10831Y5697D01*
X10897Y5708D01*
X10966Y5718D01*
X11042Y5737D01*
X11119Y5759D01*
X11199Y5788D01*
X11279Y5817D01*
X11355Y5857D01*
X11435Y5900D01*
X11508Y5951D01*
X11577Y6010D01*
X11581Y6013D01*
X11592Y6024D01*
X11610Y6046D01*
X11632Y6072D01*
X11661Y6104D01*
X11690Y6144D01*
X11723Y6195D01*
X11756Y6250D01*
X11789Y6312D01*
X11821Y6377D01*
X11850Y6454D01*
X11880Y6534D01*
X11901Y6621D01*
X11919Y6712D01*
X11930Y6810D01*
X11934Y6916D01*
Y6923D01*
Y6942D01*
X11930Y6971D01*
Y7011D01*
X11923Y7058D01*
X11916Y7113D01*
X11905Y7174D01*
X11890Y7240D01*
X11872Y7313D01*
X11847Y7385D01*
X11818Y7458D01*
X11785Y7535D01*
X11741Y7608D01*
X11694Y7680D01*
X11639Y7750D01*
X11577Y7815D01*
X11574Y7819D01*
X11563Y7830D01*
X11541Y7848D01*
X11512Y7866D01*
X11475Y7891D01*
X11432Y7921D01*
X11381Y7950D01*
X11326Y7982D01*
X11261Y8015D01*
X11188Y8044D01*
X11108Y8073D01*
X11024Y8099D01*
X10933Y8121D01*
X10835Y8135D01*
X10733Y8146D01*
X10624Y8150D01*
D02*
G37*
G36*
X867907Y-152658D02*
X859890D01*
Y-152945D01*
Y-153231D01*
Y-153517D01*
Y-153804D01*
Y-154090D01*
X859604D01*
Y-154376D01*
Y-154663D01*
Y-154949D01*
Y-155235D01*
Y-155521D01*
Y-155808D01*
X859317D01*
Y-156094D01*
Y-156380D01*
Y-156667D01*
Y-156953D01*
Y-157239D01*
Y-157526D01*
X859031D01*
Y-157812D01*
Y-158098D01*
Y-158385D01*
Y-158671D01*
Y-158957D01*
Y-159244D01*
X858745D01*
Y-159530D01*
Y-159816D01*
Y-160102D01*
Y-160389D01*
Y-160675D01*
Y-160961D01*
Y-161248D01*
X858458D01*
Y-161534D01*
Y-161820D01*
Y-162107D01*
Y-162393D01*
Y-162679D01*
Y-162966D01*
X858172D01*
Y-163252D01*
Y-163538D01*
Y-163824D01*
X865330D01*
Y-163538D01*
X866475D01*
Y-163252D01*
X867048D01*
Y-162966D01*
X867334D01*
Y-162679D01*
X867620D01*
Y-162393D01*
X867907D01*
Y-162107D01*
X868193D01*
Y-161820D01*
Y-161534D01*
X868479D01*
Y-161248D01*
Y-160961D01*
X868766D01*
Y-160675D01*
Y-160389D01*
X869052D01*
Y-160102D01*
Y-159816D01*
Y-159530D01*
Y-159244D01*
X869338D01*
Y-158957D01*
Y-158671D01*
Y-158385D01*
Y-158098D01*
Y-157812D01*
X869625D01*
Y-157526D01*
Y-157239D01*
Y-156953D01*
Y-156667D01*
Y-156380D01*
Y-156094D01*
Y-155808D01*
Y-155521D01*
Y-155235D01*
Y-154949D01*
Y-154663D01*
X869338D01*
Y-154376D01*
Y-154090D01*
X869052D01*
Y-153804D01*
Y-153517D01*
X868766D01*
Y-153231D01*
X868479D01*
Y-152945D01*
X867907D01*
Y-152658D01*
D02*
G37*
%LPD*%
D10*
X33169Y18110D02*
G03*
X33169Y18110I-98J0D01*
G01*
X19390D02*
G03*
X19390Y18110I-98J0D01*
G01*
X5610D02*
G03*
X5610Y18110I-98J0D01*
G01*
X19390Y29921D02*
G03*
X19390Y29921I-98J0D01*
G01*
X33169D02*
G03*
X33169Y29921I-98J0D01*
G01*
X5610D02*
G03*
X5610Y29921I-98J0D01*
G01*
D11*
X38189Y17716D02*
X40551D01*
X38189Y9842D02*
X40551D01*
X24410Y17716D02*
X26772D01*
X24410Y9842D02*
X26772D01*
X10630Y17716D02*
X12992D01*
X10630Y9842D02*
X12992D01*
X24410Y29527D02*
X26772D01*
X24410Y21653D02*
X26772D01*
X38189Y29527D02*
X40551D01*
X38189Y21653D02*
X40551D01*
X10630Y29527D02*
X12992D01*
X10630Y21653D02*
X12992D01*
D12*
X1042921Y-168552D02*
X1052104D01*
X1047513D01*
Y-182327D01*
X1058992D02*
X1063584D01*
X1065879Y-180031D01*
Y-175439D01*
X1063584Y-173144D01*
X1058992D01*
X1056696Y-175439D01*
Y-180031D01*
X1058992Y-182327D01*
X1070471Y-186919D02*
Y-173144D01*
X1077359D01*
X1079655Y-175439D01*
Y-180031D01*
X1077359Y-182327D01*
X1070471D01*
X1104909Y-168552D02*
X1100317D01*
X1098021Y-170848D01*
Y-180031D01*
X1100317Y-182327D01*
X1104909D01*
X1107205Y-180031D01*
Y-170848D01*
X1104909Y-168552D01*
X1111796Y-173144D02*
X1116388Y-182327D01*
X1120980Y-173144D01*
X1132459Y-182327D02*
X1127867D01*
X1125571Y-180031D01*
Y-175439D01*
X1127867Y-173144D01*
X1132459D01*
X1134755Y-175439D01*
Y-177735D01*
X1125571D01*
X1139347Y-173144D02*
Y-182327D01*
Y-177735D01*
X1141642Y-175439D01*
X1143938Y-173144D01*
X1146234D01*
X1153122Y-182327D02*
X1157713D01*
X1155417D01*
Y-168552D01*
X1153122D01*
X1166897Y-173144D02*
X1171488D01*
X1173784Y-175439D01*
Y-182327D01*
X1166897D01*
X1164601Y-180031D01*
X1166897Y-177735D01*
X1173784D01*
X1178376Y-173144D02*
Y-180031D01*
X1180672Y-182327D01*
X1187559D01*
Y-184623D01*
X1185264Y-186919D01*
X1182968D01*
X1187559Y-182327D02*
Y-173144D01*
X846071Y-247293D02*
Y-263036D01*
X851318Y-257788D01*
X856566Y-263036D01*
Y-247293D01*
X861814Y-263036D02*
X867061D01*
X864437D01*
Y-252540D01*
X861814D01*
X874933Y-263036D02*
Y-252540D01*
X877556D01*
X880180Y-255164D01*
Y-263036D01*
Y-255164D01*
X882804Y-252540D01*
X885428Y-255164D01*
Y-263036D01*
X890676Y-247293D02*
Y-257788D01*
X895923Y-263036D01*
X901171Y-257788D01*
Y-247293D01*
X916914Y-249917D02*
X914290Y-247293D01*
X909042D01*
X906419Y-249917D01*
Y-260412D01*
X909042Y-263036D01*
X914290D01*
X916914Y-260412D01*
Y-255164D01*
X911666D01*
X1200401Y-210546D02*
X1203025Y-207923D01*
X1208273D01*
X1210897Y-210546D01*
Y-221042D01*
X1208273Y-223665D01*
X1203025D01*
X1200401Y-221042D01*
Y-210546D01*
X1216144D02*
X1218768Y-207923D01*
X1224016D01*
X1226639Y-210546D01*
Y-221042D01*
X1224016Y-223665D01*
X1218768D01*
X1216144Y-221042D01*
Y-210546D01*
X1037015Y-212186D02*
X1039311Y-209890D01*
X1043903D01*
X1046199Y-212186D01*
Y-214482D01*
X1043903Y-216778D01*
X1041607D01*
X1043903D01*
X1046199Y-219074D01*
Y-221370D01*
X1043903Y-223665D01*
X1039311D01*
X1037015Y-221370D01*
X1050791Y-212186D02*
X1053086Y-209890D01*
X1057678D01*
X1059974Y-212186D01*
Y-221370D01*
X1057678Y-223665D01*
X1053086D01*
X1050791Y-221370D01*
Y-212186D01*
X1064566Y-223665D02*
X1073749Y-214482D01*
X1078341Y-212186D02*
X1080637Y-209890D01*
X1085228D01*
X1087524Y-212186D01*
Y-221370D01*
X1085228Y-223665D01*
X1080637D01*
X1078341Y-221370D01*
Y-212186D01*
X1101299Y-209890D02*
X1096707Y-212186D01*
X1092116Y-216778D01*
Y-221370D01*
X1094412Y-223665D01*
X1099003D01*
X1101299Y-221370D01*
Y-219074D01*
X1099003Y-216778D01*
X1092116D01*
X1105891Y-223665D02*
X1115074Y-214482D01*
X1128849Y-223665D02*
X1119666D01*
X1128849Y-214482D01*
Y-212186D01*
X1126553Y-209890D01*
X1121962D01*
X1119666Y-212186D01*
X1133441D02*
X1135737Y-209890D01*
X1140329D01*
X1142624Y-212186D01*
Y-221370D01*
X1140329Y-223665D01*
X1135737D01*
X1133441Y-221370D01*
Y-212186D01*
X1147216Y-223665D02*
X1151808D01*
X1149512D01*
Y-209890D01*
X1147216Y-212186D01*
X1158695Y-221370D02*
X1160991Y-223665D01*
X1165583D01*
X1167879Y-221370D01*
Y-212186D01*
X1165583Y-209890D01*
X1160991D01*
X1158695Y-212186D01*
Y-214482D01*
X1160991Y-216778D01*
X1167879D01*
X1038981Y-135086D02*
X1037014Y-133118D01*
X1033078D01*
X1031110Y-135086D01*
Y-137054D01*
X1033078Y-139022D01*
X1037014D01*
X1038981Y-140990D01*
Y-142957D01*
X1037014Y-144925D01*
X1033078D01*
X1031110Y-142957D01*
X1042917Y-144925D02*
Y-137054D01*
X1046853Y-133118D01*
X1050789Y-137054D01*
Y-144925D01*
Y-139022D01*
X1042917D01*
X1060628Y-133118D02*
X1056692D01*
X1054724Y-135086D01*
Y-142957D01*
X1056692Y-144925D01*
X1060628D01*
X1062596Y-142957D01*
Y-135086D01*
X1060628Y-133118D01*
X1078339Y-144925D02*
Y-137054D01*
X1082275Y-133118D01*
X1086210Y-137054D01*
Y-144925D01*
Y-139022D01*
X1078339D01*
X1090146Y-144925D02*
Y-133118D01*
X1096049D01*
X1098017Y-135086D01*
Y-139022D01*
X1096049Y-140990D01*
X1090146D01*
X1094082D02*
X1098017Y-144925D01*
X1109825Y-133118D02*
X1101953D01*
Y-144925D01*
X1109825D01*
X1101953Y-139022D02*
X1105889D01*
X1113760Y-144925D02*
Y-137054D01*
X1117696Y-133118D01*
X1121632Y-137054D01*
Y-144925D01*
Y-139022D01*
X1113760D01*
X1137375Y-135086D02*
X1139343Y-133118D01*
X1143278D01*
X1145246Y-135086D01*
Y-137054D01*
X1143278Y-139022D01*
X1141310D01*
X1143278D01*
X1145246Y-140990D01*
Y-142957D01*
X1143278Y-144925D01*
X1139343D01*
X1137375Y-142957D01*
X1149182Y-135086D02*
X1151150Y-133118D01*
X1155085D01*
X1157053Y-135086D01*
Y-142957D01*
X1155085Y-144925D01*
X1151150D01*
X1149182Y-142957D01*
Y-135086D01*
X1160989D02*
X1162957Y-133118D01*
X1166893D01*
X1168861Y-135086D01*
Y-142957D01*
X1166893Y-144925D01*
X1162957D01*
X1160989Y-142957D01*
Y-135086D01*
X1172796Y-144925D02*
X1176732D01*
X1174764D01*
Y-133118D01*
X1172796Y-135086D01*
X1202314D02*
X1200346Y-133118D01*
X1196411D01*
X1194443Y-135086D01*
Y-137054D01*
X1196411Y-139022D01*
X1200346D01*
X1202314Y-140990D01*
Y-142957D01*
X1200346Y-144925D01*
X1196411D01*
X1194443Y-142957D01*
X1218057Y-133118D02*
Y-144925D01*
X1221993Y-140990D01*
X1225929Y-144925D01*
Y-133118D01*
X1237736Y-135086D02*
X1235768Y-133118D01*
X1231832D01*
X1229865Y-135086D01*
Y-137054D01*
X1231832Y-139022D01*
X1235768D01*
X1237736Y-140990D01*
Y-142957D01*
X1235768Y-144925D01*
X1231832D01*
X1229865Y-142957D01*
X1249543Y-144925D02*
X1241672D01*
X1249543Y-137054D01*
Y-135086D01*
X1247575Y-133118D01*
X1243639D01*
X1241672Y-135086D01*
X1253479D02*
X1255447Y-133118D01*
X1259383D01*
X1261350Y-135086D01*
Y-137054D01*
X1259383Y-139022D01*
X1261350Y-140990D01*
Y-142957D01*
X1259383Y-144925D01*
X1255447D01*
X1253479Y-142957D01*
Y-140990D01*
X1255447Y-139022D01*
X1253479Y-137054D01*
Y-135086D01*
X1255447Y-139022D02*
X1259383D01*
X1265286Y-144925D02*
X1269222D01*
X1267254D01*
Y-133118D01*
X1265286Y-135086D01*
X1282997Y-144925D02*
X1275125D01*
X1282997Y-137054D01*
Y-135086D01*
X1281029Y-133118D01*
X1277093D01*
X1275125Y-135086D01*
D13*
X38189Y16142D02*
D03*
X39370D02*
D03*
X40551D02*
D03*
X24409Y16142D02*
D03*
X25591D02*
D03*
X26772D02*
D03*
X10630Y16142D02*
D03*
X11811D02*
D03*
X12992D02*
D03*
X24409Y27953D02*
D03*
X25591D02*
D03*
X26772D02*
D03*
X38189Y27953D02*
D03*
X39370D02*
D03*
X40551D02*
D03*
X10630D02*
D03*
X11811D02*
D03*
X12992D02*
D03*
D14*
X39370Y12598D02*
D03*
X25591D02*
D03*
X11811D02*
D03*
X25591Y24409D02*
D03*
X39370Y24409D02*
D03*
X11811Y24409D02*
D03*
D15*
X0Y5906D02*
G03*
X5906Y0I5906J0D01*
G01*
X51181Y37402D02*
G03*
X45276Y43307I-5906J0D01*
G01*
Y0D02*
G03*
X51181Y5906I0J5906D01*
G01*
X5906Y43307D02*
G03*
X0Y37402I0J-5906D01*
G01*
Y5906D02*
Y37402D01*
X51181Y5906D02*
Y37402D01*
X5906Y0D02*
X45276D01*
X5906Y43307D02*
X45276D01*
D16*
X1178748Y-229571D02*
Y-190201D01*
X1021267Y-150831D02*
X1296858D01*
X1021267Y-190201D02*
X1296858D01*
X824417Y-229571D02*
X1296858D01*
X824417Y-111461D02*
X1296858D01*
X824417Y-268941D02*
Y-111461D01*
X1021267Y-268941D02*
Y-111461D01*
X-356685Y900350D02*
X1296858D01*
Y-268941D02*
Y900350D01*
X-356685Y-268941D02*
Y900350D01*
Y-268941D02*
X1296858D01*
X1035046Y-256147D02*
X1034062Y-255164D01*
X1032094D01*
X1031110Y-256147D01*
Y-257131D01*
X1032094Y-258115D01*
X1034062D01*
X1035046Y-259099D01*
Y-260083D01*
X1034062Y-261067D01*
X1032094D01*
X1031110Y-260083D01*
X1037014Y-261067D02*
Y-257131D01*
X1038981Y-255164D01*
X1040949Y-257131D01*
Y-261067D01*
Y-258115D01*
X1037014D01*
X1045869Y-255164D02*
X1043901D01*
X1042917Y-256147D01*
Y-260083D01*
X1043901Y-261067D01*
X1045869D01*
X1046853Y-260083D01*
Y-256147D01*
X1045869Y-255164D01*
X1048821Y-262051D02*
X1052757D01*
X1054724Y-261067D02*
Y-257131D01*
X1056692Y-255164D01*
X1058660Y-257131D01*
Y-261067D01*
Y-258115D01*
X1054724D01*
X1060628Y-257131D02*
Y-261067D01*
Y-259099D01*
X1061612Y-258115D01*
X1062596Y-257131D01*
X1063580D01*
X1069483Y-261067D02*
X1067515D01*
X1066531Y-260083D01*
Y-258115D01*
X1067515Y-257131D01*
X1069483D01*
X1070467Y-258115D01*
Y-259099D01*
X1066531D01*
X1073419Y-257131D02*
X1075387D01*
X1076371Y-258115D01*
Y-261067D01*
X1073419D01*
X1072435Y-260083D01*
X1073419Y-259099D01*
X1076371D01*
X1078339Y-256147D02*
X1079323Y-255164D01*
X1081291D01*
X1082275Y-256147D01*
Y-257131D01*
X1081291Y-258115D01*
X1080307D01*
X1081291D01*
X1082275Y-259099D01*
Y-260083D01*
X1081291Y-261067D01*
X1079323D01*
X1078339Y-260083D01*
X1084242Y-256147D02*
X1085226Y-255164D01*
X1087194D01*
X1088178Y-256147D01*
Y-260083D01*
X1087194Y-261067D01*
X1085226D01*
X1084242Y-260083D01*
Y-256147D01*
X1090146D02*
X1091130Y-255164D01*
X1093098D01*
X1094082Y-256147D01*
Y-260083D01*
X1093098Y-261067D01*
X1091130D01*
X1090146Y-260083D01*
Y-256147D01*
X1096049Y-261067D02*
X1098017D01*
X1097034D01*
Y-255164D01*
X1096049Y-256147D01*
X1100969Y-262051D02*
X1104905D01*
X1110808Y-256147D02*
X1109825Y-255164D01*
X1107857D01*
X1106873Y-256147D01*
Y-257131D01*
X1107857Y-258115D01*
X1109825D01*
X1110808Y-259099D01*
Y-260083D01*
X1109825Y-261067D01*
X1107857D01*
X1106873Y-260083D01*
X1112776Y-262051D02*
X1116712D01*
X1118680Y-255164D02*
Y-261067D01*
X1120648Y-259099D01*
X1122616Y-261067D01*
Y-255164D01*
X1128519Y-256147D02*
X1127535Y-255164D01*
X1125568D01*
X1124584Y-256147D01*
Y-257131D01*
X1125568Y-258115D01*
X1127535D01*
X1128519Y-259099D01*
Y-260083D01*
X1127535Y-261067D01*
X1125568D01*
X1124584Y-260083D01*
X1134423Y-261067D02*
X1130487D01*
X1134423Y-257131D01*
Y-256147D01*
X1133439Y-255164D01*
X1131471D01*
X1130487Y-256147D01*
X1136391D02*
X1137375Y-255164D01*
X1139343D01*
X1140326Y-256147D01*
Y-257131D01*
X1139343Y-258115D01*
X1140326Y-259099D01*
Y-260083D01*
X1139343Y-261067D01*
X1137375D01*
X1136391Y-260083D01*
Y-259099D01*
X1137375Y-258115D01*
X1136391Y-257131D01*
Y-256147D01*
X1137375Y-258115D02*
X1139343D01*
X1142294Y-261067D02*
X1144262D01*
X1143278D01*
Y-255164D01*
X1142294Y-256147D01*
X1151150Y-261067D02*
X1147214D01*
X1151150Y-257131D01*
Y-256147D01*
X1150166Y-255164D01*
X1148198D01*
X1147214Y-256147D01*
X1153118Y-262051D02*
X1157053D01*
X1159021Y-256147D02*
X1160005Y-255164D01*
X1161973D01*
X1162957Y-256147D01*
Y-260083D01*
X1161973Y-261067D01*
X1160005D01*
X1159021Y-260083D01*
Y-256147D01*
X1164925D02*
X1165909Y-255164D01*
X1167877D01*
X1168861Y-256147D01*
Y-260083D01*
X1167877Y-261067D01*
X1165909D01*
X1164925Y-260083D01*
Y-256147D01*
X1170829Y-261067D02*
Y-260083D01*
X1171812D01*
Y-261067D01*
X1170829D01*
X1175748D02*
Y-255164D01*
X1178700D01*
X1179684Y-256147D01*
Y-258115D01*
X1178700Y-259099D01*
X1175748D01*
X1185588Y-257131D02*
X1182636D01*
X1181652Y-258115D01*
Y-260083D01*
X1182636Y-261067D01*
X1185588D01*
X1187555Y-255164D02*
Y-261067D01*
X1190507D01*
X1191491Y-260083D01*
Y-259099D01*
Y-258115D01*
X1190507Y-257131D01*
X1187555D01*
X1193459Y-255164D02*
Y-261067D01*
X1196411D01*
X1197395Y-260083D01*
Y-256147D01*
X1196411Y-255164D01*
X1193459D01*
X1200346Y-261067D02*
X1202314D01*
X1203298Y-260083D01*
Y-258115D01*
X1202314Y-257131D01*
X1200346D01*
X1199362Y-258115D01*
Y-260083D01*
X1200346Y-261067D01*
X1209202Y-257131D02*
X1206250D01*
X1205266Y-258115D01*
Y-260083D01*
X1206250Y-261067D01*
X1209202D01*
D17*
X1182685Y-202012D02*
Y-194141D01*
X1186621D01*
X1187932Y-195452D01*
Y-198076D01*
X1186621Y-199388D01*
X1182685D01*
X1185308D02*
X1187932Y-202012D01*
X1194492D02*
X1191868D01*
X1190556Y-200700D01*
Y-198076D01*
X1191868Y-196764D01*
X1194492D01*
X1195804Y-198076D01*
Y-199388D01*
X1190556D01*
X1198428Y-196764D02*
X1201052Y-202012D01*
X1203675Y-196764D01*
X828354Y-233511D02*
Y-241382D01*
X832290D01*
X833602Y-240070D01*
Y-234823D01*
X832290Y-233511D01*
X828354D01*
X840161Y-241382D02*
X837537D01*
X836226Y-240070D01*
Y-237446D01*
X837537Y-236134D01*
X840161D01*
X841473Y-237446D01*
Y-238758D01*
X836226D01*
X844097Y-241382D02*
X848033D01*
X849345Y-240070D01*
X848033Y-238758D01*
X845409D01*
X844097Y-237446D01*
X845409Y-236134D01*
X849345D01*
X854592Y-244006D02*
X855904D01*
X857216Y-242694D01*
Y-236134D01*
X853280D01*
X851968Y-237446D01*
Y-240070D01*
X853280Y-241382D01*
X857216D01*
X859840D02*
X862464D01*
X861152D01*
Y-236134D01*
X859840D01*
X866399Y-241382D02*
Y-236134D01*
X870335D01*
X871647Y-237446D01*
Y-241382D01*
X878207D02*
X875583D01*
X874271Y-240070D01*
Y-237446D01*
X875583Y-236134D01*
X878207D01*
X879519Y-237446D01*
Y-238758D01*
X874271D01*
X882143Y-236134D02*
Y-241382D01*
Y-238758D01*
X883454Y-237446D01*
X884766Y-236134D01*
X886078D01*
X1025204Y-115400D02*
Y-123272D01*
X1029140D01*
X1030452Y-121960D01*
Y-116712D01*
X1029140Y-115400D01*
X1025204D01*
X1034388Y-123272D02*
X1037012D01*
X1038323Y-121960D01*
Y-119336D01*
X1037012Y-118024D01*
X1034388D01*
X1033076Y-119336D01*
Y-121960D01*
X1034388Y-123272D01*
X1046195Y-118024D02*
X1042259D01*
X1040947Y-119336D01*
Y-121960D01*
X1042259Y-123272D01*
X1046195D01*
X1048819Y-118024D02*
Y-121960D01*
X1050131Y-123272D01*
X1054066D01*
Y-118024D01*
X1056690Y-123272D02*
Y-118024D01*
X1058002D01*
X1059314Y-119336D01*
Y-123272D01*
Y-119336D01*
X1060626Y-118024D01*
X1061938Y-119336D01*
Y-123272D01*
X1068498D02*
X1065874D01*
X1064562Y-121960D01*
Y-119336D01*
X1065874Y-118024D01*
X1068498D01*
X1069810Y-119336D01*
Y-120648D01*
X1064562D01*
X1072433Y-123272D02*
Y-118024D01*
X1076369D01*
X1077681Y-119336D01*
Y-123272D01*
X1081617Y-116712D02*
Y-118024D01*
X1080305D01*
X1082929D01*
X1081617D01*
Y-121960D01*
X1082929Y-123272D01*
X1025204Y-154770D02*
Y-162642D01*
X1030452D01*
X1034388Y-157394D02*
X1037012D01*
X1038323Y-158706D01*
Y-162642D01*
X1034388D01*
X1033076Y-161330D01*
X1034388Y-160018D01*
X1038323D01*
X1040947Y-157394D02*
Y-161330D01*
X1042259Y-162642D01*
X1046195D01*
Y-163954D01*
X1044883Y-165266D01*
X1043571D01*
X1046195Y-162642D02*
Y-157394D01*
X1052755Y-162642D02*
X1050131D01*
X1048819Y-161330D01*
Y-158706D01*
X1050131Y-157394D01*
X1052755D01*
X1054066Y-158706D01*
Y-160018D01*
X1048819D01*
X1056690Y-157394D02*
Y-162642D01*
Y-160018D01*
X1058002Y-158706D01*
X1059314Y-157394D01*
X1060626D01*
X1072433Y-162642D02*
Y-154770D01*
X1077681Y-162642D01*
Y-154770D01*
X1081617Y-157394D02*
X1084241D01*
X1085552Y-158706D01*
Y-162642D01*
X1081617D01*
X1080305Y-161330D01*
X1081617Y-160018D01*
X1085552D01*
X1088176Y-162642D02*
Y-157394D01*
X1089488D01*
X1090800Y-158706D01*
Y-162642D01*
Y-158706D01*
X1092112Y-157394D01*
X1093424Y-158706D01*
Y-162642D01*
X1099984D02*
X1097360D01*
X1096048Y-161330D01*
Y-158706D01*
X1097360Y-157394D01*
X1099984D01*
X1101295Y-158706D01*
Y-160018D01*
X1096048D01*
X1025204Y-194141D02*
Y-202012D01*
X1029140D01*
X1030452Y-200700D01*
Y-195452D01*
X1029140Y-194141D01*
X1025204D01*
X1034388Y-196764D02*
X1037012D01*
X1038323Y-198076D01*
Y-202012D01*
X1034388D01*
X1033076Y-200700D01*
X1034388Y-199388D01*
X1038323D01*
X1042259Y-195452D02*
Y-196764D01*
X1040947D01*
X1043571D01*
X1042259D01*
Y-200700D01*
X1043571Y-202012D01*
X1051443D02*
X1048819D01*
X1047507Y-200700D01*
Y-198076D01*
X1048819Y-196764D01*
X1051443D01*
X1052755Y-198076D01*
Y-199388D01*
X1047507D01*
X1025204Y-233511D02*
Y-241382D01*
X1029140D01*
X1030452Y-240070D01*
Y-234823D01*
X1029140Y-233511D01*
X1025204D01*
X1034388Y-241382D02*
X1037012D01*
X1038323Y-240070D01*
Y-237446D01*
X1037012Y-236134D01*
X1034388D01*
X1033076Y-237446D01*
Y-240070D01*
X1034388Y-241382D01*
X1046195Y-236134D02*
X1042259D01*
X1040947Y-237446D01*
Y-240070D01*
X1042259Y-241382D01*
X1046195D01*
X1048819Y-236134D02*
Y-240070D01*
X1050131Y-241382D01*
X1054066D01*
Y-236134D01*
X1056690Y-241382D02*
Y-236134D01*
X1058002D01*
X1059314Y-237446D01*
Y-241382D01*
Y-237446D01*
X1060626Y-236134D01*
X1061938Y-237446D01*
Y-241382D01*
X1068498D02*
X1065874D01*
X1064562Y-240070D01*
Y-237446D01*
X1065874Y-236134D01*
X1068498D01*
X1069810Y-237446D01*
Y-238758D01*
X1064562D01*
X1072433Y-241382D02*
Y-236134D01*
X1076369D01*
X1077681Y-237446D01*
Y-241382D01*
X1081617Y-234823D02*
Y-236134D01*
X1080305D01*
X1082929D01*
X1081617D01*
Y-240070D01*
X1082929Y-241382D01*
M02*
