G04*
G04 #@! TF.GenerationSoftware,Altium Limited,Altium Designer,18.1.7 (191)*
G04*
G04 Layer_Color=8421504*
%FSLAX25Y25*%
%MOIN*%
G70*
G01*
G75*
%ADD10C,0.01575*%
D10*
X1042921Y-168552D02*
X1052104D01*
X1047513D01*
Y-182327D01*
X1058992D02*
X1063584D01*
X1065879Y-180031D01*
Y-175439D01*
X1063584Y-173144D01*
X1058992D01*
X1056696Y-175439D01*
Y-180031D01*
X1058992Y-182327D01*
X1070471Y-186919D02*
Y-173144D01*
X1077359D01*
X1079655Y-175439D01*
Y-180031D01*
X1077359Y-182327D01*
X1070471D01*
X1098021D02*
Y-168552D01*
X1104909D01*
X1107205Y-170848D01*
Y-175439D01*
X1104909Y-177735D01*
X1098021D01*
X1114092Y-173144D02*
X1118684D01*
X1120980Y-175439D01*
Y-182327D01*
X1114092D01*
X1111796Y-180031D01*
X1114092Y-177735D01*
X1120980D01*
X1125571Y-182327D02*
X1132459D01*
X1134755Y-180031D01*
X1132459Y-177735D01*
X1127867D01*
X1125571Y-175439D01*
X1127867Y-173144D01*
X1134755D01*
X1141642Y-170848D02*
Y-173144D01*
X1139347D01*
X1143938D01*
X1141642D01*
Y-180031D01*
X1143938Y-182327D01*
X1157713D02*
X1153122D01*
X1150826Y-180031D01*
Y-175439D01*
X1153122Y-173144D01*
X1157713D01*
X1160009Y-175439D01*
Y-177735D01*
X1150826D01*
M02*
