G04*
G04 #@! TF.GenerationSoftware,Altium Limited,Altium Designer,18.1.11 (251)*
G04*
G04 Layer_Color=2752767*
%FSLAX25Y25*%
%MOIN*%
G70*
G01*
G75*
%ADD10C,0.01575*%
%ADD11C,0.00394*%
%ADD12C,0.00787*%
%ADD13C,0.00984*%
%ADD17C,0.00591*%
%ADD20C,0.00200*%
%ADD21C,0.00945*%
G36*
X872201Y-141778D02*
X873919D01*
Y-142065D01*
X874778D01*
Y-142351D01*
X875637D01*
Y-142637D01*
X876496D01*
Y-142924D01*
X877069D01*
Y-143210D01*
X877355D01*
Y-143496D01*
X877928D01*
Y-143783D01*
X878214D01*
Y-144069D01*
X878786D01*
Y-144355D01*
X879073D01*
Y-144641D01*
X879359D01*
Y-144928D01*
X879646D01*
Y-145214D01*
X879932D01*
Y-145501D01*
X880218D01*
Y-145787D01*
X880504D01*
Y-146073D01*
Y-146359D01*
X880791D01*
Y-146646D01*
X881077D01*
Y-146932D01*
Y-147218D01*
X881363D01*
Y-147505D01*
X881650D01*
Y-147791D01*
Y-148077D01*
X881936D01*
Y-148364D01*
Y-148650D01*
Y-148936D01*
X882222D01*
Y-149223D01*
Y-149509D01*
Y-149795D01*
X882509D01*
Y-150082D01*
Y-150368D01*
Y-150654D01*
Y-150940D01*
X882795D01*
Y-151227D01*
Y-151513D01*
Y-151799D01*
Y-152086D01*
Y-152372D01*
X883081D01*
Y-152658D01*
Y-152945D01*
Y-153231D01*
Y-153517D01*
Y-153804D01*
Y-154090D01*
Y-154376D01*
Y-154663D01*
Y-154949D01*
Y-155235D01*
Y-155521D01*
Y-155808D01*
Y-156094D01*
Y-156380D01*
Y-156667D01*
Y-156953D01*
Y-157239D01*
Y-157526D01*
Y-157812D01*
Y-158098D01*
X882795D01*
Y-158385D01*
Y-158671D01*
Y-158957D01*
Y-159244D01*
Y-159530D01*
Y-159816D01*
Y-160102D01*
X882509D01*
Y-160389D01*
Y-160675D01*
Y-160961D01*
Y-161248D01*
Y-161534D01*
X882222D01*
Y-161820D01*
Y-162107D01*
Y-162393D01*
Y-162679D01*
Y-162966D01*
X881936D01*
Y-163252D01*
Y-163538D01*
Y-163824D01*
X881650D01*
Y-164111D01*
Y-164397D01*
Y-164683D01*
Y-164970D01*
X881363D01*
Y-165256D01*
Y-165542D01*
Y-165829D01*
X881077D01*
Y-166115D01*
Y-166401D01*
X880791D01*
Y-166688D01*
Y-166974D01*
Y-167260D01*
X880504D01*
Y-167547D01*
Y-167833D01*
X880218D01*
Y-168119D01*
Y-168405D01*
X879932D01*
Y-168692D01*
Y-168978D01*
X879646D01*
Y-169264D01*
X879359D01*
Y-169551D01*
Y-169837D01*
X879073D01*
Y-170123D01*
X878786D01*
Y-170410D01*
X878500D01*
Y-170696D01*
Y-170982D01*
X878214D01*
Y-171269D01*
X877928D01*
Y-171555D01*
X877641D01*
Y-171841D01*
X877355D01*
Y-172127D01*
X877069D01*
Y-172414D01*
X876496D01*
Y-172700D01*
X876210D01*
Y-172986D01*
X875637D01*
Y-173273D01*
X875351D01*
Y-173559D01*
X874778D01*
Y-173845D01*
X873919D01*
Y-174132D01*
X873060D01*
Y-174418D01*
X872201D01*
Y-174704D01*
X870483D01*
Y-174991D01*
X865330D01*
Y-174704D01*
X862753D01*
Y-174418D01*
X860749D01*
Y-174132D01*
X859317D01*
Y-173845D01*
X857886D01*
Y-173559D01*
X856454D01*
Y-173845D01*
Y-174132D01*
Y-174418D01*
Y-174704D01*
Y-174991D01*
Y-175277D01*
Y-175563D01*
X856168D01*
Y-175850D01*
Y-176136D01*
Y-176422D01*
Y-176709D01*
Y-176995D01*
Y-177281D01*
X855882D01*
Y-177568D01*
Y-177854D01*
Y-178140D01*
Y-178426D01*
Y-178713D01*
Y-178999D01*
X855595D01*
Y-179285D01*
Y-179572D01*
Y-179858D01*
Y-180144D01*
Y-180431D01*
Y-180717D01*
Y-181003D01*
X855309D01*
Y-181290D01*
Y-181576D01*
Y-181862D01*
Y-182149D01*
Y-182435D01*
Y-182721D01*
X855023D01*
Y-183007D01*
Y-183294D01*
Y-183580D01*
Y-183866D01*
Y-184153D01*
Y-184439D01*
X854736D01*
Y-184725D01*
Y-185012D01*
Y-185298D01*
Y-185584D01*
Y-185871D01*
Y-186157D01*
Y-186443D01*
X854450D01*
Y-186730D01*
Y-187016D01*
Y-187302D01*
Y-187588D01*
Y-187875D01*
Y-188161D01*
X854164D01*
Y-188447D01*
Y-188734D01*
Y-189020D01*
Y-189306D01*
Y-189593D01*
Y-189879D01*
X853877D01*
Y-190165D01*
Y-190452D01*
Y-190738D01*
Y-191024D01*
Y-191311D01*
Y-191597D01*
Y-191883D01*
X840421D01*
Y-191597D01*
X840707D01*
Y-191311D01*
Y-191024D01*
Y-190738D01*
Y-190452D01*
Y-190165D01*
X840993D01*
Y-189879D01*
Y-189593D01*
Y-189306D01*
Y-189020D01*
Y-188734D01*
Y-188447D01*
Y-188161D01*
X841280D01*
Y-187875D01*
Y-187588D01*
Y-187302D01*
Y-187016D01*
Y-186730D01*
Y-186443D01*
X841566D01*
Y-186157D01*
Y-185871D01*
Y-185584D01*
Y-185298D01*
Y-185012D01*
Y-184725D01*
X841852D01*
Y-184439D01*
Y-184153D01*
Y-183866D01*
Y-183580D01*
Y-183294D01*
Y-183007D01*
Y-182721D01*
X842138D01*
Y-182435D01*
Y-182149D01*
Y-181862D01*
Y-181576D01*
Y-181290D01*
Y-181003D01*
X842425D01*
Y-180717D01*
Y-180431D01*
Y-180144D01*
Y-179858D01*
Y-179572D01*
Y-179285D01*
X842711D01*
Y-178999D01*
Y-178713D01*
Y-178426D01*
Y-178140D01*
Y-177854D01*
Y-177568D01*
X842997D01*
Y-177281D01*
Y-176995D01*
Y-176709D01*
Y-176422D01*
Y-176136D01*
Y-175850D01*
Y-175563D01*
X843284D01*
Y-175277D01*
Y-174991D01*
Y-174704D01*
Y-174418D01*
Y-174132D01*
Y-173845D01*
X843570D01*
Y-173559D01*
Y-173273D01*
Y-172986D01*
Y-172700D01*
Y-172414D01*
Y-172127D01*
X843856D01*
Y-171841D01*
Y-171555D01*
Y-171269D01*
Y-170982D01*
Y-170696D01*
Y-170410D01*
X844143D01*
Y-170123D01*
Y-169837D01*
Y-169551D01*
Y-169264D01*
Y-168978D01*
Y-168692D01*
Y-168405D01*
X844429D01*
Y-168119D01*
Y-167833D01*
Y-167547D01*
Y-167260D01*
Y-166974D01*
Y-166688D01*
X844715D01*
Y-166401D01*
Y-166115D01*
Y-165829D01*
Y-165542D01*
Y-165256D01*
Y-164970D01*
X845002D01*
Y-164683D01*
Y-164397D01*
Y-164111D01*
Y-163824D01*
Y-163538D01*
Y-163252D01*
Y-162966D01*
X845288D01*
Y-162679D01*
Y-162393D01*
Y-162107D01*
Y-161820D01*
Y-161534D01*
Y-161248D01*
X845574D01*
Y-160961D01*
Y-160675D01*
Y-160389D01*
Y-160102D01*
Y-159816D01*
Y-159530D01*
X845861D01*
Y-159244D01*
Y-158957D01*
Y-158671D01*
Y-158385D01*
Y-158098D01*
Y-157812D01*
X846147D01*
Y-157526D01*
Y-157239D01*
Y-156953D01*
Y-156667D01*
Y-156380D01*
Y-156094D01*
Y-155808D01*
X846433D01*
Y-155521D01*
Y-155235D01*
Y-154949D01*
Y-154663D01*
Y-154376D01*
Y-154090D01*
X846719D01*
Y-153804D01*
Y-153517D01*
Y-153231D01*
Y-152945D01*
Y-152658D01*
Y-152372D01*
X847006D01*
Y-152086D01*
Y-151799D01*
Y-151513D01*
Y-151227D01*
Y-150940D01*
Y-150654D01*
Y-150368D01*
X847292D01*
Y-150082D01*
Y-149795D01*
Y-149509D01*
Y-149223D01*
Y-148936D01*
Y-148650D01*
X847578D01*
Y-148364D01*
Y-148077D01*
Y-147791D01*
Y-147505D01*
Y-147218D01*
Y-146932D01*
X847865D01*
Y-146646D01*
Y-146359D01*
Y-146073D01*
Y-145787D01*
Y-145501D01*
Y-145214D01*
Y-144928D01*
X848151D01*
Y-144641D01*
Y-144355D01*
Y-144069D01*
Y-143783D01*
Y-143496D01*
Y-143210D01*
X848437D01*
Y-142924D01*
Y-142637D01*
Y-142351D01*
Y-142065D01*
Y-141778D01*
Y-141492D01*
X872201D01*
Y-141778D01*
D02*
G37*
G36*
X903409Y-138343D02*
Y-138629D01*
X903123D01*
Y-138915D01*
Y-139202D01*
Y-139488D01*
Y-139774D01*
Y-140060D01*
Y-140347D01*
X902837D01*
Y-140633D01*
Y-140919D01*
Y-141206D01*
Y-141492D01*
Y-141778D01*
Y-142065D01*
X902551D01*
Y-142351D01*
Y-142637D01*
Y-142924D01*
Y-143210D01*
Y-143496D01*
Y-143783D01*
Y-144069D01*
X902264D01*
Y-144355D01*
Y-144641D01*
Y-144928D01*
Y-145214D01*
Y-145501D01*
Y-145787D01*
X901978D01*
Y-146073D01*
Y-146359D01*
Y-146646D01*
Y-146932D01*
Y-147218D01*
Y-147505D01*
X901692D01*
Y-147791D01*
Y-148077D01*
Y-148364D01*
Y-148650D01*
Y-148936D01*
Y-149223D01*
Y-149509D01*
X901405D01*
Y-149795D01*
Y-150082D01*
Y-150368D01*
Y-150654D01*
Y-150940D01*
Y-151227D01*
X901119D01*
Y-151513D01*
Y-151799D01*
Y-152086D01*
Y-152372D01*
Y-152658D01*
Y-152945D01*
X900833D01*
Y-153231D01*
Y-153517D01*
Y-153804D01*
Y-154090D01*
Y-154376D01*
Y-154663D01*
X900546D01*
Y-154949D01*
Y-155235D01*
Y-155521D01*
Y-155808D01*
Y-156094D01*
Y-156380D01*
Y-156667D01*
X900260D01*
Y-156953D01*
Y-157239D01*
Y-157526D01*
Y-157812D01*
Y-158098D01*
Y-158385D01*
X899974D01*
Y-158671D01*
Y-158957D01*
X900546D01*
Y-158671D01*
X900833D01*
Y-158385D01*
X901119D01*
Y-158098D01*
X901692D01*
Y-157812D01*
X901978D01*
Y-157526D01*
X902264D01*
Y-157239D01*
X902837D01*
Y-156953D01*
X903409D01*
Y-156667D01*
X903696D01*
Y-156380D01*
X904268D01*
Y-156094D01*
X905127D01*
Y-155808D01*
X905700D01*
Y-155521D01*
X906559D01*
Y-155235D01*
X907990D01*
Y-154949D01*
X914289D01*
Y-155235D01*
X915435D01*
Y-155521D01*
X916294D01*
Y-155808D01*
X916866D01*
Y-156094D01*
X917153D01*
Y-156380D01*
X917725D01*
Y-156667D01*
X918011D01*
Y-156953D01*
X918298D01*
Y-157239D01*
X918584D01*
Y-157526D01*
X918870D01*
Y-157812D01*
Y-158098D01*
X919157D01*
Y-158385D01*
Y-158671D01*
X919443D01*
Y-158957D01*
Y-159244D01*
Y-159530D01*
X919729D01*
Y-159816D01*
Y-160102D01*
Y-160389D01*
Y-160675D01*
X920016D01*
Y-160961D01*
Y-161248D01*
Y-161534D01*
Y-161820D01*
Y-162107D01*
Y-162393D01*
Y-162679D01*
Y-162966D01*
Y-163252D01*
Y-163538D01*
Y-163824D01*
Y-164111D01*
Y-164397D01*
Y-164683D01*
Y-164970D01*
Y-165256D01*
Y-165542D01*
Y-165829D01*
X919729D01*
Y-166115D01*
Y-166401D01*
Y-166688D01*
Y-166974D01*
Y-167260D01*
Y-167547D01*
Y-167833D01*
X919443D01*
Y-168119D01*
Y-168405D01*
Y-168692D01*
Y-168978D01*
Y-169264D01*
Y-169551D01*
Y-169837D01*
X919157D01*
Y-170123D01*
Y-170410D01*
Y-170696D01*
Y-170982D01*
Y-171269D01*
Y-171555D01*
X918870D01*
Y-171841D01*
Y-172127D01*
Y-172414D01*
Y-172700D01*
Y-172986D01*
Y-173273D01*
X918584D01*
Y-173559D01*
Y-173845D01*
Y-174132D01*
Y-174418D01*
Y-174704D01*
Y-174991D01*
X918298D01*
Y-175277D01*
Y-175563D01*
Y-175850D01*
Y-176136D01*
Y-176422D01*
Y-176709D01*
Y-176995D01*
X918011D01*
Y-177281D01*
Y-177568D01*
Y-177854D01*
Y-178140D01*
Y-178426D01*
Y-178713D01*
X917725D01*
Y-178999D01*
Y-179285D01*
Y-179572D01*
Y-179858D01*
Y-180144D01*
Y-180431D01*
X917439D01*
Y-180717D01*
Y-181003D01*
Y-181290D01*
Y-181576D01*
Y-181862D01*
Y-182149D01*
Y-182435D01*
X917153D01*
Y-182721D01*
Y-183007D01*
Y-183294D01*
Y-183580D01*
Y-183866D01*
Y-184153D01*
X916866D01*
Y-184439D01*
Y-184725D01*
Y-185012D01*
Y-185298D01*
Y-185584D01*
Y-185871D01*
X916580D01*
Y-186157D01*
Y-186443D01*
Y-186730D01*
Y-187016D01*
Y-187302D01*
Y-187588D01*
X916294D01*
Y-187875D01*
Y-188161D01*
Y-188447D01*
Y-188734D01*
Y-189020D01*
Y-189306D01*
Y-189593D01*
X916007D01*
Y-189879D01*
Y-190165D01*
Y-190452D01*
Y-190738D01*
Y-191024D01*
Y-191311D01*
X915721D01*
Y-191597D01*
Y-191883D01*
X902551D01*
Y-191597D01*
Y-191311D01*
X902837D01*
Y-191024D01*
Y-190738D01*
Y-190452D01*
Y-190165D01*
Y-189879D01*
Y-189593D01*
X903123D01*
Y-189306D01*
Y-189020D01*
Y-188734D01*
Y-188447D01*
Y-188161D01*
Y-187875D01*
Y-187588D01*
X903409D01*
Y-187302D01*
Y-187016D01*
Y-186730D01*
Y-186443D01*
Y-186157D01*
Y-185871D01*
X903696D01*
Y-185584D01*
Y-185298D01*
Y-185012D01*
Y-184725D01*
Y-184439D01*
Y-184153D01*
X903982D01*
Y-183866D01*
Y-183580D01*
Y-183294D01*
Y-183007D01*
Y-182721D01*
Y-182435D01*
Y-182149D01*
X904268D01*
Y-181862D01*
Y-181576D01*
Y-181290D01*
Y-181003D01*
Y-180717D01*
Y-180431D01*
X904555D01*
Y-180144D01*
Y-179858D01*
Y-179572D01*
Y-179285D01*
Y-178999D01*
Y-178713D01*
Y-178426D01*
X904841D01*
Y-178140D01*
Y-177854D01*
Y-177568D01*
Y-177281D01*
Y-176995D01*
Y-176709D01*
X905127D01*
Y-176422D01*
Y-176136D01*
Y-175850D01*
Y-175563D01*
Y-175277D01*
Y-174991D01*
X905414D01*
Y-174704D01*
Y-174418D01*
Y-174132D01*
Y-173845D01*
Y-173559D01*
Y-173273D01*
X905700D01*
Y-172986D01*
Y-172700D01*
Y-172414D01*
Y-172127D01*
Y-171841D01*
Y-171555D01*
Y-171269D01*
X905986D01*
Y-170982D01*
Y-170696D01*
Y-170410D01*
Y-170123D01*
Y-169837D01*
Y-169551D01*
X906273D01*
Y-169264D01*
Y-168978D01*
Y-168692D01*
Y-168405D01*
Y-168119D01*
Y-167833D01*
Y-167547D01*
X906559D01*
Y-167260D01*
Y-166974D01*
Y-166688D01*
Y-166401D01*
Y-166115D01*
Y-165829D01*
X906273D01*
Y-165542D01*
Y-165256D01*
X905986D01*
Y-164970D01*
X905700D01*
Y-164683D01*
X905127D01*
Y-164397D01*
X903409D01*
Y-164683D01*
X901978D01*
Y-164970D01*
X901119D01*
Y-165256D01*
X900546D01*
Y-165542D01*
X900260D01*
Y-165829D01*
X899687D01*
Y-166115D01*
X899401D01*
Y-166401D01*
X899115D01*
Y-166688D01*
Y-166974D01*
X898828D01*
Y-167260D01*
Y-167547D01*
Y-167833D01*
X898542D01*
Y-168119D01*
Y-168405D01*
Y-168692D01*
Y-168978D01*
Y-169264D01*
Y-169551D01*
X898256D01*
Y-169837D01*
Y-170123D01*
Y-170410D01*
Y-170696D01*
Y-170982D01*
Y-171269D01*
Y-171555D01*
X897970D01*
Y-171841D01*
Y-172127D01*
Y-172414D01*
Y-172700D01*
Y-172986D01*
Y-173273D01*
X897683D01*
Y-173559D01*
Y-173845D01*
Y-174132D01*
Y-174418D01*
Y-174704D01*
Y-174991D01*
X897397D01*
Y-175277D01*
Y-175563D01*
Y-175850D01*
Y-176136D01*
Y-176422D01*
Y-176709D01*
X897111D01*
Y-176995D01*
Y-177281D01*
Y-177568D01*
Y-177854D01*
Y-178140D01*
Y-178426D01*
Y-178713D01*
X896824D01*
Y-178999D01*
Y-179285D01*
Y-179572D01*
Y-179858D01*
Y-180144D01*
Y-180431D01*
X896538D01*
Y-180717D01*
Y-181003D01*
Y-181290D01*
Y-181576D01*
Y-181862D01*
Y-182149D01*
X896252D01*
Y-182435D01*
Y-182721D01*
Y-183007D01*
Y-183294D01*
Y-183580D01*
Y-183866D01*
Y-184153D01*
X895965D01*
Y-184439D01*
Y-184725D01*
Y-185012D01*
Y-185298D01*
Y-185584D01*
Y-185871D01*
X895679D01*
Y-186157D01*
Y-186443D01*
Y-186730D01*
Y-187016D01*
Y-187302D01*
Y-187588D01*
X895393D01*
Y-187875D01*
Y-188161D01*
Y-188447D01*
Y-188734D01*
Y-189020D01*
Y-189306D01*
X895106D01*
Y-189593D01*
Y-189879D01*
Y-190165D01*
Y-190452D01*
Y-190738D01*
Y-191024D01*
Y-191311D01*
X894820D01*
Y-191597D01*
Y-191883D01*
X881650D01*
Y-191597D01*
Y-191311D01*
X881936D01*
Y-191024D01*
Y-190738D01*
Y-190452D01*
Y-190165D01*
Y-189879D01*
Y-189593D01*
Y-189306D01*
X882222D01*
Y-189020D01*
Y-188734D01*
Y-188447D01*
Y-188161D01*
Y-187875D01*
Y-187588D01*
X882509D01*
Y-187302D01*
Y-187016D01*
Y-186730D01*
Y-186443D01*
Y-186157D01*
Y-185871D01*
X882795D01*
Y-185584D01*
Y-185298D01*
Y-185012D01*
Y-184725D01*
Y-184439D01*
Y-184153D01*
Y-183866D01*
X883081D01*
Y-183580D01*
Y-183294D01*
Y-183007D01*
Y-182721D01*
Y-182435D01*
Y-182149D01*
X883368D01*
Y-181862D01*
Y-181576D01*
Y-181290D01*
Y-181003D01*
Y-180717D01*
Y-180431D01*
X883654D01*
Y-180144D01*
Y-179858D01*
Y-179572D01*
Y-179285D01*
Y-178999D01*
Y-178713D01*
X883940D01*
Y-178426D01*
Y-178140D01*
Y-177854D01*
Y-177568D01*
Y-177281D01*
Y-176995D01*
Y-176709D01*
X884227D01*
Y-176422D01*
Y-176136D01*
Y-175850D01*
Y-175563D01*
Y-175277D01*
Y-174991D01*
X884513D01*
Y-174704D01*
Y-174418D01*
Y-174132D01*
Y-173845D01*
Y-173559D01*
Y-173273D01*
X884799D01*
Y-172986D01*
Y-172700D01*
Y-172414D01*
Y-172127D01*
Y-171841D01*
Y-171555D01*
Y-171269D01*
X885085D01*
Y-170982D01*
Y-170696D01*
Y-170410D01*
Y-170123D01*
Y-169837D01*
Y-169551D01*
X885372D01*
Y-169264D01*
Y-168978D01*
Y-168692D01*
Y-168405D01*
Y-168119D01*
Y-167833D01*
X885658D01*
Y-167547D01*
Y-167260D01*
Y-166974D01*
Y-166688D01*
Y-166401D01*
Y-166115D01*
X885944D01*
Y-165829D01*
Y-165542D01*
Y-165256D01*
Y-164970D01*
Y-164683D01*
Y-164397D01*
Y-164111D01*
X886231D01*
Y-163824D01*
Y-163538D01*
Y-163252D01*
Y-162966D01*
Y-162679D01*
Y-162393D01*
X886517D01*
Y-162107D01*
Y-161820D01*
Y-161534D01*
Y-161248D01*
Y-160961D01*
Y-160675D01*
X886803D01*
Y-160389D01*
Y-160102D01*
Y-159816D01*
Y-159530D01*
Y-159244D01*
Y-158957D01*
X887090D01*
Y-158671D01*
Y-158385D01*
Y-158098D01*
Y-157812D01*
Y-157526D01*
Y-157239D01*
Y-156953D01*
X887376D01*
Y-156667D01*
Y-156380D01*
Y-156094D01*
Y-155808D01*
Y-155521D01*
Y-155235D01*
X887662D01*
Y-154949D01*
Y-154663D01*
Y-154376D01*
Y-154090D01*
Y-153804D01*
Y-153517D01*
X887949D01*
Y-153231D01*
Y-152945D01*
Y-152658D01*
Y-152372D01*
Y-152086D01*
Y-151799D01*
Y-151513D01*
X888235D01*
Y-151227D01*
Y-150940D01*
Y-150654D01*
Y-150368D01*
Y-150082D01*
Y-149795D01*
X888521D01*
Y-149509D01*
Y-149223D01*
Y-148936D01*
Y-148650D01*
Y-148364D01*
Y-148077D01*
X888807D01*
Y-147791D01*
Y-147505D01*
Y-147218D01*
Y-146932D01*
Y-146646D01*
Y-146359D01*
X889094D01*
Y-146073D01*
Y-145787D01*
Y-145501D01*
Y-145214D01*
Y-144928D01*
Y-144641D01*
Y-144355D01*
X889380D01*
Y-144069D01*
Y-143783D01*
Y-143496D01*
Y-143210D01*
Y-142924D01*
Y-142637D01*
X889666D01*
Y-142351D01*
Y-142065D01*
Y-141778D01*
Y-141492D01*
Y-141206D01*
Y-140919D01*
X889953D01*
Y-140633D01*
Y-140347D01*
Y-140060D01*
Y-139774D01*
Y-139488D01*
Y-139202D01*
Y-138915D01*
X890239D01*
Y-138629D01*
Y-138343D01*
Y-138056D01*
X903409D01*
Y-138343D01*
D02*
G37*
G36*
X1005337Y-155808D02*
X1005050D01*
Y-156094D01*
X1004764D01*
Y-156380D01*
Y-156667D01*
X1004478D01*
Y-156953D01*
X1004192D01*
Y-157239D01*
X1003905D01*
Y-157526D01*
Y-157812D01*
X1003619D01*
Y-158098D01*
X1003333D01*
Y-158385D01*
X1003046D01*
Y-158671D01*
X1002760D01*
Y-158957D01*
Y-159244D01*
X1002474D01*
Y-159530D01*
X1002187D01*
Y-159816D01*
X1001901D01*
Y-160102D01*
Y-160389D01*
X1001615D01*
Y-160675D01*
X1001328D01*
Y-160961D01*
X1001042D01*
Y-161248D01*
X1000756D01*
Y-161534D01*
Y-161820D01*
X1000469D01*
Y-162107D01*
X1000183D01*
Y-162393D01*
X999897D01*
Y-162679D01*
Y-162966D01*
X999611D01*
Y-163252D01*
X999324D01*
Y-163538D01*
X999038D01*
Y-163824D01*
Y-164111D01*
X998752D01*
Y-164397D01*
X998465D01*
Y-164683D01*
X998179D01*
Y-164970D01*
X997893D01*
Y-165256D01*
Y-165542D01*
X997606D01*
Y-165829D01*
X997320D01*
Y-166115D01*
X997034D01*
Y-166401D01*
Y-166688D01*
X996747D01*
Y-166974D01*
X996461D01*
Y-167260D01*
X996175D01*
Y-167547D01*
Y-167833D01*
X995889D01*
Y-168119D01*
X995602D01*
Y-168405D01*
X995316D01*
Y-168692D01*
X995030D01*
Y-168978D01*
Y-169264D01*
X994743D01*
Y-169551D01*
X994457D01*
Y-169837D01*
X994171D01*
Y-170123D01*
Y-170410D01*
X993884D01*
Y-170696D01*
X993598D01*
Y-170982D01*
X993312D01*
Y-171269D01*
Y-171555D01*
X993025D01*
Y-171841D01*
X992739D01*
Y-172127D01*
X992453D01*
Y-172414D01*
X992166D01*
Y-172700D01*
Y-172986D01*
X991880D01*
Y-173273D01*
X991594D01*
Y-173559D01*
X991308D01*
Y-173845D01*
Y-174132D01*
X991021D01*
Y-174418D01*
X990735D01*
Y-174704D01*
X990449D01*
Y-174991D01*
X990162D01*
Y-175277D01*
Y-175563D01*
X990449D01*
Y-175850D01*
Y-176136D01*
X990735D01*
Y-176422D01*
Y-176709D01*
X991021D01*
Y-176995D01*
X991308D01*
Y-177281D01*
Y-177568D01*
X991594D01*
Y-177854D01*
Y-178140D01*
X991880D01*
Y-178426D01*
Y-178713D01*
X992166D01*
Y-178999D01*
Y-179285D01*
X992453D01*
Y-179572D01*
Y-179858D01*
X992739D01*
Y-180144D01*
Y-180431D01*
X993025D01*
Y-180717D01*
Y-181003D01*
X993312D01*
Y-181290D01*
Y-181576D01*
X993598D01*
Y-181862D01*
X993884D01*
Y-182149D01*
Y-182435D01*
X994171D01*
Y-182721D01*
Y-183007D01*
X994457D01*
Y-183294D01*
Y-183580D01*
X994743D01*
Y-183866D01*
Y-184153D01*
X995030D01*
Y-184439D01*
Y-184725D01*
X995316D01*
Y-185012D01*
Y-185298D01*
X995602D01*
Y-185584D01*
Y-185871D01*
X995889D01*
Y-186157D01*
X996175D01*
Y-186443D01*
Y-186730D01*
X996461D01*
Y-187016D01*
Y-187302D01*
X996747D01*
Y-187588D01*
Y-187875D01*
X997034D01*
Y-188161D01*
Y-188447D01*
X997320D01*
Y-188734D01*
Y-189020D01*
X997606D01*
Y-189306D01*
Y-189593D01*
X997893D01*
Y-189879D01*
Y-190165D01*
X998179D01*
Y-190452D01*
X998465D01*
Y-190738D01*
Y-191024D01*
X998752D01*
Y-191311D01*
Y-191597D01*
X999038D01*
Y-191883D01*
X983863D01*
Y-191597D01*
X983577D01*
Y-191311D01*
Y-191024D01*
Y-190738D01*
X983291D01*
Y-190452D01*
Y-190165D01*
Y-189879D01*
X983004D01*
Y-189593D01*
Y-189306D01*
X982718D01*
Y-189020D01*
Y-188734D01*
Y-188447D01*
X982432D01*
Y-188161D01*
Y-187875D01*
Y-187588D01*
X982146D01*
Y-187302D01*
Y-187016D01*
X981859D01*
Y-186730D01*
Y-186443D01*
Y-186157D01*
X981573D01*
Y-185871D01*
Y-185584D01*
Y-185298D01*
X981287D01*
Y-185012D01*
Y-184725D01*
Y-184439D01*
X981000D01*
Y-184153D01*
X980428D01*
Y-184439D01*
Y-184725D01*
X980141D01*
Y-185012D01*
X979855D01*
Y-185298D01*
Y-185584D01*
X979569D01*
Y-185871D01*
X979282D01*
Y-186157D01*
Y-186443D01*
X978996D01*
Y-186730D01*
X978710D01*
Y-187016D01*
Y-187302D01*
X978423D01*
Y-187588D01*
X978137D01*
Y-187875D01*
X977851D01*
Y-188161D01*
Y-188447D01*
X977565D01*
Y-188734D01*
X977278D01*
Y-189020D01*
Y-189306D01*
X976992D01*
Y-189593D01*
X976705D01*
Y-189879D01*
Y-190165D01*
X976419D01*
Y-190452D01*
X976133D01*
Y-190738D01*
Y-191024D01*
X975847D01*
Y-191311D01*
X975560D01*
Y-191597D01*
Y-191883D01*
X959527D01*
Y-191597D01*
X959813D01*
Y-191311D01*
X960099D01*
Y-191024D01*
X960386D01*
Y-190738D01*
X960672D01*
Y-190452D01*
Y-190165D01*
X960958D01*
Y-189879D01*
X961245D01*
Y-189593D01*
X961531D01*
Y-189306D01*
X961817D01*
Y-189020D01*
Y-188734D01*
X962104D01*
Y-188447D01*
X962390D01*
Y-188161D01*
X962676D01*
Y-187875D01*
Y-187588D01*
X962963D01*
Y-187302D01*
X963249D01*
Y-187016D01*
X963535D01*
Y-186730D01*
X963822D01*
Y-186443D01*
Y-186157D01*
X964108D01*
Y-185871D01*
X964394D01*
Y-185584D01*
X964680D01*
Y-185298D01*
X964967D01*
Y-185012D01*
Y-184725D01*
X965253D01*
Y-184439D01*
X965539D01*
Y-184153D01*
X965826D01*
Y-183866D01*
Y-183580D01*
X966112D01*
Y-183294D01*
X966398D01*
Y-183007D01*
X966685D01*
Y-182721D01*
X966971D01*
Y-182435D01*
Y-182149D01*
X967257D01*
Y-181862D01*
X967544D01*
Y-181576D01*
X967830D01*
Y-181290D01*
Y-181003D01*
X968116D01*
Y-180717D01*
X968402D01*
Y-180431D01*
X968689D01*
Y-180144D01*
X968975D01*
Y-179858D01*
Y-179572D01*
X969261D01*
Y-179285D01*
X969548D01*
Y-178999D01*
X969834D01*
Y-178713D01*
Y-178426D01*
X970120D01*
Y-178140D01*
X970407D01*
Y-177854D01*
X970693D01*
Y-177568D01*
X970979D01*
Y-177281D01*
Y-176995D01*
X971266D01*
Y-176709D01*
X971552D01*
Y-176422D01*
X971838D01*
Y-176136D01*
X972124D01*
Y-175850D01*
Y-175563D01*
X972411D01*
Y-175277D01*
X972697D01*
Y-174991D01*
X972983D01*
Y-174704D01*
Y-174418D01*
X973270D01*
Y-174132D01*
X973556D01*
Y-173845D01*
X973842D01*
Y-173559D01*
X974129D01*
Y-173273D01*
Y-172986D01*
X974415D01*
Y-172700D01*
Y-172414D01*
Y-172127D01*
X974129D01*
Y-171841D01*
X973842D01*
Y-171555D01*
Y-171269D01*
X973556D01*
Y-170982D01*
Y-170696D01*
X973270D01*
Y-170410D01*
Y-170123D01*
X972983D01*
Y-169837D01*
Y-169551D01*
X972697D01*
Y-169264D01*
Y-168978D01*
X972411D01*
Y-168692D01*
Y-168405D01*
X972124D01*
Y-168119D01*
X971838D01*
Y-167833D01*
Y-167547D01*
X971552D01*
Y-167260D01*
Y-166974D01*
X971266D01*
Y-166688D01*
Y-166401D01*
X970979D01*
Y-166115D01*
Y-165829D01*
X970693D01*
Y-165542D01*
Y-165256D01*
X970407D01*
Y-164970D01*
Y-164683D01*
X970120D01*
Y-164397D01*
X969834D01*
Y-164111D01*
Y-163824D01*
X969548D01*
Y-163538D01*
Y-163252D01*
X969261D01*
Y-162966D01*
Y-162679D01*
X968975D01*
Y-162393D01*
Y-162107D01*
X968689D01*
Y-161820D01*
Y-161534D01*
X968402D01*
Y-161248D01*
Y-160961D01*
X968116D01*
Y-160675D01*
Y-160389D01*
X967830D01*
Y-160102D01*
X967544D01*
Y-159816D01*
Y-159530D01*
X967257D01*
Y-159244D01*
Y-158957D01*
X966971D01*
Y-158671D01*
Y-158385D01*
X966685D01*
Y-158098D01*
Y-157812D01*
X966398D01*
Y-157526D01*
Y-157239D01*
X966112D01*
Y-156953D01*
Y-156667D01*
X965826D01*
Y-156380D01*
X965539D01*
Y-156094D01*
Y-155808D01*
X965253D01*
Y-155521D01*
X981000D01*
Y-155808D01*
X981287D01*
Y-156094D01*
Y-156380D01*
Y-156667D01*
X981573D01*
Y-156953D01*
Y-157239D01*
Y-157526D01*
X981859D01*
Y-157812D01*
Y-158098D01*
Y-158385D01*
X982146D01*
Y-158671D01*
Y-158957D01*
Y-159244D01*
X982432D01*
Y-159530D01*
Y-159816D01*
Y-160102D01*
X982718D01*
Y-160389D01*
Y-160675D01*
Y-160961D01*
X983004D01*
Y-161248D01*
Y-161534D01*
Y-161820D01*
X983291D01*
Y-162107D01*
Y-162393D01*
Y-162679D01*
X983577D01*
Y-162966D01*
Y-163252D01*
Y-163538D01*
Y-163824D01*
X984150D01*
Y-163538D01*
X984436D01*
Y-163252D01*
X984722D01*
Y-162966D01*
Y-162679D01*
X985009D01*
Y-162393D01*
X985295D01*
Y-162107D01*
Y-161820D01*
X985581D01*
Y-161534D01*
X985868D01*
Y-161248D01*
Y-160961D01*
X986154D01*
Y-160675D01*
X986440D01*
Y-160389D01*
Y-160102D01*
X986726D01*
Y-159816D01*
X987013D01*
Y-159530D01*
Y-159244D01*
X987299D01*
Y-158957D01*
X987585D01*
Y-158671D01*
Y-158385D01*
X987872D01*
Y-158098D01*
X988158D01*
Y-157812D01*
Y-157526D01*
X988444D01*
Y-157239D01*
X988731D01*
Y-156953D01*
Y-156667D01*
X989017D01*
Y-156380D01*
X989303D01*
Y-156094D01*
Y-155808D01*
X989590D01*
Y-155521D01*
X1005337D01*
Y-155808D01*
D02*
G37*
G36*
X961245D02*
Y-156094D01*
Y-156380D01*
Y-156667D01*
Y-156953D01*
Y-157239D01*
Y-157526D01*
Y-157812D01*
Y-158098D01*
Y-158385D01*
Y-158671D01*
Y-158957D01*
Y-159244D01*
Y-159530D01*
Y-159816D01*
Y-160102D01*
Y-160389D01*
Y-160675D01*
Y-160961D01*
Y-161248D01*
Y-161534D01*
X960958D01*
Y-161820D01*
Y-162107D01*
Y-162393D01*
Y-162679D01*
Y-162966D01*
X960672D01*
Y-163252D01*
Y-163538D01*
Y-163824D01*
Y-164111D01*
X960386D01*
Y-164397D01*
Y-164683D01*
Y-164970D01*
Y-165256D01*
X960099D01*
Y-165542D01*
Y-165829D01*
Y-166115D01*
X959813D01*
Y-166401D01*
Y-166688D01*
Y-166974D01*
X959527D01*
Y-167260D01*
Y-167547D01*
Y-167833D01*
X959241D01*
Y-168119D01*
Y-168405D01*
Y-168692D01*
X958954D01*
Y-168978D01*
Y-169264D01*
X958668D01*
Y-169551D01*
Y-169837D01*
X958381D01*
Y-170123D01*
Y-170410D01*
Y-170696D01*
X958095D01*
Y-170982D01*
Y-171269D01*
X957809D01*
Y-171555D01*
Y-171841D01*
Y-172127D01*
X957523D01*
Y-172414D01*
Y-172700D01*
X957236D01*
Y-172986D01*
Y-173273D01*
Y-173559D01*
X956950D01*
Y-173845D01*
Y-174132D01*
X956664D01*
Y-174418D01*
Y-174704D01*
Y-174991D01*
X956377D01*
Y-175277D01*
Y-175563D01*
X956091D01*
Y-175850D01*
Y-176136D01*
Y-176422D01*
X955805D01*
Y-176709D01*
Y-176995D01*
X955518D01*
Y-177281D01*
Y-177568D01*
Y-177854D01*
X955232D01*
Y-178140D01*
Y-178426D01*
X954946D01*
Y-178713D01*
Y-178999D01*
Y-179285D01*
X954659D01*
Y-179572D01*
Y-179858D01*
X954373D01*
Y-180144D01*
Y-180431D01*
Y-180717D01*
X954087D01*
Y-181003D01*
Y-181290D01*
X953800D01*
Y-181576D01*
Y-181862D01*
Y-182149D01*
X953514D01*
Y-182435D01*
Y-182721D01*
X953228D01*
Y-183007D01*
Y-183294D01*
Y-183580D01*
X952942D01*
Y-183866D01*
Y-184153D01*
X952655D01*
Y-184439D01*
Y-184725D01*
Y-185012D01*
X952369D01*
Y-185298D01*
Y-185584D01*
X952083D01*
Y-185871D01*
Y-186157D01*
Y-186443D01*
X951796D01*
Y-186730D01*
Y-187016D01*
X951510D01*
Y-187302D01*
Y-187588D01*
Y-187875D01*
X951224D01*
Y-188161D01*
Y-188447D01*
X950937D01*
Y-188734D01*
Y-189020D01*
Y-189306D01*
X950651D01*
Y-189593D01*
Y-189879D01*
X950365D01*
Y-190165D01*
Y-190452D01*
Y-190738D01*
X950078D01*
Y-191024D01*
Y-191311D01*
X949792D01*
Y-191597D01*
Y-191883D01*
Y-192169D01*
X949506D01*
Y-192456D01*
Y-192742D01*
X949220D01*
Y-193028D01*
Y-193315D01*
X948933D01*
Y-193601D01*
Y-193887D01*
X948647D01*
Y-194174D01*
Y-194460D01*
Y-194746D01*
X948361D01*
Y-195033D01*
X948074D01*
Y-195319D01*
Y-195605D01*
Y-195891D01*
X947788D01*
Y-196178D01*
X947502D01*
Y-196464D01*
Y-196750D01*
X947215D01*
Y-197037D01*
Y-197323D01*
X946929D01*
Y-197609D01*
Y-197896D01*
X946643D01*
Y-198182D01*
Y-198468D01*
X946356D01*
Y-198755D01*
X946070D01*
Y-199041D01*
Y-199327D01*
X945784D01*
Y-199614D01*
Y-199900D01*
X945497D01*
Y-200186D01*
X945211D01*
Y-200472D01*
X944925D01*
Y-200759D01*
Y-201045D01*
X944639D01*
Y-201331D01*
X944352D01*
Y-201618D01*
Y-201904D01*
X944066D01*
Y-202190D01*
X943780D01*
Y-202477D01*
X943493D01*
Y-202763D01*
Y-203049D01*
X943207D01*
Y-203336D01*
X942921D01*
Y-203622D01*
X942634D01*
Y-203908D01*
X942348D01*
Y-204195D01*
X942062D01*
Y-204481D01*
Y-204767D01*
X941775D01*
Y-205053D01*
X941489D01*
Y-205340D01*
X941203D01*
Y-205626D01*
X940916D01*
Y-205912D01*
X940630D01*
Y-206199D01*
X940344D01*
Y-206485D01*
X940057D01*
Y-206771D01*
X939485D01*
Y-207058D01*
X939199D01*
Y-207344D01*
X938912D01*
Y-207630D01*
X938626D01*
Y-207917D01*
X938340D01*
Y-208203D01*
X937767D01*
Y-208489D01*
X937481D01*
Y-208776D01*
X936908D01*
Y-209062D01*
X936622D01*
Y-209348D01*
X936049D01*
Y-209634D01*
X935763D01*
Y-209921D01*
X935190D01*
Y-210207D01*
X934618D01*
Y-210493D01*
X934045D01*
Y-210780D01*
X933472D01*
Y-211066D01*
X932900D01*
Y-211352D01*
X932041D01*
Y-211639D01*
X931468D01*
Y-211925D01*
X930609D01*
Y-212211D01*
X929464D01*
Y-212498D01*
X928319D01*
Y-212784D01*
X926601D01*
Y-213070D01*
X924597D01*
Y-213357D01*
X924310D01*
Y-213070D01*
Y-212784D01*
Y-212498D01*
Y-212211D01*
Y-211925D01*
Y-211639D01*
Y-211352D01*
Y-211066D01*
Y-210780D01*
Y-210493D01*
Y-210207D01*
Y-209921D01*
Y-209634D01*
Y-209348D01*
Y-209062D01*
Y-208776D01*
Y-208489D01*
Y-208203D01*
Y-207917D01*
Y-207630D01*
Y-207344D01*
Y-207058D01*
Y-206771D01*
Y-206485D01*
Y-206199D01*
Y-205912D01*
Y-205626D01*
Y-205340D01*
Y-205053D01*
Y-204767D01*
Y-204481D01*
Y-204195D01*
Y-203908D01*
X924883D01*
Y-203622D01*
X925455D01*
Y-203336D01*
X926028D01*
Y-203049D01*
X926601D01*
Y-202763D01*
X927173D01*
Y-202477D01*
X927746D01*
Y-202190D01*
X928032D01*
Y-201904D01*
X928605D01*
Y-201618D01*
X928891D01*
Y-201331D01*
X929464D01*
Y-201045D01*
X929750D01*
Y-200759D01*
X930037D01*
Y-200472D01*
X930609D01*
Y-200186D01*
X930896D01*
Y-199900D01*
X931182D01*
Y-199614D01*
X931468D01*
Y-199327D01*
X931754D01*
Y-199041D01*
X932041D01*
Y-198755D01*
X932327D01*
Y-198468D01*
X932613D01*
Y-198182D01*
X932900D01*
Y-197896D01*
X933186D01*
Y-197609D01*
X933472D01*
Y-197323D01*
X933759D01*
Y-197037D01*
Y-196750D01*
X934045D01*
Y-196464D01*
X934331D01*
Y-196178D01*
X934618D01*
Y-195891D01*
Y-195605D01*
X934904D01*
Y-195319D01*
X935190D01*
Y-195033D01*
Y-194746D01*
X935476D01*
Y-194460D01*
Y-194174D01*
X935763D01*
Y-193887D01*
X936049D01*
Y-193601D01*
Y-193315D01*
X936335D01*
Y-193028D01*
Y-192742D01*
X936622D01*
Y-192456D01*
Y-192169D01*
X934904D01*
Y-191883D01*
X932900D01*
Y-191597D01*
X931754D01*
Y-191311D01*
X931182D01*
Y-191024D01*
X930323D01*
Y-190738D01*
X929750D01*
Y-190452D01*
X929464D01*
Y-190165D01*
X928891D01*
Y-189879D01*
X928605D01*
Y-189593D01*
X928319D01*
Y-189306D01*
X928032D01*
Y-189020D01*
X927746D01*
Y-188734D01*
X927460D01*
Y-188447D01*
Y-188161D01*
X927173D01*
Y-187875D01*
X926887D01*
Y-187588D01*
Y-187302D01*
X926601D01*
Y-187016D01*
Y-186730D01*
X926315D01*
Y-186443D01*
Y-186157D01*
X926028D01*
Y-185871D01*
Y-185584D01*
Y-185298D01*
X925742D01*
Y-185012D01*
Y-184725D01*
Y-184439D01*
Y-184153D01*
X925455D01*
Y-183866D01*
Y-183580D01*
Y-183294D01*
Y-183007D01*
Y-182721D01*
Y-182435D01*
Y-182149D01*
X925169D01*
Y-181862D01*
Y-181576D01*
Y-181290D01*
Y-181003D01*
Y-180717D01*
Y-180431D01*
Y-180144D01*
Y-179858D01*
Y-179572D01*
Y-179285D01*
Y-178999D01*
Y-178713D01*
Y-178426D01*
Y-178140D01*
Y-177854D01*
X924883D01*
Y-177568D01*
Y-177281D01*
Y-176995D01*
Y-176709D01*
Y-176422D01*
Y-176136D01*
Y-175850D01*
Y-175563D01*
Y-175277D01*
Y-174991D01*
Y-174704D01*
Y-174418D01*
Y-174132D01*
Y-173845D01*
Y-173559D01*
X924597D01*
Y-173273D01*
Y-172986D01*
Y-172700D01*
Y-172414D01*
Y-172127D01*
Y-171841D01*
Y-171555D01*
Y-171269D01*
Y-170982D01*
Y-170696D01*
Y-170410D01*
Y-170123D01*
Y-169837D01*
Y-169551D01*
Y-169264D01*
Y-168978D01*
X924310D01*
Y-168692D01*
Y-168405D01*
Y-168119D01*
Y-167833D01*
Y-167547D01*
Y-167260D01*
Y-166974D01*
Y-166688D01*
Y-166401D01*
Y-166115D01*
Y-165829D01*
Y-165542D01*
Y-165256D01*
Y-164970D01*
Y-164683D01*
Y-164397D01*
X924024D01*
Y-164111D01*
Y-163824D01*
Y-163538D01*
Y-163252D01*
Y-162966D01*
Y-162679D01*
Y-162393D01*
Y-162107D01*
Y-161820D01*
Y-161534D01*
Y-161248D01*
Y-160961D01*
Y-160675D01*
Y-160389D01*
X923738D01*
Y-160102D01*
Y-159816D01*
Y-159530D01*
Y-159244D01*
Y-158957D01*
Y-158671D01*
Y-158385D01*
Y-158098D01*
Y-157812D01*
Y-157526D01*
Y-157239D01*
Y-156953D01*
Y-156667D01*
Y-156380D01*
Y-156094D01*
Y-155808D01*
X923451D01*
Y-155521D01*
X937194D01*
Y-155808D01*
Y-156094D01*
Y-156380D01*
Y-156667D01*
Y-156953D01*
Y-157239D01*
Y-157526D01*
Y-157812D01*
Y-158098D01*
Y-158385D01*
Y-158671D01*
Y-158957D01*
Y-159244D01*
Y-159530D01*
X937481D01*
Y-159816D01*
Y-160102D01*
Y-160389D01*
Y-160675D01*
Y-160961D01*
Y-161248D01*
Y-161534D01*
Y-161820D01*
Y-162107D01*
Y-162393D01*
Y-162679D01*
Y-162966D01*
Y-163252D01*
Y-163538D01*
Y-163824D01*
Y-164111D01*
Y-164397D01*
Y-164683D01*
Y-164970D01*
Y-165256D01*
Y-165542D01*
Y-165829D01*
Y-166115D01*
Y-166401D01*
Y-166688D01*
Y-166974D01*
Y-167260D01*
Y-167547D01*
Y-167833D01*
Y-168119D01*
Y-168405D01*
Y-168692D01*
Y-168978D01*
Y-169264D01*
Y-169551D01*
Y-169837D01*
Y-170123D01*
Y-170410D01*
Y-170696D01*
Y-170982D01*
Y-171269D01*
X937767D01*
Y-171555D01*
X937481D01*
Y-171841D01*
Y-172127D01*
X937767D01*
Y-172414D01*
Y-172700D01*
Y-172986D01*
Y-173273D01*
Y-173559D01*
Y-173845D01*
Y-174132D01*
Y-174418D01*
Y-174704D01*
Y-174991D01*
Y-175277D01*
Y-175563D01*
Y-175850D01*
Y-176136D01*
Y-176422D01*
Y-176709D01*
Y-176995D01*
Y-177281D01*
Y-177568D01*
Y-177854D01*
Y-178140D01*
Y-178426D01*
Y-178713D01*
Y-178999D01*
Y-179285D01*
Y-179572D01*
X938053D01*
Y-179858D01*
Y-180144D01*
Y-180431D01*
X938340D01*
Y-180717D01*
X938626D01*
Y-181003D01*
X938912D01*
Y-181290D01*
X939771D01*
Y-181576D01*
X940630D01*
Y-181290D01*
X940916D01*
Y-181003D01*
Y-180717D01*
Y-180431D01*
X941203D01*
Y-180144D01*
Y-179858D01*
X941489D01*
Y-179572D01*
Y-179285D01*
Y-178999D01*
X941775D01*
Y-178713D01*
Y-178426D01*
Y-178140D01*
X942062D01*
Y-177854D01*
Y-177568D01*
Y-177281D01*
X942348D01*
Y-176995D01*
Y-176709D01*
Y-176422D01*
X942634D01*
Y-176136D01*
Y-175850D01*
X942921D01*
Y-175563D01*
Y-175277D01*
Y-174991D01*
X943207D01*
Y-174704D01*
Y-174418D01*
Y-174132D01*
X943493D01*
Y-173845D01*
Y-173559D01*
Y-173273D01*
X943780D01*
Y-172986D01*
Y-172700D01*
X944066D01*
Y-172414D01*
Y-172127D01*
Y-171841D01*
X944352D01*
Y-171555D01*
Y-171269D01*
Y-170982D01*
X944639D01*
Y-170696D01*
Y-170410D01*
Y-170123D01*
X944925D01*
Y-169837D01*
Y-169551D01*
X945211D01*
Y-169264D01*
Y-168978D01*
Y-168692D01*
X945497D01*
Y-168405D01*
Y-168119D01*
Y-167833D01*
X945784D01*
Y-167547D01*
Y-167260D01*
Y-166974D01*
X946070D01*
Y-166688D01*
Y-166401D01*
X946356D01*
Y-166115D01*
Y-165829D01*
Y-165542D01*
X946643D01*
Y-165256D01*
Y-164970D01*
Y-164683D01*
X946929D01*
Y-164397D01*
Y-164111D01*
Y-163824D01*
X947215D01*
Y-163538D01*
Y-163252D01*
Y-162966D01*
Y-162679D01*
X947502D01*
Y-162393D01*
Y-162107D01*
Y-161820D01*
Y-161534D01*
X947788D01*
Y-161248D01*
Y-160961D01*
Y-160675D01*
Y-160389D01*
Y-160102D01*
X948074D01*
Y-159816D01*
Y-159530D01*
Y-159244D01*
Y-158957D01*
Y-158671D01*
Y-158385D01*
X948361D01*
Y-158098D01*
Y-157812D01*
Y-157526D01*
Y-157239D01*
Y-156953D01*
Y-156667D01*
Y-156380D01*
Y-156094D01*
Y-155808D01*
Y-155521D01*
X961245D01*
Y-155808D01*
D02*
G37*
%LPC*%
G36*
X867907Y-152658D02*
X859890D01*
Y-152945D01*
Y-153231D01*
Y-153517D01*
Y-153804D01*
Y-154090D01*
X859604D01*
Y-154376D01*
Y-154663D01*
Y-154949D01*
Y-155235D01*
Y-155521D01*
Y-155808D01*
X859317D01*
Y-156094D01*
Y-156380D01*
Y-156667D01*
Y-156953D01*
Y-157239D01*
Y-157526D01*
X859031D01*
Y-157812D01*
Y-158098D01*
Y-158385D01*
Y-158671D01*
Y-158957D01*
Y-159244D01*
X858745D01*
Y-159530D01*
Y-159816D01*
Y-160102D01*
Y-160389D01*
Y-160675D01*
Y-160961D01*
Y-161248D01*
X858458D01*
Y-161534D01*
Y-161820D01*
Y-162107D01*
Y-162393D01*
Y-162679D01*
Y-162966D01*
X858172D01*
Y-163252D01*
Y-163538D01*
Y-163824D01*
X865330D01*
Y-163538D01*
X866475D01*
Y-163252D01*
X867048D01*
Y-162966D01*
X867334D01*
Y-162679D01*
X867620D01*
Y-162393D01*
X867907D01*
Y-162107D01*
X868193D01*
Y-161820D01*
Y-161534D01*
X868479D01*
Y-161248D01*
Y-160961D01*
X868766D01*
Y-160675D01*
Y-160389D01*
X869052D01*
Y-160102D01*
Y-159816D01*
Y-159530D01*
Y-159244D01*
X869338D01*
Y-158957D01*
Y-158671D01*
Y-158385D01*
Y-158098D01*
Y-157812D01*
X869625D01*
Y-157526D01*
Y-157239D01*
Y-156953D01*
Y-156667D01*
Y-156380D01*
Y-156094D01*
Y-155808D01*
Y-155521D01*
Y-155235D01*
Y-154949D01*
Y-154663D01*
X869338D01*
Y-154376D01*
Y-154090D01*
X869052D01*
Y-153804D01*
Y-153517D01*
X868766D01*
Y-153231D01*
X868479D01*
Y-152945D01*
X867907D01*
Y-152658D01*
D02*
G37*
%LPD*%
D10*
X846071Y-247293D02*
Y-263036D01*
X851318Y-257788D01*
X856566Y-263036D01*
Y-247293D01*
X861814Y-263036D02*
X867061D01*
X864437D01*
Y-252540D01*
X861814D01*
X874933Y-263036D02*
Y-252540D01*
X877556D01*
X880180Y-255164D01*
Y-263036D01*
Y-255164D01*
X882804Y-252540D01*
X885428Y-255164D01*
Y-263036D01*
X890676Y-247293D02*
Y-257788D01*
X895923Y-263036D01*
X901171Y-257788D01*
Y-247293D01*
X916914Y-249917D02*
X914290Y-247293D01*
X909042D01*
X906419Y-249917D01*
Y-260412D01*
X909042Y-263036D01*
X914290D01*
X916914Y-260412D01*
Y-255164D01*
X911666D01*
X1200401Y-210546D02*
X1203025Y-207923D01*
X1208273D01*
X1210897Y-210546D01*
Y-221042D01*
X1208273Y-223665D01*
X1203025D01*
X1200401Y-221042D01*
Y-210546D01*
X1216144D02*
X1218768Y-207923D01*
X1224016D01*
X1226639Y-210546D01*
Y-221042D01*
X1224016Y-223665D01*
X1218768D01*
X1216144Y-221042D01*
Y-210546D01*
X1037015Y-212186D02*
X1039311Y-209890D01*
X1043903D01*
X1046199Y-212186D01*
Y-214482D01*
X1043903Y-216778D01*
X1041607D01*
X1043903D01*
X1046199Y-219074D01*
Y-221370D01*
X1043903Y-223665D01*
X1039311D01*
X1037015Y-221370D01*
X1050791Y-212186D02*
X1053086Y-209890D01*
X1057678D01*
X1059974Y-212186D01*
Y-221370D01*
X1057678Y-223665D01*
X1053086D01*
X1050791Y-221370D01*
Y-212186D01*
X1064566Y-223665D02*
X1073749Y-214482D01*
X1078341Y-212186D02*
X1080637Y-209890D01*
X1085228D01*
X1087524Y-212186D01*
Y-221370D01*
X1085228Y-223665D01*
X1080637D01*
X1078341Y-221370D01*
Y-212186D01*
X1101299Y-209890D02*
X1096707Y-212186D01*
X1092116Y-216778D01*
Y-221370D01*
X1094412Y-223665D01*
X1099003D01*
X1101299Y-221370D01*
Y-219074D01*
X1099003Y-216778D01*
X1092116D01*
X1105891Y-223665D02*
X1115074Y-214482D01*
X1128849Y-223665D02*
X1119666D01*
X1128849Y-214482D01*
Y-212186D01*
X1126553Y-209890D01*
X1121962D01*
X1119666Y-212186D01*
X1133441D02*
X1135737Y-209890D01*
X1140329D01*
X1142624Y-212186D01*
Y-221370D01*
X1140329Y-223665D01*
X1135737D01*
X1133441Y-221370D01*
Y-212186D01*
X1147216Y-223665D02*
X1151808D01*
X1149512D01*
Y-209890D01*
X1147216Y-212186D01*
X1158695Y-221370D02*
X1160991Y-223665D01*
X1165583D01*
X1167879Y-221370D01*
Y-212186D01*
X1165583Y-209890D01*
X1160991D01*
X1158695Y-212186D01*
Y-214482D01*
X1160991Y-216778D01*
X1167879D01*
X1038981Y-135086D02*
X1037014Y-133118D01*
X1033078D01*
X1031110Y-135086D01*
Y-137054D01*
X1033078Y-139022D01*
X1037014D01*
X1038981Y-140990D01*
Y-142957D01*
X1037014Y-144925D01*
X1033078D01*
X1031110Y-142957D01*
X1042917Y-144925D02*
Y-137054D01*
X1046853Y-133118D01*
X1050789Y-137054D01*
Y-144925D01*
Y-139022D01*
X1042917D01*
X1060628Y-133118D02*
X1056692D01*
X1054724Y-135086D01*
Y-142957D01*
X1056692Y-144925D01*
X1060628D01*
X1062596Y-142957D01*
Y-135086D01*
X1060628Y-133118D01*
X1078339Y-144925D02*
Y-137054D01*
X1082275Y-133118D01*
X1086210Y-137054D01*
Y-144925D01*
Y-139022D01*
X1078339D01*
X1090146Y-144925D02*
Y-133118D01*
X1096049D01*
X1098017Y-135086D01*
Y-139022D01*
X1096049Y-140990D01*
X1090146D01*
X1094082D02*
X1098017Y-144925D01*
X1109825Y-133118D02*
X1101953D01*
Y-144925D01*
X1109825D01*
X1101953Y-139022D02*
X1105889D01*
X1113760Y-144925D02*
Y-137054D01*
X1117696Y-133118D01*
X1121632Y-137054D01*
Y-144925D01*
Y-139022D01*
X1113760D01*
X1137375Y-135086D02*
X1139343Y-133118D01*
X1143278D01*
X1145246Y-135086D01*
Y-137054D01*
X1143278Y-139022D01*
X1141310D01*
X1143278D01*
X1145246Y-140990D01*
Y-142957D01*
X1143278Y-144925D01*
X1139343D01*
X1137375Y-142957D01*
X1149182Y-135086D02*
X1151150Y-133118D01*
X1155085D01*
X1157053Y-135086D01*
Y-142957D01*
X1155085Y-144925D01*
X1151150D01*
X1149182Y-142957D01*
Y-135086D01*
X1160989D02*
X1162957Y-133118D01*
X1166893D01*
X1168861Y-135086D01*
Y-142957D01*
X1166893Y-144925D01*
X1162957D01*
X1160989Y-142957D01*
Y-135086D01*
X1172796Y-144925D02*
X1176732D01*
X1174764D01*
Y-133118D01*
X1172796Y-135086D01*
X1202314D02*
X1200346Y-133118D01*
X1196411D01*
X1194443Y-135086D01*
Y-137054D01*
X1196411Y-139022D01*
X1200346D01*
X1202314Y-140990D01*
Y-142957D01*
X1200346Y-144925D01*
X1196411D01*
X1194443Y-142957D01*
X1218057Y-133118D02*
X1225929D01*
X1221993D01*
Y-144925D01*
X1235768Y-133118D02*
X1231832D01*
X1229865Y-135086D01*
Y-142957D01*
X1231832Y-144925D01*
X1235768D01*
X1237736Y-142957D01*
Y-135086D01*
X1235768Y-133118D01*
X1241672Y-144925D02*
Y-133118D01*
X1247575D01*
X1249543Y-135086D01*
Y-139022D01*
X1247575Y-140990D01*
X1241672D01*
X1042921Y-168552D02*
Y-182327D01*
X1049809D01*
X1052104Y-180031D01*
Y-170848D01*
X1049809Y-168552D01*
X1042921D01*
X1056696Y-173143D02*
Y-182327D01*
Y-177735D01*
X1058992Y-175439D01*
X1061288Y-173143D01*
X1063584D01*
X1070471Y-182327D02*
X1075063D01*
X1072767D01*
Y-173143D01*
X1070471D01*
X1081950Y-182327D02*
X1086542D01*
X1084246D01*
Y-168552D01*
X1081950D01*
X1093430Y-182327D02*
X1098021D01*
X1095725D01*
Y-168552D01*
X1093430D01*
X1118684D02*
Y-182327D01*
X1125571D01*
X1127867Y-180031D01*
Y-170848D01*
X1125571Y-168552D01*
X1118684D01*
X1132459Y-173143D02*
Y-182327D01*
Y-177735D01*
X1134755Y-175439D01*
X1137051Y-173143D01*
X1139347D01*
X1148530D02*
X1153122D01*
X1155417Y-175439D01*
Y-182327D01*
X1148530D01*
X1146234Y-180031D01*
X1148530Y-177735D01*
X1155417D01*
X1160009Y-173143D02*
Y-180031D01*
X1162305Y-182327D01*
X1164601Y-180031D01*
X1166897Y-182327D01*
X1169193Y-180031D01*
Y-173143D01*
X1173784Y-182327D02*
X1178376D01*
X1176080D01*
Y-173143D01*
X1173784D01*
X1185263Y-182327D02*
Y-173143D01*
X1192151D01*
X1194447Y-175439D01*
Y-182327D01*
X1203630Y-186919D02*
X1205926D01*
X1208222Y-184623D01*
Y-173143D01*
X1201334D01*
X1199039Y-175439D01*
Y-180031D01*
X1201334Y-182327D01*
X1208222D01*
D11*
X5906Y43307D02*
G03*
X0Y37402I0J-5906D01*
G01*
X45276Y0D02*
G03*
X51181Y5906I0J5906D01*
G01*
X51181Y37402D02*
G03*
X45276Y43307I-5906J0D01*
G01*
X0Y5906D02*
G03*
X5906Y0I5906J0D01*
G01*
Y43307D02*
X45276D01*
X5906Y0D02*
X45276D01*
X51181Y5906D02*
Y37402D01*
X0Y5906D02*
Y37402D01*
D12*
X1178748Y-229571D02*
Y-190201D01*
X1021267Y-150831D02*
X1296858D01*
X1021267Y-190201D02*
X1296858D01*
X824417Y-229571D02*
X1296858D01*
X824417Y-111461D02*
X1296858D01*
X824417Y-268941D02*
Y-111461D01*
X1021267Y-268941D02*
Y-111461D01*
X-356685Y900350D02*
X1296858D01*
Y-268941D02*
Y900350D01*
X-356685Y-268941D02*
Y900350D01*
Y-268941D02*
X1296858D01*
X1035046Y-256147D02*
X1034062Y-255164D01*
X1032094D01*
X1031110Y-256147D01*
Y-257131D01*
X1032094Y-258115D01*
X1034062D01*
X1035046Y-259099D01*
Y-260083D01*
X1034062Y-261067D01*
X1032094D01*
X1031110Y-260083D01*
X1037014Y-261067D02*
Y-257131D01*
X1038981Y-255164D01*
X1040949Y-257131D01*
Y-261067D01*
Y-258115D01*
X1037014D01*
X1045869Y-255164D02*
X1043901D01*
X1042917Y-256147D01*
Y-260083D01*
X1043901Y-261067D01*
X1045869D01*
X1046853Y-260083D01*
Y-256147D01*
X1045869Y-255164D01*
X1048821Y-262051D02*
X1052757D01*
X1054724Y-261067D02*
Y-257131D01*
X1056692Y-255164D01*
X1058660Y-257131D01*
Y-261067D01*
Y-258115D01*
X1054724D01*
X1060628Y-257131D02*
Y-261067D01*
Y-259099D01*
X1061612Y-258115D01*
X1062596Y-257131D01*
X1063580D01*
X1069483Y-261067D02*
X1067515D01*
X1066531Y-260083D01*
Y-258115D01*
X1067515Y-257131D01*
X1069483D01*
X1070467Y-258115D01*
Y-259099D01*
X1066531D01*
X1073419Y-257131D02*
X1075387D01*
X1076371Y-258115D01*
Y-261067D01*
X1073419D01*
X1072435Y-260083D01*
X1073419Y-259099D01*
X1076371D01*
X1078339Y-256147D02*
X1079323Y-255164D01*
X1081291D01*
X1082275Y-256147D01*
Y-257131D01*
X1081291Y-258115D01*
X1080307D01*
X1081291D01*
X1082275Y-259099D01*
Y-260083D01*
X1081291Y-261067D01*
X1079323D01*
X1078339Y-260083D01*
X1084242Y-256147D02*
X1085226Y-255164D01*
X1087194D01*
X1088178Y-256147D01*
Y-260083D01*
X1087194Y-261067D01*
X1085226D01*
X1084242Y-260083D01*
Y-256147D01*
X1090146D02*
X1091130Y-255164D01*
X1093098D01*
X1094082Y-256147D01*
Y-260083D01*
X1093098Y-261067D01*
X1091130D01*
X1090146Y-260083D01*
Y-256147D01*
X1096049Y-261067D02*
X1098017D01*
X1097034D01*
Y-255164D01*
X1096049Y-256147D01*
X1100969Y-262051D02*
X1104905D01*
X1110808Y-256147D02*
X1109825Y-255164D01*
X1107857D01*
X1106873Y-256147D01*
Y-257131D01*
X1107857Y-258115D01*
X1109825D01*
X1110808Y-259099D01*
Y-260083D01*
X1109825Y-261067D01*
X1107857D01*
X1106873Y-260083D01*
X1112776Y-262051D02*
X1116712D01*
X1118680Y-255164D02*
X1122616D01*
X1120648D01*
Y-261067D01*
X1127535Y-255164D02*
X1125568D01*
X1124584Y-256147D01*
Y-260083D01*
X1125568Y-261067D01*
X1127535D01*
X1128519Y-260083D01*
Y-256147D01*
X1127535Y-255164D01*
X1130487Y-261067D02*
Y-255164D01*
X1133439D01*
X1134423Y-256147D01*
Y-258115D01*
X1133439Y-259099D01*
X1130487D01*
X1136391Y-262051D02*
X1140326D01*
X1142294Y-256147D02*
X1143278Y-255164D01*
X1145246D01*
X1146230Y-256147D01*
Y-260083D01*
X1145246Y-261067D01*
X1143278D01*
X1142294Y-260083D01*
Y-256147D01*
X1148198D02*
X1149182Y-255164D01*
X1151150D01*
X1152134Y-256147D01*
Y-260083D01*
X1151150Y-261067D01*
X1149182D01*
X1148198Y-260083D01*
Y-256147D01*
X1154102Y-261067D02*
Y-260083D01*
X1155085D01*
Y-261067D01*
X1154102D01*
X1159021D02*
Y-255164D01*
X1161973D01*
X1162957Y-256147D01*
Y-258115D01*
X1161973Y-259099D01*
X1159021D01*
X1168861Y-257131D02*
X1165909D01*
X1164925Y-258115D01*
Y-260083D01*
X1165909Y-261067D01*
X1168861D01*
X1170829Y-255164D02*
Y-261067D01*
X1173780D01*
X1174764Y-260083D01*
Y-259099D01*
Y-258115D01*
X1173780Y-257131D01*
X1170829D01*
X1176732Y-255164D02*
Y-261067D01*
X1179684D01*
X1180668Y-260083D01*
Y-256147D01*
X1179684Y-255164D01*
X1176732D01*
X1183620Y-261067D02*
X1185588D01*
X1186571Y-260083D01*
Y-258115D01*
X1185588Y-257131D01*
X1183620D01*
X1182636Y-258115D01*
Y-260083D01*
X1183620Y-261067D01*
X1192475Y-257131D02*
X1189523D01*
X1188539Y-258115D01*
Y-260083D01*
X1189523Y-261067D01*
X1192475D01*
D13*
X1182685Y-202012D02*
Y-194141D01*
X1186621D01*
X1187932Y-195452D01*
Y-198076D01*
X1186621Y-199388D01*
X1182685D01*
X1185308D02*
X1187932Y-202012D01*
X1194492D02*
X1191868D01*
X1190556Y-200700D01*
Y-198076D01*
X1191868Y-196764D01*
X1194492D01*
X1195804Y-198076D01*
Y-199388D01*
X1190556D01*
X1198428Y-196764D02*
X1201052Y-202012D01*
X1203675Y-196764D01*
X828354Y-233511D02*
Y-241382D01*
X832290D01*
X833602Y-240070D01*
Y-234823D01*
X832290Y-233511D01*
X828354D01*
X840161Y-241382D02*
X837537D01*
X836226Y-240070D01*
Y-237446D01*
X837537Y-236134D01*
X840161D01*
X841473Y-237446D01*
Y-238758D01*
X836226D01*
X844097Y-241382D02*
X848033D01*
X849345Y-240070D01*
X848033Y-238758D01*
X845409D01*
X844097Y-237446D01*
X845409Y-236134D01*
X849345D01*
X854592Y-244006D02*
X855904D01*
X857216Y-242694D01*
Y-236134D01*
X853280D01*
X851968Y-237446D01*
Y-240070D01*
X853280Y-241382D01*
X857216D01*
X859840D02*
X862464D01*
X861152D01*
Y-236134D01*
X859840D01*
X866399Y-241382D02*
Y-236134D01*
X870335D01*
X871647Y-237446D01*
Y-241382D01*
X878207D02*
X875583D01*
X874271Y-240070D01*
Y-237446D01*
X875583Y-236134D01*
X878207D01*
X879519Y-237446D01*
Y-238758D01*
X874271D01*
X882143Y-236134D02*
Y-241382D01*
Y-238758D01*
X883454Y-237446D01*
X884766Y-236134D01*
X886078D01*
X1025204Y-115400D02*
Y-123272D01*
X1029140D01*
X1030452Y-121960D01*
Y-116712D01*
X1029140Y-115400D01*
X1025204D01*
X1034388Y-123272D02*
X1037012D01*
X1038323Y-121960D01*
Y-119336D01*
X1037012Y-118024D01*
X1034388D01*
X1033076Y-119336D01*
Y-121960D01*
X1034388Y-123272D01*
X1046195Y-118024D02*
X1042259D01*
X1040947Y-119336D01*
Y-121960D01*
X1042259Y-123272D01*
X1046195D01*
X1048819Y-118024D02*
Y-121960D01*
X1050131Y-123272D01*
X1054066D01*
Y-118024D01*
X1056690Y-123272D02*
Y-118024D01*
X1058002D01*
X1059314Y-119336D01*
Y-123272D01*
Y-119336D01*
X1060626Y-118024D01*
X1061938Y-119336D01*
Y-123272D01*
X1068498D02*
X1065874D01*
X1064562Y-121960D01*
Y-119336D01*
X1065874Y-118024D01*
X1068498D01*
X1069810Y-119336D01*
Y-120648D01*
X1064562D01*
X1072433Y-123272D02*
Y-118024D01*
X1076369D01*
X1077681Y-119336D01*
Y-123272D01*
X1081617Y-116712D02*
Y-118024D01*
X1080305D01*
X1082929D01*
X1081617D01*
Y-121960D01*
X1082929Y-123272D01*
X1025204Y-154770D02*
Y-162642D01*
X1030452D01*
X1034388Y-157394D02*
X1037012D01*
X1038323Y-158706D01*
Y-162642D01*
X1034388D01*
X1033076Y-161330D01*
X1034388Y-160018D01*
X1038323D01*
X1040947Y-157394D02*
Y-161330D01*
X1042259Y-162642D01*
X1046195D01*
Y-163954D01*
X1044883Y-165266D01*
X1043571D01*
X1046195Y-162642D02*
Y-157394D01*
X1052755Y-162642D02*
X1050131D01*
X1048819Y-161330D01*
Y-158706D01*
X1050131Y-157394D01*
X1052755D01*
X1054066Y-158706D01*
Y-160018D01*
X1048819D01*
X1056690Y-157394D02*
Y-162642D01*
Y-160018D01*
X1058002Y-158706D01*
X1059314Y-157394D01*
X1060626D01*
X1072433Y-162642D02*
Y-154770D01*
X1077681Y-162642D01*
Y-154770D01*
X1081617Y-157394D02*
X1084241D01*
X1085552Y-158706D01*
Y-162642D01*
X1081617D01*
X1080305Y-161330D01*
X1081617Y-160018D01*
X1085552D01*
X1088176Y-162642D02*
Y-157394D01*
X1089488D01*
X1090800Y-158706D01*
Y-162642D01*
Y-158706D01*
X1092112Y-157394D01*
X1093424Y-158706D01*
Y-162642D01*
X1099984D02*
X1097360D01*
X1096048Y-161330D01*
Y-158706D01*
X1097360Y-157394D01*
X1099984D01*
X1101295Y-158706D01*
Y-160018D01*
X1096048D01*
X1025204Y-194141D02*
Y-202012D01*
X1029140D01*
X1030452Y-200700D01*
Y-195452D01*
X1029140Y-194141D01*
X1025204D01*
X1034388Y-196764D02*
X1037012D01*
X1038323Y-198076D01*
Y-202012D01*
X1034388D01*
X1033076Y-200700D01*
X1034388Y-199388D01*
X1038323D01*
X1042259Y-195452D02*
Y-196764D01*
X1040947D01*
X1043571D01*
X1042259D01*
Y-200700D01*
X1043571Y-202012D01*
X1051443D02*
X1048819D01*
X1047507Y-200700D01*
Y-198076D01*
X1048819Y-196764D01*
X1051443D01*
X1052755Y-198076D01*
Y-199388D01*
X1047507D01*
X1025204Y-233511D02*
Y-241382D01*
X1029140D01*
X1030452Y-240070D01*
Y-234823D01*
X1029140Y-233511D01*
X1025204D01*
X1034388Y-241382D02*
X1037012D01*
X1038323Y-240070D01*
Y-237446D01*
X1037012Y-236134D01*
X1034388D01*
X1033076Y-237446D01*
Y-240070D01*
X1034388Y-241382D01*
X1046195Y-236134D02*
X1042259D01*
X1040947Y-237446D01*
Y-240070D01*
X1042259Y-241382D01*
X1046195D01*
X1048819Y-236134D02*
Y-240070D01*
X1050131Y-241382D01*
X1054066D01*
Y-236134D01*
X1056690Y-241382D02*
Y-236134D01*
X1058002D01*
X1059314Y-237446D01*
Y-241382D01*
Y-237446D01*
X1060626Y-236134D01*
X1061938Y-237446D01*
Y-241382D01*
X1068498D02*
X1065874D01*
X1064562Y-240070D01*
Y-237446D01*
X1065874Y-236134D01*
X1068498D01*
X1069810Y-237446D01*
Y-238758D01*
X1064562D01*
X1072433Y-241382D02*
Y-236134D01*
X1076369D01*
X1077681Y-237446D01*
Y-241382D01*
X1081617Y-234823D02*
Y-236134D01*
X1080305D01*
X1082929D01*
X1081617D01*
Y-240070D01*
X1082929Y-241382D01*
D17*
X468376Y21435D02*
G03*
X468376Y21435I-1750J0D01*
G01*
X461717Y25197D02*
X1129222D01*
X461717Y17323D02*
X1129222D01*
X461717Y9449D02*
X1129222D01*
Y33071D01*
X461717D02*
X1129222D01*
X461717Y9449D02*
Y33071D01*
X1055385Y9449D02*
Y33071D01*
X1009728Y9449D02*
Y33071D01*
X939513Y9449D02*
Y33071D01*
X869297Y9449D02*
Y33071D01*
X824270Y9449D02*
Y33071D01*
X789948Y9449D02*
Y33071D01*
X750589Y9449D02*
Y33071D01*
X719416Y9449D02*
Y33071D01*
X640568Y9449D02*
Y33071D01*
X601838Y9449D02*
Y33071D01*
X575073Y9449D02*
Y33071D01*
X516166Y9449D02*
Y33071D01*
X490844Y9449D02*
Y33071D01*
X1057747Y21259D02*
X1059846D01*
X1012091D02*
X1014190D01*
X794410Y21784D02*
X792835D01*
X792310Y21259D01*
Y20210D01*
X792835Y19685D01*
X794410D01*
X795459D02*
X796509D01*
X795984D01*
Y22834D01*
X795459Y22309D01*
X800182Y19685D02*
X798083D01*
X800182Y21784D01*
Y22309D01*
X799657Y22834D01*
X798608D01*
X798083Y22309D01*
X801231D02*
X801756Y22834D01*
X802806D01*
X803331Y22309D01*
Y20210D01*
X802806Y19685D01*
X801756D01*
X801231Y20210D01*
Y22309D01*
X804380Y22834D02*
Y19685D01*
Y21259D01*
X804905Y21784D01*
X805954D01*
X806479Y21259D01*
Y19685D01*
X807529Y22834D02*
X809628D01*
Y22309D01*
X807529Y20210D01*
Y19685D01*
X810677Y22309D02*
X811202Y22834D01*
X812251D01*
X812776Y22309D01*
Y20210D01*
X812251Y19685D01*
X811202D01*
X810677Y20210D01*
Y22309D01*
X752951Y19685D02*
Y22834D01*
X754525D01*
X755050Y22309D01*
Y21259D01*
X754525Y20735D01*
X752951D01*
X754001D02*
X755050Y19685D01*
X756624D02*
X757674D01*
X758199Y20210D01*
Y21259D01*
X757674Y21784D01*
X756624D01*
X756100Y21259D01*
Y20210D01*
X756624Y19685D01*
X759248Y21784D02*
Y20210D01*
X759773Y19685D01*
X761347D01*
Y21784D01*
X762397Y19685D02*
Y21784D01*
X763971D01*
X764496Y21259D01*
Y19685D01*
X767644Y22834D02*
Y19685D01*
X766070D01*
X765545Y20210D01*
Y21259D01*
X766070Y21784D01*
X767644D01*
X770268Y19685D02*
X769219D01*
X768694Y20210D01*
Y21259D01*
X769219Y21784D01*
X770268D01*
X770793Y21259D01*
Y20735D01*
X768694D01*
X773942Y22834D02*
Y19685D01*
X772367D01*
X771842Y20210D01*
Y21259D01*
X772367Y21784D01*
X773942D01*
X721778Y19685D02*
Y22834D01*
X723352D01*
X723877Y22309D01*
Y21259D01*
X723352Y20735D01*
X721778D01*
X725451Y21784D02*
X726501D01*
X727025Y21259D01*
Y19685D01*
X725451D01*
X724926Y20210D01*
X725451Y20735D01*
X727025D01*
X730174Y22834D02*
Y19685D01*
X728600D01*
X728075Y20210D01*
Y21259D01*
X728600Y21784D01*
X730174D01*
X642930Y22834D02*
X645029D01*
X643980D01*
Y19685D01*
X646603D02*
X647653D01*
X648178Y20210D01*
Y21259D01*
X647653Y21784D01*
X646603D01*
X646078Y21259D01*
Y20210D01*
X646603Y19685D01*
X649227Y18635D02*
Y21784D01*
X650801D01*
X651326Y21259D01*
Y20210D01*
X650801Y19685D01*
X649227D01*
X655524Y22834D02*
Y19685D01*
X657623D01*
X659198Y21784D02*
X660247D01*
X660772Y21259D01*
Y19685D01*
X659198D01*
X658673Y20210D01*
X659198Y20735D01*
X660772D01*
X661822Y21784D02*
Y20210D01*
X662346Y19685D01*
X663920D01*
Y19160D01*
X663396Y18635D01*
X662871D01*
X663920Y19685D02*
Y21784D01*
X666544Y19685D02*
X665495D01*
X664970Y20210D01*
Y21259D01*
X665495Y21784D01*
X666544D01*
X667069Y21259D01*
Y20735D01*
X664970D01*
X668119Y21784D02*
Y19685D01*
Y20735D01*
X668643Y21259D01*
X669168Y21784D01*
X669693D01*
X674416Y21259D02*
X676515D01*
X680713Y22834D02*
Y19685D01*
X682287D01*
X682812Y20210D01*
Y20735D01*
X682287Y21259D01*
X680713D01*
X682287D01*
X682812Y21784D01*
Y22309D01*
X682287Y22834D01*
X680713D01*
X684386Y19685D02*
X685436D01*
X685961Y20210D01*
Y21259D01*
X685436Y21784D01*
X684386D01*
X683862Y21259D01*
Y20210D01*
X684386Y19685D01*
X687535Y22309D02*
Y21784D01*
X687010D01*
X688060D01*
X687535D01*
Y20210D01*
X688060Y19685D01*
X690159Y22309D02*
Y21784D01*
X689634D01*
X690684D01*
X690159D01*
Y20210D01*
X690684Y19685D01*
X692783D02*
X693832D01*
X694357Y20210D01*
Y21259D01*
X693832Y21784D01*
X692783D01*
X692258Y21259D01*
Y20210D01*
X692783Y19685D01*
X695406D02*
Y21784D01*
X695931D01*
X696456Y21259D01*
Y19685D01*
Y21259D01*
X696981Y21784D01*
X697506Y21259D01*
Y19685D01*
X701704Y22834D02*
Y19685D01*
X703803D01*
X705377Y21784D02*
X706426D01*
X706951Y21259D01*
Y19685D01*
X705377D01*
X704852Y20210D01*
X705377Y20735D01*
X706951D01*
X708001Y21784D02*
Y20210D01*
X708526Y19685D01*
X710100D01*
Y19160D01*
X709575Y18635D01*
X709050D01*
X710100Y19685D02*
Y21784D01*
X712724Y19685D02*
X711674D01*
X711149Y20210D01*
Y21259D01*
X711674Y21784D01*
X712724D01*
X713248Y21259D01*
Y20735D01*
X711149D01*
X714298Y21784D02*
Y19685D01*
Y20735D01*
X714823Y21259D01*
X715347Y21784D01*
X715872D01*
X604200Y19685D02*
Y22834D01*
X605774D01*
X606299Y22309D01*
Y21259D01*
X605774Y20735D01*
X604200D01*
X605250D02*
X606299Y19685D01*
X607873D02*
X608923D01*
X609448Y20210D01*
Y21259D01*
X608923Y21784D01*
X607873D01*
X607349Y21259D01*
Y20210D01*
X607873Y19685D01*
X610497Y21784D02*
Y20210D01*
X611022Y19685D01*
X612596D01*
Y21784D01*
X613646Y19685D02*
Y21784D01*
X615220D01*
X615745Y21259D01*
Y19685D01*
X618894Y22834D02*
Y19685D01*
X617319D01*
X616794Y20210D01*
Y21259D01*
X617319Y21784D01*
X618894D01*
X577435Y19685D02*
Y22834D01*
X579009D01*
X579534Y22309D01*
Y21259D01*
X579009Y20735D01*
X577435D01*
X580584Y22834D02*
X582683D01*
X581633D01*
Y19685D01*
X583732Y22834D02*
Y19685D01*
Y21259D01*
X585831D01*
Y22834D01*
Y19685D01*
X518528Y22309D02*
X519053Y22834D01*
X520103D01*
X520627Y22309D01*
Y20210D01*
X520103Y19685D01*
X519053D01*
X518528Y20210D01*
Y22309D01*
X522202Y19160D02*
X522726Y19685D01*
Y20210D01*
X522202D01*
Y19685D01*
X522726D01*
X522202Y19160D01*
X521677Y18635D01*
X524825Y22834D02*
X526925D01*
Y22309D01*
X524825Y20210D01*
Y19685D01*
X527974Y22309D02*
X528499Y22834D01*
X529548D01*
X530073Y22309D01*
Y20210D01*
X529548Y19685D01*
X528499D01*
X527974Y20210D01*
Y22309D01*
X531123D02*
X531647Y22834D01*
X532697D01*
X533222Y22309D01*
Y20210D01*
X532697Y19685D01*
X531647D01*
X531123Y20210D01*
Y22309D01*
X534271Y19685D02*
Y21784D01*
X534796D01*
X535321Y21259D01*
Y19685D01*
Y21259D01*
X535846Y21784D01*
X536370Y21259D01*
Y19685D01*
X537420D02*
Y21784D01*
X537945D01*
X538469Y21259D01*
Y19685D01*
Y21259D01*
X538994Y21784D01*
X539519Y21259D01*
Y19685D01*
X544767D02*
X543717Y20735D01*
Y21784D01*
X544767Y22834D01*
X548440Y19685D02*
X546341D01*
X548440Y21784D01*
Y22309D01*
X547915Y22834D01*
X546866D01*
X546341Y22309D01*
X549489Y22834D02*
X551588D01*
Y22309D01*
X549489Y20210D01*
Y19685D01*
X553163Y19160D02*
X553687Y19685D01*
Y20210D01*
X553163D01*
Y19685D01*
X553687D01*
X553163Y19160D01*
X552638Y18635D01*
X557886Y22834D02*
X555787D01*
Y21259D01*
X556836Y21784D01*
X557361D01*
X557886Y21259D01*
Y20210D01*
X557361Y19685D01*
X556311D01*
X555787Y20210D01*
X561034Y22834D02*
X559985Y22309D01*
X558935Y21259D01*
Y20210D01*
X559460Y19685D01*
X560509D01*
X561034Y20210D01*
Y20735D01*
X560509Y21259D01*
X558935D01*
X562084Y19685D02*
Y21784D01*
X562608D01*
X563133Y21259D01*
Y19685D01*
Y21259D01*
X563658Y21784D01*
X564183Y21259D01*
Y19685D01*
X565232D02*
X566282D01*
X565757D01*
Y21784D01*
X565232D01*
X567856Y19685D02*
X568906D01*
X568381D01*
Y22834D01*
X567856D01*
X570480Y19685D02*
X571529Y20735D01*
Y21784D01*
X570480Y22834D01*
X494781Y11811D02*
Y14960D01*
X493207Y13385D01*
X495305D01*
X499504Y14960D02*
X501603D01*
X500553D01*
Y11811D01*
X503177D02*
X504226D01*
X504751Y12336D01*
Y13385D01*
X504226Y13910D01*
X503177D01*
X502652Y13385D01*
Y12336D01*
X503177Y11811D01*
X506326Y14435D02*
Y13910D01*
X505801D01*
X506850D01*
X506326D01*
Y12336D01*
X506850Y11811D01*
X508949Y13910D02*
X509999D01*
X510524Y13385D01*
Y11811D01*
X508949D01*
X508425Y12336D01*
X508949Y12861D01*
X510524D01*
X511573Y11811D02*
X512623D01*
X512098D01*
Y14960D01*
X511573D01*
X494781Y19685D02*
Y22834D01*
X493207Y21259D01*
X495305D01*
D20*
X5921Y4921D02*
G03*
X5921Y4921I-1000J0D01*
G01*
Y38386D02*
G03*
X5921Y38386I-1000J0D01*
G01*
X47260D02*
G03*
X47260Y38386I-1000J0D01*
G01*
Y4921D02*
G03*
X47260Y4921I-1000J0D01*
G01*
D21*
X1057747Y27559D02*
Y31337D01*
X1059636D01*
X1060266Y30708D01*
Y29448D01*
X1059636Y28819D01*
X1057747D01*
X1059007D02*
X1060266Y27559D01*
X1062155D02*
X1063415D01*
X1064044Y28189D01*
Y29448D01*
X1063415Y30078D01*
X1062155D01*
X1061526Y29448D01*
Y28189D01*
X1062155Y27559D01*
X1065304Y30078D02*
Y28189D01*
X1065934Y27559D01*
X1067823D01*
Y30078D01*
X1069712Y30708D02*
Y30078D01*
X1069082D01*
X1070342D01*
X1069712D01*
Y28189D01*
X1070342Y27559D01*
X1074120D02*
X1072861D01*
X1072231Y28189D01*
Y29448D01*
X1072861Y30078D01*
X1074120D01*
X1074750Y29448D01*
Y28819D01*
X1072231D01*
X1078528Y31337D02*
Y27559D01*
X1076639D01*
X1076009Y28189D01*
Y29448D01*
X1076639Y30078D01*
X1078528D01*
X1083566Y27559D02*
Y31337D01*
X1085455D01*
X1086085Y30708D01*
Y29448D01*
X1085455Y28819D01*
X1083566D01*
X1087974Y30078D02*
X1089233D01*
X1089863Y29448D01*
Y27559D01*
X1087974D01*
X1087344Y28189D01*
X1087974Y28819D01*
X1089863D01*
X1091752Y30708D02*
Y30078D01*
X1091122D01*
X1092382D01*
X1091752D01*
Y28189D01*
X1092382Y27559D01*
X1094271Y31337D02*
Y27559D01*
Y29448D01*
X1094901Y30078D01*
X1096160D01*
X1096790Y29448D01*
Y27559D01*
X1101828Y31337D02*
Y27559D01*
X1104346D01*
X1107495D02*
X1106236D01*
X1105606Y28189D01*
Y29448D01*
X1106236Y30078D01*
X1107495D01*
X1108125Y29448D01*
Y28819D01*
X1105606D01*
X1109384Y27559D02*
Y30078D01*
X1111273D01*
X1111903Y29448D01*
Y27559D01*
X1114422Y26300D02*
X1115052D01*
X1115681Y26929D01*
Y30078D01*
X1113792D01*
X1113163Y29448D01*
Y28189D01*
X1113792Y27559D01*
X1115681D01*
X1117570Y30708D02*
Y30078D01*
X1116941D01*
X1118200D01*
X1117570D01*
Y28189D01*
X1118200Y27559D01*
X1120089Y31337D02*
Y27559D01*
Y29448D01*
X1120719Y30078D01*
X1121978D01*
X1122608Y29448D01*
Y27559D01*
X1012091Y31337D02*
Y27559D01*
Y29448D01*
X1014610D01*
Y31337D01*
Y27559D01*
X1016499D02*
X1017758D01*
X1018388Y28189D01*
Y29448D01*
X1017758Y30078D01*
X1016499D01*
X1015869Y29448D01*
Y28189D01*
X1016499Y27559D01*
X1019647D02*
X1020907D01*
X1020277D01*
Y31337D01*
X1019647D01*
X1024685Y27559D02*
X1023425D01*
X1022796Y28189D01*
Y29448D01*
X1023425Y30078D01*
X1024685D01*
X1025315Y29448D01*
Y28819D01*
X1022796D01*
X1030352Y31337D02*
Y27559D01*
X1032871D01*
X1036020D02*
X1034760D01*
X1034131Y28189D01*
Y29448D01*
X1034760Y30078D01*
X1036020D01*
X1036650Y29448D01*
Y28819D01*
X1034131D01*
X1037909Y27559D02*
Y30078D01*
X1039798D01*
X1040428Y29448D01*
Y27559D01*
X1042947Y26300D02*
X1043577D01*
X1044206Y26929D01*
Y30078D01*
X1042317D01*
X1041687Y29448D01*
Y28189D01*
X1042317Y27559D01*
X1044206D01*
X1046095Y30708D02*
Y30078D01*
X1045466D01*
X1046725D01*
X1046095D01*
Y28189D01*
X1046725Y27559D01*
X1048614Y31337D02*
Y27559D01*
Y29448D01*
X1049244Y30078D01*
X1050503D01*
X1051133Y29448D01*
Y27559D01*
X941875Y31337D02*
Y27559D01*
Y29448D01*
X944394D01*
Y31337D01*
Y27559D01*
X946283D02*
X947542D01*
X948172Y28189D01*
Y29448D01*
X947542Y30078D01*
X946283D01*
X945653Y29448D01*
Y28189D01*
X946283Y27559D01*
X949432D02*
X950691D01*
X950061D01*
Y31337D01*
X949432D01*
X954469Y27559D02*
X953210D01*
X952580Y28189D01*
Y29448D01*
X953210Y30078D01*
X954469D01*
X955099Y29448D01*
Y28819D01*
X952580D01*
X960137Y31337D02*
X962656D01*
X961396D01*
Y27559D01*
X964545D02*
X965804D01*
X966434Y28189D01*
Y29448D01*
X965804Y30078D01*
X964545D01*
X963915Y29448D01*
Y28189D01*
X964545Y27559D01*
X967693D02*
X968953D01*
X968323D01*
Y31337D01*
X967693D01*
X972731Y27559D02*
X971472D01*
X970842Y28189D01*
Y29448D01*
X971472Y30078D01*
X972731D01*
X973361Y29448D01*
Y28819D01*
X970842D01*
X974620Y30078D02*
Y27559D01*
Y28819D01*
X975250Y29448D01*
X975880Y30078D01*
X976509D01*
X979028D02*
X980288D01*
X980917Y29448D01*
Y27559D01*
X979028D01*
X978399Y28189D01*
X979028Y28819D01*
X980917D01*
X982177Y27559D02*
Y30078D01*
X984066D01*
X984696Y29448D01*
Y27559D01*
X988474Y30078D02*
X986585D01*
X985955Y29448D01*
Y28189D01*
X986585Y27559D01*
X988474D01*
X991623D02*
X990363D01*
X989734Y28189D01*
Y29448D01*
X990363Y30078D01*
X991623D01*
X992252Y29448D01*
Y28819D01*
X989734D01*
X998549Y27559D02*
X997290Y28819D01*
Y30078D01*
X998549Y31337D01*
X1000439Y29448D02*
X1002958D01*
X1004217Y27559D02*
X1005476Y28819D01*
Y30078D01*
X1004217Y31337D01*
X871659D02*
Y27559D01*
Y29448D01*
X874178D01*
Y31337D01*
Y27559D01*
X876067D02*
X877327D01*
X877956Y28189D01*
Y29448D01*
X877327Y30078D01*
X876067D01*
X875438Y29448D01*
Y28189D01*
X876067Y27559D01*
X879216D02*
X880475D01*
X879846D01*
Y31337D01*
X879216D01*
X884254Y27559D02*
X882994D01*
X882364Y28189D01*
Y29448D01*
X882994Y30078D01*
X884254D01*
X884883Y29448D01*
Y28819D01*
X882364D01*
X889921Y31337D02*
X892440D01*
X891180D01*
Y27559D01*
X894329D02*
X895588D01*
X896218Y28189D01*
Y29448D01*
X895588Y30078D01*
X894329D01*
X893699Y29448D01*
Y28189D01*
X894329Y27559D01*
X897478D02*
X898737D01*
X898107D01*
Y31337D01*
X897478D01*
X902515Y27559D02*
X901256D01*
X900626Y28189D01*
Y29448D01*
X901256Y30078D01*
X902515D01*
X903145Y29448D01*
Y28819D01*
X900626D01*
X904405Y30078D02*
Y27559D01*
Y28819D01*
X905034Y29448D01*
X905664Y30078D01*
X906294D01*
X908813D02*
X910072D01*
X910702Y29448D01*
Y27559D01*
X908813D01*
X908183Y28189D01*
X908813Y28819D01*
X910702D01*
X911961Y27559D02*
Y30078D01*
X913850D01*
X914480Y29448D01*
Y27559D01*
X918258Y30078D02*
X916369D01*
X915740Y29448D01*
Y28189D01*
X916369Y27559D01*
X918258D01*
X921407D02*
X920148D01*
X919518Y28189D01*
Y29448D01*
X920148Y30078D01*
X921407D01*
X922037Y29448D01*
Y28819D01*
X919518D01*
X928334Y27559D02*
X927074Y28819D01*
Y30078D01*
X928334Y31337D01*
X930223Y29448D02*
X932742D01*
X931482Y30708D02*
Y28189D01*
X934001Y27559D02*
X935261Y28819D01*
Y30078D01*
X934001Y31337D01*
X826632D02*
Y27559D01*
X828521D01*
X829151Y28189D01*
Y30708D01*
X828521Y31337D01*
X826632D01*
X832300Y27559D02*
X831040D01*
X830410Y28189D01*
Y29448D01*
X831040Y30078D01*
X832300D01*
X832929Y29448D01*
Y28819D01*
X830410D01*
X834189Y27559D02*
X836078D01*
X836708Y28189D01*
X836078Y28819D01*
X834818D01*
X834189Y29448D01*
X834818Y30078D01*
X836708D01*
X840486D02*
X838597D01*
X837967Y29448D01*
Y28189D01*
X838597Y27559D01*
X840486D01*
X841745Y30078D02*
Y27559D01*
Y28819D01*
X842375Y29448D01*
X843005Y30078D01*
X843635D01*
X845524Y27559D02*
X846783D01*
X846154D01*
Y30078D01*
X845524D01*
X848672Y26300D02*
Y30078D01*
X850562D01*
X851191Y29448D01*
Y28189D01*
X850562Y27559D01*
X848672D01*
X853080Y30708D02*
Y30078D01*
X852451D01*
X853710D01*
X853080D01*
Y28189D01*
X853710Y27559D01*
X855599D02*
X856859D01*
X856229D01*
Y30078D01*
X855599D01*
X859377Y27559D02*
X860637D01*
X861267Y28189D01*
Y29448D01*
X860637Y30078D01*
X859377D01*
X858748Y29448D01*
Y28189D01*
X859377Y27559D01*
X862526D02*
Y30078D01*
X864415D01*
X865045Y29448D01*
Y27559D01*
X792310Y31337D02*
X794829D01*
X793570D01*
Y27559D01*
X797978D02*
X796719D01*
X796089Y28189D01*
Y29448D01*
X796719Y30078D01*
X797978D01*
X798608Y29448D01*
Y28819D01*
X796089D01*
X799867Y27559D02*
Y30078D01*
X800497D01*
X801126Y29448D01*
Y27559D01*
Y29448D01*
X801756Y30078D01*
X802386Y29448D01*
Y27559D01*
X803645Y26300D02*
Y30078D01*
X805534D01*
X806164Y29448D01*
Y28189D01*
X805534Y27559D01*
X803645D01*
X807424D02*
X808683D01*
X808053D01*
Y31337D01*
X807424D01*
X811202Y30078D02*
X812461D01*
X813091Y29448D01*
Y27559D01*
X811202D01*
X810572Y28189D01*
X811202Y28819D01*
X813091D01*
X814980Y30708D02*
Y30078D01*
X814351D01*
X815610D01*
X814980D01*
Y28189D01*
X815610Y27559D01*
X819388D02*
X818129D01*
X817499Y28189D01*
Y29448D01*
X818129Y30078D01*
X819388D01*
X820018Y29448D01*
Y28819D01*
X817499D01*
X752951Y27559D02*
Y31337D01*
X754840D01*
X755470Y30708D01*
Y29448D01*
X754840Y28819D01*
X752951D01*
X757359Y30078D02*
X758618D01*
X759248Y29448D01*
Y27559D01*
X757359D01*
X756729Y28189D01*
X757359Y28819D01*
X759248D01*
X763026Y31337D02*
Y27559D01*
X761137D01*
X760507Y28189D01*
Y29448D01*
X761137Y30078D01*
X763026D01*
X770583Y30708D02*
X769953Y31337D01*
X768694D01*
X768064Y30708D01*
Y30078D01*
X768694Y29448D01*
X769953D01*
X770583Y28819D01*
Y28189D01*
X769953Y27559D01*
X768694D01*
X768064Y28189D01*
X771842Y31337D02*
Y27559D01*
Y29448D01*
X772472Y30078D01*
X773732D01*
X774361Y29448D01*
Y27559D01*
X776251Y30078D02*
X777510D01*
X778140Y29448D01*
Y27559D01*
X776251D01*
X775621Y28189D01*
X776251Y28819D01*
X778140D01*
X779399Y26300D02*
Y30078D01*
X781288D01*
X781918Y29448D01*
Y28189D01*
X781288Y27559D01*
X779399D01*
X785067D02*
X783807D01*
X783177Y28189D01*
Y29448D01*
X783807Y30078D01*
X785067D01*
X785696Y29448D01*
Y28819D01*
X783177D01*
X721778Y31337D02*
Y28819D01*
X723037Y27559D01*
X724297Y28819D01*
Y31337D01*
X725556Y27559D02*
X726816D01*
X726186D01*
Y30078D01*
X725556D01*
X729334D02*
X730594D01*
X731223Y29448D01*
Y27559D01*
X729334D01*
X728705Y28189D01*
X729334Y28819D01*
X731223D01*
X732483Y27559D02*
X735002Y30078D01*
X736261Y27559D02*
Y31337D01*
X738150D01*
X738780Y30708D01*
Y29448D01*
X738150Y28819D01*
X736261D01*
X740669Y30078D02*
X741929D01*
X742558Y29448D01*
Y27559D01*
X740669D01*
X740040Y28189D01*
X740669Y28819D01*
X742558D01*
X746337Y31337D02*
Y27559D01*
X744448D01*
X743818Y28189D01*
Y29448D01*
X744448Y30078D01*
X746337D01*
X642930Y31337D02*
Y27559D01*
X644819D01*
X645449Y28189D01*
Y30708D01*
X644819Y31337D01*
X642930D01*
X646708Y30078D02*
Y27559D01*
Y28819D01*
X647338Y29448D01*
X647968Y30078D01*
X648597D01*
X650487Y27559D02*
X651746D01*
X651116D01*
Y30078D01*
X650487D01*
X653635Y27559D02*
X654895D01*
X654265D01*
Y31337D01*
X653635D01*
X656784Y27559D02*
X658043D01*
X657413D01*
Y31337D01*
X656784D01*
X663711D02*
Y27559D01*
X666229D01*
X668119Y30078D02*
X669378D01*
X670008Y29448D01*
Y27559D01*
X668119D01*
X667489Y28189D01*
X668119Y28819D01*
X670008D01*
X671267Y30078D02*
Y28189D01*
X671897Y27559D01*
X673786D01*
Y26929D01*
X673156Y26300D01*
X672527D01*
X673786Y27559D02*
Y30078D01*
X676935Y27559D02*
X675675D01*
X675046Y28189D01*
Y29448D01*
X675675Y30078D01*
X676935D01*
X677564Y29448D01*
Y28819D01*
X675046D01*
X678824Y30078D02*
Y27559D01*
Y28819D01*
X679454Y29448D01*
X680083Y30078D01*
X680713D01*
X686380Y27559D02*
Y31337D01*
X688270D01*
X688899Y30708D01*
Y29448D01*
X688270Y28819D01*
X686380D01*
X690789Y30078D02*
X692048D01*
X692678Y29448D01*
Y27559D01*
X690789D01*
X690159Y28189D01*
X690789Y28819D01*
X692678D01*
X693937Y27559D02*
X695197D01*
X694567D01*
Y30078D01*
X693937D01*
X697086D02*
Y27559D01*
Y28819D01*
X697715Y29448D01*
X698345Y30078D01*
X698975D01*
X604200Y31337D02*
Y27559D01*
Y29448D01*
X606719D01*
Y31337D01*
Y27559D01*
X608608D02*
X609868D01*
X610497Y28189D01*
Y29448D01*
X609868Y30078D01*
X608608D01*
X607978Y29448D01*
Y28189D01*
X608608Y27559D01*
X611757D02*
X613016D01*
X612387D01*
Y31337D01*
X611757D01*
X616794Y27559D02*
X615535D01*
X614905Y28189D01*
Y29448D01*
X615535Y30078D01*
X616794D01*
X617424Y29448D01*
Y28819D01*
X614905D01*
X622462Y31337D02*
X624981D01*
X623721D01*
Y27559D01*
X626240Y30078D02*
Y28189D01*
X626870Y27559D01*
X628759D01*
Y26929D01*
X628129Y26300D01*
X627500D01*
X628759Y27559D02*
Y30078D01*
X630019Y26300D02*
Y30078D01*
X631908D01*
X632538Y29448D01*
Y28189D01*
X631908Y27559D01*
X630019D01*
X635686D02*
X634427D01*
X633797Y28189D01*
Y29448D01*
X634427Y30078D01*
X635686D01*
X636316Y29448D01*
Y28819D01*
X633797D01*
X577435Y27559D02*
Y31337D01*
X579324D01*
X579954Y30708D01*
Y29448D01*
X579324Y28819D01*
X577435D01*
X581213Y27559D02*
X582473D01*
X581843D01*
Y31337D01*
X581213D01*
X584992Y30078D02*
X586251D01*
X586881Y29448D01*
Y27559D01*
X584992D01*
X584362Y28189D01*
X584992Y28819D01*
X586881D01*
X588770Y30708D02*
Y30078D01*
X588140D01*
X589400D01*
X588770D01*
Y28189D01*
X589400Y27559D01*
X593178D02*
X591919D01*
X591289Y28189D01*
Y29448D01*
X591919Y30078D01*
X593178D01*
X593808Y29448D01*
Y28819D01*
X591289D01*
X597586Y31337D02*
Y27559D01*
X595697D01*
X595067Y28189D01*
Y29448D01*
X595697Y30078D01*
X597586D01*
X518528Y31337D02*
Y27559D01*
Y29448D01*
X521047D01*
Y31337D01*
Y27559D01*
X522936D02*
X524196D01*
X524825Y28189D01*
Y29448D01*
X524196Y30078D01*
X522936D01*
X522306Y29448D01*
Y28189D01*
X522936Y27559D01*
X526085D02*
X527344D01*
X526715D01*
Y31337D01*
X526085D01*
X531123Y27559D02*
X529863D01*
X529233Y28189D01*
Y29448D01*
X529863Y30078D01*
X531123D01*
X531752Y29448D01*
Y28819D01*
X529233D01*
X539309Y30708D02*
X538679Y31337D01*
X537420D01*
X536790Y30708D01*
Y30078D01*
X537420Y29448D01*
X538679D01*
X539309Y28819D01*
Y28189D01*
X538679Y27559D01*
X537420D01*
X536790Y28189D01*
X540568Y27559D02*
X541828D01*
X541198D01*
Y30078D01*
X540568D01*
X543717D02*
X546236D01*
X543717Y27559D01*
X546236D01*
X549384D02*
X548125D01*
X547495Y28189D01*
Y29448D01*
X548125Y30078D01*
X549384D01*
X550014Y29448D01*
Y28819D01*
X547495D01*
X495725Y30708D02*
X495096Y31337D01*
X493836D01*
X493207Y30708D01*
Y28189D01*
X493836Y27559D01*
X495096D01*
X495725Y28189D01*
X497614Y27559D02*
X498874D01*
X499504Y28189D01*
Y29448D01*
X498874Y30078D01*
X497614D01*
X496985Y29448D01*
Y28189D01*
X497614Y27559D01*
X500763Y30078D02*
Y28189D01*
X501393Y27559D01*
X503282D01*
Y30078D01*
X504541Y27559D02*
Y30078D01*
X506430D01*
X507060Y29448D01*
Y27559D01*
X508949Y30708D02*
Y30078D01*
X508320D01*
X509579D01*
X508949D01*
Y28189D01*
X509579Y27559D01*
X468960Y30708D02*
X468330Y31337D01*
X467071D01*
X466441Y30708D01*
Y30078D01*
X467071Y29448D01*
X468330D01*
X468960Y28819D01*
Y28189D01*
X468330Y27559D01*
X467071D01*
X466441Y28189D01*
X470220Y30078D02*
Y28189D01*
X470849Y27559D01*
X472739D01*
Y26929D01*
X472109Y26300D01*
X471479D01*
X472739Y27559D02*
Y30078D01*
X473998Y27559D02*
Y30078D01*
X474628D01*
X475257Y29448D01*
Y27559D01*
Y29448D01*
X475887Y30078D01*
X476517Y29448D01*
Y27559D01*
X477776Y31337D02*
Y27559D01*
X479665D01*
X480295Y28189D01*
Y28819D01*
Y29448D01*
X479665Y30078D01*
X477776D01*
X482184Y27559D02*
X483444D01*
X484073Y28189D01*
Y29448D01*
X483444Y30078D01*
X482184D01*
X481555Y29448D01*
Y28189D01*
X482184Y27559D01*
X485333D02*
X486592D01*
X485963D01*
Y31337D01*
X485333D01*
M02*
